# Blender 3.3.1
# www.blender.org
mtllib 005.mtl
o Hammer_cell.005
v 0.356030 -1.071305 1.774708
v 0.279879 -0.996463 1.878277
v 0.843502 -0.838454 2.299227
v 0.606386 -0.832409 2.299230
v 0.332644 -0.913489 2.285199
v 0.326475 -0.849940 2.299231
v 0.613538 -0.864942 2.296737
v 0.617887 -0.894495 2.291474
v 0.251520 -0.907934 2.287364
v 0.241690 -0.851219 2.299421
v 0.846254 -0.901025 2.289368
v 0.845172 -0.867424 2.296732
v 1.094324 -0.840770 2.299227
v 0.956027 -0.839990 2.299227
v 0.838905 -0.748824 2.301587
v 0.841033 -0.798616 2.300786
v 0.595346 -0.787001 2.300788
v 0.583011 -0.730639 2.301587
v 0.559781 -0.913479 2.285191
v 0.490045 -0.913484 2.285194
v 0.413138 -0.913487 2.285196
v 0.547626 -0.835096 2.299230
v 0.479384 -0.839559 2.299231
v 0.404666 -0.844830 2.299231
v 0.330041 -0.872363 2.296740
v 0.332210 -0.895759 2.291481
v 0.320860 -0.821093 2.300788
v 0.767431 -0.913424 2.285177
v 0.655113 -0.832149 2.299229
v 0.703066 -0.833695 2.299229
v 0.761958 -0.836109 2.299228
v 0.955022 -0.801550 2.300787
v 0.412542 -0.895396 2.291480
v 0.489296 -0.895020 2.291479
v 0.558926 -0.894698 2.291476
v 0.409564 -0.870204 2.296739
v 0.485548 -0.867976 2.296739
v 0.554653 -0.866086 2.296738
v 0.957159 -0.894923 2.291464
v 1.094640 -0.887905 2.293424
v 0.956731 -0.868058 2.296732
v 1.094533 -0.868375 2.296732
v 0.661443 -0.864817 2.296735
v 0.665293 -0.894459 2.291472
v 0.707925 -0.865452 2.296735
v 0.710880 -0.894545 2.291470
v 0.765122 -0.866452 2.296733
v 0.767046 -0.894691 2.291468
v 0.645417 -0.786470 2.300787
v 0.695687 -0.789494 2.300787
v 0.757202 -0.794138 2.300786
v 0.635033 -0.729434 2.301587
v 0.752635 -0.741896 2.301587
v 0.250399 -0.881922 2.295089
v 0.446401 -0.711424 2.301882
v 0.523982 -0.740840 2.301587
v 0.458113 -0.756601 2.301587
v 0.387534 -0.773448 2.301587
v 0.536694 -0.792376 2.300788
v 0.469729 -0.801171 2.300788
v 0.396964 -0.811341 2.300788
v 0.755611 -1.189785 1.993026
v 0.725329 -1.194947 1.973676
v 0.634813 -1.199208 1.918055
v 0.088927 -1.180762 2.011491
v 0.206087 -1.199873 1.884868
v 0.173926 -1.199209 1.918099
v 0.121102 -1.194952 1.973750
v 0.032006 -1.120607 2.090007
v 0.257026 -1.200285 1.832542
v -0.000884 -1.079096 2.137789
v 0.514250 -0.683097 2.301883
v 0.486987 -0.683447 2.301891
v 0.629877 -0.681766 2.301801
v 1.149560 -0.901103 2.289368
v 1.139221 -0.930310 2.277247
v 1.135978 -0.803194 2.300786
v 0.981491 -1.063771 2.154959
v 1.103505 -0.699726 2.301882
v 0.937691 -1.092560 2.122660
v 1.057012 -1.010114 2.211455
v 1.109657 -0.966604 2.252063
v 0.338021 -0.783844 2.301587
v 0.382433 -0.753886 2.301742
v 0.155387 -0.913493 2.285203
v 0.170399 -0.901494 2.289823
v 0.185217 -0.890038 2.293439
v 0.128262 -0.936278 2.274157
v 0.142037 -0.924438 2.280421
v 0.096671 -0.966576 2.252113
v 0.011423 -1.063766 2.154980
v 0.034491 -1.035980 2.184891
v 0.056768 -1.010085 2.211489
v 0.103924 -1.189794 1.993099
v 0.055276 -1.147571 2.057052
v 0.893007 -1.120593 2.089978
v 0.783058 -1.180748 2.011428
v 0.072968 -1.166416 2.032632
v 1.125676 -0.950001 2.265094
v 0.113370 -0.949995 2.265144
v 0.276448 -0.825617 2.300788
v 0.205842 -0.874802 2.296741
v 0.570156 -1.199995 1.878771
v 0.493838 -1.200285 1.832529
v 0.010543 -1.094022 2.120986
v 0.575558 -0.682416 2.301807
v 1.150891 -0.868414 2.296732
v 1.145884 -0.840862 2.299227
v 1.121600 -0.755807 2.301587
v 0.316060 -0.798726 2.301343
v 0.686564 -1.197674 1.949677
v 1.021678 -1.035998 2.184865
v 0.077684 -0.986733 2.234116
v 0.344969 -1.200327 1.742431
v 0.742019 -0.680358 2.301882
v 0.813312 -1.166399 2.032581
v 0.143605 -1.197677 1.949741
v 1.095700 -0.676091 2.301898
v 0.847351 -1.147635 2.056907
v 1.086627 -0.986767 2.234072
vn 0.5104 0.1673 -0.8435
vn -0.6979 0.2257 -0.6798
vn -0.6965 0.2298 -0.6798
vn -0.6962 0.2318 -0.6794
vn -0.0107 0.8067 -0.5909
vn -0.0097 0.8066 -0.5910
vn 0.5105 0.1691 -0.8431
vn -0.5288 0.7856 -0.3213
vn -0.0000 -0.9954 0.0962
vn -0.0000 -0.9992 0.0411
vn -0.0000 -0.9991 0.0435
vn -0.0000 -0.9948 0.1016
vn -0.0000 -0.7498 0.6617
vn -0.0000 -0.7362 0.6767
vn -0.0000 -0.7420 0.6704
vn -0.0000 -0.7467 0.6651
vn -0.0000 -0.7510 0.6603
vn -0.0000 -0.6314 0.7754
vn -0.0000 -0.6521 0.7582
vn -0.0000 -0.6867 0.7269
vn -0.0000 -0.6740 0.7387
vn -0.0000 -0.7207 0.6933
vn -0.0000 -0.7274 0.6862
vn 0.0001 -0.9133 0.4073
vn 0.0001 -0.9205 0.3908
vn -0.0000 -0.9755 0.2198
vn -0.0000 -0.9727 0.2321
vn -0.0002 -0.0033 1.0000
vn -0.0000 -0.0007 1.0000
vn -0.0003 -0.0048 1.0000
vn 0.0011 -0.3428 0.9394
vn 0.0020 -0.3429 0.9394
vn 0.0006 -0.3867 0.9222
vn -0.0004 -0.0284 0.9996
vn -0.0009 -0.0276 0.9996
vn -0.0012 -0.0624 0.9980
vn -0.0006 -0.0644 0.9979
vn 0.0066 -0.1168 0.9931
vn 0.0032 -0.0846 0.9964
vn 0.0037 -0.0379 0.9993
vn 0.0037 -0.0507 0.9987
vn 0.0032 -0.0228 0.9997
vn -0.0000 -0.7783 0.6279
vn -0.0000 -0.7801 0.6257
vn 0.0001 -0.8037 0.5950
vn 0.0001 -0.8001 0.5999
vn 0.0001 -0.8435 0.5372
vn 0.0001 -0.8507 0.5256
vn -0.0000 -0.7642 0.6450
vn -0.0000 -0.7626 0.6468
vn 0.0004 -0.3557 0.9346
vn 0.0005 -0.2529 0.9675
vn -0.0007 -0.2479 0.9688
vn -0.0002 -0.2464 0.9692
vn 0.0006 -0.2466 0.9691
vn 0.0015 -0.2501 0.9682
vn 0.0006 -0.3560 0.9345
vn 0.0002 -0.5189 0.8549
vn 0.0007 -0.4455 0.8953
vn 0.0002 -0.4504 0.8928
vn -0.0003 -0.0118 0.9999
vn -0.0005 -0.0105 0.9999
vn -0.0003 -0.0309 0.9995
vn 0.0015 -0.0053 1.0000
vn 0.0013 -0.0045 1.0000
vn 0.0003 -0.0007 1.0000
vn -0.0001 -1.0000 0.0060
vn -0.0001 -1.0000 0.0055
vn -0.0000 -1.0000 0.0005
vn 0.0021 -0.2664 0.9639
vn 0.0020 -0.2572 0.9664
vn 0.0037 -0.1392 0.9903
vn 0.0040 -0.1508 0.9886
vn 0.0028 -0.1309 0.9914
vn 0.0012 -0.3633 0.9317
vn 0.0008 -0.3611 0.9325
vn 0.0025 -0.2748 0.9615
vn 0.0008 -0.3583 0.9336
vn 0.0013 -0.1266 0.9920
vn 0.0014 -0.0554 0.9985
vn 0.0031 -0.0581 0.9983
vn 0.0041 -0.0635 0.9980
vn 0.0046 -0.0714 0.9974
vn 0.0035 -0.1635 0.9865
vn -0.0003 -0.0096 1.0000
vn -0.0007 -0.0101 0.9999
vn 0.0007 -0.0050 1.0000
vn 0.0008 -0.0094 1.0000
vn -0.0017 -0.2585 0.9660
vn 0.0033 -0.2363 0.9717
vn 0.0022 -0.1406 0.9901
vn -0.0020 -0.1410 0.9900
vn 0.0062 -0.1482 0.9889
vn 0.0061 -0.2946 0.9556
vn 0.0002 -0.3002 0.9539
vn -0.0002 -0.0691 0.9976
vn -0.0003 -0.0653 0.9979
vn -0.0007 -0.1443 0.9895
vn 0.0002 -0.5611 0.8278
vn 0.0001 -0.5959 0.8030
vn -0.0006 -0.1262 0.9920
vn -0.0018 -0.1289 0.9917
vn -0.0006 -0.1364 0.9907
vn -0.0007 -0.0554 0.9985
vn -0.0019 -0.0598 0.9982
vn -0.0020 -0.0572 0.9984
vn -0.0006 -0.0243 0.9997
vn 0.0012 -0.0241 0.9997
vn -0.0016 -0.0252 0.9997
vn -0.0015 -0.0264 0.9997
vn 0.0019 -0.0101 0.9999
vn 0.0024 -0.0115 0.9999
vn -0.0000 -0.9999 0.0168
vn -0.0000 -0.9998 0.0177
vn 0.0038 -0.2109 0.9775
vn 0.0075 -0.2796 0.9601
vn 0.0051 -0.1953 0.9807
vn 0.0017 -0.0069 1.0000
vn 0.0026 -0.0136 0.9999
vn 0.0036 -0.0285 0.9996
vn 0.0027 -0.0255 0.9997
vn 0.0041 -0.0329 0.9994
vn 0.0034 -0.0201 0.9998
vn -0.0000 -0.7100 0.7043
vn -0.0000 -0.7013 0.7129
vt 0.000000 0.000000
vt 1.000000 0.000000
vt 1.000000 1.000000
vt 0.000000 0.000000
vt 1.000000 0.000000
vt 0.087694 0.543057
vt 0.122410 0.542267
vt 0.162488 0.554654
vt 0.163421 0.544957
vt 0.121350 0.547094
vt 0.120599 0.552717
vt 0.120804 0.550410
vt 0.174372 0.554692
vt 0.174380 0.553815
vt 0.174388 0.552939
vt 0.504478 0.472609
vt 0.175106 0.545033
vt 0.175019 0.545599
vt 0.175967 0.545637
vt 0.087238 0.554414
vt 0.087244 0.553518
vt 0.087303 0.550412
vt 0.087438 0.547363
vt 0.050976 0.543634
vt 0.071222 0.543279
vt 0.088404 0.529875
vt 0.088072 0.537184
vt 0.124043 0.535579
vt 0.125869 0.527309
vt 0.129205 0.554549
vt 0.139423 0.554581
vt 0.150692 0.554617
vt 0.131017 0.542685
vt 0.141015 0.543369
vt 0.151963 0.544174
vt 0.162889 0.548307
vt 0.162508 0.552891
vt 0.162560 0.551877
vt 0.162613 0.550864
vt 0.164254 0.540692
vt 0.098795 0.554449
vt 0.115273 0.542208
vt 0.108252 0.542415
vt 0.099631 0.542746
vt 0.071386 0.537601
vt 0.150717 0.552842
vt 0.150859 0.550733
vt 0.139630 0.550601
vt 0.139453 0.552795
vt 0.129239 0.552752
vt 0.129440 0.550487
vt 0.151236 0.547955
vt 0.140102 0.547595
vt 0.129977 0.547287
vt 0.071046 0.550402
vt 0.071021 0.552579
vt 0.071034 0.551490
vt 0.050911 0.550432
vt 0.071107 0.547441
vt 0.050934 0.547644
vt 0.114334 0.547055
vt 0.113667 0.552693
vt 0.113849 0.550382
vt 0.107528 0.547129
vt 0.107012 0.552674
vt 0.107154 0.550387
vt 0.099155 0.547253
vt 0.098814 0.552653
vt 0.098908 0.550405
vt 0.116710 0.535481
vt 0.109349 0.535905
vt 0.100344 0.536561
vt 0.118251 0.527112
vt 0.101032 0.528893
vt 0.174463 0.550977
vt 0.174559 0.549788
vt 0.174654 0.548600
vt 0.258377 0.082132
vt 0.145887 0.524546
vt 0.146192 0.524657
vt 0.134513 0.528828
vt 0.144159 0.531164
vt 0.154497 0.533662
vt 0.132634 0.536391
vt 0.142443 0.537708
vt 0.153103 0.539230
vt 0.665095 0.302391
vt 0.100318 0.614366
vt 0.694150 0.357860
vt 0.104739 0.617414
vt 0.718234 0.461747
vt 0.117963 0.625734
vt 0.879385 0.414662
vt 0.198019 0.611627
vt 1.000000 0.664274
vt 0.677943 0.667297
vt 0.179902 0.631752
vt 0.180769 0.630862
vt 0.947999 0.608480
vt 0.185502 0.625992
vt 0.862341 0.493787
vt 0.193279 0.617743
vt 0.258614 0.150108
vt 0.206416 0.597031
vt 0.796114 0.689840
vt 0.173272 0.638514
vt 0.215332 0.000000
vt 1.000000 0.784668
vt 0.211269 0.587753
vt 1.000000 0.173871
vt 0.181228 0.173882
vt 0.135954 0.520370
vt 0.135190 0.520358
vt 0.792455 0.000000
vt 0.207545 0.000000
vt 0.139947 0.520433
vt 0.344216 0.174194
vt 0.119022 0.520130
vt 0.522507 0.194493
vt 0.042530 0.550476
vt 0.043284 0.554285
vt 0.043037 0.553401
vt 0.042660 0.551496
vt 0.572098 0.213475
vt 0.044374 0.556997
vt 0.043906 0.556036
vt 0.044842 0.557958
vt 0.368670 0.176579
vt 0.044897 0.538143
vt 0.827104 0.404912
vt 0.067370 0.583857
vt 0.210756 0.174819
vt 0.049704 0.522770
vt 0.884625 0.455471
vt 0.073757 0.590239
vt 0.721469 0.316473
vt 0.056359 0.572366
vt 0.638018 0.252903
vt 0.048685 0.563373
vt 0.385344 0.286459
vt 0.161750 0.535206
vt 0.332254 0.201115
vt 0.155249 0.530796
vt 0.623957 0.622591
vt 0.188469 0.554736
vt 0.600126 0.598043
vt 0.186451 0.552984
vt 0.186271 0.552983
vt 0.577819 0.572922
vt 0.184109 0.551052
vt 0.670493 0.664409
vt 0.192431 0.558492
vt 0.646017 0.643787
vt 0.190419 0.556499
vt 0.736518 0.704473
vt 0.197043 0.564089
vt 0.963193 0.777156
vt 0.209476 0.584366
vt 0.897181 0.760901
vt 0.206113 0.578362
vt 0.836381 0.743052
vt 0.202865 0.572895
vt 0.857010 0.453474
vt 0.195809 0.614719
vt 1.000000 0.321900
vt 0.317922 0.311772
vt 0.202982 0.603287
vt 0.203214 0.602881
vt 0.941158 0.506630
vt 0.080273 0.596586
vt 0.614279 0.227964
vt 0.096313 0.611252
vt 0.931452 0.369577
vt 0.200372 0.607832
vt 0.607222 0.232502
vt 0.046350 0.560275
vt 0.699841 0.684592
vt 0.194605 0.560945
vt 0.459702 0.404228
vt 0.170762 0.541374
vt 0.549003 0.536328
vt 0.181093 0.548721
vt 0.722759 0.523447
vt 0.127412 0.631548
vt 0.724509 0.592732
vt 0.138567 0.638376
vt 0.206578 0.000000
vt 0.207245 0.188064
vt 0.209756 0.590719
vt 0.209583 0.591046
vt 0.267713 0.174099
vt 0.126975 0.520246
vt 0.469638 0.182953
vt 0.042682 0.547830
vt 0.426651 0.179036
vt 0.043427 0.543922
vt 0.296219 0.175305
vt 0.047026 0.530979
vt 0.411811 0.328501
vt 0.164964 0.537402
vt 0.709536 0.407354
vt 0.110401 0.621031
vt 0.772145 0.358096
vt 0.061511 0.577844
vt 0.782319 0.724083
vt 0.199813 0.568095
vt 0.724976 0.724976
vt 1.000000 0.724976
vt 0.160329 0.651671
vt 0.501975 0.174246
vt 0.102609 0.519880
vt 0.533607 0.121600
vt 0.091899 0.607435
vt 0.893394 0.543375
vt 0.189965 0.621331
vt 1.000000 0.174784
vt 0.174784 0.174784
vt 0.050858 0.519314
vt 0.438025 0.000000
vt 0.996348 0.558398
vt 0.086932 0.602887
vt 0.086467 0.602460
vt 0.676339 0.281067
vt 0.052042 0.567487
s 0
usemtl Hammer.004
f 114/207/1 1/1/1 119/219/1 116/212/1 97/171/1 62/87/1 63/89/1 111/201/1 64/91/1 103/183/1 104/185/1
f 98/173/2 95/165/2 66/95/2 67/99/2 117/214/2 68/101/2 94/163/2 65/93/2
f 105/187/3 1/2/3 114/208/3 70/105/3 66/96/3 95/166/3 69/103/3
f 105/188/4 71/107/4 2/5/4 1/3/4
f 1/3/5 2/4/5 73/114/5 72/110/5
f 115/210/6 118/216/6 1/3/6 72/111/6 106/191/6 74/117/6
f 75/119/7 76/124/7 99/175/7 82/138/7 120/223/7 81/136/7 112/203/7 78/130/7 80/134/7 96/169/7 119/220/7 1/3/7 118/217/7 79/132/7 109/197/7 77/128/7 108/195/7 107/193/7
f 10/16/8 101/179/8 110/199/8 83/140/8 84/142/8 55/78/8 73/115/8 2/5/8 71/108/8 91/157/8 92/159/8 93/161/8 113/205/8 90/155/8 100/177/8 88/151/8 89/153/8 85/144/8 86/146/8 87/149/8 102/181/8
s 1
f 117/215/9 67/100/10 64/92/11 111/202/12
f 80/135/13 78/131/14 91/158/15 71/109/16 105/189/17
f 82/139/18 90/156/19 113/206/20 120/224/21
f 112/204/22 92/160/23 91/158/15 78/131/14
f 62/88/24 94/164/25 68/102/26 63/90/27
f 79/133/28 118/218/29 115/211/30
f 9/14/31 86/147/32 85/145/33
f 32/45/34 16/27/35 3/6/36 14/25/37
f 10/17/38 6/9/39 27/40/40 101/180/41
f 27/40/40 110/200/42 101/180/41
f 119/221/43 95/167/44 98/174/45 116/213/46
f 62/88/24 97/172/47 65/94/48 94/164/25
f 105/190/17 69/104/49 96/170/50 80/135/13
f 28/41/51 48/68/52 46/65/53 44/62/54 8/11/55 35/50/56 19/30/57
f 88/152/58 76/125/59 89/154/60
f 109/198/61 15/26/62 16/27/35 32/45/34 77/129/63
f 55/79/64 72/112/65 73/116/66
f 69/104/49 95/168/44 119/222/43 96/170/50
f 116/213/46 98/174/45 65/94/48 97/172/47
f 104/186/67 70/106/68 114/209/69
f 33/47/70 34/48/71 37/53/72 36/52/73
f 34/48/71 35/51/56 38/54/74 37/53/72
f 5/8/75 21/32/76 33/46/70 26/37/77
f 21/32/76 20/31/78 34/49/71 33/46/70
f 20/31/78 19/30/57 35/50/56 34/49/71
f 35/51/56 8/12/55 7/10/79 38/54/74
f 38/54/74 7/10/79 4/7/80 22/33/81
f 37/53/72 38/54/74 22/33/81 23/34/82
f 36/52/73 37/53/72 23/34/82 24/35/83
f 25/36/84 36/52/73 24/35/83 6/9/39
f 26/39/77 33/47/70 36/52/73 25/36/84
f 111/202/12 63/90/27 68/102/26 117/215/9
f 52/73/85 53/74/86 15/26/62 109/198/61 79/133/28 115/211/30 74/118/30 106/192/87 18/29/88
f 39/55/89 40/58/90 42/60/91 41/59/92
f 107/194/93 42/60/91 40/58/90 75/120/94
f 76/126/59 75/121/94 11/20/95 28/41/51 19/30/57 20/31/78 21/32/76 5/8/75 9/13/31 85/145/33 89/154/60
f 42/60/91 107/194/93 108/196/96 13/24/97
f 41/59/92 42/60/91 13/24/97 14/25/37
f 12/23/98 41/59/92 14/25/37 3/6/36
f 11/22/95 39/55/89 41/59/92 12/23/98
f 82/139/18 99/176/99 100/178/100 90/156/19
f 43/61/101 44/63/54 46/66/53 45/64/102
f 45/64/102 46/66/53 48/69/52 47/67/103
f 4/7/80 7/10/79 43/61/101 29/42/104
f 7/10/79 8/12/55 44/63/54 43/61/101
f 11/21/95 75/122/94 39/56/89
f 48/68/52 28/41/51 11/21/95
f 47/67/103 48/69/52 11/22/95 12/23/98
f 31/44/105 47/67/103 12/23/98 3/6/36
f 30/43/106 45/64/102 47/67/103 31/44/105
f 29/42/104 43/61/101 45/64/102 30/43/106
f 4/7/80 29/42/104 49/70/107 17/28/108
f 29/42/104 30/43/106 50/71/109 49/70/107
f 30/43/106 31/44/105 51/72/110 50/71/109
f 31/44/105 3/6/36 16/27/35 51/72/110
f 51/72/110 16/27/35 15/26/62 53/74/86
f 56/81/111 18/29/88 106/192/87 72/113/65 55/79/64 57/82/112
f 17/28/108 49/70/107 52/73/85 18/29/88
f 66/97/113 70/106/68 104/186/67 103/184/114
f 99/176/99 76/127/59 88/152/58 100/178/100
f 86/148/32 9/15/31 54/75/115 87/150/116
f 87/150/116 54/76/115 102/182/117
f 75/123/94 40/58/90 39/57/89
f 9/14/31 5/8/75 26/37/77
f 9/15/31 26/38/77 54/75/115
f 54/76/115 26/39/77 25/36/84
f 54/77/115 25/36/84 6/9/39 10/18/38
f 102/182/117 54/77/115 10/19/38
f 64/92/11 67/100/10 66/98/113 103/184/114
f 50/71/109 51/72/110 53/74/86 52/73/85 49/70/107
f 84/143/118 58/83/119 57/82/112 55/80/64
f 56/81/111 57/82/112 60/85/120 59/84/121
f 57/82/112 58/83/119 61/86/122 60/85/120
f 58/83/119 84/143/118 83/141/123
f 110/200/42 27/40/40 61/86/122 58/83/119 83/141/123
f 61/86/122 27/40/40 6/9/39 24/35/83
f 60/85/120 61/86/122 24/35/83 23/34/82
f 59/84/121 60/85/120 23/34/82 22/33/81
f 17/28/108 59/84/121 22/33/81 4/7/80
f 18/29/88 56/81/111 59/84/121 17/28/108
f 93/162/124 81/137/125 120/224/21 113/206/20
f 93/162/124 92/160/23 112/204/22 81/137/125
f 13/24/97 108/196/96 77/129/63 32/45/34 14/25/37
