# Blender 3.3.1
# www.blender.org
mtllib 008.mtl
o Hammer_cell.008
v 0.176145 -0.740283 0.281873
v -0.076964 -0.078954 0.685359
v 0.195349 0.400344 0.837844
v 0.167497 -1.005373 0.451114
v 0.088430 -1.128819 0.758981
v -0.212637 -0.465299 1.305415
v -0.203209 -0.182812 1.123108
v 0.581294 -1.525550 1.311996
v 0.215665 0.465633 0.978555
v 1.082453 0.449728 1.541036
v 0.035535 -0.639929 1.634871
v 0.178259 0.420085 1.044515
v 0.999102 0.262507 1.855765
v 1.074181 0.338564 1.751138
v 1.200318 -0.618426 0.318525
v 1.202969 -0.751448 0.365269
v 1.202969 -0.656607 0.472358
v 1.202969 -0.656600 0.525408
v 1.202969 -0.751433 0.418857
v 1.174400 -0.751448 0.365270
v 1.174400 -0.656608 0.472358
v 1.174400 -0.656600 0.525408
v 1.174400 -0.751433 0.418857
v 1.202969 -0.704028 0.418814
v 1.202969 -0.727738 0.392042
v 1.183400 -0.618441 0.260488
v 1.192433 -0.618439 0.278472
v 1.197592 -0.618435 0.296702
v 1.200317 -0.665731 0.315844
v 1.200316 -0.711139 0.312609
v 1.200315 -0.767098 0.309380
v 1.169051 -0.665746 0.239407
v 1.169055 -0.559464 0.239395
v 1.200318 -0.489714 0.321110
v 1.200318 -0.559450 0.320235
v 1.148303 -0.619004 0.212523
v 1.121456 -0.622946 0.179832
v 1.202969 -0.916951 0.365316
v 1.201849 -0.845058 0.323473
v 1.202637 -0.838146 0.340970
v 1.202927 -0.817445 0.357094
v 1.201850 -0.618812 0.346631
v 1.202637 -0.621583 0.381060
v 1.202927 -0.629931 0.421565
v 1.174400 -0.704028 0.418814
v 1.174400 -0.630306 0.473370
v 1.174400 -0.818129 0.417711
v 1.174400 -0.727725 0.445495
v 1.202927 -0.672468 0.407387
v 1.202927 -0.707421 0.389321
v 1.202927 -0.748676 0.371258
v 1.202637 -0.667744 0.372181
v 1.202637 -0.709934 0.361005
v 1.202637 -0.761503 0.349833
v 1.201850 -0.665973 0.341405
v 1.201850 -0.710978 0.335042
v 1.201849 -0.766389 0.328683
v 1.148339 -0.666115 0.212557
v 1.197591 -0.665740 0.295578
v 1.197590 -0.711148 0.294224
v 1.197588 -0.767107 0.292874
v 1.192431 -0.665744 0.278148
v 1.192429 -0.711152 0.277757
v 1.192426 -0.767112 0.277369
v 1.183398 -0.665746 0.260456
v 1.183395 -0.711154 0.260417
v 1.202637 -0.561710 0.386008
v 1.201851 -0.489801 0.351477
v 1.201850 -0.559723 0.349874
v 1.091337 -0.569759 0.144740
v 1.093972 -0.493066 0.147873
v 1.122001 -0.562702 0.180532
v 1.122817 -0.490855 0.181504
v 1.183401 -0.559464 0.260508
v 1.183402 -0.489729 0.260518
v 1.192434 -0.559462 0.278679
v 1.192434 -0.489727 0.278783
v 1.197593 -0.559458 0.297417
v 1.197593 -0.489723 0.297783
v 1.174400 -0.707386 0.458804
v 1.174400 -0.748485 0.435869
v 1.174400 -0.672717 0.455149
v 1.174400 -0.707391 0.432145
v 1.087447 -0.570783 0.140361
v 1.091046 -0.577282 0.144376
v 1.116281 -0.624807 0.173769
v 1.121533 -0.634708 0.179893
v 1.138033 -0.667116 0.199962
v 1.148359 -0.687489 0.212580
v 1.169047 -0.730751 0.239420
v 1.183392 -0.764437 0.260384
v 1.192425 -0.791432 0.277273
v 1.200314 -0.838443 0.306970
v 1.200764 -0.845764 0.311624
v 1.197587 -0.815128 0.292199
v 1.201849 -0.863564 0.322938
v 1.174400 -0.928438 0.365319
v 1.202637 -0.888447 0.338781
v 1.202927 -0.910117 0.352592
v 1.202956 -0.923379 0.361050
v 1.202969 -0.930074 0.365320
v 1.174400 -1.012480 0.418924
v 1.202969 -1.014117 0.418926
v 1.202969 -1.390307 0.658877
v 1.062932 -0.526331 0.112931
v 1.094817 -0.433204 0.148872
v 1.073825 -0.494418 0.125258
v 1.116679 -0.367894 0.174355
v 1.148531 -0.270630 0.212787
v 1.154248 -0.252144 0.220195
v 1.123238 -0.348411 0.181999
v 1.161181 -0.249943 0.229179
v 1.169058 -0.247477 0.239386
v 1.174400 -0.130013 0.472336
v 1.174400 -0.102835 0.525386
v 1.183404 -0.241685 0.260516
v 1.197594 -0.227497 0.297927
v 1.202969 -0.112857 0.525387
v 1.202969 -0.097008 0.556324
v 1.202927 -0.161924 0.429580
v 1.202969 -0.140034 0.472336
v 1.201851 -0.201223 0.352130
v 1.202638 -0.182693 0.388839
v 1.192436 -0.235477 0.278819
v 1.200319 -0.216394 0.321468
v 1.202969 0.414968 1.556052
v 1.202969 0.360411 1.658309
v 1.140436 -0.379804 2.047698
v 1.148530 -0.402645 2.037844
v 1.169056 -0.463670 2.011242
v 1.183402 -0.511231 1.990095
v 1.192434 -0.550954 1.971696
v 1.200317 -0.638167 1.928313
v 1.197592 -0.590658 1.952338
v 1.201850 -0.699801 1.896643
v 1.202637 -0.775819 1.857307
v 1.202927 -0.864951 1.811026
v 1.202969 -1.413559 1.525731
v 1.172931 -1.431134 1.509078
v 1.154911 -1.463161 1.487915
v 1.037653 -1.670390 1.350816
v 1.167691 -1.440495 1.502899
v 1.167691 -1.440429 0.785994
v 1.154911 -1.463102 0.841641
v 1.174400 -1.428354 0.756414
v 1.172931 -1.431064 0.763033
v 1.202969 -1.413485 0.708053
v 1.202969 -1.396722 0.672464
v 1.202969 0.327830 1.718905
v 1.202969 0.311740 1.735684
v 1.095209 -0.008692 2.101300
v 1.081757 -0.018919 2.116384
v 1.123249 0.013825 2.068624
v 1.151071 0.037769 2.034558
v 1.202928 0.238210 1.811159
v 1.202638 0.193236 1.857414
v 1.202416 0.182512 1.868496
v 1.169059 0.054478 2.011249
v 1.192436 0.085203 1.971716
v 1.183404 0.070291 1.990108
v 1.201851 0.155183 1.896716
v 1.200319 0.124843 1.928358
v 1.197595 0.102343 1.952368
v 1.045301 -0.124769 2.156319
v 1.066409 -0.178669 2.133596
v 1.095209 -0.254736 2.101298
v 1.123249 -0.331208 2.068622
v 1.050445 -0.109881 2.150781
v 1.066409 -0.064032 2.133597
v 1.138033 -0.667116 0.199962
v 1.148359 -0.687489 0.212580
v 1.169058 -0.247477 0.239386
v 1.183404 -0.241685 0.260516
v 1.201851 -0.201223 0.352130
v 1.202638 -0.182693 0.388839
v 1.200319 -0.216394 0.321468
v 1.169059 0.054478 2.011249
v 1.183404 0.070291 1.990108
v 1.121533 -0.634708 0.179893
v 1.037653 -1.670390 1.350816
v 1.154911 -1.463161 1.487915
v 1.202416 0.182512 1.868496
v 1.201851 0.155183 1.896716
v 1.116281 -0.624807 0.173769
v 1.202956 -0.923379 0.361050
v 1.202969 -0.930074 0.365320
v 1.161181 -0.249943 0.229179
v 1.202927 -0.161924 0.429580
v 1.202969 -0.140034 0.472336
v 1.202969 0.414968 1.556052
v 1.202969 0.360411 1.658309
v 1.167691 -1.440495 1.502899
v 1.202638 0.193236 1.857414
v 1.091046 -0.577282 0.144376
v 1.123249 0.013825 2.068624
v 1.151071 0.037769 2.034558
v 1.095209 -0.254736 2.101298
v 1.123249 -0.331208 2.068622
v 1.172931 -1.431134 1.509078
v 1.202969 -1.413559 1.525731
v 1.169047 -0.730751 0.239420
v 1.183392 -0.764437 0.260384
v 1.140436 -0.379804 2.047698
v 1.148530 -0.402645 2.037844
v 1.167691 -1.440429 0.785994
v 1.154911 -1.463102 0.841641
v 1.202637 -0.775819 1.857307
v 1.202927 -0.864951 1.811026
v 1.192425 -0.791432 0.277273
v 1.174400 -0.130013 0.472336
v 1.174400 -0.102835 0.525386
v 1.201850 -0.699801 1.896643
v 1.202969 0.327830 1.718905
v 1.202969 0.311740 1.735684
v 1.192436 0.085203 1.971716
v 1.197595 0.102343 1.952368
v 1.050445 -0.109881 2.150781
v 1.066409 -0.064032 2.133597
v 1.116679 -0.367894 0.174355
v 1.123238 -0.348411 0.181999
v 1.183402 -0.511231 1.990095
v 1.192434 -0.550954 1.971696
v 1.174400 -1.428354 0.756414
v 1.172931 -1.431064 0.763033
v 1.045301 -0.124769 2.156319
v 1.200764 -0.845764 0.311624
v 1.201849 -0.863564 0.322938
v 1.081757 -0.018919 2.116384
v 1.200314 -0.838443 0.306970
v 1.197587 -0.815128 0.292199
v 1.174400 -1.012480 0.418924
v 1.202969 -1.014117 0.418926
v 1.192436 -0.235477 0.278819
v 1.200319 0.124843 1.928358
v 1.094817 -0.433204 0.148872
v 1.202969 -0.097008 0.556324
v 1.169056 -0.463670 2.011242
v 1.062932 -0.526331 0.112931
v 1.073825 -0.494418 0.125258
v 1.087447 -0.570783 0.140361
v 1.095209 -0.008692 2.101300
v 1.202927 -0.910117 0.352592
v 1.202969 -0.112857 0.525387
v 1.200317 -0.638167 1.928313
v 1.197592 -0.590658 1.952338
v 1.202969 -1.413485 0.708053
v 1.202969 -1.396722 0.672464
v 1.202928 0.238210 1.811159
v 1.202637 -0.888447 0.338781
v 1.202969 -1.390307 0.658877
v 1.154248 -0.252144 0.220195
v 1.197594 -0.227497 0.297927
v 1.174400 -0.928438 0.365319
v 1.148531 -0.270630 0.212787
v 1.066409 -0.178669 2.133596
vn 0.9993 0.0003 -0.0363
vn 0.9995 0.0001 -0.0319
vn 0.9999 0.0001 -0.0125
vn 0.9999 0.0005 -0.0148
vn 0.9993 0.0012 -0.0369
vn -0.2673 0.4252 -0.8647
vn -0.2667 0.4265 -0.8643
vn -0.2651 0.4282 -0.8639
vn 0.2965 0.8493 -0.4369
vn 0.2980 0.8496 -0.4352
vn 0.2992 0.8493 -0.4349
vn 0.1922 0.8658 0.4620
vn -0.2166 -0.4504 0.8661
vn 1.0000 -0.0000 0.0010
vn 0.9350 -0.3547 -0.0004
vn 0.9855 -0.1697 -0.0002
vn 1.0000 -0.0000 -0.0000
vn 0.8620 -0.0001 -0.5068
vn 0.6255 0.3193 -0.7119
vn 0.6255 0.3194 -0.7118
vn 0.7310 -0.0000 -0.6824
vn 1.0000 -0.0000 0.0016
vn -0.2430 -0.8772 -0.4141
vn -0.9358 -0.1704 -0.3087
vn -0.9354 -0.1681 -0.3112
vn -0.8461 0.5192 -0.1208
vn -0.8460 0.5197 -0.1196
vn -0.8452 0.5209 -0.1196
vn 0.8220 -0.0000 0.5695
vn 0.8160 -0.0000 0.5781
vn 0.7857 -0.0000 0.6186
vn 0.7888 -0.0000 0.6147
vn -0.2508 0.8597 0.4450
vn 0.1885 0.8650 0.4651
vn 0.2273 0.7029 0.6740
vn 0.2316 0.6967 0.6789
vn 0.2330 0.6963 0.6789
vn -0.7703 -0.5751 0.2754
vn -0.7706 -0.5754 0.2740
vn -0.5804 0.4524 0.6770
vn -0.6395 0.5743 -0.5111
vn -0.6255 0.3193 -0.7119
vn -0.0000 0.6911 -0.7227
vn 0.6647 -0.0000 -0.7471
vn 0.3292 -0.0002 -0.9443
vn 0.8452 0.0001 0.5345
vn 0.6253 -0.3202 0.7116
vn 0.7071 -0.5294 0.4688
vn -0.0000 -0.5996 0.8003
vn -0.6253 -0.3203 0.7116
vn 0.8562 -0.0000 0.5166
vn 1.0000 0.0013 -0.0045
vn 1.0000 0.0024 -0.0062
vn 0.9998 0.0047 -0.0210
vn 0.9999 0.0036 -0.0167
vn 0.9979 0.0199 -0.0610
vn 0.9996 0.0041 -0.0272
vn 0.9987 0.0061 -0.0499
vn 0.9991 0.0051 -0.0428
vn 0.9982 0.0049 -0.0591
vn 0.8601 0.0010 -0.5102
vn 0.8579 0.0010 -0.5139
vn 0.8733 0.0014 -0.4872
vn 0.8189 0.0001 -0.5740
vn 0.8093 -0.0000 -0.5874
vn 0.7075 -0.5294 0.4682
vn 0.6933 -0.5399 0.4774
vn -0.6284 -0.3193 0.7093
vn 0.9999 0.0014 -0.0117
vn 0.9995 0.0022 -0.0316
vn 0.9978 0.0030 -0.0666
vn 0.9962 0.0037 -0.0871
vn 0.9949 0.0043 -0.1011
vn 0.9927 0.0053 -0.1208
vn 0.9941 0.0066 -0.1080
vn 0.9953 0.0059 -0.0971
vn 0.9992 0.0030 -0.0387
vn 0.9960 0.0036 -0.0896
vn 0.9999 0.0017 -0.0150
vn 1.0000 0.0006 -0.0042
vn 0.7827 0.0002 -0.6224
vn 0.7879 -0.0000 -0.6158
vn 0.7734 0.0005 -0.6339
vn -0.5802 0.4552 0.6754
vn 0.7664 0.0008 -0.6424
vn 0.7704 0.0009 -0.6375
vn 0.7599 0.0012 -0.6501
vn 0.7823 0.0001 -0.6229
vn 0.9979 -0.0000 0.0651
vn 0.9883 -0.0000 0.1523
vn 0.9909 -0.0000 0.1345
vn 0.9983 -0.0000 0.0580
vn 0.4988 0.0001 0.8667
vn 0.6256 -0.3204 0.7113
vn 0.9777 0.0055 -0.2098
vn 0.9746 0.0059 -0.2240
vn 0.9241 0.0036 -0.3822
vn 0.9285 0.0034 -0.3714
vn 0.9712 0.0047 -0.2383
vn 0.9200 0.0029 -0.3918
vn 0.9799 0.0035 -0.1994
vn 0.9803 0.0042 -0.1977
vn 0.9371 0.0031 -0.3491
vn -0.2431 -0.8776 -0.4131
vn 0.9318 0.0022 -0.3629
vn 0.8619 0.0007 -0.5070
vn 0.7687 0.0001 0.6397
vn 0.7545 -0.0000 0.6563
vn 0.7568 -0.0000 0.6536
vn 0.7713 0.0001 0.6364
vn -0.0308 -0.5374 -0.8428
vn 0.9997 -0.0000 0.0243
vn 1.0000 -0.0000 0.0084
vn 1.0000 -0.0000 0.0098
vn 0.9998 -0.0000 0.0200
vn 0.9996 -0.0000 0.0273
vn 0.9500 -0.0000 0.3124
vn 0.9582 -0.0000 0.2859
vn 0.7737 0.0001 0.6335
vn 0.7464 -0.0000 0.6655
vn 0.7443 -0.0000 0.6678
vn 0.7441 -0.0000 0.6681
vn 0.6394 -0.7689 -0.0008
vn 0.5518 -0.8340 -0.0010
vn 0.8878 -0.0000 0.4602
vn 0.8773 -0.0000 0.4799
vn -0.2691 0.8573 0.4388
vn 0.7888 -0.0000 -0.6146
vn 0.7916 -0.0000 -0.6110
vn 0.8121 -0.0000 -0.5835
vn 0.8097 -0.0000 -0.5868
vn 0.7327 -0.0000 0.6806
vn 0.8703 -0.4924 -0.0000
vn 0.8710 -0.4913 -0.0000
vn 0.8708 -0.4916 -0.0000
vn 0.9818 0.0005 -0.1899
vn 0.9854 0.0001 -0.1701
vn 0.9973 0.0001 -0.0736
vn 0.9965 0.0005 -0.0834
vn 0.9963 0.0017 -0.0855
vn 1.0000 0.0001 -0.0032
vn 0.7660 0.0003 -0.6428
vn 0.7659 0.0001 -0.6430
vn 0.7706 -0.0000 -0.6373
vn 0.7532 0.0015 -0.6577
vn 0.7566 0.0015 -0.6538
vn 0.7470 0.0022 -0.6648
vn 0.7529 0.0006 -0.6581
vn 0.7469 0.0017 -0.6650
vn 0.7468 0.0013 -0.6650
vn 0.7573 0.0002 -0.6531
vn 0.8631 0.0003 -0.5050
vn 0.8638 0.0001 -0.5039
vn 0.9350 0.0003 -0.3547
vn 0.9339 0.0010 -0.3575
vn 0.9812 0.0016 -0.1931
vn 0.8695 -0.0000 -0.4939
vn 0.9985 0.0020 -0.0548
vn 0.9997 0.0011 -0.0246
vn 1.0000 0.0002 -0.0071
vn 0.7086 0.0002 0.7057
vn 1.0000 -0.0000 -0.0034
vn 0.3514 0.0003 0.9362
vn 0.9424 0.0001 -0.3346
vn 0.7591 0.0002 -0.6510
vn -0.2177 -0.4499 0.8661
vn 0.8782 -0.4783 -0.0000
vn 0.8721 -0.4893 -0.0000
vn 0.8724 -0.4887 -0.0000
vn -0.9357 -0.1686 -0.3098
vt 0.000000 0.000000
vt 1.000000 0.000000
vt 0.000000 0.000000
vt 1.000000 1.000000
vt 1.000000 0.000000
vt 0.000000 0.000000
vt 1.000000 0.000000
vt 1.000000 1.000000
vt 1.000000 0.000000
vt 0.000000 0.000000
vt 1.000000 1.000000
vt 1.000000 0.000000
vt 0.000000 0.000000
vt 1.000000 0.000000
vt 1.000000 1.000000
vt 0.000000 0.000000
vt 0.000000 0.000000
vt 1.000000 0.000000
vt 1.000000 1.000000
vt 0.000000 0.000000
vt 1.000000 0.000000
vt 0.000000 0.000000
vt 1.000000 0.000000
vt 1.000000 1.000000
vt 0.000000 0.000000
vt 1.000000 1.000000
vt 1.000000 0.000000
vt 0.000000 0.000000
vt 1.000000 0.000000
vt 0.000000 0.000000
vt 1.000000 0.000000
vt 0.000000 0.000000
vt 1.000000 0.000000
vt 0.000000 0.000000
vt 0.733281 0.032841
vt 0.757360 0.026174
vt 0.956786 0.119213
vt 0.742899 0.009844
vt 0.956786 0.136349
vt 0.304017 0.827711
vt 0.940057 0.136349
vt 0.317850 0.843415
vt 0.940057 0.119213
vt 0.952169 0.119213
vt 0.952169 0.136349
vt 0.944542 0.136349
vt 0.944542 0.119213
vt 0.750130 0.018009
vt 0.956786 0.127781
vt 0.753745 0.022091
vt 0.956786 0.123497
vt 0.735631 0.042728
vt 0.734800 0.039448
vt 0.733970 0.036348
vt 0.742688 0.033557
vt 0.750739 0.034209
vt 0.759687 0.034760
vt 0.743971 0.046832
vt 0.726638 0.046675
vt 0.706064 0.031383
vt 0.720849 0.032098
vt 0.736818 0.052008
vt 0.737469 0.058238
vt 0.782597 0.026169
vt 0.956786 0.092736
vt 0.771634 0.032579
vt 0.770580 0.029889
vt 0.767424 0.027422
vt 0.732948 0.028459
vt 0.733478 0.023203
vt 0.735664 0.017146
vt 0.952169 0.127781
vt 0.950263 0.139769
vt 0.946449 0.109041
vt 0.944542 0.123497
vt 0.744301 0.019610
vt 0.750375 0.022469
vt 0.756903 0.025257
vt 0.742988 0.024903
vt 0.750567 0.026768
vt 0.758835 0.028529
vt 0.742574 0.029597
vt 0.750671 0.030741
vt 0.759573 0.031774
vt 0.744195 0.052036
vt 0.742979 0.036771
vt 0.750826 0.037107
vt 0.759699 0.037361
vt 0.743330 0.039683
vt 0.750930 0.039837
vt 0.759712 0.039932
vt 0.743680 0.042850
vt 0.751034 0.042917
vt 0.720189 0.021865
vt 0.704761 0.026526
vt 0.720087 0.027424
vt 0.729182 0.064926
vt 0.717780 0.064773
vt 0.728253 0.058179
vt 0.717288 0.058117
vt 0.725327 0.042541
vt 0.713111 0.042317
vt 0.723744 0.039128
vt 0.710620 0.038762
vt 0.722161 0.035844
vt 0.708129 0.035312
vt 0.946449 0.127218
vt 0.946449 0.120325
vt 0.950263 0.133037
vt 0.950262 0.127218
vt 0.729307 0.065767
vt 0.730299 0.064948
vt 0.915446 0.790327
vt 0.902034 0.781760
vt 0.858494 0.753442
vt 0.831147 0.735621
vt 0.773722 0.697282
vt 0.726576 0.664194
vt 0.696115 0.641246
vt 0.641324 0.593739
vt 0.633197 0.586028
vt 0.667879 0.617774
vt 0.613443 0.567278
vt 0.557824 0.486358
vt 0.586208 0.540775
vt 0.562697 0.517535
vt 0.548385 0.503253
vt 0.784598 0.026168
vt 0.956786 0.090636
vt 0.467227 0.395777
vt 0.450564 0.405460
vt 0.411792 0.810631
vt 0.722600 0.071502
vt 0.708737 0.064720
vt 0.884474 0.843935
vt 0.698522 0.059619
vt 0.682305 0.051795
vt 0.678766 0.050257
vt 0.878180 0.724190
vt 0.677601 0.048398
vt 0.676284 0.046286
vt 0.952169 0.212689
vt 0.944542 0.216632
vt 0.671549 0.041793
vt 0.660012 0.034150
vt 0.995953 0.732378
vt 0.221943 0.822744
vt 0.640808 0.012632
vt 0.956786 0.211233
vt 0.636805 0.006018
vt 0.972095 0.847895
vt 0.977738 0.823658
vt 0.665933 0.037927
vt 0.654357 0.029923
vt 0.147588 0.675799
vt 0.155648 0.660847
vt 0.264422 0.601229
vt 0.267766 0.603118
vt 0.276703 0.608117
vt 0.283668 0.611950
vt 0.289485 0.615076
vt 0.316931 0.239980
vt 0.287535 0.206545
vt 0.311286 0.626492
vt 0.322426 0.632331
vt 0.459334 0.386168
vt 0.415890 0.681427
vt 0.987945 0.670200
vt 0.820155 0.704208
vt 0.194912 0.851207
vt 0.180759 0.883785
vt 0.196322 0.847648
vt 0.112483 0.847648
vt 0.118596 0.851207
vt 0.933421 0.116687
vt 0.932154 0.125974
vt 0.958006 0.050809
vt 0.412745 0.808421
vt 0.722229 0.000000
vt 0.722229 0.722229
vt 1.000000 0.804529
vt 0.804529 0.804529
vt 0.210023 0.590720
vt 0.211532 0.587758
vt 0.206700 0.597033
vt 0.203515 0.602882
vt 0.916931 0.724797
vt 0.180268 0.631754
vt 0.181847 0.630130
vt 0.200702 0.607833
vt 0.196172 0.614721
vt 0.198370 0.611628
vt 0.185869 0.625994
vt 0.649025 0.539677
vt 0.193648 0.617745
vt 0.227082 0.579874
vt 0.592042 0.489178
vt 0.891342 0.854908
vt 0.958174 0.842329
vt 0.224895 0.580976
vt 0.069824 0.036923
vt 0.744337 0.054451
vt 0.747507 0.052042
vt 0.922298 0.909133
vt 0.940395 0.901219
vt 0.649391 0.024834
vt 0.644919 0.018984
vt 0.966447 0.867759
vt 0.438279 0.366448
vt 0.535159 0.411298
vt 0.739293 0.058246
vt 1.000000 0.680124
vt 0.680124 0.680124
vt 0.845945 0.700934
vt 1.000000 0.662629
vt 0.662628 0.662628
vt 0.659083 0.604711
vt 0.737683 0.059329
vt 0.783577 0.026819
vt 0.541161 0.496042
vt 1.000000 0.912545
vt 0.912545 0.912545
vt 0.983377 0.796507
vt 0.989014 0.767898
vt 0.708003 0.000000
vt 0.708003 0.708003
vt 0.708716 0.000000
vt 1.000000 0.291284
vt 0.829104 0.703153
vt 0.984538 0.675053
vt 0.979839 0.831439
vt 0.916582 0.188335
vt 1.000000 0.316770
vt 0.316770 0.316770
vt 0.246109 0.590848
vt 0.257306 0.597216
vt 0.992352 0.672421
vt 0.196896 0.846180
vt 0.805072 0.731714
vt 0.754137 0.046866
vt 0.759310 0.042944
vt 0.759724 0.042648
vt 0.166081 0.000000
vt 1.000000 0.833919
vt 0.178857 0.024829
vt 0.927637 0.158175
vt 0.916618 0.236204
vt 0.403218 0.329662
vt 0.335492 0.639182
vt 0.763432 0.039949
vt 0.958479 0.755485
vt 0.965418 0.719966
vt 0.355467 0.280773
vt 0.160459 0.651986
vt 0.162827 0.649536
vt 0.596104 0.449954
vt 0.630823 0.490164
vt 1.000000 0.040707
vt 0.040707 0.040707
vt 0.218159 0.584396
vt 1.000000 0.871945
vt 0.871945 0.871945
vt 0.695444 0.058070
vt 0.240316 0.138213
vt 0.263544 0.174884
vt 0.992352 0.782404
vt 0.108898 0.845760
vt 0.109856 0.846180
vt 0.945023 0.000000
vt 0.054977 0.000000
vt 0.771742 0.034415
vt 0.774456 0.032661
vt 0.787632 0.000000
vt 0.212368 0.000000
vt 0.770619 0.035136
vt 0.767051 0.037469
vt 0.944542 0.078367
vt 0.356405 0.843607
vt 0.940057 0.077189
vt 0.952443 0.892888
vt 0.190335 0.621332
vt 0.999802 0.881670
vt 0.881734 0.881734
vt 1.000000 0.711665
vt 0.711665 0.711665
vt 0.213211 0.089748
vt 0.824272 0.824272
vt 0.999517 0.824336
vt 0.717972 0.069339
vt 0.988721 0.837002
vt 0.830032 0.060636
vt 0.781555 0.028110
vt 0.224243 0.827294
vt 0.940057 0.215177
vt 0.302258 0.621768
vt 0.295300 0.618136
vt 0.415237 0.802562
vt 0.987945 0.789817
vt 0.958027 0.958027
vt 0.958027 0.000000
vt 0.173649 0.638516
vt 0.778250 0.030224
vt 1.000000 0.954967
vt 0.045033 0.000000
vt 0.907664 0.000000
vt 0.907664 0.907664
vt 0.960455 0.882336
vt 0.952170 0.091520
vt 0.902227 0.138065
vt 0.234972 0.584455
s 1
usemtl Hammer
f 68/95/1 174/206/2 175/207/3 67/94/4 69/96/5
s 0
f 1/1/6 2/5/6 235/282/6 107/135/6 238/287/6
f 235/283/7 2/3/7 3/7/7 219/261/7
f 219/262/8 3/6/8 251/305/8 254/309/8 111/139/8
f 3/6/9 9/23/9 187/221/9 251/306/9
f 187/222/10 9/22/10 10/27/10 236/284/10 118/146/10 211/252/10 210/251/10 189/224/10 188/223/10 123/152/10 122/151/10 176/208/10 252/307/10 233/280/10 173/205/10 172/204/10
f 236/285/11 10/25/11 190/225/11
f 190/226/12 10/25/12 191/227/12
f 139/169/13 200/239/13 137/166/13 207/248/13 212/253/13 133/162/13 134/163/13 222/265/13 221/264/13 237/286/13 204/245/13 203/243/13 8/21/13 180/212/13 181/214/13 192/229/13
s 1
f 208/249/14 138/167/15 246/297/16 148/178/17 104/132/17 232/278/18 19/42/19 18/40/20 243/293/21 119/147/17 126/155/17 127/156/17 213/254/17 214/255/17 248/301/22
s 0
f 5/13/23 4/9/23 250/303/23 247/299/23
f 5/13/24 6/14/24 4/11/24
f 2/3/25 1/2/25 4/11/25
f 7/17/26 3/7/26 2/4/26
f 7/17/27 12/29/27 3/8/27
f 12/30/28 9/23/28 3/8/28
s 1
f 130/159/29 158/190/30 154/186/31 129/158/32
s 0
f 13/32/33 14/33/33 10/26/33
f 14/34/34 149/179/34 191/228/34 10/26/34
f 14/34/35 13/31/35 150/181/35 149/180/35
f 150/182/36 13/32/36 228/273/36 241/291/36 195/232/36 196/233/36 182/215/36 193/230/36 155/187/36
f 216/257/37 162/194/37 183/217/37 182/216/37 196/234/37 177/209/37 178/210/37 215/256/37
f 11/28/38 6/14/38 8/19/38
f 6/16/39 5/12/39 8/19/39
f 6/15/40 11/28/40 225/269/40 217/258/40
s 1
f 48/75/41 23/47/42 47/74/43 81/108/43 80/107/43
f 115/143/44 22/46/20 48/75/41 80/107/43 81/108/43 47/74/43 23/47/42 231/277/45 253/308/46 20/44/47 45/72/48 83/110/17 82/109/17 46/73/49 21/45/50 114/142/51
f 49/76/52 50/77/53 53/80/54 52/79/55
f 50/77/53 51/78/56 54/81/57 53/80/54
f 52/79/55 53/80/54 56/83/58 55/82/59
f 53/80/54 54/81/57 57/84/60 56/83/58
f 65/92/61 66/93/62 202/241/63 201/240/64 32/58/65
f 24/48/66 25/50/67 51/78/56 50/77/53
f 25/50/67 16/36/68 41/68/69 51/78/56
f 51/78/56 41/68/69 40/67/70 54/81/57
f 54/81/57 40/67/70 39/66/71 57/84/60
f 57/84/60 39/66/71 226/271/72 229/275/73 31/57/74
f 56/83/58 57/84/60 31/57/74 30/56/75
f 55/82/59 56/83/58 30/56/75 29/55/76
f 42/69/77 55/82/59 29/55/76 15/35/78
f 43/70/79 52/79/55 55/82/59 42/69/77
f 44/71/80 49/76/52 52/79/55 43/70/79
f 58/85/81 171/203/82 170/202/83
s 0
f 12/29/84 7/18/84 6/15/84 217/259/84 169/201/84 228/274/84 13/31/84
s 1
f 37/63/85 179/211/86 184/218/87
f 36/62/88 58/85/81 170/202/83 179/211/86 37/63/85
f 234/281/89 163/195/90 245/296/91 244/295/92
f 121/149/93 114/142/51 21/45/50 17/39/94
f 59/86/95 60/87/96 63/90/97 62/89/98
f 60/87/96 61/88/99 64/91/100 63/90/97
f 62/89/98 63/90/97 66/93/62 65/92/61
f 63/90/97 64/91/100 202/241/63 66/93/62
f 15/35/78 29/55/76 59/86/95 28/54/101
f 29/55/76 30/56/75 60/87/96 59/86/95
f 30/56/75 31/57/74 61/88/99 60/87/96
f 31/57/74 229/275/73 230/276/102 61/88/99
f 61/88/99 230/276/102 209/250/103 64/91/100
f 64/91/100 209/250/103 202/242/63
s 0
f 247/300/104 147/177/104 145/175/104 146/176/104 205/246/104 206/247/104 180/213/104 8/20/104 5/13/104
s 1
f 27/53/105 62/89/98 65/92/61 26/52/106
f 28/54/101 59/86/95 62/89/98 27/53/105
f 153/185/107 151/183/108 197/235/109 198/236/110
s 0
f 1/2/111 238/288/111 240/290/111 194/231/111 86/113/111 87/114/111 88/115/111 89/116/111 90/117/111 91/118/111 92/119/111 95/122/111 93/120/111 94/121/111 96/123/111 98/125/111 99/126/111 100/127/111 186/220/111 97/124/111 102/130/111 103/131/111 250/304/111 4/10/111
s 1
f 135/164/112 136/165/113 156/188/114 157/189/115 161/193/116
f 163/195/90 159/191/117 132/161/118 245/296/91
f 128/157/119 129/158/32 154/186/31 153/185/107 198/236/110
f 197/235/109 151/183/108 152/184/120 218/260/121 255/310/122
f 199/237/123 223/266/124 246/298/16 138/168/15
f 131/160/125 160/192/126 158/190/30 130/159/29
s 0
f 13/32/127 10/27/127 9/24/127 12/30/127
s 1
f 36/62/88 109/137/128 110/138/129 112/140/129 113/141/130 33/59/131 32/58/65 201/240/64 171/203/82 58/85/81
f 218/260/121 168/200/132 164/196/132 255/310/122
f 141/171/133 144/174/134 140/170/135
f 18/41/20 19/43/19 23/47/42 48/75/41 22/46/20
f 79/106/136 117/145/137 125/154/138 34/60/139
f 67/94/4 43/70/79 42/69/77 69/96/5
f 69/96/5 42/69/77 15/35/78 35/61/140
f 68/95/1 69/96/5 35/61/140 34/60/139
f 120/148/141 44/71/80 43/70/79 67/94/4 175/207/3
f 37/63/85 72/99/142 73/100/143 220/263/144 109/137/128 36/62/88
f 70/97/145 85/112/146 84/111/147
f 71/98/148 70/97/145 84/111/147 105/133/149 239/289/150
f 239/289/150 106/134/151 71/98/148
f 72/99/142 37/63/85 184/218/87 85/112/146 70/97/145
f 132/161/118 159/191/117 160/192/126 131/160/125
f 74/101/152 75/102/153 77/104/154 76/103/155
f 76/103/155 77/104/154 79/106/136 78/105/156
f 121/150/93 17/38/94 24/48/66 50/77/53 49/76/52 44/71/80 120/148/141
f 33/59/131 113/141/130 116/144/157 75/102/153 74/101/152
f 32/58/65 33/59/131 74/101/152 26/52/106 65/92/61
f 78/105/156 79/106/136 34/60/139 35/61/140
f 28/54/101 78/105/156 35/61/140 15/35/78
f 27/53/105 76/103/155 78/105/156 28/54/101
f 26/52/106 74/101/152 76/103/155 27/53/105
f 39/66/71 227/272/158 226/271/72
f 40/67/70 249/302/159 227/272/158 39/66/71
f 249/302/159 40/67/70 41/68/69 242/292/160
f 242/292/160 41/68/69 16/36/68 38/64/161 185/219/162
f 38/64/161 101/128/163 185/219/162
f 17/39/94 21/45/50 45/72/48 20/44/47 16/37/68 25/51/67 24/49/66
f 75/102/153 116/144/157 124/153/164 77/104/154
f 21/45/50 46/73/49 82/109/17
f 220/263/144 73/100/143 72/99/142 70/97/145 71/98/148 106/134/151 108/136/165
s 0
f 166/198/166 165/197/166 225/270/166 11/28/166 8/21/166 203/244/166 167/199/166
s 1
f 16/37/68 20/44/47 253/308/46 101/129/163 38/65/161
f 208/249/14 248/301/22 156/188/114 136/165/113
f 115/143/44 243/294/21 18/41/20 22/46/20
f 135/164/112 161/193/116 234/281/89 244/295/92
f 68/95/1 34/60/139 125/154/138 174/206/2
f 199/238/123 224/268/167 223/267/124
f 199/238/123 142/172/168 143/173/169 224/268/167
f 124/153/164 117/145/137 79/106/136 77/104/154
f 143/173/169 142/172/168 140/170/135 144/174/134
f 45/72/48 21/45/50 82/109/17 83/110/17
f 231/277/45 23/47/42 19/43/19 232/279/18
s 0
f 6/16/170 7/18/170 2/5/170 4/11/170
