# Blender 3.3.1
# www.blender.org
mtllib 008.mtl
o Hammer_cell.008
v -0.740283 -0.176145 0.281873
v -0.078954 0.076964 0.685359
v 0.400344 -0.195349 0.837844
v -1.005373 -0.167497 0.451114
v -1.128819 -0.088430 0.758981
v -0.465299 0.212637 1.305415
v -0.182812 0.203209 1.123108
v -1.525550 -0.581294 1.311996
v 0.465633 -0.215665 0.978555
v 0.449728 -1.082453 1.541036
v -0.639929 -0.035535 1.634871
v 0.420085 -0.178259 1.044515
v 0.262507 -0.999102 1.855765
v 0.338564 -1.074181 1.751138
v -0.618426 -1.200318 0.318525
v -0.750062 -1.202948 0.368263
v -0.656607 -1.202969 0.472358
v -0.656600 -1.202969 0.525408
v -0.751433 -1.202969 0.418857
v -0.751448 -1.174400 0.365270
v -0.656608 -1.174400 0.472358
v -0.656600 -1.174400 0.525408
v -0.751433 -1.174400 0.418857
v -0.704028 -1.202969 0.418814
v -0.727738 -1.202969 0.392042
v -0.618441 -1.183400 0.260488
v -0.618439 -1.192433 0.278472
v -0.618435 -1.197592 0.296702
v -0.665731 -1.200317 0.315844
v -0.711139 -1.200316 0.312609
v -0.767098 -1.200315 0.309380
v -0.665746 -1.169051 0.239407
v -0.559464 -1.169055 0.239395
v -0.489714 -1.200318 0.321110
v -0.559450 -1.200318 0.320235
v -0.619004 -1.148303 0.212523
v -0.845058 -1.201849 0.323473
v -0.838146 -1.202637 0.340970
v -0.817445 -1.202927 0.357094
v -0.618812 -1.201850 0.346631
v -0.621583 -1.202637 0.381060
v -0.629931 -1.202927 0.421565
v -0.705710 -1.174400 0.425479
v -0.630306 -1.174400 0.473370
v -0.818129 -1.174400 0.417711
v -0.727725 -1.174400 0.445495
v -0.672468 -1.202927 0.407387
v -0.707421 -1.202927 0.389321
v -0.667744 -1.202637 0.372181
v -0.709934 -1.202637 0.361005
v -0.761503 -1.202637 0.349833
v -0.665973 -1.201850 0.341405
v -0.710978 -1.201850 0.335042
v -0.766389 -1.201849 0.328683
v -0.665740 -1.197591 0.295578
v -0.711148 -1.197590 0.294224
v -0.665744 -1.192431 0.278148
v -0.711152 -1.192429 0.277757
v -0.767110 -1.195007 0.285121
v -0.665746 -1.183398 0.260456
v -0.711154 -1.183395 0.260417
v -0.561710 -1.202637 0.386008
v -0.489801 -1.201851 0.351477
v -0.559723 -1.201850 0.349874
v -0.493066 -1.093972 0.147873
v -0.562702 -1.122001 0.180532
v -0.490855 -1.122817 0.181504
v -0.559464 -1.183401 0.260508
v -0.489729 -1.183402 0.260518
v -0.559462 -1.192434 0.278679
v -0.489727 -1.192434 0.278783
v -0.559458 -1.197593 0.297417
v -0.489723 -1.197593 0.297783
v -0.707386 -1.174400 0.458804
v -0.748485 -1.174400 0.435869
v -0.672717 -1.174400 0.455149
v -0.628395 -1.119417 0.177431
v -0.764437 -1.183392 0.260384
v -0.791432 -1.192425 0.277273
v -0.888447 -1.202637 0.338781
v -0.930074 -1.202969 0.365320
v -1.012480 -1.174400 0.418924
v -1.014117 -1.202969 0.418926
v -0.526331 -1.062932 0.112931
v -0.433204 -1.094817 0.148872
v -0.251044 -1.157714 0.224687
v -0.348411 -1.123238 0.181999
v -0.247477 -1.169058 0.239386
v -0.130013 -1.174400 0.472336
v -0.102835 -1.174400 0.525386
v -0.112857 -1.202969 0.525387
v -0.097008 -1.202969 0.556324
v -0.140034 -1.202969 0.472336
v -0.235477 -1.192436 0.278819
v -0.216394 -1.200319 0.321468
v 0.414968 -1.202969 1.556052
v -0.590658 -1.197592 1.952338
v -0.699801 -1.201850 1.896643
v -0.775819 -1.202637 1.857307
v -0.864951 -1.202927 1.811026
v -1.429709 -1.173666 0.759723
v -1.413485 -1.202969 0.708053
v 0.327830 -1.202969 1.718905
v 0.311740 -1.202969 1.735684
v -0.018919 -1.081757 2.116384
v 0.037769 -1.151071 2.034558
v 0.238210 -1.202928 1.811159
v 0.187874 -1.202527 1.862955
v 0.054478 -1.169059 2.011249
v 0.085203 -1.192436 1.971716
v 0.155183 -1.201851 1.896716
v 0.124843 -1.200319 1.928358
v 0.102343 -1.197595 1.952368
v -0.178669 -1.066409 2.133596
v -0.254736 -1.095209 2.101298
v -0.666782 -1.141468 0.204160
v -0.687489 -1.148359 0.212580
v -0.241685 -1.183404 0.260516
v -0.201223 -1.201851 0.352130
v -0.182693 -1.202638 0.388839
v 0.070291 -1.183404 1.990108
v -1.670390 -1.037653 1.350816
v -1.463161 -1.154911 1.487915
v -0.161924 -1.202927 0.429580
v 0.360411 -1.202969 1.658309
v -1.435815 -1.170311 1.505988
v 0.013825 -1.123249 2.068624
v -0.331208 -1.123249 2.068622
v -1.413559 -1.202969 1.525731
v -0.730751 -1.169047 0.239420
v -0.379804 -1.140436 2.047698
v -0.402645 -1.148530 2.037844
v -1.440429 -1.167691 0.785994
v -1.463102 -1.154911 0.841641
v -0.064032 -1.066409 2.133597
v -0.367894 -1.116679 0.174355
v -0.511231 -1.183402 1.990095
v -0.550954 -1.192434 1.971696
v -0.117325 -1.047873 2.153550
v -0.863564 -1.201849 0.322938
v -0.842104 -1.200539 0.309297
v -0.815128 -1.197587 0.292199
v -0.463670 -1.169056 2.011242
v -0.494418 -1.073825 0.125258
v -0.573178 -1.089665 0.142843
v -0.008692 -1.095209 2.101300
v -0.916789 -1.202947 0.358520
v -0.638167 -1.200317 1.928313
v -1.393515 -1.202969 0.665670
v -0.227497 -1.197594 0.297927
v -0.928438 -1.174400 0.365319
v -0.270630 -1.148531 0.212787
vn 0.0003 -0.9993 -0.0363
vn 0.0001 -0.9995 -0.0319
vn 0.0001 -0.9999 -0.0125
vn 0.0005 -0.9999 -0.0148
vn 0.0012 -0.9993 -0.0369
vn 0.4252 0.2673 -0.8647
vn 0.4265 0.2667 -0.8643
vn 0.4543 0.2423 -0.8572
vn 0.8493 -0.2965 -0.4369
vn 0.8496 -0.2980 -0.4352
vn 0.8493 -0.2992 -0.4349
vn 0.8658 -0.1922 0.4619
vn -0.4504 0.2166 0.8661
vn -0.0000 -1.0000 0.0011
vn -0.3366 -0.9416 -0.0009
vn -0.1606 -0.9870 -0.0004
vn -0.0000 -1.0000 -0.0000
vn -0.0001 -0.8613 -0.5081
vn 0.3193 -0.6255 -0.7119
vn 0.3194 -0.6255 -0.7118
vn -0.0000 -0.7310 -0.6824
vn -0.0000 -1.0000 0.0018
vn -0.8772 0.2430 -0.4141
vn -0.1704 0.9358 -0.3087
vn -0.1681 0.9354 -0.3112
vn 0.5192 0.8461 -0.1208
vn 0.5197 0.8460 -0.1196
vn 0.5209 0.8452 -0.1196
vn -0.0000 -0.8220 0.5695
vn -0.0000 -0.8160 0.5781
vn -0.0000 -0.7857 0.6186
vn -0.0000 -0.7888 0.6147
vn 0.8597 0.2508 0.4450
vn 0.8650 -0.1885 0.4651
vn 0.7029 -0.2273 0.6740
vn 0.6967 -0.2316 0.6789
vn 0.6963 -0.2329 0.6789
vn -0.5751 0.7703 0.2754
vn -0.5754 0.7706 0.2740
vn 0.4524 0.5804 0.6770
vn 0.5743 0.6395 -0.5111
vn 0.3193 0.6255 -0.7119
vn 0.6912 -0.0001 -0.7227
vn 0.6911 -0.0001 -0.7228
vn 0.6911 -0.0000 -0.7227
vn -0.0000 -0.6647 -0.7471
vn -0.0002 -0.3292 -0.9443
vn -0.0042 -0.8561 0.5168
vn -0.2932 -0.6618 0.6900
vn -0.5069 -0.7340 0.4520
vn -0.0002 1.0000 -0.0000
vn -0.5996 0.0001 0.8003
vn -0.3218 0.6146 0.7202
vn -0.0000 -0.8562 0.5166
vn 0.0013 -1.0000 -0.0045
vn 0.0026 -1.0000 -0.0062
vn 0.0050 -0.9998 -0.0214
vn 0.0036 -0.9999 -0.0167
vn -0.2463 -0.8249 0.5087
vn 0.0041 -0.9996 -0.0280
vn 0.0061 -0.9987 -0.0499
vn 0.0052 -0.9991 -0.0428
vn 0.0050 -0.9982 -0.0589
vn 0.0010 -0.8601 -0.5102
vn -0.0015 -0.8614 -0.5079
vn 0.0063 -0.8870 -0.4616
vn 0.0001 -0.8188 -0.5741
vn -0.0000 -0.8091 -0.5876
vn -0.5018 -0.7406 0.4469
vn -0.5013 -0.7411 0.4466
vn 0.0012 -0.9999 -0.0115
vn 0.0019 -0.9995 -0.0306
vn 0.0030 -0.9978 -0.0667
vn 0.0053 -0.9944 -0.1052
vn 0.0049 -0.9910 -0.1341
vn 0.0045 -0.9933 -0.1155
vn 0.0059 -0.9953 -0.0971
vn 0.0030 -0.9992 -0.0387
vn 0.0036 -0.9960 -0.0896
vn 0.0017 -0.9999 -0.0149
vn 0.0006 -1.0000 -0.0042
vn 0.4551 0.5802 0.6755
vn 0.0001 -0.7819 -0.6235
vn 0.0002 -0.7859 -0.6184
vn 0.0005 -0.7691 -0.6392
vn -0.0000 -0.9979 0.0651
vn -0.0000 -0.9883 0.1523
vn -0.0000 -0.9909 0.1345
vn -0.0000 -0.9983 0.0580
vn 0.0001 -0.4988 0.8667
vn -0.3101 -0.6502 0.6936
vn 0.0055 -0.9777 -0.2098
vn 0.0035 -0.9739 -0.2270
vn 0.0007 -0.9262 -0.3771
vn 0.0034 -0.9285 -0.3714
vn 0.0094 -0.9510 -0.3090
vn 0.0035 -0.9799 -0.1994
vn 0.0105 -0.9783 -0.2071
vn 0.0142 -0.9359 -0.3519
vn -0.8776 0.2431 -0.4131
vn 0.0022 -0.9318 -0.3629
vn 0.0007 -0.8619 -0.5071
vn 0.0001 -0.7687 0.6397
vn -0.0000 -0.7545 0.6563
vn -0.0000 -0.7568 0.6536
vn 0.0001 -0.7713 0.6364
vn -0.5398 0.0303 -0.8412
vn -0.0000 -0.9997 0.0243
vn -0.0000 -1.0000 0.0090
vn -0.0000 -0.9999 0.0104
vn -0.0000 -0.9996 0.0273
vn -0.0000 -0.9500 0.3124
vn -0.0000 -0.9582 0.2860
vn 0.0001 -0.7737 0.6335
vn -0.0000 -0.7464 0.6655
vn -0.0000 -0.7443 0.6678
vn -0.0000 -0.7445 0.6676
vn -0.7480 -0.6637 -0.0015
vn -0.8109 -0.5852 -0.0019
vn -0.0000 -0.8878 0.4602
vn -0.0000 -0.8773 0.4799
vn 0.8573 0.2691 0.4388
vn -0.0000 -0.7883 -0.6153
vn -0.0000 -0.7912 -0.6115
vn -0.0000 -0.8120 -0.5837
vn -0.0000 -0.8095 -0.5871
vn -0.0000 -0.7326 0.6806
vn -0.4924 -0.8703 -0.0000
vn -0.4911 -0.8711 -0.0000
vn -0.4914 -0.8709 -0.0000
vn 0.0005 -0.9818 -0.1899
vn 0.0001 -0.9854 -0.1701
vn 0.0001 -0.9973 -0.0736
vn 0.0005 -0.9965 -0.0834
vn 0.0017 -0.9963 -0.0855
vn 0.0001 -1.0000 -0.0032
vn 0.0002 -0.7658 -0.6431
vn -0.0000 -0.7658 -0.6431
vn -0.0001 -0.7705 -0.6374
vn 0.0006 -0.7529 -0.6582
vn 0.0008 -0.7559 -0.6547
vn 0.0017 -0.7468 -0.6650
vn 0.0013 -0.7468 -0.6651
vn 0.0002 -0.7572 -0.6532
vn 0.0003 -0.8631 -0.5050
vn 0.0001 -0.8638 -0.5039
vn 0.0003 -0.9350 -0.3547
vn 0.0011 -0.9339 -0.3575
vn 0.0016 -0.9812 -0.1932
vn -0.0000 -0.8695 -0.4939
vn 0.0020 -0.9985 -0.0548
vn 0.0005 -0.9997 -0.0225
vn -0.0077 -0.3124 0.9499
vn 0.0001 -0.9424 -0.3345
vn 0.0001 -0.7590 -0.6511
vn -0.4461 0.2201 0.8675
vn -0.0081 -0.0713 0.9974
vn -0.4875 -0.8731 -0.0001
vn -0.1686 0.9357 -0.3098
vt 0.000000 0.000000
vt 1.000000 0.000000
vt 0.000000 0.000000
vt 1.000000 1.000000
vt 1.000000 0.000000
vt 0.000000 0.000000
vt 1.000000 0.000000
vt 1.000000 1.000000
vt 1.000000 0.000000
vt 0.000000 0.000000
vt 1.000000 1.000000
vt 1.000000 0.000000
vt 0.000000 0.000000
vt 1.000000 0.000000
vt 1.000000 1.000000
vt 0.000000 0.000000
vt 0.000000 0.000000
vt 1.000000 0.000000
vt 1.000000 1.000000
vt 0.000000 0.000000
vt 1.000000 0.000000
vt 0.000000 0.000000
vt 1.000000 0.000000
vt 1.000000 1.000000
vt 0.000000 0.000000
vt 1.000000 1.000000
vt 1.000000 0.000000
vt 0.000000 0.000000
vt 1.000000 0.000000
vt 0.000000 0.000000
vt 1.000000 0.000000
vt 0.000000 0.000000
vt 1.000000 0.000000
vt 0.000000 0.000000
vt 0.733281 0.032841
vt 0.756903 0.025257
vt 0.757360 0.026174
vt 0.956786 0.119213
vt 0.742899 0.009844
vt 0.956786 0.136349
vt 0.304017 0.827711
vt 0.940057 0.136349
vt 0.317850 0.843415
vt 0.940057 0.119213
vt 0.952169 0.119213
vt 0.952169 0.136349
vt 0.944542 0.136349
vt 0.944542 0.119213
vt 0.750130 0.018009
vt 0.956786 0.127781
vt 0.753745 0.022091
vt 0.956786 0.123497
vt 0.735631 0.042728
vt 0.734800 0.039448
vt 0.733970 0.036348
vt 0.742688 0.033557
vt 0.750739 0.034209
vt 0.759687 0.034760
vt 0.743971 0.046832
vt 0.726638 0.046675
vt 0.706064 0.031383
vt 0.720849 0.032098
vt 0.736818 0.052008
vt 0.771634 0.032579
vt 0.770580 0.029889
vt 0.767424 0.027422
vt 0.732948 0.028459
vt 0.733478 0.023203
vt 0.735664 0.017146
vt 0.952169 0.127781
vt 0.951216 0.127499
vt 0.950263 0.139769
vt 0.946449 0.109041
vt 0.944542 0.123497
vt 0.744301 0.019610
vt 0.750375 0.022469
vt 0.742988 0.024903
vt 0.750567 0.026768
vt 0.758835 0.028529
vt 0.742574 0.029597
vt 0.750671 0.030741
vt 0.759573 0.031774
vt 0.742979 0.036771
vt 0.750826 0.037107
vt 0.743330 0.039683
vt 0.750930 0.039837
vt 0.759699 0.037361
vt 0.759705 0.038647
vt 0.759712 0.039932
vt 0.743680 0.042850
vt 0.751034 0.042917
vt 0.720189 0.021865
vt 0.704761 0.026526
vt 0.720087 0.027424
vt 0.717780 0.064773
vt 0.728253 0.058179
vt 0.717288 0.058117
vt 0.725327 0.042541
vt 0.713111 0.042317
vt 0.723744 0.039128
vt 0.710620 0.038762
vt 0.722161 0.035844
vt 0.708129 0.035312
vt 0.946449 0.127218
vt 0.946449 0.120325
vt 0.950263 0.133037
vt 0.738381 0.058242
vt 0.908740 0.786044
vt 0.737469 0.058238
vt 0.737576 0.058784
vt 0.759310 0.042944
vt 0.759724 0.042648
vt 0.726576 0.664194
vt 0.763432 0.039949
vt 0.696115 0.641246
vt 0.586208 0.540775
vt 0.778250 0.030224
vt 0.541161 0.496042
vt 0.956786 0.090636
vt 0.467227 0.395777
vt 0.944542 0.078367
vt 0.356405 0.843607
vt 0.450564 0.405460
vt 0.940057 0.077189
vt 0.824272 0.824272
vt 0.999517 0.824336
vt 0.722600 0.071502
vt 0.999802 0.881670
vt 0.881734 0.881734
vt 0.708737 0.064720
vt 0.907664 0.000000
vt 0.953832 0.910105
vt 0.912545 0.912545
vt 0.678183 0.049328
vt 0.878180 0.724190
vt 0.695444 0.058070
vt 0.922298 0.909133
vt 0.676284 0.046286
vt 0.958479 0.755485
vt 0.952169 0.212689
vt 0.965418 0.719966
vt 0.944542 0.216632
vt 0.995953 0.732378
vt 0.224243 0.827294
vt 0.940057 0.215177
vt 1.000000 0.711665
vt 0.711665 0.711665
vt 0.221943 0.822744
vt 0.989014 0.767898
vt 0.956786 0.211233
vt 0.636805 0.006018
vt 0.952443 0.892888
vt 0.665933 0.037927
vt 0.966447 0.867759
vt 0.654357 0.029923
vt 0.708003 0.000000
vt 0.708003 0.708003
vt 0.147588 0.675799
vt 0.287535 0.206545
vt 0.295300 0.618136
vt 0.355467 0.280773
vt 0.311286 0.626492
vt 0.403218 0.329662
vt 0.322426 0.632331
vt 0.459334 0.386168
vt 0.335492 0.639182
vt 0.932788 0.121330
vt 0.992352 0.782404
vt 0.109856 0.846180
vt 0.415237 0.802562
vt 0.958006 0.050809
vt 0.987945 0.789817
vt 0.160459 0.651986
vt 0.722229 0.000000
vt 0.722229 0.722229
vt 0.162827 0.649536
vt 1.000000 0.804529
vt 0.804529 0.804529
vt 0.787632 0.000000
vt 0.212368 0.000000
vt 0.211532 0.587758
vt 1.000000 0.316770
vt 0.316770 0.316770
vt 0.203515 0.602882
vt 0.916931 0.724797
vt 0.173649 0.638516
vt 0.992269 0.668841
vt 0.662628 0.662628
vt 0.181058 0.630942
vt 0.180268 0.631754
vt 0.438279 0.366448
vt 0.200702 0.607833
vt 0.596104 0.449954
vt 0.196172 0.614721
vt 0.659083 0.604711
vt 0.185869 0.625994
vt 0.649025 0.539677
vt 0.190335 0.621332
vt 0.630823 0.490164
vt 0.193648 0.617745
vt 0.234972 0.584455
vt 0.592042 0.489178
vt 0.246109 0.590848
vt 0.891342 0.854908
vt 0.744266 0.053243
vt 0.858494 0.753442
vt 0.744195 0.052036
vt 0.831147 0.735621
vt 0.747507 0.052042
vt 0.940395 0.901219
vt 0.671549 0.041793
vt 0.972095 0.847895
vt 0.649391 0.024834
vt 0.977738 0.823658
vt 0.644919 0.018984
vt 0.535159 0.411298
vt 0.198370 0.611628
vt 1.000000 0.680124
vt 0.680124 0.680124
vt 0.180759 0.883785
vt 0.845945 0.700934
vt 0.194912 0.851207
vt 0.983377 0.796507
vt 0.640808 0.012632
vt 0.708716 0.000000
vt 0.155648 0.660847
vt 1.000000 0.291284
vt 0.824630 0.703681
vt 0.992352 0.672421
vt 0.196609 0.846914
vt 0.196322 0.847648
vt 0.916582 0.188335
vt 0.206700 0.597033
vt 0.257306 0.597216
vt 0.958174 0.842329
vt 0.805072 0.731714
vt 0.415890 0.681427
vt 0.987945 0.670200
vt 0.773722 0.697282
vt 0.754137 0.046866
vt 0.166081 0.000000
vt 0.264422 0.601229
vt 1.000000 0.833919
vt 0.178857 0.024829
vt 0.267766 0.603118
vt 0.927637 0.158175
vt 0.112483 0.847648
vt 0.916618 0.236204
vt 0.118596 0.851207
vt 0.069824 0.036923
vt 0.218159 0.584396
vt 1.000000 0.871945
vt 0.871945 0.871945
vt 0.698522 0.059619
vt 0.240316 0.138213
vt 0.283668 0.611950
vt 0.263544 0.174884
vt 0.289485 0.615076
vt 0.972512 0.020353
vt 0.040707 0.040707
vt 0.225989 0.580425
vt 0.054977 0.000000
vt 0.613443 0.567278
vt 0.774456 0.032661
vt 0.771181 0.034775
vt 0.770619 0.035136
vt 0.637260 0.589883
vt 0.771742 0.034415
vt 0.767051 0.037469
vt 0.667879 0.617774
vt 0.213211 0.089748
vt 0.276703 0.608117
vt 0.884474 0.843935
vt 0.717972 0.069339
vt 0.984280 0.834221
vt 0.729244 0.065346
vt 0.729741 0.064937
vt 0.729182 0.064926
vt 0.830032 0.060636
vt 0.210023 0.590720
vt 0.555541 0.510394
vt 0.781555 0.028110
vt 0.782576 0.027033
vt 0.956786 0.092736
vt 0.316931 0.239980
vt 0.302258 0.621768
vt 0.412269 0.809526
vt 0.979014 0.956497
vt 0.958027 0.000000
vt 0.045033 0.000000
vt 0.960455 0.882336
vt 0.660012 0.034150
vt 0.557824 0.486358
vt 0.952170 0.091520
vt 0.902227 0.138065
vt 0.682305 0.051795
s 1
usemtl Hammer.007
f 63/93/1 119/213/2 120/215/3 62/92/4 64/94/5
s 0
f 1/1/6 2/5/6 85/128/6 144/273/6 84/125/6
f 85/129/7 2/3/7 3/7/7 136/252/7
f 136/253/8 3/6/8 86/131/8 152/295/8 87/135/8
f 3/6/9 9/23/9 86/132/9
f 86/133/10 9/22/10 10/27/10 92/146/10 91/143/10 90/141/10 89/139/10 93/149/10 124/223/10 120/214/10 119/212/10 95/154/10 150/291/10 94/152/10 118/210/10 88/137/10
f 92/147/11 10/25/11 96/156/11
f 96/157/12 10/25/12 125/225/12
f 126/228/13 129/236/13 100/165/13 99/163/13 98/161/13 148/285/13 97/159/13 138/257/13 137/255/13 143/271/13 132/244/13 131/241/13 8/21/13 122/218/13 123/221/13
s 1
f 100/166/14 129/237/15 102/170/16 149/287/17 83/122/18 19/43/19 18/41/20 91/144/21 92/148/17 96/158/17 125/226/17 103/173/17 104/176/17 107/186/22
s 0
f 5/13/23 4/9/23 149/288/23
f 5/13/24 6/14/24 4/11/24
f 2/3/25 1/2/25 4/11/25
f 7/17/26 3/7/26 2/4/26
f 7/17/27 12/29/27 3/8/27
f 12/30/28 9/23/28 3/8/28
s 1
f 143/272/29 109/192/30 106/184/31 132/245/32
s 0
f 13/32/33 14/33/33 10/26/33
f 14/34/34 103/174/34 125/227/34 10/26/34
f 14/34/35 13/31/35 104/177/35 103/175/35
f 104/178/36 13/32/36 105/179/36 146/279/36 127/232/36 106/182/36 108/187/36 107/185/36
f 113/199/37 112/197/37 111/195/37 108/188/37 106/183/37 109/191/37 121/216/37 110/193/37
f 11/28/38 6/14/38 8/19/38
f 6/16/39 5/12/39 8/19/39
f 6/15/40 11/28/40 139/259/40
s 1
f 46/74/41 23/48/42 45/73/43 75/105/44 74/104/45
f 90/142/46 22/47/20 46/74/41 74/104/45 75/105/44 45/73/43 23/48/42 82/121/47 151/294/48 20/45/49 43/71/50 76/106/51 44/72/52 21/46/53 89/140/54
f 47/75/55 48/76/56 50/78/57 49/77/58
f 48/76/56 16/36/59 51/79/60 50/78/57
f 49/77/58 50/78/57 53/81/61 52/80/62
f 50/78/57 51/79/60 54/82/63 53/81/61
f 60/90/64 61/91/65 78/111/66 130/240/67 32/59/68
f 24/49/69 25/51/70 16/36/59 48/76/56
f 16/36/59 39/66/71 38/65/72 51/79/60
f 51/79/60 38/65/72 37/64/73 54/82/63
f 54/82/63 37/64/73 141/265/74 31/58/75
f 53/81/61 54/82/63 31/58/75 30/57/76
f 52/80/62 53/81/61 30/57/76 29/56/77
f 40/67/78 52/80/62 29/56/77 15/35/79
f 41/68/80 49/77/58 52/80/62 40/67/78
f 42/69/81 47/75/55 49/77/58 41/68/80
s 0
f 12/29/82 7/18/82 6/15/82 139/260/82 135/250/82 105/180/82 13/31/82
s 1
f 36/63/83 116/205/84 77/107/85
f 112/198/86 113/200/87 97/160/88 148/286/89
f 93/150/90 89/140/54 21/46/53 17/40/91
f 55/83/92 56/84/93 58/86/94 57/85/95
f 56/84/93 59/88/96 58/86/94
f 57/85/95 58/86/94 61/91/65 60/90/64
f 58/86/94 59/89/96 78/111/66 61/91/65
f 15/35/79 29/56/77 55/83/92 28/55/97
f 29/56/77 30/57/76 56/84/93 55/83/92
f 30/57/76 31/58/75 59/87/96 56/84/93
f 31/58/75 141/266/74 142/269/98 59/87/96
f 59/88/96 142/269/98 79/114/99
f 59/89/96 79/114/99 78/112/66
s 0
f 149/289/100 102/171/100 101/167/100 133/246/100 134/248/100 122/219/100 8/20/100 5/13/100
s 1
f 27/54/101 57/85/95 60/90/64 26/53/102
f 28/55/97 55/83/92 57/85/95 27/54/101
f 127/233/103 146/280/104 115/203/105 128/234/106
s 0
f 1/2/107 84/126/107 145/275/107 77/108/107 116/206/107 117/208/107 130/239/107 78/113/107 79/115/107 142/270/107 141/267/107 140/263/107 80/116/107 147/281/107 81/118/107 151/293/107 82/120/107 83/123/107 149/290/107 4/10/107
s 1
f 98/162/108 99/164/109 108/189/110 111/196/111
f 113/200/87 110/194/112 138/258/113 97/160/88
f 131/242/114 132/245/32 106/184/31 127/233/103 128/234/106
f 115/203/105 146/280/104 105/181/115 135/251/116 114/201/117
f 126/229/118 101/168/119 102/172/16 129/238/15
f 137/256/120 121/217/121 109/192/30 143/272/29
s 0
f 13/32/122 10/27/122 9/24/122 12/30/122
s 1
f 36/63/83 152/296/123 86/134/124 88/138/125 33/60/126 32/59/68 130/240/67 117/209/124 116/207/84
f 135/251/116 139/261/127 114/201/117
f 122/220/128 134/249/129 123/222/130
f 18/42/20 19/44/19 23/48/42 46/74/41 22/47/20
f 73/103/131 150/292/132 95/155/133 34/61/134
f 62/92/4 41/68/80 40/67/78 64/94/5
f 64/94/5 40/67/78 15/35/79 35/62/135
f 63/93/1 64/94/5 35/62/135 34/61/134
f 124/224/136 42/69/81 41/68/80 62/92/4 120/215/3
f 77/109/85 66/96/137 67/97/138 87/136/139 152/296/123 36/63/83
f 65/95/140 145/276/141 84/127/142 144/274/143
f 144/274/143 85/130/144 65/95/140
f 66/96/137 77/110/85 145/277/141
f 138/258/113 110/194/112 121/217/121 137/256/120
f 68/98/145 69/99/146 71/101/147 70/100/148
f 70/100/148 71/101/147 73/103/131 72/102/149
f 93/151/90 17/39/91 24/49/69 48/76/56 47/75/55 42/69/81 124/224/136
f 33/60/126 88/138/125 118/211/150 69/99/146 68/98/145
f 32/59/68 33/60/126 68/98/145 26/53/102 60/90/64
f 72/102/149 73/103/131 34/61/134 35/62/135
f 28/55/97 72/102/149 35/62/135 15/35/79
f 27/54/101 70/100/148 72/102/149 28/55/97
f 26/53/102 68/98/145 70/100/148 27/54/101
f 37/64/73 140/264/151 141/268/74
f 38/65/72 80/117/152 140/264/151 37/64/73
f 80/117/152 38/65/72 39/66/71 147/282/153
f 147/283/153 39/66/71 16/37/59
f 17/40/91 21/46/53 43/70/50 20/45/49 16/38/59 25/52/70 24/50/69
f 69/99/146 118/211/150 94/153/154 71/101/147
f 21/46/53 44/72/52 76/106/51
f 87/136/139 67/97/138 66/96/137 145/278/141 65/95/140 85/130/144 136/254/155
s 0
f 115/204/156 114/202/156 139/262/156 11/28/156 8/21/156 131/243/156 128/235/156
s 1
f 16/38/59 20/45/49 151/294/48 81/119/157 147/284/153
f 100/166/14 107/186/22 108/190/110 99/164/109
f 90/142/46 91/145/21 18/42/20 22/47/20
f 98/162/108 111/196/111 112/198/86 148/286/89
f 63/93/1 34/61/134 95/155/133 119/213/2
f 126/230/118 133/247/158 101/169/119
f 94/153/154 150/292/132 73/103/131 71/101/147
f 133/247/158 126/231/118 123/222/130 134/249/129
f 43/71/50 21/46/53 76/106/51
f 82/121/47 23/48/42 19/44/19 83/124/18
s 0
f 6/16/159 7/18/159 2/5/159 4/11/159
