# Blender 3.3.1
# www.blender.org
mtllib 01.mtl
o Hammer_cell.001
v -1.725796 -0.603005 -3.988283
v -2.919719 -0.292546 -4.467139
v -5.068445 -2.211936 -6.009302
v -0.794395 2.015296 -7.086799
v -1.119418 -3.380946 -7.067468
v -1.117857 2.698539 -7.504045
v -0.039333 -0.014595 -5.755224
v 0.141324 0.920592 -5.565459
v -0.041276 1.190482 -5.756498
v -0.134850 0.874137 -5.924064
v -1.087228 -2.023400 -7.502169
v -1.083390 -1.047709 -7.502169
v -0.133673 -0.310840 -5.923434
v -1.668385 -3.580523 -7.250116
v -0.901112 -2.663354 -7.267426
v -0.793199 -1.818777 -7.086706
v -0.785864 -0.276062 -7.086123
v -0.795483 -2.247844 -7.086838
v -0.790576 1.291779 -7.086496
v -0.786691 0.508342 -7.086189
v -1.454348 -4.012707 -6.489462
v -0.905953 2.883136 -7.256490
v -1.082396 0.760241 -7.502169
v -1.080915 0.243682 -7.502165
v -1.487874 2.877705 -7.524527
v -1.087959 2.198347 -7.502044
v 0.010032 0.593281 -5.666284
v -1.086343 1.769128 -7.502169
v -1.084404 1.275898 -7.502169
v -1.228536 -2.705295 -7.523567
v -0.636033 0.794062 -6.816117
v -0.457543 0.822577 -6.498491
v -0.280164 0.562326 -6.183898
v -0.455961 0.264462 -6.498095
v -0.461746 1.908703 -6.499547
v -0.639692 1.594445 -6.816662
v -0.459679 1.379577 -6.499027
v -1.252844 -3.052617 -7.490378
v -1.081529 -0.531154 -7.502169
v -1.792622 -3.292946 -7.506003
v -1.599331 -2.976369 -7.524527
v -1.651614 -2.612338 -7.529464
v -1.493457 -3.822838 -6.802358
v -0.644032 -2.494452 -6.816945
v -0.464858 -2.573458 -6.499944
v -1.057031 -2.380054 -7.485822
v -1.166157 -3.626815 -6.800971
v -1.055932 -3.784362 -6.487346
v -1.085395 -1.557088 -7.502169
v -2.013364 -2.653944 -7.529088
v -2.075845 -3.048856 -7.524115
v -0.954700 -3.051215 -7.250414
v -0.636033 -0.823253 -6.816117
v -0.456618 -0.572711 -6.498258
v -0.280956 -0.879980 -6.184206
v -0.638480 -1.361326 -6.816483
v -0.459679 -1.408768 -6.499027
v -0.894597 -1.293683 -7.270639
v -0.891711 -0.782602 -7.270522
v -0.744665 -3.230851 -6.802093
v -1.445207 -3.349805 -7.416072
v -0.649812 -2.887635 -6.812598
v -0.901159 2.506005 -7.269434
v -5.485749 -1.973165 -7.529659
v -2.077243 2.294812 -7.529247
v -1.817043 2.620675 -7.529325
v -5.485034 -2.653944 -7.529469
v -5.483258 -3.048856 -7.524527
v -5.220638 -3.979250 -6.570245
v -3.226914 -4.438764 -5.757924
v -0.748127 -3.480146 -6.531155
v -2.132824 -4.438764 -5.757765
v 0.141324 -0.258503 -5.565459
v -0.161205 -1.487980 -5.968914
v -0.136940 1.648954 -5.925182
v -5.468115 -3.424255 -7.470714
v -0.706302 2.594234 -6.924326
v 0.009958 -0.660019 -5.666334
v -5.357630 -3.697066 -7.068646
v -0.316254 -2.233629 -6.240567
v 0.141324 0.739577 -5.005037
v -0.496912 -3.043173 -6.523839
v -0.284317 1.895561 -6.185503
v -1.559150 -4.205489 -6.170251
v -1.173255 3.059750 -7.446782
v -0.542470 2.325417 -6.639419
v -2.708138 -4.625463 -5.565172
vn -0.4146 -0.2409 0.8775
vn -0.1093 0.6917 0.7139
vn -0.1094 0.6916 0.7140
vn 0.8393 0.0195 -0.5433
vn 0.8686 0.0529 -0.4927
vn 0.8708 0.0135 -0.4914
vn 0.7314 0.2578 -0.6313
vn 0.7068 0.3476 -0.6162
vn 0.8534 0.1314 -0.5044
vn 0.3811 0.3638 -0.8500
vn -0.9644 -0.0008 0.2646
vn 0.0056 -0.0476 -0.9988
vn -0.0010 -0.0120 -0.9999
vn 0.0009 -0.0071 -1.0000
vn 0.8720 -0.0015 -0.4895
vn 0.8713 -0.0040 -0.4907
vn 0.8713 -0.0012 -0.4907
vn 0.8119 0.0046 -0.5838
vn 0.2332 -0.0009 -0.9724
vn 0.0046 0.0108 -0.9999
vn 0.5826 -0.0000 -0.8128
vn 0.8701 -0.0009 -0.4929
vn 0.8790 0.0065 -0.4768
vn 0.8721 0.0018 -0.4893
vn 0.8721 0.0014 -0.4894
vn 0.7793 -0.0041 -0.6267
vn 0.8709 -0.0039 -0.4915
vn 0.8688 -0.0046 -0.4951
vn 0.6654 0.1196 -0.7369
vn 0.8780 -0.0900 -0.4701
vn 0.6618 -0.5080 -0.5512
vn 0.8703 0.0036 -0.4924
vn 0.8710 0.0025 -0.4914
vn 0.8708 0.0030 -0.4917
vn 0.7967 -0.0294 -0.6037
vn 0.8723 0.0019 -0.4889
vn 0.8711 0.0026 -0.4911
vn 0.8695 -0.0197 -0.4936
vn 0.8698 -0.0067 -0.4933
vn 0.8703 -0.0035 -0.4925
vn -0.0606 -0.6764 -0.7340
vn 0.0027 -0.1243 -0.9922
vn -0.0504 -0.3864 -0.9210
vn 0.6368 -0.3774 0.6723
vn 0.8723 -0.0008 -0.4890
vn 0.8719 -0.0019 -0.4897
vn 0.8715 0.0035 -0.4904
vn 0.8708 0.0042 -0.4917
vn 0.3949 -0.7501 -0.5304
vn 0.0419 -0.8455 -0.5323
vn 0.1543 -0.8397 -0.5206
vn 0.8692 0.0048 -0.4945
vn 0.5512 -0.6531 -0.5193
vn 0.4312 -0.7234 -0.5393
vn 0.8109 0.0021 -0.5852
vn 0.8191 -0.0097 -0.5736
vn -0.1073 0.6908 0.7151
vn -0.0586 -0.0038 -0.9983
vn 0.8751 0.0280 -0.4831
vn 0.0018 -0.2243 -0.9745
vn 0.0001 -0.0116 -0.9999
vn 0.8713 -0.0026 -0.4908
vn 0.0001 -0.0002 -1.0000
vn -0.0002 -0.0000 -1.0000
vn 0.7227 -0.5178 -0.4577
vn 0.0484 -0.8653 -0.4990
vn 0.0001 -0.5813 -0.8137
vn -0.0001 -0.8685 -0.4957
vn 0.8751 0.0006 -0.4839
vn 0.7902 -0.0096 -0.6128
vn 0.8677 -0.0044 -0.4970
vn 0.0892 -0.8942 -0.4387
vn 0.6214 -0.5863 -0.5197
vn 0.7431 -0.4162 -0.5239
vn 0.8511 -0.1442 -0.5048
vn 0.5342 -0.6749 -0.5091
vn 0.0004 0.0033 -1.0000
vn 0.8707 0.0039 -0.4918
vn 0.8681 -0.0474 -0.4942
vn 0.8679 -0.0287 -0.4960
vn 0.8669 -0.0532 -0.4956
vn 0.8715 -0.0021 -0.4905
vn 0.8377 0.0018 -0.5462
vn 0.8710 0.0024 -0.4913
vn 0.8672 -0.0048 -0.4980
vn 0.8668 0.0069 -0.4986
vn -0.1093 0.6916 0.7139
vn -0.1094 0.6916 0.7139
vn -0.1093 0.6916 0.7140
vn 0.0011 0.0033 -1.0000
vn 0.0090 0.0137 -0.9999
vn -0.9644 -0.0009 0.2645
vn -0.9644 -0.0009 0.2646
vn -0.9644 -0.0010 0.2643
vn -0.7459 0.5957 0.2981
vn -0.7459 0.5956 0.2981
vn -0.7460 0.5955 0.2983
vn 0.8717 0.0026 -0.4901
vn 0.0011 -0.0001 -1.0000
vn 0.8712 0.0018 -0.4909
vn 0.6372 -0.3773 0.6720
vn 0.6369 -0.3775 0.6722
vn 0.6368 -0.3777 0.6721
vn 0.6369 -0.3777 0.6722
vn 0.6369 -0.3776 0.6722
vn 0.6369 -0.3775 0.6723
vn 0.6369 -0.3776 0.6721
vn 0.6368 -0.3777 0.6722
vn 0.6367 -0.3774 0.6724
vn 0.6368 -0.3774 0.6724
vn 0.6371 -0.3775 0.6721
vn 0.6370 -0.3774 0.6721
vn 0.6369 -0.3774 0.6723
vn 0.6370 -0.3776 0.6720
vn 0.7478 0.0064 -0.6639
vn -0.1072 0.6908 0.7151
vn -0.1073 0.6907 0.7151
vn -0.1072 0.6907 0.7151
vn 0.0012 0.0036 -1.0000
vn 0.0014 0.0004 -1.0000
vn 0.0001 -0.8698 -0.4934
vn 0.0008 -0.8124 -0.5830
vn 0.0007 -0.8701 -0.4928
vn -0.4135 -0.2430 0.8775
vn -0.4136 -0.2430 0.8775
vn -0.4135 -0.2429 0.8775
vn 0.6864 -0.5054 -0.5229
vn 0.0002 -0.8702 -0.4927
vn 1.0000 -0.0000 -0.0000
vt 0.000000 0.000000
vt 1.000000 1.000000
vt 1.000000 0.000000
vt 1.000000 0.000000
vt 0.000000 0.000000
vt 1.000000 1.000000
vt 1.000000 0.000000
vt 0.000000 0.000000
vt 1.000000 1.000000
vt 0.818693 0.904241
vt 0.826204 0.904241
vt 0.826185 0.911595
vt 0.029255 0.893470
vt 0.033278 0.893469
vt 0.041210 0.904241
vt 0.029255 0.904241
vt 0.731061 0.104637
vt 0.797867 0.911595
vt 0.793085 0.916010
vt 0.716946 0.581415
vt 0.801232 0.916011
vt 0.801462 0.911595
vt 0.733179 0.587489
vt 0.730177 0.591634
vt 0.879366 0.218368
vt 0.898354 0.851207
vt 0.898354 0.857905
vt 0.907613 0.851207
vt 0.898354 0.846180
vt 0.874959 0.241470
vt 0.879835 0.845760
vt 0.858323 0.264244
vt 0.858323 0.276480
vt 0.410838 0.147679
vt 0.870576 0.845760
vt 0.861335 0.851207
vt 0.861336 0.857905
vt 0.508547 0.182197
vt 0.858323 0.292159
vt 0.870584 0.857905
vt 0.879838 0.851207
vt 0.870584 0.868276
vt 0.909992 0.584230
vt 0.911061 0.585809
vt 0.912204 0.587579
vt 0.971051 0.918467
vt 0.899238 0.581346
vt 0.870858 0.582632
vt 0.944605 0.918467
vt 0.880913 0.582666
vt 0.907613 0.857905
vt 0.055859 0.911595
vt 0.060553 0.904241
vt 0.049622 0.904241
vt 0.044603 0.904241
vt 0.062834 0.904241
vt 0.062839 0.911595
vt 0.007153 0.916038
vt 0.010510 0.911595
vt 0.003636 0.907397
vt 0.001855 0.916003
vt 0.998366 0.914688
vt 0.998366 0.916002
vt 0.005404 0.905111
vt 0.962320 0.904240
vt 0.962334 0.911595
vt 0.898354 0.911595
vt 0.916870 0.904241
vt 0.898354 0.904241
vt 0.978064 0.904349
vt 0.991825 0.907397
vt 0.852122 0.904241
vt 0.879838 0.911595
vt 0.879838 0.904241
vt 0.889095 0.904241
vt 0.051645 0.880806
vt 0.058195 0.880806
vt 0.514902 0.125676
vt 0.049622 0.880806
vt 0.060553 0.869098
vt 0.795182 0.908564
vt 0.793100 0.911595
vt 0.608725 0.143308
vt 0.870583 0.916011
vt 0.800614 0.581157
vt 0.870584 0.911595
vt 0.879837 0.916010
vt 0.810571 0.581138
vt 0.819971 0.587390
vt 0.898354 0.916010
vt 0.889095 0.911595
vt 0.835993 0.082377
vt 0.714147 0.582429
vt 1.000000 0.066091
vt 0.728699 0.593833
vt 0.940487 0.075871
vt 0.733221 0.599900
vt 0.806019 0.916011
vt 0.811974 0.911595
vt 0.740484 0.587508
vt 0.750978 0.584149
vt 0.749908 0.585727
vt 0.752018 0.582699
vt 0.748762 0.587496
vt 0.818576 0.916011
vt 0.879837 0.847647
vt 0.889095 0.847647
vt 0.889095 0.846180
vt 0.761735 0.581276
vt 0.834374 0.911595
vt 0.834279 0.916011
vt 0.770215 0.582641
vt 0.790114 0.582591
vt 0.852121 0.911595
vt 0.008887 0.918467
vt 0.933596 0.596081
vt 0.003637 0.916691
vt 0.925868 0.596088
vt 0.879838 0.893469
vt 0.870584 0.904241
vt 0.870584 0.893469
vt 0.879838 0.880806
vt 0.870584 0.880806
vt 0.879838 0.868276
vt 0.889095 0.880806
vt 0.834388 0.880806
vt 0.843083 0.880806
vt 0.834388 0.893469
vt 0.843083 0.893469
vt 0.843083 0.904241
vt 0.852122 0.893469
vt 0.852122 0.880806
vt 0.008855 0.916011
vt 0.012221 0.916011
vt 0.940170 0.596025
vt 0.945480 0.595898
vt 0.025496 0.911595
vt 0.850402 0.581158
vt 0.926125 0.916010
vt 0.907613 0.916010
vt 0.916870 0.911595
vt 0.953310 0.605206
vt 0.055827 0.916011
vt 0.956516 0.608895
vt 0.958763 0.610682
vt 0.062874 0.916011
vt 0.949436 0.607269
vt 0.949260 0.605361
vt 0.944001 0.607365
vt 0.941348 0.598036
vt 0.937225 0.607418
vt 0.934713 0.598090
vt 0.927733 0.599999
vt 0.928365 0.601840
vt 0.058195 0.893470
vt 0.051645 0.893469
vt 0.985115 0.894066
vt 0.991825 0.895443
vt 0.001855 0.897703
vt 0.901410 0.346413
vt 0.985115 0.880791
vt 0.363358 0.353481
vt 0.001855 0.880717
vt 0.920483 0.587600
vt 0.001855 0.917317
vt 0.985152 0.916228
vt 0.985119 0.912220
vt 0.991826 0.913659
vt 0.047355 0.893469
vt 0.049622 0.893470
vt 0.037348 0.893470
vt 0.041210 0.893470
vt 0.037348 0.880806
vt 0.676876 0.170987
vt 0.763643 0.205837
vt 0.047355 0.880806
vt 0.953629 0.911595
vt 0.953663 0.916010
vt 0.889947 0.581303
vt 0.937316 0.615880
vt 0.929302 0.613514
vt 0.953487 0.607121
vt 0.953563 0.609085
vt 0.944108 0.615832
vt 0.012240 0.911595
vt 0.012242 0.904241
vt 0.010509 0.904241
vt 0.025502 0.904241
vt 0.007144 0.904350
vt 0.926124 0.893469
vt 0.926124 0.904240
vt 0.935372 0.893470
vt 0.916870 0.880806
vt 0.907613 0.880806
vt 0.916870 0.868276
vt 0.926124 0.868276
vt 0.926124 0.857905
vt 0.944586 0.904241
vt 0.944586 0.893469
vt 0.944586 0.880806
vt 0.935372 0.880806
vt 0.944587 0.911595
vt 0.926124 0.911595
vt 0.961192 0.292519
vt 0.025502 0.893469
vt 0.014165 0.893469
vt 0.952980 0.603335
vt 0.053611 0.916011
vt 0.044624 0.911595
vt 0.029247 0.911595
vt 0.946696 0.597918
vt 0.010509 0.893469
vt 0.012242 0.893470
vt 0.003636 0.895443
vt 0.806189 0.911595
vt 1.000000 0.888721
vt 0.888721 0.888721
vt 0.903745 0.743565
vt 0.940682 0.153892
vt 0.743976 0.615818
vt 0.735090 0.595991
vt 0.940653 0.091946
vt 0.732587 0.601741
vt 0.937259 0.743568
vt 0.968128 0.752564
vt 0.895377 0.678084
vt 0.929238 0.743574
vt 0.836645 0.615087
vt 0.944063 0.743540
vt 0.956547 0.743206
vt 0.321158 0.000000
vt 0.321159 0.321159
vt 0.180715 0.884069
vt 0.992352 0.783093
vt 0.212911 0.141361
vt 0.358091 0.268589
vt 0.118069 0.851207
vt 0.894861 0.262036
vt 0.854728 0.244392
vt 0.930301 0.278076
vt 0.025502 0.881909
vt 0.033278 0.880806
vt 0.992352 0.805251
vt 0.153566 0.067797
vt 0.232762 0.080433
vt 0.085286 0.851207
vt 0.874959 0.209330
vt 0.785265 0.092900
vt 0.858323 0.230198
vt 0.944586 0.859660
vt 0.567550 0.240087
vt 0.589721 0.227865
vt 0.940598 0.857905
vt 0.846349 0.857905
vt 0.639039 0.228431
vt 0.956662 0.425289
vt 0.958772 0.742996
vt 0.189919 0.911595
vt 0.796317 0.907375
vt 0.813048 0.891560
vt 0.806213 0.904241
vt 0.811988 0.904241
vt 0.322618 0.277752
vt 0.540612 0.173441
vt 1.000000 0.292365
vt 0.879366 0.198847
vt 0.742956 0.143939
vt 0.674306 0.181362
vt 0.925713 0.851207
vt 0.395764 0.327373
vt 0.187317 0.904241
vt 0.962320 0.867180
vt 0.978064 0.873285
vt 0.472540 0.292582
vt 0.394749 0.335770
vt 0.970504 0.870458
vt 1.000000 0.092722
vt 0.092722 0.092722
vt 0.836326 0.269374
vt 0.008843 0.893469
vt 0.003636 0.880999
vt 0.717395 0.327654
vt 0.014165 0.883659
vt 0.005404 0.894066
vt 0.836902 0.868276
vt 0.843083 0.868276
vt 0.841298 0.300202
vt 0.495826 0.122593
vt 0.062834 0.867895
vt 0.791350 0.912769
vt 0.714877 0.580919
vt 0.826204 0.879213
vt 0.818693 0.886374
vt 0.826204 0.880806
vt 0.709442 0.054112
vt 0.877957 0.192243
vt 0.987945 0.790553
vt 0.045227 0.045227
vt 0.045227 0.000000
s 0
usemtl Hammer.023
f 1/1/1 2/4/1 3/9/1
f 6/17/2 25/92/2 22/83/3
s 1
f 6/18/4 22/81/5 77/259/6
f 6/19/7 85/290/8 22/82/9
f 85/291/8 6/20/7 25/93/10
s 0
f 76/256/11 79/270/11 68/228/11
s 1
f 41/149/12 50/180/13 42/151/14
f 54/193/15 53/190/16 17/68/17
f 29/113/18 12/48/19 26/101/20
f 73/247/21 78/266/22 7/25/23
f 7/27/23 34/125/24 33/124/25
f 49/177/26 56/198/27 16/65/28
f 30/115/29 15/58/30 38/133/31
f 86/292/32 83/285/33 35/126/34
f 9/37/35 10/42/36 37/132/37
f 44/157/38 18/70/39 80/273/40
f 41/147/12 40/142/41 51/182/42
f 41/148/12 61/207/43 40/142/41
f 38/135/31 42/152/14 30/116/29
s 0
f 82/282/44 45/160/44 71/238/44
s 1
f 13/51/45 55/195/46 54/194/15
f 31/120/47 29/114/18 19/72/48
f 47/170/49 21/76/50 43/156/51
f 77/260/6 86/293/32 4/10/52
f 80/276/40 16/65/28 56/199/27
f 47/171/49 71/242/53 48/173/54
f 24/88/55 39/138/56 29/113/18
s 0
f 2/6/57 81/278/57 9/34/57
s 1
f 11/45/58 46/164/59 30/118/29
f 50/180/13 68/229/60 67/224/61
f 57/200/62 80/276/40 56/199/27
f 50/181/13 64/218/63 65/220/64
f 38/134/31 15/59/30 52/185/65
f 26/99/20 77/262/6 4/10/52
f 72/243/66 87/297/67 70/234/68
f 27/108/69 9/35/35 8/31/70
f 59/203/71 17/68/17 53/191/16
f 61/208/43 14/52/72 40/143/41
f 60/206/73 52/186/65 62/213/74
f 52/187/65 82/280/75 62/212/74
f 61/209/43 5/15/76 14/55/72
f 66/223/77 42/154/14 65/220/64
f 31/121/47 19/72/48 36/131/78
f 38/137/31 5/16/76 61/210/43
f 15/64/30 62/214/79 82/284/75
f 15/60/30 44/159/38 62/214/79
f 62/214/79 45/163/80 82/281/81
f 80/272/40 57/200/62 74/250/82
f 72/246/66 70/237/68 14/56/72
f 23/84/83 20/73/84 24/87/55
f 53/191/16 58/202/85 59/203/71
f 6/21/4 63/215/86 26/98/20
f 6/22/4 77/261/6 63/215/86
f 63/215/86 77/262/6 26/99/20
s 0
f 25/94/87 2/6/87 77/263/88
f 25/94/89 77/264/89 22/83/3
s 1
f 26/100/20 66/221/90 6/23/4
f 25/95/91 6/24/4 66/221/90
f 14/53/72 43/155/51 21/77/50
f 4/10/52 86/293/32 36/128/78
f 86/294/32 35/126/34 36/128/78
s 0
f 79/270/92 69/231/92 3/7/92
f 3/7/93 64/216/93 67/225/93
f 67/226/94 68/228/94 79/270/94
f 3/7/92 67/226/92 79/270/92
s 1
f 41/149/12 51/184/42 50/180/13
f 55/196/46 74/253/82 57/201/62
f 55/196/46 57/201/62 54/193/15
f 57/201/62 53/190/16 54/193/15
f 11/43/58 26/101/20 12/48/19
f 8/30/70 73/247/21 7/25/23
s 0
f 25/96/95 66/222/96 2/5/96
f 65/219/95 64/217/95 2/5/95
f 64/217/97 3/8/97 2/5/97
f 66/222/95 65/219/95 2/5/95
s 1
f 49/178/26 39/139/56 58/202/85
f 39/139/56 59/203/71 58/202/85
f 34/125/24 32/122/98 33/124/25
f 9/36/35 27/106/69 10/40/36
f 7/27/23 17/69/17 34/125/24
f 17/69/17 20/75/84 34/125/24
f 10/41/36 7/27/23 33/124/25
f 26/102/20 11/44/58 24/89/99
f 7/26/23 10/41/36 27/107/69
f 49/177/26 58/202/85 56/198/27
f 32/123/98 10/42/36 33/124/25
f 32/122/98 34/125/24 31/119/47
f 34/125/24 20/75/84 31/119/47
f 30/117/29 46/165/59 15/61/30
f 35/127/34 37/132/37 36/129/78
f 10/42/36 32/123/98 37/132/37
f 37/132/37 35/127/34 83/286/33
f 37/132/37 83/286/33 9/37/35
f 83/286/33 75/254/100 9/37/35
f 80/273/40 45/161/80 44/157/38
f 51/183/42 40/144/41 68/230/60
f 38/135/31 41/150/12 42/152/14
f 38/136/31 61/211/43 41/150/12
s 0
f 78/267/101 73/248/101 1/2/101
f 73/248/101 81/277/102 1/2/102
f 1/2/103 87/298/104 72/244/105
f 72/245/106 84/288/106 80/275/106
f 84/288/107 21/78/105 48/174/108
f 80/275/109 84/288/109 45/162/109
f 45/162/110 84/288/110 48/175/110
f 48/175/111 71/239/102 45/162/112
f 71/240/113 60/204/113 82/282/106
f 80/274/101 74/251/101 1/2/101
f 74/252/101 78/268/101 1/2/101
f 80/275/114 1/2/114 72/245/114
s 1
f 17/69/17 7/27/23 54/194/15
f 7/27/23 13/51/45 54/194/15
f 13/51/45 7/28/23 55/197/46
f 7/28/23 78/269/22 55/197/46
f 78/269/22 74/253/82 55/197/46
f 31/120/47 23/86/83 29/114/18
f 47/169/49 48/176/54 21/79/50
f 14/54/72 47/170/49 43/156/51
f 52/188/65 60/205/73 5/13/76
f 5/13/76 60/205/73 71/241/53
f 15/62/30 18/71/39 44/158/38
f 29/112/18 26/103/20 28/109/115
f 18/70/39 16/65/28 80/276/40
f 47/171/49 5/14/76 71/242/53
f 14/55/72 5/15/76 47/172/49
f 12/48/19 29/113/18 39/138/56
f 23/85/83 24/88/55 29/113/18
s 0
f 9/38/116 75/255/57 2/6/117
f 75/255/57 83/287/57 2/6/57
f 83/287/118 86/295/118 2/6/118
f 86/296/118 77/265/118 2/6/118
f 2/6/118 1/2/118 81/278/118
s 1
f 4/11/52 36/130/78 28/110/115
f 36/130/78 19/72/48 29/114/18
f 28/110/115 36/130/78 29/114/18
f 42/154/14 66/223/77 24/89/99
f 66/223/77 25/97/119 26/104/120
f 26/104/20 24/89/99 66/223/77
f 24/89/99 11/45/58 42/154/14
f 42/153/14 11/45/58 30/118/29
f 79/271/121 76/258/122 14/57/72
f 39/139/56 49/178/26 12/49/19
f 49/178/26 46/166/59 11/46/58
f 21/80/50 84/289/123 14/56/72
f 50/180/13 51/184/42 68/229/60
f 76/257/122 68/230/60 40/145/41
f 50/181/13 67/227/61 64/218/63
s 0
f 87/299/124 1/3/124 70/235/124
f 1/3/125 3/9/125 70/236/125
f 3/9/126 69/232/126 70/236/126
s 1
f 46/166/59 49/178/26 16/66/28
f 8/31/70 7/29/23 27/108/69
f 46/167/59 16/66/28 18/70/39
f 39/140/56 24/90/55 17/67/17
f 59/203/71 39/141/56 17/68/17
f 82/283/127 60/206/73 62/213/74
f 50/181/13 65/220/64 42/154/14
f 23/86/83 31/120/47 20/74/84
f 37/132/37 32/123/98 36/131/78
f 32/123/98 31/121/47 36/131/78
f 15/63/30 46/168/59 18/71/39
f 38/137/31 52/188/65 5/16/76
f 52/189/65 15/64/30 82/284/75
f 62/214/79 44/159/38 45/163/80
f 69/233/128 79/271/121 70/237/68
f 79/271/121 14/56/72 70/237/68
f 14/56/72 84/289/123 72/246/66
f 24/91/55 20/75/84 17/69/17
f 40/146/41 14/57/72 76/258/122
f 49/179/26 11/47/58 12/50/19
f 53/191/16 56/198/27 58/202/85
f 28/111/115 26/105/20 4/12/52
f 81/279/129 73/249/21 8/32/70
f 8/33/70 9/39/35 81/279/129
f 53/192/16 57/201/62 56/199/27
