# Blender 3.3.1
# www.blender.org
mtllib 09.mtl
o Hammer_cell.009
v -4.209148 -0.317320 -6.390609
v -7.274487 1.367722 -2.662825
v -3.790964 0.611905 -0.501793
v -6.254508 1.319149 -1.088108
v -1.529908 -0.810035 -4.207321
v -2.481890 -0.765524 -5.694845
v 0.119820 5.127445 -3.738710
v -2.003562 6.736881 -4.270364
v -0.528438 5.909537 -3.907798
v -1.591133 6.706678 -4.801254
v -1.297306 6.546596 -3.193175
v 0.057641 5.255270 -4.270919
v 0.007071 5.332307 -7.985351
v -1.584893 6.706616 -7.985312
v -0.164716 5.536726 -3.740096
v -0.276764 5.655165 -4.259832
v -0.293894 5.669618 -7.985351
v -1.148467 6.431231 -7.985351
v -0.792185 6.132174 -7.985351
v -2.003826 6.736881 -5.198972
v 0.213712 3.186857 -7.985351
v -2.164985 4.950277 -10.658190
v 0.207332 4.512650 -3.738710
v 0.213476 3.936065 -3.738710
v 0.207327 4.511214 -7.985351
v 0.213476 3.934752 -7.985351
v -0.166646 5.538336 -6.127904
v -0.165894 5.537703 -5.198803
v -0.964427 6.281204 -3.806062
v -1.146795 6.430328 -4.353729
v -1.584787 6.706633 -7.064991
v -1.585348 6.706650 -6.194393
v -1.507554 6.677687 -5.423265
v -1.748011 4.640307 -10.658066
v -0.921021 3.712468 -9.792620
v -8.483306 6.736881 -2.586680
v -1.148008 6.431439 -1.220949
v -0.791990 6.132259 -1.096490
v 0.057915 5.255349 -0.766091
v 0.213475 3.936312 -0.468560
v 0.207337 4.512914 -0.587633
v 0.213711 3.298552 -0.338159
v -1.929848 6.730608 -1.421042
v -1.382191 4.377614 -10.504470
v 0.213711 0.164795 -4.387461
v 0.213712 1.172505 -7.165015
v -4.571046 6.736881 -7.985026
v -2.604319 6.736881 -1.542130
v 0.213712 2.020497 -7.985351
v -2.483349 5.239723 -10.418377
v -7.126704 6.736881 -2.345437
v -0.442946 5.814765 -0.969528
vn -0.3104 -0.9357 0.1677
vn -0.3093 -0.9354 0.1715
vn -0.8258 -0.1961 0.5288
vn -0.1736 0.1956 0.9652
vn 1.0000 0.0028 -0.0000
vn 0.9997 0.0232 -0.0000
vn 1.0000 0.0025 -0.0000
vn 0.9994 0.0347 -0.0016
vn 0.9183 0.3959 -0.0011
vn 1.0000 0.0001 -0.0002
vn 0.9763 0.2164 -0.0040
vn 0.0348 0.9332 -0.3578
vn -0.0330 0.9993 -0.0176
vn 0.1167 0.9932 0.0003
vn 0.1848 0.9828 0.0004
vn -0.6777 0.5469 -0.4915
vn -0.0112 0.9993 0.0370
vn -0.1130 0.7636 0.6357
vn -0.0000 1.0000 -0.0000
vn -0.0118 0.9751 -0.2213
vn 0.0013 1.0000 -0.0000
vn -0.1716 0.1971 0.9652
vn -0.1715 0.1974 0.9652
vn -0.1714 0.1975 0.9652
vn -0.7975 -0.1718 -0.5783
vn 0.4720 0.8439 -0.2549
vn 0.3015 0.7402 -0.6010
vn 0.9628 -0.2539 -0.0922
vn 0.8244 -0.5176 0.2288
vn 0.4457 -0.8502 -0.2801
vn 0.4400 -0.8441 -0.3064
vn 0.9619 0.0026 -0.2734
vn -0.1910 0.1966 0.9617
vn 1.0000 -0.0000 -0.0000
vn 0.9707 0.0003 -0.2405
vn 0.6916 0.7222 -0.0059
vn 0.6413 0.7119 -0.2864
vn -0.1714 0.1976 0.9652
vn 0.5668 0.5304 -0.6304
vn 0.6423 0.7664 0.0014
vn 0.6431 0.7657 0.0002
vn 0.6347 0.7727 0.0002
vn 0.0070 1.0000 0.0010
vn 0.0039 1.0000 0.0006
vn 0.0040 1.0000 0.0006
vn 0.0001 0.8521 -0.5234
vn -0.7967 -0.1724 -0.5793
vn -0.7967 -0.1725 -0.5793
vn -0.7979 -0.1758 -0.5766
vn -0.7941 -0.1687 -0.5839
vn 0.1035 -0.7046 -0.7020
vn 0.1070 -0.6909 -0.7150
vn 0.0889 -0.6881 -0.7202
vn 0.1071 -0.6909 -0.7150
vn 0.0897 -0.6865 -0.7216
vn 0.1076 -0.6912 -0.7146
vn 0.1080 -0.6910 -0.7147
vn 0.9603 0.0382 -0.2765
vn 0.9378 0.2055 -0.2797
vn 0.8351 0.1073 -0.5396
vn 0.8502 -0.0000 -0.5264
vn 0.0315 0.9995 0.0015
vn 0.0197 0.9998 0.0017
vn 0.0196 0.9998 0.0025
vn 0.8763 0.4818 -0.0001
vn 0.8689 0.3607 0.3391
vn 0.6324 0.7746 -0.0001
vn 0.6321 0.7749 -0.0001
vn 0.5864 0.8100 -0.0000
vn 0.6121 0.7907 -0.0000
vn 0.2394 0.9709 0.0021
vn 0.1454 0.9894 0.0014
vn 0.1156 0.9933 0.0022
vn 0.6940 0.7200 -0.0035
vn 0.6580 0.7530 0.0025
vn 0.7294 0.6835 -0.0296
vn 0.6431 0.7658 -0.0002
vn 0.6429 0.7660 -0.0017
vn 0.6429 0.7659 -0.0001
vn 0.6420 0.7667 -0.0010
vn 0.1269 -0.6831 -0.7192
vn 0.4511 -0.7062 0.5457
vn 0.4511 -0.7058 0.5462
vn 0.7246 0.6892 0.0002
vn 0.7459 0.6660 0.0001
vn 0.7467 0.6651 -0.0001
vn 0.7478 0.6639 -0.0000
vn 0.1078 -0.6914 -0.7144
vn 0.1079 -0.6916 -0.7142
vn 0.6109 0.7917 -0.0001
vn 0.3878 0.6407 -0.6626
vn 0.4819 0.8762 -0.0000
vn 0.4820 0.8762 0.0001
vn 0.4821 0.8761 -0.0000
vn -0.7976 -0.1714 -0.5783
vn 0.7766 0.3914 -0.4937
vn -0.3084 -0.9359 0.1705
vn -0.3083 -0.9359 0.1703
vn -0.3089 -0.9357 0.1703
vn -0.3094 -0.9356 0.1702
vn 0.7364 0.6765 -0.0001
vn 0.7357 0.6773 -0.0002
vn 0.7961 0.5320 -0.2885
vn 0.7266 0.6870 -0.0004
vn 0.7040 0.5974 -0.3840
vn 0.3505 0.9366 0.0003
vn 0.3508 0.9365 -0.0003
vn 0.3505 0.9366 -0.0000
vn 0.7204 0.6936 0.0013
vn 0.7120 0.7022 -0.0019
vn 0.7171 0.6969 0.0003
vn 0.7177 0.6963 -0.0004
vn 0.7120 0.7021 -0.0019
vn 0.2815 0.9596 0.0012
vn 0.4001 0.9165 0.0010
vn 0.3999 0.9166 0.0015
vn 0.9152 0.4030 -0.0001
vt 0.000000 0.000000
vt 1.000000 1.000000
vt 1.000000 1.000000
vt 1.000000 0.000000
vt 1.000000 1.000000
vt 0.000000 0.000000
vt 0.000000 0.000000
vt 1.000000 0.000000
vt 0.000000 0.000000
vt 1.000000 1.000000
vt 0.000000 0.000000
vt 1.000000 0.000000
vt 0.742910 0.373909
vt 0.879705 0.490177
vt 0.742910 0.377488
vt 0.927632 0.342479
vt 0.000000 0.000000
vt 0.911569 0.490177
vt 0.750656 0.414354
vt 0.915265 0.490177
vt 0.897160 0.490177
vt 0.688645 0.551035
vt 0.000000 0.000000
vt 0.770580 0.449655
vt 0.771787 0.442006
vt 0.728085 0.432666
vt 0.737078 0.436614
vt 0.757374 0.381063
vt 0.757374 0.379270
vt 0.858323 0.382852
vt 0.874959 0.347583
vt 0.858323 0.379265
vt 0.858322 0.384645
vt 0.000000 0.000000
vt 0.858323 0.390257
vt 0.858316 0.448426
vt 0.858309 0.453393
vt 0.858312 0.450909
vt 0.874959 0.404949
vt 0.000000 0.000000
vt 0.893653 0.490177
vt 0.000000 0.000000
vt 0.757374 0.390259
vt 0.757374 0.395870
vt 0.685138 0.551035
vt 0.000000 0.000000
vt 0.858323 0.395868
vt 0.858323 0.401480
vt 0.874959 0.398874
vt 0.000000 0.000000
vt 0.858323 0.438147
vt 0.874959 0.387584
vt 0.874959 0.402924
vt 0.874959 0.381939
vt 0.858323 0.407091
vt 0.927632 0.368957
vt 0.000000 0.000000
vt 0.874959 0.299120
vt 0.000000 0.000000
vt 0.706478 0.594329
vt 0.755009 0.918467
vt 0.742910 0.370330
vt 0.742910 0.372119
vt 0.742911 0.354010
vt 0.877808 0.490177
vt 0.862064 0.490177
vt 0.742911 0.345851
vt 0.855139 0.490177
vt 0.874959 0.326884
vt 0.000000 0.000000
vt 0.874959 0.345358
vt 0.874959 0.318760
vt 0.000000 0.000000
vt 0.807848 0.391039
vt 0.782611 0.396080
vt 0.782611 0.390818
vt 0.000000 0.000000
vt 0.000000 0.000000
vt 0.759642 0.427491
vt 0.833302 0.446056
vt 0.833310 0.441766
vt 0.809343 0.448584
vt 0.809650 0.441827
vt 0.787822 0.448902
vt 0.785834 0.451226
vt 0.788690 0.444105
vt 0.000000 0.000000
vt 0.788692 0.439537
vt 0.788691 0.441896
vt 0.758874 0.916011
vt 0.709891 0.593111
vt 1.000000 0.066449
vt 0.758612 0.918467
vt 0.771010 0.916010
vt 0.787973 0.915405
vt 0.000000 0.000000
vt 0.000000 0.000000
vt 1.000000 0.000000
vt 0.276252 0.162020
vt 0.000000 0.000000
vt 0.951066 0.000000
vt 1.000000 0.048934
vt 0.675848 0.432666
vt 0.877941 0.724516
vt 0.674487 0.427506
vt 0.850629 0.755172
vt 0.000000 0.000000
vt 0.672864 0.421411
vt 0.895152 0.699944
vt 0.671104 0.414834
vt 0.659407 0.370333
vt 0.660101 0.373382
vt 0.989270 0.514168
vt 0.663668 0.387186
vt 0.000000 0.000000
vt 0.654039 0.344643
vt 0.658485 0.366089
vt 0.655786 0.353146
vt 0.000000 0.000000
vt 0.650496 0.327309
vt 0.063973 0.000000
vt 0.000000 0.000000
vt 0.680944 0.456958
vt 0.679925 0.451339
vt 0.678324 0.442949
vt 0.839534 0.759468
vt 0.000000 0.000000
vt 0.793101 0.910497
vt 0.789685 0.914008
vt 0.135925 0.000000
vt 0.757376 0.244595
vt 0.000000 0.000000
vt 1.000000 0.906797
vt 0.836029 0.269531
vt 0.906797 0.906797
vt 0.652423 0.037500
vt 0.415410 0.059968
vt 0.000000 0.000000
vt 0.682056 0.463178
vt 0.000000 0.000000
vt 0.340200 0.240258
vt 0.746561 0.913602
vt 0.491320 0.142744
vt 0.755433 0.916010
vt 0.000000 0.000000
vt 0.268180 0.127685
vt 0.000000 0.000000
vt 0.164599 0.164599
vt 0.000000 0.000000
vt 0.669331 0.408229
vt 0.664784 0.391343
s 0
usemtl Hammer.023
f 6/11/1 2/4/1 1/2/1
f 3/6/2 4/8/2 2/3/2
f 4/7/3 36/98/3 2/3/3
f 36/100/4 4/8/4 3/5/4
s 1
f 24/67/5 41/118/6 40/116/7
f 23/62/8 39/111/9 41/117/6
f 42/120/10 24/67/5 40/116/7
f 23/63/8 7/13/11 39/112/9
f 14/38/12 33/85/13 32/82/14
f 14/36/12 32/82/14 31/80/15
f 24/67/5 23/64/8 41/118/6
f 47/137/16 36/99/17 51/146/18
s 0
f 51/147/19 48/138/19 8/17/19
s 1
f 51/147/18 8/17/20 20/56/21
f 51/147/18 20/56/21 14/37/12
f 51/147/18 14/37/12 47/137/16
s 0
f 3/6/22 42/121/22 36/100/22
s 1
f 42/121/22 51/148/18 36/100/17
s 0
f 42/121/23 41/119/23 51/148/23
f 41/119/24 38/107/24 51/148/24
f 38/107/24 48/138/24 51/148/24
s 1
f 47/136/16 50/145/25 36/101/17
f 14/39/12 18/53/26 50/142/27
f 46/133/28 45/130/29 5/9/30 6/12/31
f 26/73/32 24/67/5 42/120/10
s 0
f 40/116/33 41/119/33 42/121/33
s 1
f 45/131/29 46/134/28 49/140/34
s 0
f 45/131/34 49/140/34 21/57/34
f 45/131/34 21/57/34 42/121/34
s 1
f 21/58/35 26/72/32 42/120/10
s 0
f 39/113/24 38/107/24 41/119/24
s 1
f 18/52/26 9/18/36 19/54/37
s 0
f 37/103/24 43/122/24 38/109/24
f 43/123/24 48/139/24 38/107/24
f 39/113/38 52/149/38 38/107/38
s 1
f 34/90/39 50/144/27 18/49/26
s 0
f 9/19/40 29/77/41 38/108/41
f 29/77/42 37/104/42 38/109/42
s 1
f 43/123/43 8/17/44 48/139/45
s 0
f 14/37/46 50/145/46 47/137/46
f 50/143/47 22/59/48 1/2/48
f 22/60/49 34/91/50 1/2/47
f 34/92/51 44/127/52 1/2/53
f 44/127/54 35/97/54 1/2/55
f 35/97/56 49/141/57 1/1/56
s 1
f 25/71/58 13/31/59 7/14/11 23/65/8
f 21/58/35 44/127/60 26/72/32
f 44/127/60 25/69/58 26/72/32
s 0
f 49/140/61 44/127/61 21/58/61
s 1
f 10/24/62 33/84/13 8/17/20
f 33/85/13 14/38/12 8/17/20
f 14/38/12 20/56/21 8/16/20
s 0
f 43/124/63 10/24/64 8/17/63
s 1
f 39/115/9 12/28/65 13/30/66
s 0
f 29/77/67 30/78/67 37/104/67
s 1
f 30/79/68 11/26/69 37/105/70
f 10/25/71 33/86/72 43/125/73
f 9/23/74 38/110/75 52/150/76
s 0
f 18/52/77 30/78/77 9/19/78
f 30/78/79 29/77/79 9/19/80
f 44/127/81 49/140/81 35/97/81
f 5/10/82 45/132/83 42/121/83 3/6/83
s 1
f 24/68/5 26/73/32 25/70/58 23/66/8
f 15/40/84 52/151/76 39/114/85
s 0
f 13/34/86 16/42/86 15/40/86
f 13/34/87 15/40/87 39/114/87
f 49/141/88 46/135/89 6/11/89 1/2/89
f 30/79/90 18/50/90 11/26/90
s 1
f 50/144/27 34/93/39 22/61/91
s 0
f 11/27/92 33/87/92 37/106/93
f 18/51/94 33/87/94 11/27/94
f 50/145/95 1/2/95 2/3/95 36/102/95
s 1
f 17/48/96 19/55/37 9/20/36
f 34/94/39 18/52/26 19/54/37
s 0
f 5/10/97 3/6/98 2/4/99 6/12/100
s 1
f 13/31/59 25/71/58 44/128/60
f 13/32/59 44/129/60 34/95/39
f 7/15/11 12/29/65 39/115/9
f 27/74/101 28/76/102 13/33/103
f 28/76/102 16/43/104 13/34/105
f 9/21/74 52/151/76 15/41/84
f 13/35/59 34/96/39 17/47/96
f 18/53/26 14/39/12 31/81/15
s 0
f 18/53/106 31/81/107 33/87/108
s 1
f 31/81/15 32/83/14 33/88/13
f 16/44/109 28/75/110 9/22/74
s 0
f 28/75/111 17/46/112 9/23/112
s 1
f 28/75/113 13/35/59 17/47/96
f 9/23/74 15/41/84 16/45/109
f 34/96/39 19/55/37 17/48/96
f 33/89/114 43/126/115 37/106/116
s 0
f 12/29/117 7/15/117 13/34/117
s 1
f 16/44/109 27/74/101 13/35/103
f 16/45/109 28/76/102 27/74/101