# Blender 3.3.1
# www.blender.org
mtllib 09_physmdl.mtl
o Hammer_cell.009
v -4.209148 -0.317320 -6.390609
v -7.274487 1.367722 -2.662825
v -3.790964 0.611905 -0.501793
v -6.254508 1.319149 -1.088108
v -1.529908 -0.810035 -4.207321
v -2.481890 -0.765524 -5.694845
v -0.610922 5.970667 -7.985351
v 0.191602 4.799419 -3.738710
v 0.143331 5.058834 -3.738710
v -1.356552 6.586643 -7.985351
v 0.191580 4.798067 -7.985351
v -2.004611 6.736881 -7.984796
v -2.003562 6.736881 -4.270364
v -0.537567 5.918669 -3.956306
v -0.528449 5.909554 -4.101831
v -1.415655 6.627083 -3.524085
v -1.633074 6.714332 -4.801226
v -1.297306 6.546596 -3.193175
v 0.075233 5.221953 -4.270919
v 0.143262 5.057932 -7.985352
v 0.011292 5.315415 -7.985352
v -1.583768 6.702065 -7.985305
v -0.330895 5.710479 -3.762963
v -0.164716 5.536726 -3.740096
v -0.330990 5.710575 -4.246666
v -0.164873 5.536844 -4.269533
v -0.443097 5.814849 -7.985351
v -0.293894 5.669618 -7.985351
v -0.166988 5.538617 -7.985351
v -1.148467 6.431231 -7.985351
v -0.975625 6.289430 -7.985351
v -0.792185 6.132174 -7.985351
v -1.825626 6.734082 -7.985059
v -2.003826 6.736881 -5.198972
v -1.818136 6.732808 -4.776202
v 0.213712 3.186857 -7.985351
v -2.152785 4.939775 -10.649015
v 0.207332 4.512650 -3.738710
v 0.211820 4.248644 -3.738710
v 0.213476 3.936065 -3.738710
v 0.207327 4.511214 -7.985351
v 0.211821 4.247241 -7.985351
v 0.213476 3.934752 -7.985351
v -0.166646 5.538336 -6.127904
v -0.165894 5.537703 -5.198803
v -0.284973 5.662094 -5.193753
v -0.964427 6.281204 -3.806062
v -0.762583 6.111746 -4.023728
v -1.146795 6.430328 -4.353729
v -0.964477 6.281181 -4.321972
v -1.661064 6.719727 -7.064872
v -1.662791 6.719737 -6.193870
v -1.586785 6.702109 -5.423231
v -1.828274 6.735018 -6.183094
v -1.838464 6.734085 -5.376142
v -1.948572 4.775967 -10.668101
v -1.748146 4.622280 -10.661028
v -1.996183 4.594774 -10.771746
v -1.548375 4.509440 -10.590010
v -1.302753 4.302160 -10.419657
v -0.921021 3.712468 -9.792620
v -2.112131 4.755661 -10.751304
v -8.462128 6.736881 -2.617568
v -1.467154 6.652444 -1.322858
v -2.364417 6.736646 -1.499470
v -1.148008 6.431439 -1.220949
v -0.975324 6.289586 -1.161250
v -0.791990 6.132259 -1.096490
v 0.069552 5.226024 -0.758024
v 0.155134 5.024674 -0.701622
v 0.211820 4.248902 -0.532815
v 0.213475 3.936312 -0.468560
v 0.191618 4.799652 -0.649099
v 0.207337 4.512914 -0.587633
v -0.293715 5.669473 -0.913291
v 0.213711 3.298552 -0.338159
v -1.929848 6.730608 -1.421042
v -2.135821 6.735018 -1.458528
v 0.021547 2.143031 -8.132809
v -1.411746 4.398012 -10.528605
v 0.213711 0.209878 -4.329190
v -0.610777 5.970667 -1.031236
v 0.213712 1.172505 -7.165015
v -4.571046 6.736881 -7.985026
v -1.224252 4.197692 -10.306947
v -2.336429 5.099393 -10.578665
v -1.691761 6.714368 -1.375426
v -2.604319 6.736881 -1.542130
v -1.297250 6.546612 -1.271026
v 0.213712 2.020497 -7.985351
v -2.478035 5.233682 -10.423891
v -7.126704 6.736881 -2.345437
v -2.708101 5.396018 -10.155813
v -0.116270 5.481900 -0.843388
v -0.442946 5.814765 -0.969528
vn -0.3104 -0.9357 0.1677
vn -0.3093 -0.9354 0.1715
vn -0.8267 -0.1900 0.5296
vn -0.1714 0.2024 0.9642
vn 0.3582 0.4577 -0.8137
vn 0.4360 0.5506 -0.7119
vn 0.3579 0.3943 -0.8464
vn 0.4358 0.6598 -0.6122
vn 0.4977 0.6000 -0.6264
vn 0.9594 0.2821 -0.0000
vn 0.9195 0.3931 0.0008
vn 0.9657 0.2595 0.0003
vn 0.9929 0.1188 -0.0004
vn 0.9950 0.1002 -0.0000
vn 0.9994 0.0359 -0.0000
vn -0.0281 0.9996 0.0003
vn 0.1567 0.9876 0.0014
vn 0.0945 0.9955 -0.0010
vn 1.0000 0.0028 -0.0000
vn 0.9999 0.0104 -0.0000
vn 1.0000 0.0025 -0.0000
vn 0.0681 0.9977 -0.0002
vn 0.0953 0.9954 0.0006
vn 0.1272 0.9919 0.0013
vn 1.0000 0.0001 -0.0002
vn 0.7318 0.5211 -0.4393
vn 0.8694 0.4743 -0.1385
vn 0.7527 0.6583 -0.0001
vn 0.5864 0.8100 -0.0000
vn 0.6094 0.7929 -0.0000
vn 0.6122 0.7907 -0.0000
vn 0.1617 0.9460 -0.2809
vn 0.9994 0.0334 -0.0000
vn 0.9999 0.0111 -0.0000
vn -0.6779 0.5467 -0.4915
vn -0.1532 0.9619 0.2266
vn -0.1338 0.7422 0.6567
vn -0.0000 1.0000 -0.0000
vn -0.0191 0.9612 -0.2751
vn 0.0078 1.0000 -0.0000
vn 0.0098 0.9811 -0.1933
vn -0.1739 0.2004 0.9642
vn -0.1976 0.1442 0.9696
vn -0.1715 0.1974 0.9652
vn -0.1714 0.1975 0.9652
vn -0.1717 0.1865 0.9673
vn -0.7976 -0.1721 -0.5782
vn 0.2529 0.9050 -0.3421
vn 0.3252 0.7608 -0.5616
vn 0.1630 0.8175 -0.5523
vn 0.0688 0.9976 0.0025
vn 0.4147 0.9099 -0.0120
vn 0.0675 0.9977 0.0029
vn 0.9627 -0.2554 -0.0899
vn 0.5098 -0.8115 -0.2856
vn 0.4539 -0.8406 -0.2955
vn 0.9619 0.0026 -0.2735
vn -0.1910 0.1966 0.9617
vn 1.0000 -0.0000 -0.0000
vn 0.9708 0.0003 -0.2400
vn 0.0040 1.0000 0.0006
vn 0.0039 1.0000 0.0006
vn 0.0009 1.0000 0.0002
vn -0.1715 0.1975 0.9652
vn 0.6127 0.7345 -0.2917
vn 0.6516 0.7586 0.0014
vn 0.6646 0.7472 -0.0004
vn 0.6299 0.7213 -0.2879
vn -0.1717 0.1972 0.9652
vn 0.6423 0.7664 0.0014
vn 0.6431 0.7658 0.0002
vn 0.6347 0.7727 0.0002
vn 0.0069 1.0000 0.0010
vn -0.0000 0.8513 -0.5247
vn -0.7586 0.0014 -0.6515
vn -0.7967 -0.1725 -0.5793
vn 0.7097 0.7045 0.0001
vn 0.7111 0.7031 -0.0057
vn -0.6990 -0.2647 -0.6643
vn -0.9135 0.0223 -0.4062
vn -0.9101 0.0299 -0.4133
vn -0.9123 0.0257 -0.4088
vn -0.6188 -0.3489 -0.7038
vn -0.6117 -0.3579 -0.7055
vn -0.6282 -0.3421 -0.6988
vn 0.0764 -0.6971 -0.7129
vn 0.0801 -0.6833 -0.7257
vn 0.0620 -0.6800 -0.7306
vn 0.1071 -0.6909 -0.7150
vn 0.0898 -0.6864 -0.7216
vn 0.1076 -0.6912 -0.7146
vn 0.1081 -0.6910 -0.7147
vn 0.1074 -0.6910 -0.7148
vn 0.4957 0.6260 -0.6020
vn 0.8834 0.4525 -0.1218
vn 0.6900 0.7238 -0.0094
vn 0.7043 0.7099 -0.0013
vn 0.9541 0.1163 -0.2759
vn 0.9434 0.1777 -0.2799
vn 0.8503 0.0042 -0.5263
vn 0.9619 0.0108 -0.2733
vn 0.8501 -0.0000 -0.5266
vn 0.0211 0.9998 0.0017
vn 0.0261 0.9997 0.0015
vn 0.0260 0.9997 0.0023
vn -0.1717 0.1977 0.9651
vn -0.1714 0.1976 0.9652
vn 0.8268 0.5625 0.0006
vn 0.5881 0.7551 -0.2898
vn 0.9617 0.0350 -0.2718
vn 0.6325 0.7746 -0.0001
vn 0.6334 0.7738 -0.0001
vn 0.6317 0.7752 -0.0001
vn 0.5624 0.8268 -0.0000
vn 0.5281 0.8492 0.0026
vn 0.2648 0.9643 0.0045
vn 0.2653 0.9641 0.0046
vn -0.3238 -0.9461 -0.0047
vn -0.3243 -0.9459 -0.0046
vn -0.3241 -0.9460 -0.0061
vn -0.1717 0.1980 0.9650
vn -0.1714 0.1980 0.9651
vn -0.1708 0.1980 0.9652
vn 0.6944 0.7196 0.0026
vn 0.6735 0.7392 0.0037
vn 0.6586 0.7525 0.0024
vn 0.6443 0.7085 -0.2879
vn 0.6430 0.7658 -0.0002
vn 0.6428 0.7660 -0.0017
vn 0.6429 0.7659 -0.0001
vn 0.6419 0.7667 -0.0009
vn 0.7162 0.6979 0.0011
vn 0.7148 0.6994 0.0014
vn -0.6347 -0.7680 0.0856
vn 0.1071 -0.6912 -0.7147
vn 0.1075 -0.6913 -0.7146
vn 0.0471 0.4606 -0.8863
vn 0.2687 -0.3455 -0.8991
vn 0.3936 0.1225 -0.9111
vn 0.2826 -0.3866 -0.8779
vn 0.2987 -0.3930 -0.8697
vn 0.1071 -0.6910 -0.7149
vn -0.5734 0.0230 0.8189
vn 0.6038 -0.7489 -0.2731
vn -0.6042 -0.7915 -0.0919
vn 0.7045 0.4397 -0.5571
vn 0.7906 0.2521 -0.5581
vn 0.1285 -0.6824 -0.7196
vn 0.1077 -0.6911 -0.7147
vn 0.1075 -0.6915 -0.7144
vn 0.4511 -0.7062 0.5457
vn 0.4511 -0.7058 0.5462
vn 0.8090 0.5878 0.0007
vn 0.7486 0.5523 0.3667
vn 0.7818 0.6235 -0.0001
vn 0.7737 0.6335 -0.0009
vn 0.1077 -0.6912 -0.7146
vn 0.1079 -0.6915 -0.7142
vn 0.8457 0.0633 -0.5299
vn 0.8456 0.0639 -0.5301
vn 0.8456 0.0636 -0.5300
vn 0.6071 0.7946 -0.0009
vn 0.5025 0.8113 -0.2988
vn 0.4100 0.9121 -0.0009
vn 0.6004 0.5778 -0.5528
vn 0.4529 0.8916 0.0005
vn 0.4253 0.9050 -0.0026
vn 0.2931 0.9561 0.0042
vn 0.2937 0.9559 0.0022
vn 0.2931 0.9561 0.0030
vn -0.7976 -0.1716 -0.5783
vn -0.3083 -0.9359 0.1705
vn -0.3083 -0.9359 0.1703
vn -0.3089 -0.9357 0.1703
vn -0.3092 -0.9356 0.1702
vn 0.7523 0.6588 -0.0002
vn 0.7241 0.6897 -0.0004
vn 0.7245 0.6892 0.0004
vn 0.7237 0.6901 0.0004
vn 0.2256 0.9742 0.0005
vn 0.2259 0.9741 -0.0001
vn 0.2256 0.9742 0.0002
vn 0.7205 0.6935 0.0004
vn 0.7210 0.6929 -0.0004
vn -0.7409 -0.6716 -0.0024
vn 0.7234 0.6904 0.0013
vn 0.6510 0.7591 0.0012
vn 0.9229 0.3850 -0.0001
vt 0.000000 0.000000
vt 1.000000 1.000000
vt 1.000000 1.000000
vt 1.000000 0.000000
vt 1.000000 1.000000
vt 0.000000 0.000000
vt 0.000000 0.000000
vt 1.000000 0.000000
vt 0.000000 0.000000
vt 1.000000 1.000000
vt 0.000000 0.000000
vt 1.000000 0.000000
vt 0.000000 0.000000
vt 0.874959 0.376294
vt 0.858323 0.407091
vt 0.742910 0.370330
vt 0.742910 0.372119
vt 0.877808 0.490177
vt 0.000000 0.000000
vt 0.742910 0.375698
vt 0.742910 0.373909
vt 0.879705 0.490177
vt 0.742910 0.377488
vt 0.000000 0.000000
vt 0.858323 0.438147
vt 0.858323 0.436376
vt 0.874959 0.400899
vt 0.874959 0.343133
vt 0.874959 0.345358
vt 0.858309 0.453393
vt 0.927632 0.342479
vt 0.000000 0.000000
vt 0.907872 0.490177
vt 0.911569 0.490177
vt 0.000000 0.000000
vt 0.750142 0.407092
vt 0.000000 0.000000
vt 0.915265 0.490177
vt 0.737078 0.436614
vt 0.000000 0.000000
vt 0.771786 0.444368
vt 0.771787 0.442006
vt 0.728085 0.432666
vt 0.757374 0.381063
vt 0.757374 0.379270
vt 0.874959 0.347583
vt 0.858322 0.377471
vt 0.000000 0.000000
vt 0.858323 0.382852
vt 0.858323 0.383748
vt 0.000000 0.000000
vt 0.858323 0.379265
vt 0.858322 0.384645
vt 0.874959 0.403937
vt 0.874959 0.406974
vt 0.858323 0.439917
vt 0.858323 0.443459
vt 0.874959 0.402924
vt 0.900668 0.490177
vt 0.897160 0.490177
vt 0.000000 0.000000
vt 0.000000 0.000000
vt 0.893653 0.490177
vt 0.000000 0.000000
vt 0.757374 0.395870
vt 0.685138 0.551035
vt 0.000000 0.000000
vt 0.757374 0.390259
vt 0.681632 0.551035
vt 0.858323 0.401480
vt 0.000000 0.000000
vt 0.858323 0.395868
vt 0.858323 0.390257
vt 0.874959 0.393229
vt 0.858323 0.429055
vt 0.874959 0.387584
vt 0.874959 0.381939
vt 0.858316 0.448426
vt 0.858312 0.450909
vt 0.874959 0.410183
vt 0.927632 0.368957
vt 0.771107 0.448310
vt 0.770580 0.449655
vt 0.771634 0.446966
vt 0.000000 0.000000
vt 0.874959 0.299120
vt 0.705344 0.592533
vt 0.000000 0.000000
vt 0.706478 0.594329
vt 0.846082 0.077240
vt 0.752728 0.916011
vt 0.758874 0.916011
vt 0.754081 0.916010
vt 0.742910 0.362170
vt 0.862064 0.490177
vt 0.742911 0.354010
vt 0.742911 0.345851
vt 0.855139 0.490177
vt 0.858323 0.362130
vt 0.874959 0.335008
vt 0.874959 0.326884
vt 0.858323 0.353973
vt 0.000000 0.000000
vt 0.874959 0.318760
vt 0.000000 0.000000
vt 0.807848 0.391039
vt 0.782611 0.390818
vt 0.782611 0.396080
vt 0.000000 0.000000
vt 0.750656 0.414354
vt 0.759642 0.427491
vt 0.758900 0.421272
vt 0.000000 0.000000
vt 0.833302 0.446056
vt 0.833305 0.444924
vt 0.833310 0.441766
vt 0.809609 0.446205
vt 0.809650 0.441827
vt 0.788690 0.444105
vt 0.788691 0.441896
vt 0.000000 0.000000
vt 0.788692 0.439537
vt 0.809343 0.448584
vt 0.787822 0.448902
vt 0.785834 0.451226
vt 0.788580 0.446470
vt 0.709201 0.590437
vt 0.707156 0.590013
vt 0.710956 0.588091
vt 0.766964 0.916011
vt 0.764895 0.916010
vt 0.762826 0.916010
vt 0.713902 0.586282
vt 0.921618 0.129780
vt 0.778151 0.916010
vt 0.771010 0.916010
vt 0.772879 0.916010
vt 0.389075 0.458005
vt 0.711566 0.590830
vt 0.713284 0.588596
vt 0.714065 0.591853
vt 0.932683 0.012670
vt 1.000000 0.066449
vt 0.901570 0.236510
vt 0.786101 0.916010
vt 0.781226 0.916011
vt 0.391947 0.458005
vt 0.785019 0.916340
vt 0.000000 0.000000
vt 0.791351 0.912396
vt 0.848753 0.409055
vt 0.793101 0.910497
vt 0.000000 0.000000
vt 0.707486 0.592816
vt 0.709891 0.593111
vt 1.000000 0.000000
vt 0.276252 0.162020
vt 0.000000 0.000000
vt 0.951066 0.000000
vt 1.000000 0.048934
vt 0.850629 0.755172
vt 0.677645 0.439831
vt 0.000000 0.000000
vt 0.682056 0.463178
vt 0.877941 0.724516
vt 0.674487 0.427506
vt 0.000000 0.000000
vt 0.895152 0.699944
vt 0.672864 0.421411
vt 0.671104 0.414834
vt 0.661115 0.377487
vt 0.989270 0.514168
vt 0.000000 0.000000
vt 0.660645 0.375634
vt 0.660101 0.373382
vt 0.655786 0.353146
vt 0.654039 0.344643
vt 0.658485 0.366089
vt 0.999031 0.393938
vt 0.659407 0.370333
vt 0.992500 0.285070
vt 0.000000 0.000000
vt 0.657275 0.360342
vt 0.666125 0.396324
vt 0.650496 0.327309
vt 0.063973 0.000000
vt 0.679925 0.451339
vt 0.000000 0.000000
vt 0.680944 0.456958
vt 0.340200 0.240258
vt 0.883623 0.307851
vt 0.787973 0.915405
vt 0.789685 0.914008
vt 0.135925 0.000000
vt 0.757376 0.244595
vt 0.000000 0.000000
vt 0.000000 0.000000
vt 0.669331 0.408229
vt 1.000000 0.906797
vt 0.836029 0.269531
vt 0.906797 0.906797
vt 0.415410 0.059968
vt 0.652423 0.037500
vt 0.000000 0.000000
vt 0.832519 0.445911
vt 0.748581 0.915296
vt 0.665804 0.104555
vt 0.750549 0.916010
vt 0.000000 0.000000
vt 0.827340 0.756613
vt 0.678324 0.442949
vt 0.679046 0.446622
vt 0.683216 0.469699
vt 0.000000 0.000000
vt 0.675848 0.432666
vt 0.862876 0.743478
vt 0.000000 0.000000
vt 0.746561 0.913602
vt 0.000000 0.000000
vt 0.491320 0.142744
vt 0.618940 0.528173
vt 0.268180 0.127685
vt 0.164599 0.164599
vt 0.000000 0.000000
vt 0.000000 0.000000
vt 0.000000 0.000000
vt 0.663668 0.387186
vt 0.664784 0.391343
vt 0.667654 0.401997
s 0
usemtl Hammer.023
f 6/11/1 2/4/1 1/2/1
f 3/6/2 4/8/2 2/3/2
f 4/7/3 63/156/3 2/3/3
f 63/158/4 4/8/4 3/5/4
s 1
f 62/155/5 56/127/6 58/139/7
f 56/128/6 62/154/5 37/87/8
f 58/140/7 56/129/6 57/133/9
f 9/20/10 69/171/11 70/174/12
f 8/17/13 70/175/12 73/180/14
f 73/178/14 38/94/15 8/16/13
f 54/123/16 52/117/17 51/114/18
f 40/97/19 71/176/20 72/177/21
f 54/123/16 55/126/22 52/117/17
f 55/126/22 17/41/23 53/119/24
f 76/185/25 40/97/19 72/177/21
f 21/53/26 29/73/27 44/106/28
f 8/17/13 9/21/10 70/175/12
f 18/43/29 89/215/30 66/166/31
f 33/79/32 55/125/22 54/123/16
f 73/178/14 74/183/33 38/94/15
f 33/78/32 54/123/16 51/114/18
f 40/97/19 39/96/34 71/176/20
f 52/117/17 55/126/22 53/119/24
f 84/202/35 63/157/36 92/222/37
s 0
f 92/224/38 88/214/38 13/32/38
s 1
f 92/224/37 13/32/39 34/81/40
f 92/224/37 34/81/40 12/30/41
f 92/224/37 12/30/41 84/202/35
s 0
f 3/6/42 76/186/42 63/158/42
s 1
f 76/186/43 92/223/37 63/158/36
s 0
f 76/186/44 74/182/44 92/223/44
f 74/182/45 67/167/45 92/223/45
f 67/167/45 65/163/45 92/223/45
f 65/164/46 88/213/46 92/224/46
s 1
f 84/203/35 93/225/47 63/159/36
f 22/54/48 86/206/49 91/218/50
f 87/212/51 35/82/52 77/187/53
f 83/199/54 81/194/55 5/9/56 6/12/56
f 43/105/57 40/97/19 76/185/25
s 0
f 72/177/58 74/182/58 76/186/58
s 1
f 81/195/55 83/200/54 90/217/59
s 0
f 81/195/59 90/217/59 36/85/59
f 81/195/59 36/85/59 76/186/59
s 1
f 36/86/60 43/104/57 76/185/25
f 65/164/61 13/32/62 88/214/63
s 0
f 73/179/45 69/172/45 74/181/45
f 69/172/45 67/167/45 74/182/45
f 72/177/64 71/176/64 74/183/64
s 1
f 31/76/65 48/110/66 14/34/67 32/77/68
s 0
f 66/166/44 89/215/44 67/168/44
f 89/215/45 87/209/45 67/168/45
f 87/209/45 78/188/45 67/168/45
f 78/189/64 65/164/64 67/167/64
f 69/172/44 82/197/44 67/167/44
f 82/198/69 68/170/69 67/169/69
f 48/110/70 47/109/71 67/169/71
f 47/109/72 66/165/72 67/168/72
s 1
f 78/189/73 13/32/62 65/164/61
s 0
f 12/30/74 91/219/74 84/202/74
f 91/219/75 93/225/75 84/203/75
f 91/220/76 1/2/76 93/225/76
f 15/37/77 14/33/78 23/61/77 25/64/77
f 91/220/79 37/88/79 1/2/79
f 37/89/80 62/155/81 1/2/82
f 62/155/83 58/141/84 1/2/85
f 58/143/86 60/149/87 1/2/88
f 60/149/89 61/153/89 1/2/90
f 61/153/91 79/190/92 1/1/93
s 1
f 28/72/94 27/70/95 15/37/96 25/64/97
f 11/29/98 20/46/99 9/22/10 8/18/13
f 36/86/60 85/204/100 43/104/57
f 85/204/100 42/101/101 43/104/57
s 0
f 90/217/102 85/204/102 36/86/102
s 1
f 35/83/52 55/124/22 13/32/39
f 55/125/22 33/79/32 13/32/39
f 33/79/32 34/81/40 13/31/39
s 0
f 78/189/103 77/187/103 13/32/103
f 77/187/104 35/83/105 13/32/104
f 70/175/64 69/173/64 73/180/64
f 94/228/106 75/184/64 69/172/64
f 75/184/107 82/197/107 69/172/107
s 1
f 69/173/11 19/44/108 21/49/26
f 57/136/9 56/130/6 30/74/109 31/76/65
f 8/19/13 38/94/15 41/100/110 11/28/98
s 0
f 47/109/111 50/113/111 66/165/111
s 1
f 50/112/112 49/111/113 66/165/31
f 49/111/113 18/43/29 66/166/31
s 0
f 64/161/64 87/210/64 89/215/64
s 1
f 18/43/29 10/24/114 16/39/114
f 18/43/29 16/39/114 89/215/30
s 0
f 16/39/115 64/161/115 89/216/115
f 64/162/116 17/40/116 87/211/117
s 1
f 17/42/118 53/119/119 87/211/120
s 0
f 87/212/121 77/187/122 78/189/122
f 75/184/123 95/229/123 82/198/123
s 1
f 95/229/124 14/35/67 82/198/125
f 14/35/67 68/170/126 82/198/125
f 15/38/96 7/13/127 14/34/67
f 7/14/127 32/77/68 14/34/67
s 0
f 31/76/128 50/113/128 48/110/129
f 50/113/130 47/109/130 48/110/131
s 1
f 33/79/32 91/219/50 12/30/41
f 34/81/40 33/79/32 12/30/41
f 14/35/67 95/229/124 75/184/132 23/59/133
s 0
f 86/207/134 37/90/134 91/220/134
f 79/190/135 90/217/136 83/200/136
f 57/134/137 59/144/138 58/142/139
f 59/144/140 60/149/140 58/143/141
f 85/204/142 61/153/142 60/149/142
f 59/144/143 80/191/144 60/149/145
s 1
f 80/193/146 20/48/99 60/150/147
f 22/55/48 91/221/50 33/80/32
s 0
f 85/204/148 90/217/148 61/153/148
f 90/217/149 79/190/150 61/153/149
s 1
f 85/204/100 41/99/110 42/102/101
s 0
f 5/10/151 81/196/152 76/186/152 3/6/152
s 1
f 40/98/19 43/105/57 42/103/101 39/95/34
s 0
f 94/226/153 69/172/153 21/50/154
s 1
f 41/99/110 38/94/15 39/95/34 42/103/101
s 0
f 21/51/155 26/67/155 24/62/155
f 21/51/156 24/62/156 94/227/156
f 79/190/157 83/201/158 6/11/158 1/2/158
f 85/205/159 60/151/160 41/99/161
s 1
f 60/151/147 11/28/98 41/100/110
s 0
f 49/111/162 10/24/162 18/43/162
s 1
f 30/75/109 10/26/163 49/111/113
s 0
f 16/39/164 53/121/164 64/161/164
s 1
f 59/145/165 21/50/26 80/192/146
f 10/25/163 22/56/48 53/121/166
s 0
f 10/25/167 53/121/167 16/39/167
s 1
f 17/41/23 55/126/22 87/212/51
f 55/126/22 35/84/52 87/212/51
f 53/120/168 17/42/169 64/162/170
s 0
f 93/225/171 1/2/171 2/3/171 63/160/171
s 1
f 27/70/95 7/15/127 15/38/96
f 57/135/9 27/70/95 28/72/94 59/146/165
f 57/136/9 31/76/65 32/77/68
f 56/131/6 10/26/163 30/75/109
f 22/58/48 37/91/8 86/208/49
f 22/57/48 33/80/32 51/115/18
s 0
f 5/10/172 3/6/173 2/4/174 6/12/175
s 1
f 20/46/99 11/29/98 60/152/147
f 21/52/26 20/47/99 80/193/146
f 9/23/10 19/45/108 69/173/11
f 30/75/109 49/111/113 50/113/112 31/76/65
f 44/106/28 45/107/176 21/53/26
f 45/107/176 26/68/177 21/51/26
f 19/45/108 20/47/99 21/52/26
f 23/60/133 75/184/132 94/228/178 24/63/179
f 56/132/6 37/92/8 10/26/163
f 39/96/34 38/94/15 74/183/33 71/176/20
f 29/73/27 59/147/165 28/72/94
s 0
f 22/58/180 51/116/181 53/121/182
s 1
f 51/116/18 52/118/17 53/122/24
s 0
f 46/108/183 28/71/184 25/64/184
s 1
f 46/108/185 29/73/27 28/72/94
f 23/61/133 24/63/179 26/69/177 25/66/186
f 57/137/9 32/77/68 7/14/127
f 57/138/9 7/15/127 27/70/95
f 37/93/8 22/58/48 10/27/163
f 14/36/67 48/110/66 67/169/187 68/170/126
s 0
f 19/45/188 9/23/188 20/48/188
s 1
f 45/107/176 25/66/186 26/69/177
f 46/108/185 25/65/186 29/73/27
f 25/65/186 44/106/28 29/73/27
f 25/66/186 45/107/176 44/106/28
f 59/148/165 29/73/27 21/53/26
