# Blender 3.3.1
# www.blender.org
mtllib 10s.mtl
o Hammer_cell.010
v -5.366046 2.277389 3.621341
v -3.595279 1.988545 5.727967
v -7.247366 3.116783 7.510139
v -7.561088 4.644964 5.556201
v -7.883772 4.523403 5.556201
v -8.808785 3.125501 5.613529
v -8.824050 1.265817 5.610503
v -8.653709 1.229478 5.921436
v -8.159116 3.914124 5.909688
v -8.467387 3.595880 5.912726
v -7.470699 4.363968 5.914183
v -7.399648 3.621520 7.058341
v -7.122440 3.715056 7.058734
v -7.672719 3.411889 7.057596
v -8.004766 0.044431 7.108429
v -8.822367 3.629360 5.556201
v -8.475647 4.016899 5.556201
v -7.766796 1.309417 7.491115
v -7.764170 1.792822 7.491127
v -7.517609 2.195807 7.522664
v -7.769519 0.803949 7.491103
v -8.825319 0.655124 5.609559
v -8.824729 0.960470 5.609998
v -7.105824 4.655135 5.556201
v -8.815747 2.399299 5.623148
v -8.233942 4.236607 5.556201
v -7.956454 4.099281 5.910717
v -8.631488 3.156778 5.920764
v -8.654498 0.933214 5.921012
v -7.027447 4.375094 5.914331
v -6.452014 3.455256 7.462204
v -7.897256 1.068800 7.296973
v -7.687968 3.090856 7.406584
v -6.505850 3.625094 7.240383
v -7.955976 3.095397 7.062149
v -7.999735 1.351225 7.108829
v -7.997117 1.849195 7.109039
v -8.002451 0.829088 7.108615
v -7.472544 2.810741 7.517396
v -7.994833 2.278391 7.109089
v -7.993022 2.612606 7.105775
v -8.504204 2.275939 6.188478
v -8.327168 2.205934 6.509184
v -8.148191 2.135175 6.833349
v -8.507716 1.198411 6.187122
v -8.331258 1.160871 6.508155
v -7.689455 4.110333 6.169061
v -6.877923 3.073634 7.517474
v -7.597952 2.540130 7.520384
v -8.813374 2.819172 5.623878
v -7.064265 2.660021 7.522513
v -8.897391 3.441581 4.316016
v -7.888675 2.878459 7.268687
v -8.817658 1.568273 5.621722
v -8.816986 1.863965 5.622224
v -7.900819 0.300521 7.296833
v -7.894374 1.573622 7.297090
v -8.696008 3.365857 5.749515
v -6.756579 3.328295 7.498520
v -7.912431 3.409174 6.791222
v -8.063323 3.527107 6.477757
v -8.278863 3.573865 6.168424
v -6.954649 3.877059 6.792691
v -7.042696 4.053999 6.479924
v -7.274925 4.225558 6.170429
v -7.387586 4.031428 6.479745
v -7.423354 3.806778 6.792263
v -7.748769 3.814932 6.477655
v -7.711553 3.593413 6.790833
v -7.957394 3.886903 6.166843
v -7.468415 3.292022 7.406627
v -7.101097 3.495095 7.406752
v -6.828628 3.623420 7.240379
v -8.505882 1.765845 6.187829
v -8.506788 1.485712 6.187479
v -8.329121 1.710167 6.508691
v -8.150433 1.653891 6.833015
v -8.508625 0.909917 6.186769
v -8.509418 0.621419 6.186461
v -8.332318 0.881759 6.507891
v -8.154089 0.853299 6.832471
v -8.155895 0.314052 6.832203
v -8.478957 3.175111 6.179601
v -8.298416 3.158643 6.489096
v -8.128208 3.069947 6.805526
v -8.501975 2.681760 6.188594
v -8.324999 2.603768 6.508948
v -8.146090 2.524924 6.832755
v -5.264115 4.655298 4.548891
v -8.930412 1.271823 4.190644
v -7.106337 4.655135 3.655508
v -8.359469 4.124801 3.871490
v -8.846722 3.583278 3.983818
v -5.525225 4.468712 5.748851
v -5.604744 4.655298 5.556201
v -3.630760 1.249124 7.523551
v -5.352228 3.521909 7.406814
v -7.561558 -0.012587 7.522466
v -4.743024 2.684662 7.523434
v -6.296533 4.655298 3.544890
v -7.438648 4.650943 3.701248
v -8.107012 4.345535 3.818349
v -8.820004 0.355018 5.619967
v -8.930408 0.886308 4.223506
v -8.930245 2.704961 4.069471
v -8.925991 3.108920 4.034744
v -5.047344 3.079706 7.518216
v -5.394111 3.728160 7.058777
v -8.578949 3.916351 3.919088
v -7.883974 4.523469 3.772846
vn 0.7638 0.2079 -0.6110
vn 0.7629 0.2052 -0.6131
vn -0.1340 -0.0842 -0.9874
vn -0.1348 -0.0835 -0.9873
vn -0.8665 0.0028 0.4992
vn -0.8761 0.0022 0.4822
vn -0.8756 0.0024 0.4830
vn -0.9998 0.0203 -0.0007
vn -0.7357 0.1950 0.6487
vn -0.9966 0.0819 -0.0011
vn -0.2399 0.1925 0.9515
vn -0.0027 0.0252 0.9997
vn -0.0024 0.1087 0.9941
vn -0.4123 0.5673 0.7129
vn -0.6521 0.7582 -0.0008
vn -0.4929 0.5272 0.6922
vn -0.6049 0.7963 0.0001
vn -0.3681 0.9298 0.0024
vn -0.8667 0.0396 0.4972
vn -0.8291 0.0171 0.5588
vn -0.6126 0.5986 0.5161
vn -0.5319 0.4830 0.6955
vn -0.8742 0.0114 0.4854
vn -0.8660 0.0791 0.4937
vn -0.8705 0.0455 0.4900
vn -0.0083 0.0210 0.9997
vn -0.1275 0.0166 0.9917
vn -0.0025 0.0038 1.0000
vn -0.0655 0.0796 0.9947
vn -0.3637 0.1405 0.9208
vn -0.8747 0.0065 0.4847
vn -0.8728 0.0287 0.4872
vn -0.8757 0.0127 0.4827
vn -0.8745 0.0119 0.4849
vn -0.8224 0.0039 0.5688
vn -0.8768 0.0014 0.4808
vn -0.8769 0.0014 0.4808
vn 0.1744 0.8063 0.5652
vn -0.0034 0.8542 0.5199
vn -0.0062 0.8693 0.4942
vn -0.8096 0.5870 -0.0078
vn -0.6853 0.7283 0.0002
vn -0.0006 0.0221 0.9998
vn -0.9552 0.2960 0.0026
vn -0.1854 0.0033 0.9827
vn -0.2298 -0.0019 0.9732
vn -0.0095 0.0575 0.9983
vn -0.8656 0.0820 0.4940
vn -0.7508 0.3968 0.5280
vn -0.7403 0.4312 0.5157
vn -0.5588 0.6477 0.5178
vn -0.8671 0.0049 0.4981
vn -0.8759 0.0037 0.4824
vn -0.8589 -0.0083 0.5121
vn -0.8738 0.0134 0.4862
vn -0.5642 0.0307 0.8251
vn -0.8583 0.1569 0.4886
vn -0.8765 0.0018 0.4813
vn -0.8763 0.0021 0.4818
vn -0.0078 0.8663 0.4994
vn -0.1500 0.8046 0.5746
vn -0.8844 -0.0237 0.4662
vn -0.8131 -0.0038 0.5821
vn -0.7546 0.0002 0.6561
vn -0.0002 -0.0001 1.0000
vn -0.0003 0.0018 1.0000
vn -0.2842 -0.0812 0.9553
vn -0.0359 0.0018 0.9994
vn -0.8742 0.0011 0.4856
vn 0.7635 0.5919 0.2582
vn -0.0001 0.8669 0.4985
vn -0.0001 0.8709 0.4915
vn -0.0733 0.8578 0.5087
vn -0.0032 0.8696 0.4938
vn 0.0014 0.3166 0.9485
vn -0.0151 0.2300 0.9731
vn -0.8593 0.1366 0.4929
vn -0.3531 0.3286 0.8760
vn -0.0118 0.2268 0.9739
vn -0.8724 -0.0000 0.4888
vn -1.0000 -0.0000 -0.0000
vn -0.8756 0.0030 0.4830
vn -0.8752 0.0038 0.4837
vn -0.8752 0.0034 0.4837
vn -0.5716 0.6388 0.5150
vn -0.5712 0.6346 0.5206
vn -0.5963 0.6120 0.5196
vn -0.7846 0.3424 0.5169
vn -0.2841 0.7833 0.5529
vn -0.3557 0.7583 0.5462
vn -0.4612 0.7072 0.5359
vn -0.2138 0.8253 0.5227
vn -0.5208 0.6665 0.5333
vn -0.4877 0.6883 0.5371
vn -0.1878 0.7959 0.5756
vn -0.6265 0.5769 0.5241
vn -0.0174 0.8635 0.5041
vn -0.2180 0.7978 0.5621
vn 0.2173 0.7526 0.6216
vn -0.8673 0.0067 0.4977
vn -0.8749 0.0046 0.4843
vn -0.8755 0.0043 0.4833
vn -0.8765 0.0021 0.4814
vn -0.8765 0.0026 0.4814
vn -0.8768 0.0024 0.4808
vn -0.8763 0.0032 0.4817
vn -0.8219 0.2802 0.4959
vn -0.8704 0.0466 0.4902
vn -0.0017 0.0036 1.0000
vn -0.8742 0.0103 0.4854
vn -1.0000 0.0028 -0.0000
vn -0.1349 -0.0835 -0.9873
vn -0.8762 0.0030 0.4820
vn -0.8753 0.0039 0.4835
vn 0.2853 -0.8876 -0.3615
vn -0.8745 0.0118 0.4849
vn -0.8728 0.0032 0.4881
vn -0.8765 0.0014 0.4814
vn -0.6474 0.2874 0.7059
vn -0.9778 0.2093 -0.0124
vn -0.8756 0.0037 0.4830
vn -0.0111 0.9999 -0.0000
vn -0.7983 0.0035 0.6022
vn -0.0026 0.0084 1.0000
vn 0.7636 0.5916 0.2587
vn 0.7635 0.5918 0.2584
vn 0.7635 0.5919 0.2583
vn 0.7635 0.5920 0.2582
vn -0.7840 0.0057 0.6207
vn -0.0001 1.0000 -0.0000
vn 0.2851 -0.8881 -0.3604
vn 0.2849 -0.8884 -0.3601
vn 0.2846 -0.8885 -0.3600
vn 0.2852 -0.8882 -0.3602
vn 0.2847 -0.8884 -0.3600
vt 0.000000 0.000000
vt 1.000000 0.000000
vt 0.000000 0.000000
vt 1.000000 0.000000
vt 1.000000 1.000000
vt 0.664690 0.816753
vt 0.672325 0.807812
vt 0.669003 0.812016
vt 0.668199 0.798900
vt 0.003951 0.220798
vt 0.003983 0.230675
vt 0.453758 0.929225
vt 0.448821 0.929225
vt 0.445785 0.929226
vt 0.004047 0.248118
vt 0.004016 0.241096
vt 0.003984 0.232374
vt 0.456490 0.929226
vt 0.463627 0.925728
vt 0.501556 0.925728
vt 0.501785 0.929226
vt 0.004211 0.305299
vt 0.506499 0.929225
vt 0.561477 0.923872
vt 0.561496 0.929226
vt 0.004535 0.375645
vt 0.561496 0.935807
vt 0.478659 0.929225
vt 0.478654 0.935807
vt 0.481648 0.935807
vt 0.471608 0.935807
vt 0.488349 0.929226
vt 0.491713 0.929226
vt 0.484247 0.935807
vt 0.495529 0.935807
vt 0.448804 0.935807
vt 0.445759 0.935807
vt 0.441877 0.935807
vt 0.463649 0.981345
vt 0.459850 0.981345
vt 0.453772 0.981345
vt 0.437142 0.981345
vt 0.451339 0.981345
vt 0.442028 0.992924
vt 0.467653 0.981345
vt 0.467697 0.992924
vt 0.463646 0.988577
vt 0.478695 0.992924
vt 0.478654 0.981345
vt 0.486457 0.988577
vt 0.488346 0.981345
vt 0.598414 0.976099
vt 0.598414 0.992924
vt 0.589180 0.981345
vt 0.310549 0.222330
vt 0.004179 0.287135
vt 0.498035 0.925728
vt 0.004176 0.297472
vt 0.004178 0.292300
vt 0.004180 0.285414
vt 0.488367 0.925728
vt 0.493435 0.925728
vt 0.478695 0.925728
vt 0.481656 0.929225
vt 0.004181 0.283693
vt 0.486516 0.925728
vt 0.004126 0.267545
vt 0.561490 0.995348
vt 0.552289 0.995348
vt 0.596276 0.817842
vt 0.615060 0.819111
vt 0.543174 0.995348
vt 0.526310 0.992924
vt 0.631781 0.820330
vt 0.633854 0.817686
vt 0.632774 0.819015
vt 0.634906 0.816329
vt 0.637011 0.813322
vt 0.576082 0.819271
vt 0.575786 0.820636
vt 0.570716 0.995348
vt 0.579946 0.923872
vt 0.004577 0.399011
vt 0.570711 0.923872
vt 0.004556 0.387328
vt 0.437153 0.929226
vt 0.431633 0.929226
vt 0.003923 0.214320
vt 0.441895 0.929226
vt 0.003895 0.207841
vt 0.512179 0.925728
vt 0.004281 0.320954
vt 0.526442 0.929226
vt 0.004371 0.340498
vt 0.518955 0.929225
vt 0.526310 0.925728
vt 0.475349 0.925728
vt 0.471617 0.929226
vt 0.467697 0.925728
vt 0.004077 0.255140
vt 0.004108 0.262163
vt 0.456510 0.935807
vt 0.463649 0.935807
vt 0.453772 0.935807
vt 0.463646 0.929226
vt 0.451339 0.935807
vt 0.467653 0.935807
vt 0.506523 0.935807
vt 0.498224 0.935807
vt 0.570719 0.935807
vt 0.431619 0.935807
vt 0.437142 0.935807
vt 0.684776 0.774085
vt 0.682545 0.773530
vt 0.561494 0.992924
vt 0.561496 0.988577
vt 0.666289 0.818409
vt 0.658117 0.819108
vt 0.478781 0.995348
vt 0.670457 0.814184
vt 0.491702 0.992924
vt 0.488367 0.992924
vt 0.425374 0.981345
vt 0.686651 0.775499
vt 0.431619 0.981345
vt 0.682493 0.779710
vt 0.682396 0.785186
vt 0.425904 0.995348
vt 0.437229 0.992924
vt 0.437415 0.995348
vt 0.491715 0.981345
vt 0.493450 0.988577
vt 0.488349 0.988577
vt 0.490062 0.981345
vt 0.501818 0.981345
vt 0.561496 0.981345
vt 0.552307 0.981345
vt 0.543293 0.981345
vt 0.534622 0.981345
vt 0.570719 0.981345
vt 0.579948 0.981345
vt 0.653737 0.811534
vt 0.663318 0.818065
vt 0.659495 0.817821
vt 0.652835 0.800995
vt 0.662206 0.796370
vt 0.512179 0.992924
vt 0.512269 0.988577
vt 0.526460 0.981345
vt 0.518970 0.981345
vt 0.518955 0.988577
vt 0.512282 0.981345
vt 0.506523 0.981345
vt 0.526460 0.945998
vt 0.526460 0.958311
vt 0.534622 0.970757
vt 0.526460 0.970757
vt 0.561496 0.945998
vt 0.561496 0.958311
vt 0.456510 0.945998
vt 0.459850 0.945998
vt 0.669760 0.789418
vt 0.669944 0.784703
vt 0.668918 0.796413
vt 0.663169 0.784655
vt 0.662692 0.793276
vt 0.654598 0.817686
vt 0.653250 0.818989
vt 0.518853 0.992924
vt 0.511960 0.995348
vt 0.639366 0.820278
vt 0.646431 0.811529
vt 0.512269 0.929225
vt 0.004246 0.313127
vt 0.650567 0.805183
vt 0.654295 0.796364
vt 0.050913 0.294319
vt 0.501785 0.988577
vt 0.656856 0.820360
vt 0.505887 0.995348
vt 0.506499 0.988577
vt 0.493435 0.992924
vt 0.552307 0.929225
vt 0.552271 0.923872
vt 0.004481 0.363930
vt 0.552302 0.925728
vt 0.004426 0.352214
vt 0.543174 0.924286
vt 0.566119 0.820666
vt 0.579948 0.988577
vt 0.579947 0.992924
vt 0.589180 0.992924
vt 0.543255 0.992924
vt 0.543289 0.988577
vt 0.498200 0.929226
vt 0.493450 0.929226
vt 0.675184 0.789509
vt 0.675475 0.779310
vt 0.679533 0.779451
vt 0.679433 0.784937
vt 0.491715 0.970757
vt 0.478654 0.970757
vt 0.490062 0.970757
vt 0.491715 0.958311
vt 0.478654 0.958311
vt 0.481648 0.958311
vt 0.481648 0.945998
vt 0.484247 0.945998
vt 0.493453 0.945998
vt 0.437142 0.970757
vt 0.445759 0.970757
vt 0.451339 0.970757
vt 0.431619 0.958311
vt 0.441877 0.958311
vt 0.437142 0.945998
vt 0.451339 0.945998
vt 0.441877 0.945998
vt 0.453772 0.945998
vt 0.451339 0.958311
vt 0.445759 0.958311
vt 0.453772 0.958311
vt 0.453772 0.970757
vt 0.459850 0.970757
vt 0.463649 0.958311
vt 0.475298 0.958311
vt 0.456510 0.958311
vt 0.459850 0.958311
vt 0.467653 0.970757
vt 0.475298 0.970757
vt 0.463649 0.970757
vt 0.475298 0.945998
vt 0.478654 0.945998
vt 0.463649 0.945998
vt 0.467653 0.945998
vt 0.673631 0.810369
vt 0.467797 0.995348
vt 0.475467 0.995348
vt 0.671980 0.812420
vt 0.674842 0.793416
vt 0.673570 0.799004
vt 0.675333 0.808134
vt 0.678888 0.793594
vt 0.463578 0.995348
vt 0.459836 0.988577
vt 0.453758 0.988577
vt 0.442374 0.995348
vt 0.437153 0.988577
vt 0.679234 0.789672
vt 0.442935 0.996809
vt 0.543293 0.945998
vt 0.552307 0.945998
vt 0.543293 0.958311
vt 0.552307 0.970757
vt 0.543293 0.970757
vt 0.570719 0.945998
vt 0.579948 0.945998
vt 0.570719 0.958311
vt 0.570719 0.970757
vt 0.579948 0.970757
vt 0.589180 0.970757
vt 0.506523 0.945998
vt 0.495529 0.945998
vt 0.493453 0.958311
vt 0.506523 0.958311
vt 0.493453 0.970757
vt 0.506523 0.970757
vt 0.512282 0.945998
vt 0.518970 0.958311
vt 0.512282 0.958311
vt 0.512282 0.970757
vt 0.066679 0.000000
vt 1.000000 0.933321
vt 0.041498 0.137393
vt 1.000000 0.134137
vt 0.134137 0.134137
vt 0.055908 0.376283
vt 0.953485 0.646031
vt 0.953746 0.701898
vt 0.074592 0.213399
vt 0.075491 0.206618
vt 0.799205 0.275972
vt 0.825339 0.312119
vt 0.067560 0.260889
vt 0.066640 0.266872
vt 0.062034 0.301311
vt 0.063418 0.288650
vt 0.615075 0.137695
vt 0.062967 0.292191
vt 0.383672 0.929226
vt 0.656404 0.524451
vt 0.383650 0.925728
vt 0.676726 0.562120
vt 0.003599 0.150381
vt 0.601578 0.667833
vt 1.000000 0.095946
vt 0.095946 0.095946
vt 0.686790 0.731895
vt 0.675651 0.725028
vt 0.679723 0.727965
vt 0.464187 0.103125
vt 0.383962 0.995348
vt 0.553422 0.817921
vt 0.553014 0.819299
vt 0.553854 0.816526
vt 0.554822 0.813476
vt 0.598414 0.995348
vt 0.775585 0.096660
vt 0.609510 0.096574
vt 0.655353 0.709507
vt 1.000000 0.933159
vt 0.933159 0.933159
vt 1.000000 0.953729
vt 0.953729 0.953729
vt 0.075253 0.164035
vt 0.079525 0.176057
vt 0.952754 0.598555
vt 0.071779 0.233556
vt 0.073820 0.219187
vt 0.878803 0.390661
vt 0.852427 0.351158
vt 0.069517 0.248191
vt 0.068539 0.254533
vt 0.589241 0.925728
vt 0.589803 0.929225
vt 0.589012 0.924286
vt 0.004599 0.411096
vt 0.619596 0.106125
vt 0.892109 0.000000
vt 0.074758 0.074758
vt 0.047950 0.393525
vt 1.000000 0.074758
vt 0.481368 0.134405
vt 0.060291 0.322253
vt 0.534310 0.134794
vt 0.579243 0.135789
vt 0.061549 0.306966
vt 0.060965 0.314033
vt 0.670189 0.720923
vt 0.502634 0.099358
vt 0.551450 0.097372
vt 0.663380 0.715708
vt 0.384075 0.981345
vt 0.377704 0.330864
vt 0.384116 0.992924
vt 0.065806 0.272323
vt 0.063685 0.286680
vt 0.752879 0.216496
vt 0.774849 0.243834
vt 0.064029 0.284273
vt 0.071192 0.237347
vt 0.902587 0.427876
vt 0.070424 0.242313
s 0
usemtl Hammer.023
f 2/4/1 100/310/1 89/271/1
f 1/2/2 100/311/2 2/3/2
f 1/1/3 90/274/3 100/312/3
f 91/277/4 102/319/4 110/351/4
s 1
f 25/93/5 75/251/6 74/250/7
f 106/336/8 16/58/9 93/285/10
f 72/239/11 48/162/12 59/197/13
f 5/15/14 102/322/15 26/100/16
f 110/350/17 5/17/14 101/317/18
f 6/22/19 106/337/8 50/174/20
f 9/28/21 26/97/16 17/63/22
f 86/267/23 83/261/24 28/108/25
f 39/142/26 49/172/27 51/175/28
f 3/6/29 33/117/30 39/143/26
f 25/95/5 87/268/31 86/267/23
f 6/23/32 25/91/33 50/173/34
f 103/324/35 79/256/36 29/110/37
f 34/123/38 108/342/39 64/213/40
f 109/345/41 17/67/22 92/284/42
f 48/164/12 72/240/11 3/9/29
f 59/198/13 48/163/12 107/338/43
f 93/286/44 16/56/9 109/346/41
f 18/70/45 21/79/46 98/302/47
f 84/263/48 60/201/49 61/204/50
f 27/107/51 26/98/16 9/31/21
f 32/116/52 38/140/53 56/190/54
f 41/153/55 53/178/56 35/135/57
f 33/118/30 49/167/27 39/144/26
f 53/179/56 49/168/27 33/118/30
f 56/189/54 98/303/47 21/80/46
f 8/27/58 29/110/37 45/158/59
f 24/88/60 101/318/18 4/10/61
f 54/184/62 7/24/63 23/84/64
f 98/305/47 96/294/65 99/309/66
f 19/71/67 18/70/45 20/75/68
f 15/54/69 56/190/54 38/141/53
s 0
f 94/290/70 108/343/70 2/4/70
s 1
f 95/291/71 24/87/60 94/289/72
f 24/86/60 11/38/73 30/112/74
f 31/113/75 97/297/76 34/124/38
f 6/20/19 58/195/77 16/57/9
f 6/21/19 28/109/25 58/195/77
f 71/235/78 3/7/29 72/241/11
f 72/242/11 59/197/13 73/248/79
f 54/185/80 90/276/81 7/26/63
f 76/252/82 44/156/83 43/155/84
f 68/225/85 60/202/49 69/229/86
f 70/231/87 61/205/50 68/225/85
f 9/29/21 62/207/88 70/232/87
f 65/217/89 66/220/90 64/214/40
f 66/219/90 67/222/91 63/212/92
f 65/218/89 27/102/51 47/160/93
f 66/221/90 47/160/93 68/226/85
f 63/212/92 12/41/94 13/43/95
f 67/223/91 68/224/85 69/230/86
f 47/161/93 27/103/51 70/233/87
f 12/39/94 69/228/86 14/45/96
f 72/243/11 14/46/96 71/236/78
f 72/244/11 12/39/94 14/47/96
f 73/247/97 13/44/98 34/129/99
f 57/194/100 37/138/101 36/137/102
f 87/268/31 43/155/84 44/157/83
f 78/255/103 79/256/36 80/257/104
f 82/259/105 38/140/53 81/258/106
f 71/237/78 14/48/96 33/119/30
f 83/262/24 84/263/48 62/209/88
f 28/109/25 83/262/24 10/35/107
f 85/265/108 35/131/57 60/201/49
f 86/267/23 84/264/48 83/261/24
f 87/269/31 85/266/108 84/264/48
f 51/176/109 99/309/66 48/165/12
f 88/270/110 41/153/55 85/266/108
f 50/174/20 105/333/111 25/92/5
s 0
f 1/1/3 104/328/3 90/274/3
f 101/316/4 91/277/4 110/351/4
f 92/282/112 91/278/112 105/332/112
f 91/278/112 100/313/112 105/332/112
f 100/313/112 90/275/112 105/332/112
f 105/332/112 106/334/112 92/282/112
f 106/335/112 93/287/112 109/347/112
f 109/348/4 92/281/4 106/335/4
f 92/282/4 102/320/4 91/278/4
s 1
f 64/213/40 30/111/74 65/215/89
f 75/251/6 45/158/59 46/159/113
f 46/159/113 76/252/82 75/251/6
f 76/252/82 74/250/7 75/251/6
f 74/250/7 42/154/114 25/93/5
s 0
f 1/2/115 2/5/115 104/329/115
s 1
f 5/16/14 110/352/17 102/321/15
f 106/336/8 6/22/19 16/58/9
f 10/34/107 9/30/21 17/64/22
f 6/23/19 50/173/116 28/108/25
f 50/173/116 86/267/23 28/108/25
f 3/8/29 71/238/78 33/120/30
f 101/317/18 5/17/14 4/11/61
f 87/268/31 40/150/117 88/270/110
f 40/150/117 41/152/55 88/270/110
f 50/173/116 25/95/5 86/267/23
f 54/186/62 103/323/35 7/25/118
f 7/25/118 103/323/35 29/110/37
f 103/324/35 15/52/69 82/260/105
f 79/256/36 78/255/103 29/110/37
f 29/110/37 8/27/58 7/25/118
f 103/324/35 82/260/105 79/256/36
f 108/342/39 94/289/72 64/213/40
f 94/289/72 24/87/60 30/111/74
f 94/289/72 30/111/74 64/213/40
f 13/42/95 34/125/38 63/210/92
f 34/125/38 64/213/40 63/210/92
f 16/59/119 93/288/44 52/177/120
f 39/146/26 48/164/12 3/9/29
f 27/104/51 4/12/61 5/18/14
f 107/338/43 97/298/76 59/198/13
f 109/349/41 16/60/9 17/65/22
f 57/193/100 32/115/52 18/69/45
f 32/115/52 56/191/54 21/81/46
f 32/115/52 21/81/46 18/68/45
f 18/69/45 19/72/67 57/193/100
f 84/263/48 85/265/108 60/201/49
f 61/204/50 62/209/88 84/263/48
f 27/105/51 5/19/14 26/99/16
f 34/126/38 59/199/13 31/114/75
f 59/199/13 97/299/76 31/114/75
f 49/169/27 40/151/117 19/73/67
f 40/151/117 57/194/100 19/73/67
f 36/136/102 38/140/53 32/116/52
f 40/147/117 49/170/27 53/180/56
f 41/152/55 40/148/117 53/181/56
f 80/257/104 81/258/106 46/159/113
f 81/258/106 38/140/53 36/136/102
f 81/258/106 36/136/102 77/253/121
f 76/252/82 46/159/113 77/253/121
f 77/253/121 46/159/113 81/258/106
f 49/171/27 19/74/67 20/76/68
f 35/132/57 53/182/56 33/121/30
f 45/158/59 75/251/6 8/27/58
f 75/251/6 25/93/5 54/183/80
f 8/27/58 75/251/6 54/183/80
f 54/183/80 7/25/118 8/27/58
f 78/255/103 45/158/59 29/110/37
f 98/304/47 20/77/68 18/70/45
f 11/36/73 4/13/61 27/106/51
f 11/36/73 27/106/51 65/216/89
f 24/88/60 91/279/122 101/318/18
f 22/82/123 103/325/35 23/84/64
f 103/325/35 54/184/62 23/84/64
f 99/309/66 51/176/109 98/305/47
f 51/176/109 39/145/124 20/78/68
f 51/175/28 49/172/27 20/78/68
f 20/78/68 98/305/47 51/176/109
f 56/192/54 15/53/69 98/306/47
s 0
f 97/300/125 107/339/126 108/343/126
f 107/340/127 99/308/125 2/4/125
f 108/343/125 107/340/125 2/4/127
f 99/308/125 96/295/125 2/4/125
f 2/4/70 89/272/70 94/290/70
f 95/292/128 94/290/128 89/272/128
s 1
f 37/139/101 44/156/83 77/254/121
f 77/253/121 36/137/102 37/138/101
f 24/89/60 4/14/61 11/37/73
f 17/66/22 16/61/9 10/32/107
f 58/195/77 28/109/25 10/35/107
f 16/62/9 58/196/77 10/33/107
f 73/248/79 59/200/13 34/127/38
f 26/100/16 102/322/15 92/283/42
f 105/333/111 90/276/81 55/187/129
f 104/330/81 103/326/35 22/83/123
f 22/83/123 23/85/64 104/330/81
f 23/85/64 7/26/63 104/330/81
f 104/330/81 7/26/63 90/276/81
f 25/94/5 105/333/111 55/187/129
f 54/185/80 55/187/129 90/276/81
f 42/154/114 74/250/7 43/155/84
f 74/250/7 76/252/82 43/155/84
f 76/252/82 77/254/121 44/156/83
f 43/155/84 87/268/31 42/154/114
f 87/268/31 25/95/5 42/154/114
f 68/225/85 61/205/50 60/202/49
f 70/232/87 62/207/88 61/206/50
f 9/30/21 10/34/107 62/208/88
f 69/229/86 60/202/49 14/49/96
f 14/50/96 35/133/57 33/122/30
f 34/128/38 97/301/76 108/344/39
f 24/90/60 95/293/71 89/273/130
f 89/273/130 100/314/130 24/90/60
f 24/90/60 100/315/130 91/280/122
f 30/112/74 11/38/73 65/217/89
f 64/214/40 66/220/90 63/211/92
f 66/221/90 65/218/89 47/160/93
f 67/222/91 66/221/90 68/226/85
f 63/212/92 67/222/91 12/41/94
f 68/227/85 47/161/93 70/233/87
f 70/234/87 27/107/51 9/31/21
f 12/40/94 67/223/91 69/230/86
f 13/43/95 12/41/94 72/245/11
f 34/129/99 13/44/95 72/246/11
f 34/130/99 72/246/11 73/249/79
f 60/203/49 35/134/57 14/51/96
f 32/116/52 57/194/100 36/137/102
f 44/156/83 37/139/101 40/149/117
f 40/150/117 87/268/31 44/157/83
f 79/256/36 82/259/105 80/257/104
f 82/259/105 81/258/106 80/257/104
f 80/257/104 46/159/113 78/255/103
f 46/159/113 45/158/59 78/255/103
f 82/260/105 15/54/69 38/141/53
f 10/35/107 83/262/24 62/209/88
f 86/267/23 87/269/31 84/264/48
f 87/269/31 88/270/110 85/266/108
f 99/309/66 107/341/43 48/165/12
f 48/166/12 39/146/26 51/176/109
f 85/266/108 41/153/55 35/135/57
f 54/186/80 25/96/5 55/188/129
f 92/284/42 17/67/22 26/101/16
s 0
f 104/331/131 2/5/131 103/327/131
f 2/5/132 96/296/132 98/307/133
f 2/5/134 98/307/134 15/55/134
f 15/55/135 103/327/135 2/5/135
s 1
f 50/174/20 106/337/8 105/333/111
f 40/151/117 37/139/101 57/194/100