# Blender 3.3.1
# www.blender.org
mtllib 11s.mtl
o Hammer_cell.011
v -6.436745 -0.106158 -2.531192
v -5.179113 -2.228090 -5.975593
v -8.872022 -3.529379 -3.329943
v -7.476049 -2.214493 -7.498747
v -8.756435 -0.033150 -5.724313
v -8.937094 0.824018 -2.901633
v -8.659328 1.446813 -5.894000
v -8.853409 -3.571911 -5.534545
v -7.736499 -4.602985 -5.534545
v -8.935783 -2.889989 -3.300861
v -7.642912 -0.564377 -7.490500
v -8.937093 -0.321880 -3.003910
v -8.935788 -2.819343 -2.306752
v -8.937094 -1.432862 -2.707165
v -8.872088 -3.529651 -2.216503
v -8.970935 -1.836142 -2.270914
v -8.801908 -2.379836 -5.638189
v -8.660918 -0.921882 -5.893149
v -8.658545 -1.800529 -5.894423
v -8.651742 -2.898275 -5.895756
v -7.906520 -0.033150 -7.239511
v -8.005192 -1.339524 -7.055586
v -8.000285 -2.266395 -7.055924
v -8.337165 -1.149380 -6.467845
v -8.325849 -2.883929 -6.467616
v -8.333077 -2.194249 -6.468870
v -8.160791 0.505957 -6.785048
v -8.515605 0.543772 -6.152985
v -7.096848 -3.860956 -6.771571
v -7.135347 -4.217245 -6.149084
v -7.832917 -2.758579 -7.341632
v -8.916919 -3.354432 -4.293945
v -8.142226 -3.708382 -6.145537
v -7.604639 -1.378443 -7.495267
v -8.935788 -2.985650 -1.547346
v -9.178360 -0.262551 -2.403337
v -9.177190 -2.047871 -1.727461
v -6.882741 -2.880681 -7.497224
v -6.624658 -3.442584 -7.439798
v -7.540181 -3.369265 -7.218696
v -8.936930 2.589168 -3.213176
v -9.177190 -2.442752 -1.067073
v -8.335546 1.500731 -6.468253
v -5.596995 -2.672499 -7.498553
v -5.518195 -3.612469 -7.219282
v -5.331528 -3.998340 -6.538382
v -7.445694 -4.639669 -2.777325
v -7.113088 -4.643854 -3.419862
v -7.994249 -4.432528 -1.620774
v -8.006621 1.000014 -7.055470
v -8.853558 -3.572229 -0.652919
v -8.752138 2.134453 -5.727129
v -7.477561 0.282577 -7.498747
v -8.936930 2.630157 -4.176494
v -5.598499 -1.988980 -7.498744
v -8.240759 -4.225384 -1.046277
v -5.868035 -4.457317 -5.727238
v -8.459291 -4.027053 -0.534205
vn 0.9648 0.0005 -0.2630
vn -0.9678 -0.2516 0.0038
vn -0.9446 -0.3278 0.0174
vn -0.6920 -0.1499 -0.7062
vn -0.7998 0.0740 -0.5956
vn -0.8718 0.0020 -0.4898
vn -0.8714 0.0035 -0.4905
vn -0.0469 -0.5031 -0.8629
vn -0.1377 -0.8517 -0.5056
vn -0.2713 -0.5267 -0.8056
vn -0.4644 -0.5398 -0.7021
vn -0.7470 -0.6615 0.0664
vn -0.8663 -0.0072 -0.4994
vn -0.8266 -0.0045 -0.5628
vn -0.6490 0.0376 -0.7598
vn -0.6211 -0.7837 0.0003
vn -0.6580 -0.7530 0.0002
vn -0.8717 -0.0023 -0.4900
vn -0.8707 -0.0072 -0.4918
vn -0.8003 -0.0062 -0.5996
vn -0.1040 -0.7600 -0.6415
vn -0.4139 -0.5956 -0.6885
vn -0.8714 0.0021 -0.4905
vn -0.7850 0.0027 -0.6195
vn -0.8623 0.0008 -0.5064
vn -0.5333 -0.7433 -0.4037
vn -0.6977 -0.5042 -0.5089
vn -0.5895 -0.6169 -0.5214
vn -0.8169 -0.3933 -0.4218
vn -0.8231 -0.0001 -0.5680
vn -0.0000 -0.8245 -0.5658
vn -0.0053 -1.0000 -0.0000
vn -0.1388 -0.9898 0.0324
vn -1.0000 -0.0097 -0.0015
vn -0.9671 -0.2370 0.0925
vn -0.9954 -0.0662 0.0698
vn -0.6217 -0.6589 -0.4234
vn -1.0000 -0.0002 -0.0010
vn -0.6260 0.2430 -0.7410
vn -0.5628 -0.0448 -0.8254
vn -0.0003 -0.0005 -1.0000
vn 0.8662 -0.2176 0.4498
vn 0.7659 0.6333 -0.1109
vn -0.8117 -0.0176 -0.5838
vn -0.8713 0.0002 -0.4907
vn -0.7774 -0.0157 -0.6288
vn -0.8707 -0.0043 -0.4918
vn 0.1635 0.3795 0.9106
vn 0.1619 0.3806 0.9105
vn 0.1622 0.3803 0.9105
vn 0.1620 0.3806 0.9105
vn 0.9642 0.0020 -0.2652
vn -0.9930 -0.0950 -0.0699
vn -1.0000 0.0024 0.0051
vn -0.0000 -0.8674 -0.4976
vn -0.8369 0.0006 -0.5474
vn -0.9391 -0.3423 0.0289
vn -0.7937 0.0082 -0.6083
vn -0.9933 -0.1134 -0.0239
vn -0.0001 -0.8703 -0.4926
vn -0.5807 -0.2993 -0.7571
vn -0.6852 -0.2486 -0.6846
vn 0.8663 -0.2172 0.4498
vn 0.8662 -0.2172 0.4501
vn 0.8662 -0.2171 0.4500
vn 0.8662 -0.2172 0.4500
vn 0.7658 0.6334 -0.1109
vn 0.7658 0.6334 -0.1110
vn 0.7659 0.6333 -0.1110
vn 0.7658 0.6335 -0.1109
vn -1.0000 0.0004 0.0001
vn -1.0000 0.0020 0.0001
vt 1.000000 0.000000
vt 0.000000 0.000000
vt 1.000000 1.000000
vt 0.000000 0.000000
vt 1.000000 0.000000
vt 0.333027 0.555186
vt 0.321428 0.555154
vt 0.349036 0.538410
vt 0.313629 0.916011
vt 0.299012 0.918467
vt 0.909817 0.817487
vt 0.289795 0.918467
vt 0.912025 0.814144
vt 0.992352 0.430680
vt 0.390841 0.851207
vt 0.400100 0.851207
vt 0.934689 0.344103
vt 0.852444 0.195701
vt 0.289172 0.400909
vt 0.309605 0.369172
vt 0.317135 0.389920
vt 0.455376 0.851207
vt 0.446338 0.847647
vt 0.416721 0.363181
vt 0.416777 0.374998
vt 0.416390 0.555428
vt 0.416391 0.557157
vt 0.416389 0.550237
vt 0.990148 0.597036
vt 0.416193 0.612212
vt 0.416224 0.605154
vt 0.416190 0.615624
vt 0.302058 0.527637
vt 0.313196 0.553325
vt 0.296210 0.536091
vt 0.332002 0.530566
vt 0.390841 0.916011
vt 0.363081 0.904241
vt 0.381583 0.893469
vt 0.860632 0.819091
vt 0.353867 0.911595
vt 0.296773 0.413849
vt 0.319569 0.400598
vt 0.293462 0.447677
vt 0.317130 0.454860
vt 0.321583 0.422390
vt 0.285751 0.529264
vt 0.294419 0.527792
vt 0.286943 0.463448
vt 0.309699 0.475392
vt 0.304878 0.485344
vt 0.313819 0.465277
vt 0.306522 0.553303
vt 0.287600 0.536854
vt 0.290943 0.555064
vt 0.280710 0.555032
vt 0.292974 0.518278
vt 0.277454 0.477635
vt 0.299428 0.495398
vt 0.320424 0.851207
vt 0.416534 0.517065
vt 0.416592 0.505250
vt 0.372330 0.857905
vt 0.987945 0.442231
vt 0.381583 0.857905
vt 0.416708 0.481618
vt 0.416813 0.446101
vt 0.344829 0.857905
vt 0.336133 0.857905
vt 0.353867 0.851207
vt 0.416650 0.493434
vt 0.416425 0.540646
vt 0.285621 0.857905
vt 0.313733 0.857905
vt 0.416392 0.560614
vt 0.416391 0.558885
vt 0.416461 0.532786
vt 0.416498 0.524926
vt 0.416388 0.548507
vt 0.400100 0.911595
vt 0.390841 0.904241
vt 0.400100 0.904241
vt 0.409359 0.904241
vt 0.353867 0.904241
vt 0.313720 0.911595
vt 0.302977 0.916011
vt 0.307958 0.893469
vt 0.320439 0.904241
vt 0.390841 0.880806
vt 0.363081 0.880806
vt 0.272947 0.880806
vt 0.285621 0.868276
vt 0.307958 0.868276
vt 0.276647 0.880806
vt 0.303240 0.880806
vt 0.327950 0.868276
vt 0.313733 0.868276
vt 0.320439 0.868276
vt 0.336133 0.880806
vt 0.307958 0.880806
vt 0.344829 0.880806
vt 0.427870 0.880806
vt 0.409359 0.880806
vt 0.427870 0.868276
vt 0.418616 0.904241
vt 0.987945 0.396027
vt 0.418616 0.847647
vt 0.418616 0.868276
vt 0.416797 0.386848
vt 0.416818 0.398699
vt 0.268981 0.880806
vt 0.264966 0.893470
vt 0.261157 0.868276
vt 0.232849 0.880806
vt 0.276647 0.893469
vt 0.991250 0.597382
vt 0.416103 0.638567
vt 0.261157 0.857905
vt 0.232863 0.851207
vt 0.416188 0.617330
vt 0.416131 0.632057
vt 0.299447 0.916010
vt 0.280013 0.893470
vt 0.289751 0.916011
vt 0.303240 0.893469
vt 0.369476 0.544579
vt 0.369504 0.553508
vt 0.369494 0.548604
vt 0.416392 0.562343
vt 0.990148 0.592740
vt 0.272947 0.868276
vt 0.283014 0.857905
vt 0.416317 0.583980
vt 0.416255 0.598096
vt 0.264966 0.857905
vt 0.880768 0.819040
vt 0.336120 0.911595
vt 0.336133 0.904241
vt 0.265719 0.533990
vt 0.254918 0.536224
vt 0.277770 0.538115
vt 0.269425 0.554996
vt 0.291710 0.430424
vt 0.276080 0.531549
vt 0.264302 0.528505
vt 0.274377 0.524909
vt 0.262151 0.485730
vt 0.956337 0.782373
vt 0.288051 0.918467
vt 0.928162 0.798987
vt 0.261143 0.911595
vt 0.958556 0.782815
vt 0.226604 0.911595
vt 0.226586 0.904241
vt 0.261157 0.904241
vt 0.280013 0.904241
vt 0.287895 0.916010
vt 0.264966 0.904241
vt 0.852402 0.027067
vt 0.328729 0.323097
vt 0.934659 0.711293
vt 0.253873 0.531598
vt 0.250371 0.493687
vt 0.455371 0.857905
vt 0.437118 0.880806
vt 0.437119 0.851207
vt 0.427870 0.857905
vt 0.927550 0.330988
vt 0.897884 0.245438
vt 0.956546 0.743525
vt 0.350147 0.237727
vt 0.425190 0.312068
vt 0.191827 0.916011
vt 0.929237 0.743923
vt 0.584026 0.584026
vt 0.955955 0.575377
vt 0.190213 0.911595
vt 0.186749 0.901781
vt 0.679376 0.000000
vt 0.180992 0.884031
vt 0.679376 0.679376
vt 0.284212 0.611952
vt 0.295865 0.618138
vt 0.926644 0.331708
vt 0.897958 0.139979
vt 0.323034 0.632333
vt 0.927080 0.388298
vt 0.336120 0.639184
vt 0.277232 0.608119
vt 0.268276 0.603120
vt 0.845965 0.026440
vt 0.876569 0.091447
vt 0.436669 0.904241
vt 0.437118 0.893469
vt 0.867981 0.158981
vt 0.970617 0.824064
vt 0.853840 0.770407
vt 0.243884 0.538007
vt 0.231319 0.558617
vt 0.231885 0.556632
vt 0.467118 0.851207
vt 0.968033 0.447522
vt 0.416666 0.351365
vt 0.431775 0.911595
vt 0.400100 0.916011
vt 0.814476 0.817621
vt 0.818538 0.814265
vt 0.326379 0.214820
vt 0.418616 0.911595
vt 0.852082 0.000000
vt 0.925858 0.794364
vt 0.365162 0.321320
vt 0.112548 0.000000
vt 0.903642 0.743944
vt 1.000000 0.887452
vt 0.257813 0.597217
vt 0.246623 0.590850
vt 0.146184 0.107265
vt 0.158730 0.040522
vt 0.415892 0.681039
vt 0.882375 0.703459
vt 0.195229 0.851207
vt 0.855510 0.700370
vt 0.241153 0.587710
vt 0.056037 0.000000
vt 0.230710 0.561063
vt 0.140340 0.140340
s 0
usemtl Hammer.023
f 45/175/1 2/4/1 46/179/1
s 1
f 32/126/2 3/8/3 20/72/4
f 53/204/5 27/105/6 50/193/7
f 44/170/8 39/152/9 38/148/10
f 33/129/11 58/226/12 20/75/4
f 23/85/13 34/137/14 4/9/15
f 33/134/11 49/190/16 56/216/17
f 24/90/18 26/101/19 19/68/20
f 33/130/11 30/116/21 9/29/22
f 43/164/23 7/22/24 52/201/25
f 29/111/26 33/131/11 25/91/27
f 39/155/9 29/112/26 40/158/28
f 23/86/13 4/10/15 31/122/29
f 40/156/28 29/115/26 31/123/29
f 25/92/27 33/132/11 20/73/4
f 58/224/12 33/133/11 56/217/17
f 26/96/19 17/60/30 19/69/20
f 31/124/29 38/149/10 40/157/28
f 31/125/29 26/100/19 23/87/13
f 25/93/27 20/74/4 26/97/19
f 57/220/31 48/188/32 30/117/21
f 9/30/22 47/182/33 49/189/16
f 13/47/34 35/141/35 37/144/36
f 35/139/35 42/162/37 37/145/36
f 42/163/37 36/143/38 37/147/36
f 36/143/38 6/19/39 12/42/40
f 4/13/15 55/214/41 38/150/10
s 0
f 48/187/42 57/221/42 2/5/42
f 1/3/43 53/208/43 50/195/43
s 1
f 11/37/44 21/80/45 53/205/5
f 28/109/46 12/43/40 6/21/39
f 24/90/18 11/38/44 22/84/47
s 0
f 58/225/48 1/1/48 51/196/48
f 6/17/49 42/161/49 1/2/49
f 1/2/50 42/161/50 51/197/50
f 54/210/49 41/159/51 1/2/49
f 41/159/49 6/18/49 1/2/49
s 1
f 20/74/4 17/60/30 26/98/19
s 0
f 44/171/52 55/213/52 2/5/52
f 44/172/52 2/5/52 45/176/52
s 1
f 16/57/53 20/78/4 10/36/54
f 10/33/54 13/48/34 16/57/53
f 44/173/8 45/177/55 39/153/9
f 24/89/18 21/81/45 11/39/44
f 24/90/18 19/70/20 18/63/56
f 27/102/6 43/165/23 50/194/7
f 26/99/19 34/138/14 23/88/13
f 33/134/11 9/31/22 49/190/16
f 37/146/36 16/57/53 13/47/34
f 42/162/37 35/140/35 51/198/57
f 29/113/26 30/118/21 33/135/11
f 53/206/5 4/11/15 11/40/44
f 11/40/44 4/11/15 34/136/14
f 18/64/56 28/106/46 5/14/58
f 15/53/59 10/34/54 3/7/3
f 45/178/55 46/180/60 39/154/9
f 46/180/60 57/222/31 29/114/26
f 39/154/9 46/180/60 29/114/26
f 57/222/31 30/119/21 29/114/26
f 9/32/22 30/120/21 47/183/33
f 31/123/29 29/115/26 25/94/27
f 22/84/47 11/41/44 34/137/14
f 31/124/29 4/12/15 38/149/10
f 37/147/36 36/143/38 14/49/61
f 14/49/61 36/143/38 12/44/40
f 14/49/61 16/58/53 37/147/36
f 31/125/29 25/95/27 26/100/19
f 20/75/4 58/226/12 51/199/57
f 51/200/57 8/27/62 20/76/4
f 13/47/34 15/54/59 35/141/35
f 13/48/34 10/35/54 15/54/59
f 42/163/37 6/19/39 36/143/38
f 28/107/46 7/23/24 43/166/23
f 21/82/45 5/16/58 27/103/6
f 27/103/6 5/16/58 28/108/46
f 43/167/23 27/104/6 28/108/46
f 8/26/62 3/6/3 32/127/2
f 18/65/56 5/15/58 24/89/18
f 5/16/58 21/82/45 24/89/18
f 8/27/62 51/200/57 3/7/3
f 15/55/59 3/7/3 51/200/57
f 51/200/57 35/142/35 15/56/59
f 4/13/15 53/207/5 55/214/41
f 55/214/41 44/174/8 38/150/10
s 0
f 47/184/63 48/187/63 1/3/63
f 57/223/42 46/181/42 2/5/42
f 2/5/64 1/3/64 48/187/64
f 1/3/65 58/227/65 56/218/65
f 56/219/66 49/191/66 1/3/66
f 49/192/63 47/185/63 1/3/63
f 55/215/67 53/208/67 2/5/67
f 2/5/68 53/208/68 1/3/69
f 43/168/43 52/202/43 1/3/43
f 1/3/70 52/202/70 54/211/70
f 50/195/43 43/169/43 1/3/43
s 1
f 10/36/54 20/77/4 3/8/3
f 17/61/30 20/78/4 14/51/61
f 18/66/56 19/71/20 14/52/61
f 19/71/20 17/62/30 14/50/61
f 20/78/4 16/59/53 14/51/61
f 12/45/40 18/66/56 14/52/61
f 7/25/24 28/109/46 6/21/39
f 28/110/46 18/67/56 12/46/40
f 52/203/25 7/24/24 54/212/71
f 41/160/72 54/212/71 6/20/39
f 6/21/39 54/212/71 7/25/24
f 22/84/47 34/138/14 26/101/19
f 26/101/19 24/90/18 22/84/47
f 38/151/10 39/155/9 40/158/28
f 21/83/45 27/105/6 53/209/5
f 20/79/4 8/28/62 32/128/2
f 48/188/32 47/186/33 30/121/21