# Blender 3.3.1
# www.blender.org
mtllib 12s.mtl
o Hammer_cell.012
v -0.866124 -1.607852 6.880661
v -1.127831 -0.059749 3.760089
v -1.169939 0.258223 6.379525
v 0.145802 -3.259778 2.940135
v 0.145814 -3.260488 2.571636
v -0.037315 -3.747153 2.571636
v 0.103098 -1.278456 5.539110
v 0.010884 -0.044303 5.637795
v -0.413602 -4.123826 1.626802
v -0.386129 -4.100614 2.265715
v -0.406754 -4.117982 4.228577
v -0.386183 -4.100625 3.587648
v -0.233387 -3.355357 2.571636
v 0.123293 -3.442277 2.571636
v -0.325467 -3.531768 2.571636
v -0.037303 -3.747141 2.256608
v -0.270371 -3.440789 2.940131
v 0.108026 -3.496404 2.940131
v 0.013185 -3.682730 2.940131
v -0.037435 -3.747203 3.583091
v 0.046582 -2.626852 5.568614
v 0.044912 -2.821615 5.568948
v -0.184240 -3.842695 2.575956
v -0.258410 -3.982933 2.914223
v -0.105847 -3.824283 2.939171
v 0.156117 -2.715255 2.940131
v 0.154971 -2.931635 2.940131
v 0.151859 -3.114414 2.940131
v -0.188074 -2.602734 2.940131
v -0.187601 -2.810104 2.940131
v -0.192163 -3.055364 2.940133
v -0.026212 -1.249411 5.701414
v -0.028966 -2.371146 5.703221
v 0.103437 -0.969918 5.538858
v 0.100872 -0.661068 5.543916
v 0.151863 -3.115144 2.571636
v 0.154971 -2.932346 2.571636
v 0.156117 -2.715920 2.571636
v 0.156116 -2.715011 5.511957
v -0.192157 -3.055572 2.571636
v -0.187597 -2.810310 2.571636
v -0.188074 -2.602929 2.571636
v 0.102091 -2.171402 5.539858
v 0.102416 -1.885851 5.539619
v 0.102754 -1.585784 5.539367
v -0.456122 -3.924881 2.878715
v -0.370216 -4.094972 2.755883
v -0.118948 -0.636826 5.866424
v -0.119635 -0.933090 5.866789
v -0.246354 -3.966090 4.868752
v -0.197692 -3.917279 4.224659
v -0.234359 -3.955966 3.576038
v -0.441294 -3.703259 2.845289
v -0.397033 -3.711320 2.598865
v -0.324779 -3.985929 2.615300
v -0.029697 -2.594479 5.703594
v -0.261834 -3.795183 2.935815
v -0.026939 -1.549385 5.701892
v -0.027650 -1.841542 5.702358
v -0.234281 -3.955902 2.264263
v -0.150030 -3.869848 1.942300
v -0.292717 -4.011922 1.944871
v -0.150993 -3.870662 1.626643
v -0.297686 -4.016125 1.626961
v -0.025497 -0.948132 5.700948
v 0.045879 -0.349339 5.575564
v -0.443956 -1.438736 6.434150
v -0.445012 -1.710039 6.434414
v -0.267346 -1.485583 6.124200
v -0.440890 -0.602523 6.433381
v -0.441815 -0.881635 6.433610
v -0.264152 -0.332797 6.122969
v -0.264716 -0.621295 6.123186
v -0.265508 -0.909788 6.123493
v -0.509155 -3.908981 2.662592
v -0.469098 -4.173579 1.939872
v -0.466666 -4.173649 2.519563
v -0.107145 -3.825386 0.060177
v -0.414577 -4.124653 -0.288179
v -0.298377 -4.016708 -0.161785
v -0.195047 -3.916106 -0.044684
v 0.156280 -1.405641 2.571636
v 0.156280 -1.045207 2.940131
v 0.156117 -2.716033 1.231914
v 0.145822 -3.260648 0.673612
v 0.013399 -3.682664 0.222812
v 0.151867 -3.115295 0.823098
v 0.090436 -3.540152 0.379767
v 0.151858 -3.114161 5.380757
v 0.091200 -3.540373 5.183317
v -0.185857 -3.906615 5.161034
v -0.127747 -2.553086 5.875320
v -0.452743 -0.240834 6.455361
v -0.314648 0.568449 6.210949
v -0.418894 -0.044303 6.395977
v -0.024996 0.615662 5.700618
v 0.100813 0.644083 5.543961
v 0.154975 -2.932486 1.010453
v -0.414186 -4.124238 5.188585
v -0.465644 -4.175755 2.682549
v 0.140956 -3.312783 5.277369
v -0.569705 -1.670771 6.652954
v -0.037424 -3.747176 5.152506
v 0.154970 -2.931378 5.480435
v -0.464980 -4.174562 2.887670
v -0.473977 -4.177619 0.614162
v 0.136145 -3.367046 0.563418
v -0.513530 -0.594784 6.561247
v 0.156280 0.536950 4.557680
v -0.464525 -4.171730 3.106842
v -0.298110 -4.016456 5.172999
v -0.201069 -0.994160 2.940131
v -0.198148 -1.355009 2.571636
v -0.605923 -1.126059 6.720289
v -0.667048 -1.475285 6.824870
vn 0.9993 -0.0323 0.0159
vn 0.9999 -0.0112 0.0093
vn 0.9999 0.0170 -0.0026
vn 0.0975 0.7108 -0.6966
vn 0.1016 0.7112 -0.6956
vn 0.4942 -0.4223 0.7599
vn 0.0877 0.2717 0.9584
vn 0.0894 0.2739 0.9576
vn -0.3580 0.9261 -0.1189
vn 0.8279 -0.0084 0.5608
vn 0.6658 0.1958 0.7200
vn 0.9240 -0.1092 0.3664
vn 0.8095 -0.0013 0.5871
vn 0.9371 -0.1492 0.3157
vn 0.6874 0.0003 0.7263
vn 0.7073 0.0037 -0.7069
vn 0.8553 0.0069 0.5181
vn 0.4887 0.0039 -0.8725
vn 0.7024 -0.7118 -0.0002
vn 0.7111 -0.7031 -0.0065
vn 0.6878 -0.7259 -0.0032
vn 0.2282 -0.3604 -0.9045
vn 0.0059 0.0175 -0.9998
vn 0.5715 -0.4385 -0.6936
vn 0.7115 -0.7027 -0.0001
vn 0.6811 -0.7322 0.0046
vn 0.7100 -0.7042 -0.0005
vn 0.6855 0.0558 -0.7259
vn 0.7744 -0.6308 -0.0500
vn 0.8687 -0.0029 0.4954
vn 0.8693 -0.0021 0.4943
vn 0.8692 -0.0022 0.4945
vn 0.7084 -0.0079 -0.7058
vn 0.9995 -0.0301 -0.0000
vn 0.7097 -0.0211 -0.7042
vn 0.8272 -0.0012 0.5619
vn 0.6637 -0.7479 0.0056
vn 0.7446 -0.6675 -0.0030
vn 0.6923 -0.7216 -0.0005
vn 0.7034 -0.7108 -0.0000
vn 0.7260 -0.6877 -0.0001
vn 0.7052 -0.0778 -0.7047
vn 0.7077 -0.0058 0.7065
vn 0.7077 -0.0058 -0.7065
vn 0.7095 -0.0208 0.7044
vn 0.9999 -0.0141 -0.0000
vn 0.7084 -0.0079 0.7058
vn 0.9662 -0.0009 0.2578
vn 0.9661 -0.0009 0.2583
vn 0.6491 -0.0026 0.7607
vn 0.8375 0.1175 0.5336
vn 0.5122 -0.4202 0.7491
vn 0.9854 -0.1700 -0.0112
vn 1.0000 -0.0040 -0.0000
vn 0.4217 -0.0001 0.9067
vn 0.7077 -0.0019 0.7065
vn 0.2863 0.2486 -0.9253
vn 0.9267 0.3218 -0.1941
vn 0.8601 0.4684 0.2022
vn 0.4801 -0.5098 -0.7139
vn 0.8518 -0.0157 0.5236
vn 0.8244 -0.0235 0.5656
vn 0.8159 -0.0054 -0.5782
vn 0.8698 0.0006 0.4933
vn 0.8699 0.0001 0.4933
vn 0.6839 -0.7296 0.0001
vn 0.7077 0.0037 0.7065
vn 0.6440 -0.3555 -0.6774
vn 0.7155 -0.0808 0.6939
vn 0.9650 -0.2622 0.0009
vn 0.6403 -0.2085 0.7393
vn 0.9125 -0.4070 0.0408
vn 0.9980 -0.0627 -0.0030
vn 0.7108 0.0027 -0.7033
vn 0.6948 -0.1177 -0.7095
vn 0.6410 -0.2955 -0.7084
vn 0.8699 -0.0010 0.4933
vn 0.8695 -0.0017 0.4939
vn 0.6731 -0.7396 -0.0005
vn 0.6855 -0.7281 -0.0000
vn -0.9872 -0.1595 0.0036
vn 0.8280 -0.0001 0.5607
vn 0.9289 0.1176 0.3513
vn 0.9969 -0.0786 -0.0000
vn 0.9497 -0.0501 0.3092
vn 0.6479 -0.3039 0.6985
vn 0.8688 -0.0020 0.4952
vn 0.8271 -0.0011 0.5621
vn 0.8698 -0.0007 0.4934
vn 0.5883 -0.5078 0.6293
vn 0.7716 -0.6361 0.0009
vn 0.9994 -0.0355 -0.0000
vn 0.7110 -0.0472 0.7016
vn 0.6887 -0.7227 0.0585
vn 0.6936 -0.7203 -0.0024
vn 0.7240 -0.6898 -0.0015
vn 0.7725 -0.6347 0.0188
vn 0.7022 -0.7100 0.0527
vn 0.6733 -0.7393 -0.0016
vn 0.8476 -0.5307 -0.0001
vn 0.7896 -0.6129 0.0298
vn 0.7348 -0.6745 -0.0709
vn 0.6601 -0.7510 0.0151
vn 0.8685 -0.0030 0.4958
vn 0.8684 -0.0024 0.4958
vn 0.8396 0.0270 0.5425
vn 0.8681 -0.0033 0.4963
vn 0.8347 -0.0034 0.5508
vn 0.8683 -0.0042 0.4960
vn 0.9868 0.1479 0.0657
vn -0.9870 -0.1607 0.0041
vn 0.9733 -0.1789 0.1439
vn 0.9718 -0.1774 0.1553
vn 0.9690 -0.1759 0.1733
vn 0.0974 0.7108 -0.6966
vn 0.0977 0.7108 -0.6965
vn 0.1015 0.7112 -0.6956
vn 0.1017 0.7112 -0.6956
vn 0.4969 -0.4220 0.7583
vn 0.4967 -0.4220 0.7584
vn 0.4860 -0.4222 0.7652
vn 0.4865 -0.4211 0.7655
vn 0.4867 -0.4209 0.7655
vn 0.4949 -0.4213 0.7599
vn 0.4949 -0.4231 0.7590
vn 0.4949 -0.4232 0.7589
vn 0.4942 -0.4222 0.7599
vn 0.4941 -0.4223 0.7600
vn 0.0877 0.2716 0.9584
vn 0.0894 0.2740 0.9576
vn -0.3591 0.9258 -0.1182
vn -0.3557 0.9268 -0.1207
vn 0.8693 -0.0022 0.4943
vn 0.8688 -0.0032 0.4952
vn 0.8695 -0.0020 0.4940
vn 0.7261 -0.6876 0.0008
vn 0.8274 -0.0012 0.5616
vn 0.8617 0.0277 0.5067
vn 0.9664 -0.0038 0.2570
vn 0.9992 -0.0154 0.0375
vn 0.6699 -0.7425 -0.0000
vn 0.6654 -0.7465 -0.0000
vn 0.6745 -0.7383 -0.0030
vn 0.8696 -0.0011 0.4937
vn 0.8694 -0.0016 0.4941
vn -0.9872 -0.1593 0.0038
vn 0.8685 -0.0035 0.4956
vn -0.9870 -0.1606 0.0042
vt 1.000000 1.000000
vt 0.000000 0.000000
vt 1.000000 0.000000
vt 0.000000 0.000000
vt 1.000000 1.000000
vt 1.000000 0.000000
vt 1.000000 0.000000
vt 1.000000 1.000000
vt 0.000000 0.000000
vt 0.530607 0.105656
vt 0.530607 0.109246
vt 0.752451 0.526087
vt 0.756243 0.526087
vt 0.545071 0.109215
vt 0.722981 0.551005
vt 0.708746 0.551005
vt 0.545071 0.098481
vt 0.545071 0.096693
vt 0.545071 0.089292
vt 0.712071 0.551005
vt 0.064583 0.923872
vt 0.429658 0.190829
vt 0.064600 0.925728
vt 0.101519 0.924286
vt 0.101519 0.925728
vt 0.101519 0.929226
vt 0.582181 0.071327
vt 0.825723 0.617895
vt 0.557800 0.071657
vt 0.718565 0.510408
vt 0.479832 0.071503
vt 0.376430 0.166113
vt 0.504469 0.071668
vt 0.481073 0.271560
vt 0.673424 0.511618
vt 0.668316 0.511618
vt 0.713733 0.562625
vt 0.717292 0.562625
vt 0.545071 0.103846
vt 0.545071 0.107425
vt 0.545071 0.100269
vt 0.713733 0.551005
vt 0.721084 0.551005
vt 0.719188 0.551005
vt 0.675050 0.511618
vt 0.676676 0.511618
vt 0.707901 0.559720
vt 0.557436 0.093126
vt 0.557436 0.088712
vt 0.673424 0.499733
vt 0.676676 0.499733
vt 0.766683 0.537707
vt 0.668316 0.499733
vt 0.758139 0.537707
vt 0.761697 0.537707
vt 0.530607 0.103862
vt 0.530607 0.098482
vt 0.758139 0.526087
vt 0.763359 0.526087
vt 0.761697 0.526087
vt 0.766683 0.526087
vt 0.530607 0.094897
vt 0.765021 0.526087
vt 0.530607 0.096689
vt 0.505370 0.088726
vt 0.505370 0.093147
vt 0.021263 0.923872
vt 0.021918 0.925699
vt 0.898251 0.316972
vt 0.498206 0.000000
vt 0.506492 0.031438
vt 0.514620 0.473339
vt 0.502137 0.492055
vt 0.898251 0.325097
vt 0.016421 0.928686
vt 0.701661 0.553910
vt 0.704972 0.553910
vt 0.704868 0.556815
vt 0.545071 0.083679
vt 0.545071 0.078066
vt 0.784406 0.526087
vt 0.777203 0.526087
vt 0.530607 0.072453
vt 0.530607 0.078064
vt 0.777239 0.528992
vt 0.534223 0.072453
vt 0.770457 0.528992
vt 0.773696 0.526087
vt 0.530607 0.083675
vt 0.530607 0.089286
vt 0.530607 0.133720
vt 0.731682 0.526087
vt 0.530607 0.125562
vt 0.738605 0.526087
vt 0.530607 0.117404
vt 0.745528 0.526087
vt 0.642426 0.499733
vt 0.731682 0.537707
vt 0.649201 0.499733
vt 0.738605 0.537707
vt 0.666460 0.499733
vt 0.655975 0.499733
vt 0.752451 0.537707
vt 0.756243 0.537707
vt 0.745528 0.537707
vt 0.064601 0.929226
vt 0.029547 0.929226
vt 0.073817 0.923872
vt 0.429658 0.203065
vt 0.083052 0.924286
vt 0.893844 0.239682
vt 0.429658 0.215301
vt 0.083053 0.925728
vt 0.545071 0.117375
vt 0.729905 0.551005
vt 0.545071 0.125534
vt 0.736829 0.551005
vt 0.545070 0.133694
vt 0.743753 0.551005
vt 0.429659 0.133729
vt 0.893844 0.316972
vt 0.655975 0.511618
vt 0.666460 0.511618
vt 0.722981 0.562625
vt 0.729905 0.562625
vt 0.719188 0.562625
vt 0.649201 0.511618
vt 0.736829 0.562625
vt 0.642426 0.511618
vt 0.743753 0.562625
vt 0.036964 0.923872
vt 0.429659 0.154122
vt 0.893844 0.297332
vt 0.046280 0.924286
vt 0.046170 0.923872
vt 0.046360 0.925728
vt 0.429659 0.166358
vt 0.055376 0.923872
vt 0.429659 0.178593
vt 0.735392 0.434954
vt 0.784444 0.531897
vt 0.784434 0.528992
vt 0.777254 0.531897
vt 0.788103 0.526087
vt 0.788110 0.528992
vt 0.537839 0.072453
vt 0.083053 0.935807
vt 0.073824 0.935807
vt 0.454896 0.083465
vt 0.454891 0.077799
vt 0.480133 0.088506
vt 0.480133 0.083369
vt 0.480095 0.077694
vt 0.505370 0.083464
vt 0.505290 0.077799
vt 0.773774 0.534802
vt 0.808748 0.470342
vt 0.680369 0.502704
vt 0.770190 0.537707
vt 0.701629 0.556815
vt 0.822902 0.484603
vt 0.680369 0.508647
vt 0.704972 0.559720
vt 0.698212 0.556815
vt 0.698216 0.553910
vt 0.694717 0.553910
vt 0.791800 0.528992
vt 0.545071 0.072453
vt 0.541455 0.072453
vt 0.022012 0.929143
vt 0.773774 0.528992
vt 0.770457 0.534802
vt 0.773810 0.531897
vt 0.767708 0.531897
vt 0.055412 0.929225
vt 0.046394 0.929226
vt 0.557468 0.077792
vt 0.557436 0.083458
vt 0.569801 0.088355
vt 0.569801 0.083296
vt 0.569816 0.077621
vt 0.582166 0.088219
vt 0.582166 0.083229
vt 0.582167 0.077556
vt 0.073824 0.929225
vt 0.092285 0.923872
vt 0.898251 0.228131
vt 0.092285 0.924286
vt 0.055412 0.958312
vt 0.046399 0.958311
vt 0.055412 0.945998
vt 0.083053 0.958311
vt 0.073824 0.958311
vt 0.092285 0.945998
vt 0.083053 0.945998
vt 0.073824 0.945998
vt 0.719432 0.447493
vt 0.787523 0.531897
vt 0.785458 0.480188
vt 0.694717 0.556815
vt 0.788113 0.531789
vt 0.569922 0.071410
vt 0.771649 0.563590
vt 0.548221 0.066788
vt 0.666315 0.458626
vt 0.786802 0.194606
vt 0.643646 0.088202
vt 0.849024 0.749875
vt 0.657319 0.071315
vt 1.000000 0.860612
vt 0.826585 0.542211
vt 0.652358 0.077547
vt 0.805668 0.355576
vt 0.647762 0.083220
vt 0.545070 0.186323
vt 0.869890 0.355085
vt 0.786336 0.551005
vt 0.869808 0.289202
vt 0.530606 0.200486
vt 0.677736 0.526087
vt 0.870078 0.594598
vt 0.597655 0.134904
vt 0.863230 0.693273
vt 0.619569 0.113456
vt 0.761760 0.000000
vt 0.761760 0.761760
vt 0.640126 0.092359
vt 0.637263 0.095620
vt 0.867292 0.667218
vt 0.613701 0.119203
vt 0.629266 0.103910
vt 0.634924 0.098164
vt 0.826389 0.739865
vt 0.632938 0.100230
vt 0.571892 0.289923
vt 0.434809 0.117606
vt 0.677165 0.308192
vt 0.442558 0.102073
vt 0.443661 0.096386
vt 0.767660 0.000000
vt 0.767660 0.767660
vt 0.443402 0.083561
vt 0.563347 0.400861
vt 0.022026 0.935938
vt 0.547913 0.054881
vt 0.527819 0.527819
vt 0.092285 0.960154
vt 0.095003 0.959191
vt 1.000000 0.436431
vt 0.436431 0.436431
vt 0.121314 0.949480
vt 0.642416 0.505420
vt 0.101519 0.956836
vt 0.250390 0.076811
vt 0.121743 0.929226
vt 0.218345 0.014749
vt 0.121812 0.925728
vt 0.121837 0.924286
vt 0.235607 0.201066
vt 0.893844 0.190438
vt 0.429658 0.267464
vt 0.869353 0.634066
vt 0.606348 0.126400
vt 1.000000 0.788660
vt 0.963374 0.785953
vt 0.442339 0.072059
vt 0.211341 0.000000
vt 0.542281 0.067447
vt 0.537512 0.067835
vt 0.641846 0.434480
vt 0.623871 0.416381
vt 0.607797 0.317223
vt 0.666262 0.321491
vt 0.442027 0.103883
vt 0.437828 0.110200
vt 0.787031 0.072619
vt 0.046399 0.966996
vt 0.443768 0.093921
vt 0.728260 0.174227
vt 0.747614 0.093018
vt 0.443681 0.088976
vt 0.516873 0.070269
vt 0.893844 0.322956
vt 0.430896 0.125591
vt 0.532044 0.067486
vt 0.603807 0.395692
vt 0.621884 0.068186
vt 0.793150 0.793150
vt 1.000000 0.793150
vt 0.626991 0.106163
vt 0.623894 0.109212
vt 0.856702 0.711900
vt 0.615740 0.239473
vt 0.083053 0.963388
vt 0.869447 0.000000
vt 1.000000 0.130553
vt 0.467115 0.262587
vt 0.522937 0.066872
vt 0.569917 0.361322
vt 0.864219 0.777448
vt 0.442954 0.077925
vt 0.589350 0.499733
vt 0.627803 0.249518
vt 0.677443 0.537707
vt 0.629864 0.315726
vt 0.600987 0.511618
vt 0.786107 0.562625
vt 0.748564 0.599404
vt 0.064601 0.969687
vt 0.836163 0.000000
vt 0.836163 0.836163
vt 0.052095 0.973832
s 0
usemtl Hammer.023
f 53/157/1 46/140/2 75/197/3
f 78/206/4 81/213/4 86/225/4
f 2/4/5 112/303/5 113/305/5
f 92/243/6 102/276/6 1/3/6
f 114/308/7 108/293/7 3/7/7
f 3/8/8 95/252/8 94/249/8
f 2/6/9 96/254/9 97/256/9
s 1
f 96/255/10 8/25/11 97/257/12
f 7/23/13 44/134/14 35/110/15
f 29/97/16 113/306/17 112/302/18
f 50/150/19 91/242/20 111/301/21
f 25/87/22 57/174/23 19/61/24
f 51/153/25 12/33/26 52/155/27
f 12/33/26 24/84/28 52/155/27
f 52/154/27 25/90/22 20/65/29
f 67/189/30 74/196/31 71/193/32
f 27/93/33 89/236/34 28/95/35
f 58/175/36 44/136/14 7/23/13
f 12/33/26 110/298/37 24/83/28
f 50/149/19 51/151/25 103/281/38
f 64/184/39 81/214/40 63/183/41
f 31/102/42 41/127/43 30/99/44
f 36/114/45 98/263/46 37/116/47
f 7/21/48 35/110/15 45/138/49
f 54/160/50 55/165/51 23/76/52
f 101/275/53 28/95/35 89/236/34
f 84/222/54 82/215/55 38/118/56
f 46/141/57 47/145/58 75/198/59
f 47/144/58 46/142/57 24/81/28
f 46/143/57 53/156/60 57/173/23
f 33/107/61 21/68/62 44/136/14
f 51/151/25 20/66/29 103/278/38
f 24/82/28 57/171/23 25/88/22
f 44/137/14 83/219/63 45/139/49
f 8/26/11 94/251/64 95/253/65
f 11/31/66 51/153/25 50/150/19
f 42/129/67 30/99/44 41/127/43
f 17/53/68 40/123/69 31/101/42
f 107/290/70 14/39/71 88/231/72
f 104/284/73 27/93/33 26/91/74
f 4/10/75 101/274/53 18/56/76
f 48/147/77 73/195/78 74/196/31
f 9/27/79 80/212/80 64/184/39
s 0
f 2/6/81 106/288/81 1/2/81
s 1
f 65/185/82 35/113/83 8/26/11
f 85/224/84 14/40/71 107/291/70
f 17/50/68 15/45/85 13/35/86
f 69/191/87 59/176/88 58/175/36
f 72/194/89 48/147/77 8/26/11
f 37/116/47 84/222/54 38/118/56
f 88/232/72 6/18/90 86/228/91
f 87/230/92 5/14/93 85/224/84
f 60/178/94 62/181/95 61/180/96
f 62/181/95 63/183/41 61/180/96
f 6/19/90 60/178/94 16/49/97
f 23/80/52 10/29/98 60/177/94
f 10/29/98 62/181/95 60/177/94
f 76/202/99 64/184/39 62/181/95
f 90/239/100 103/278/38 20/66/29
f 77/204/101 55/169/51 100/268/102
f 24/86/28 100/269/102 47/146/58
f 105/285/103 24/83/28 110/298/37
f 102/277/104 68/190/105 67/189/30
f 44/134/14 21/67/62 43/131/106
f 92/244/107 22/75/108 56/170/109
f 97/258/12 8/24/11 66/186/110
f 68/190/105 92/244/107 33/107/61
s 0
f 9/28/111 76/203/111 1/3/111
f 54/161/112 53/157/113 75/199/114
s 1
f 15/46/85 17/51/68 54/162/50
f 54/162/50 17/51/68 53/158/60
s 0
f 80/211/115 79/208/115 2/4/115
f 2/4/116 86/225/116 81/213/116
f 80/211/115 2/4/115 81/213/115
f 87/229/5 85/223/5 86/226/5
f 85/223/117 107/292/117 86/226/117
f 107/292/118 88/233/118 86/226/118
f 2/4/5 109/295/5 112/303/5
f 109/295/5 83/218/5 112/303/5
f 86/226/5 2/4/5 113/305/5
f 98/262/5 87/229/5 86/226/5
f 82/216/5 84/221/5 113/305/5
f 84/221/5 98/262/5 86/226/5
f 113/305/5 84/221/5 86/226/5
f 22/70/119 91/240/119 103/280/119
f 101/273/119 103/279/119 90/237/119
f 101/272/120 89/235/120 104/282/120
f 22/70/121 103/280/122 101/273/123
f 101/273/124 104/282/125 22/71/126
f 102/276/6 115/310/6 1/3/6
f 1/3/6 99/264/6 92/243/6
f 92/243/6 99/264/127 22/72/6
f 99/265/128 111/300/128 22/73/128
f 111/300/127 91/241/127 22/73/127
f 3/7/7 1/1/7 114/308/7
f 93/245/129 3/7/129 108/293/129
f 1/1/7 115/311/7 114/308/7
f 3/8/130 93/246/130 95/252/130
f 2/6/131 3/8/131 96/254/131
f 3/8/131 94/250/131 96/254/131
f 109/296/132 2/5/132 97/259/132
s 1
f 29/97/16 42/129/67 113/306/17
f 18/56/76 101/274/53 90/238/100
f 6/16/90 15/47/85 23/77/52
f 15/47/85 54/163/50 23/78/52
f 51/152/25 52/154/27 20/65/29
f 51/153/25 11/31/66 12/33/26
f 52/155/27 24/84/28 25/89/22
f 20/65/29 25/90/22 19/62/24
f 108/294/133 114/309/134 71/193/32
f 114/309/134 67/189/30 71/193/32
f 67/189/30 69/191/87 74/196/31
f 71/193/32 70/192/135 108/294/133
f 63/183/41 81/214/40 78/207/136
f 27/93/33 104/284/73 89/236/34
f 7/23/13 32/106/137 58/175/36
f 58/175/36 59/176/88 44/136/14
f 104/283/73 39/121/138 22/74/108
f 39/121/138 21/69/62 22/74/108
f 103/281/38 91/242/20 50/149/19
f 64/184/39 80/212/80 81/214/40
f 31/102/42 40/122/69 41/127/43
f 36/114/45 87/230/92 98/263/46
f 34/108/139 35/110/83 7/21/48
f 35/110/15 44/135/14 45/138/49
f 57/172/23 53/159/60 17/52/68
f 101/275/53 4/11/75 28/95/35
f 54/164/50 75/200/59 55/166/51
f 21/68/62 56/170/109 22/75/108
f 35/111/83 97/260/12 66/187/110
f 75/201/59 47/145/58 55/167/51
f 24/85/28 46/143/57 57/173/23
f 44/136/14 59/176/88 33/107/61
f 33/107/61 56/170/109 21/68/62
f 43/132/106 39/120/138 26/91/74
f 26/91/74 83/219/63 44/137/14
f 83/219/63 109/297/140 35/112/83
f 26/91/74 44/137/14 43/132/106
f 109/297/140 97/261/12 35/112/83
f 34/109/139 7/22/48 83/219/63
f 7/22/48 45/139/49 83/219/63
f 34/109/139 83/219/63 35/112/83
f 79/209/141 9/27/79 106/287/142
f 8/26/11 96/255/10 94/251/64
f 111/301/21 99/266/143 50/150/19
f 99/266/143 11/31/66 50/150/19
f 42/129/67 29/97/16 30/99/44
f 90/239/100 19/64/24 18/57/76
f 17/53/68 13/36/86 40/123/69
f 26/91/74 39/120/138 104/284/73
f 73/195/78 72/194/89 70/192/135
f 72/194/89 93/247/144 70/192/135
f 93/247/144 108/294/133 70/192/135
f 70/192/135 71/193/32 73/195/78
f 71/193/32 74/196/31 73/195/78
f 74/196/31 69/191/87 49/148/145
f 69/191/87 58/175/36 32/106/137
f 49/148/145 69/191/87 32/106/137
f 32/106/137 65/185/82 49/148/145
f 49/148/145 48/147/77 74/196/31
f 9/27/79 79/209/141 80/212/80
f 8/25/11 35/113/83 66/188/110
f 61/179/96 63/182/41 16/48/97
f 63/182/41 78/207/136 86/227/91
f 16/48/97 63/182/41 86/227/91
s 0
f 1/2/146 3/9/146 2/6/146
f 2/6/81 79/210/81 106/288/81
s 1
f 65/185/82 32/106/137 7/23/13
f 7/23/13 35/113/83 65/185/82
f 85/224/84 5/14/93 14/40/71
f 88/234/72 14/41/71 6/17/90
f 10/29/98 55/168/51 77/204/101
f 69/191/87 33/107/61 59/176/88
f 29/98/16 112/304/18 83/220/63
f 83/220/63 26/92/74 29/98/16
f 26/92/74 27/94/33 30/100/44
f 29/98/16 26/92/74 30/100/44
f 27/94/33 28/96/35 31/105/42
f 28/96/35 4/12/75 31/103/42
f 4/13/75 18/58/76 17/54/68
f 4/13/75 17/54/68 31/104/42
f 18/59/76 19/63/24 57/174/23
f 30/100/44 27/94/33 31/105/42
f 57/174/23 17/55/68 18/60/76
f 72/194/89 73/195/78 48/147/77
f 48/147/77 49/148/145 65/185/82
f 8/26/11 95/253/65 72/194/89
f 95/253/65 93/248/144 72/194/89
f 48/147/77 65/185/82 8/26/11
f 86/228/91 6/18/90 16/48/97
f 37/116/47 98/263/46 84/222/54
f 87/230/92 36/114/45 5/14/93
f 16/49/97 60/178/94 61/180/96
f 62/181/95 64/184/39 63/183/41
f 6/19/90 23/79/52 60/178/94
f 23/80/52 55/168/51 10/29/98
f 10/29/98 76/202/99 62/181/95
f 76/202/99 9/27/79 64/184/39
f 19/64/24 90/239/100 20/66/29
f 100/268/102 55/169/51 47/146/58
f 24/86/28 105/285/103 100/269/102
f 114/309/134 115/312/147 67/189/30
f 115/312/147 102/277/104 67/189/30
f 21/69/62 39/121/138 43/133/106
f 6/20/90 14/42/71 13/37/86
f 15/47/85 6/20/90 13/37/86
f 14/43/71 5/15/93 40/126/69
f 5/15/93 36/115/45 40/124/69
f 36/115/45 37/117/47 40/125/69
f 37/117/47 38/119/56 41/128/43
f 38/119/56 82/217/55 42/130/67
f 82/217/55 113/307/17 42/130/67
f 37/117/47 41/128/43 40/125/69
f 38/119/56 42/130/67 41/128/43
f 13/38/86 14/44/71 40/126/69
f 33/107/61 69/191/87 68/190/105
f 69/191/87 67/189/30 68/190/105
f 68/190/105 102/277/104 92/244/107
f 92/244/107 56/170/109 33/107/61
s 0
f 77/205/111 100/270/111 1/3/111
f 100/271/111 105/286/111 1/3/111
f 105/286/111 110/299/111 1/3/111
f 10/30/111 77/205/111 1/3/111
f 110/299/111 12/34/111 1/3/111
f 76/203/111 10/30/111 1/3/148
f 11/32/111 99/267/111 1/3/111
f 12/34/111 11/32/111 1/3/111
f 1/3/111 106/289/111 9/28/111