# Blender 3.3.1
# www.blender.org
mtllib 13s.mtl
o Hammer_cell.013
v -4.459546 0.938720 -0.656174
v -2.709194 0.435525 -0.242368
v -5.217132 1.397492 2.741712
v -4.148373 -0.584096 1.751539
v -5.414917 2.354003 3.662164
v -3.317578 -0.656621 1.675085
v -1.179236 0.044686 3.852686
v -3.590397 2.056037 5.831354
v -3.878770 -0.736171 1.934253
v -1.220803 0.375079 6.552901
v -1.243805 4.792127 2.479394
v -0.269539 3.509207 3.011740
v 0.149878 1.339198 5.659697
v -1.964761 4.745594 2.727579
v -0.429749 4.249633 1.985711
v -0.234984 3.409214 2.632337
v -1.430967 4.802730 3.674125
v 0.092764 0.885895 5.692651
v 0.149878 1.659043 5.659697
v -1.036975 4.724139 2.759374
v -1.537863 4.802730 2.917271
v -0.134200 0.970466 6.025032
v 0.149710 2.805391 3.011740
v -0.204669 2.689539 3.011740
v -0.206129 3.083601 3.011740
v 0.148530 3.028907 2.632337
v -0.206125 3.083817 2.632337
v -0.204669 2.689739 2.632337
v -0.418493 3.900646 2.790936
v -0.693796 4.480501 2.112697
v -1.048294 4.742526 2.103973
v -0.317525 4.144768 1.659699
v -1.375609 4.798258 1.965012
v -1.584839 4.801986 2.389297
v 0.149878 0.665509 4.679210
v -1.431275 4.802730 4.770691
v -1.305452 4.801402 4.465141
v -1.170580 4.779395 3.496791
v -1.188820 4.792107 3.996801
v 0.149710 2.805355 3.385455
v -0.927448 4.667031 3.211385
v 0.149878 1.250681 3.011740
v 0.149878 1.383828 2.632337
v 0.139111 3.366940 -0.335648
v -4.833257 4.802730 -1.512612
v 0.063874 3.699216 -0.417074
v -1.378224 4.798258 -0.895769
v -0.812508 4.575476 -0.750262
v -6.158356 4.802730 3.554380
v -0.634558 4.430759 2.574775
v -0.218333 0.998334 3.011740
v 0.148535 3.029091 -0.264783
v -1.688021 4.802566 -0.951859
v -6.446198 4.802730 0.641473
v 0.149883 2.351927 -0.125868
v -5.307034 4.802730 4.619524
v -5.991525 4.802730 -1.718366
v -0.360653 0.949315 6.423402
v 0.038782 3.746583 1.468473
v -0.217253 1.132217 2.632337
v 0.145335 3.217141 2.360566
v -0.219792 4.046878 -0.538431
v -2.071240 4.802730 -1.020213
v 0.011619 2.095948 5.765289
v 0.129139 3.476392 1.771983
vn 0.3761 -0.9229 -0.0821
vn 0.4244 -0.8990 -0.1082
vn 0.3225 -0.9453 -0.0486
vn -0.6574 -0.5871 0.4723
vn -0.6532 -0.5942 0.4693
vn 0.5425 -0.7923 -0.2792
vn -0.7645 -0.2052 0.6111
vn -0.9538 -0.2854 0.0942
vn -0.8993 -0.4127 -0.1448
vn -0.1255 -0.8457 -0.5187
vn 0.9996 0.0257 -0.0080
vn 0.9978 0.0666 0.0003
vn 0.9998 0.0201 -0.0000
vn 0.6926 -0.0253 0.7209
vn 0.4939 0.0004 0.8695
vn 1.0000 0.0005 -0.0000
vn 0.7307 0.6817 -0.0363
vn 0.7035 0.7102 -0.0265
vn 0.7104 0.7038 -0.0042
vn 0.7077 -0.0036 0.7065
vn 0.7256 0.0315 -0.6874
vn 0.7077 -0.0037 -0.7065
vn 0.0911 0.9946 -0.0502
vn 0.1803 0.9827 0.0424
vn 0.0117 0.9894 0.1446
vn 0.6292 0.7773 0.0038
vn 0.6646 0.7472 -0.0072
vn 0.9828 0.1847 0.0053
vn 0.9998 -0.0199 0.0092
vn 0.6601 0.0001 -0.7512
vn 1.0000 0.0007 -0.0000
vn 0.9976 0.0694 -0.0000
vn 0.5947 -0.7308 -0.3351
vn 0.7540 -0.0223 0.6565
vn 0.7823 -0.0220 0.6225
vn -0.8987 -0.4139 -0.1452
vn 0.1945 -0.9732 0.1224
vn -0.2291 0.8851 -0.4052
vn 0.3417 0.9379 -0.0594
vn 0.4772 0.5247 0.7050
vn -0.6571 -0.5888 0.4707
vn -0.6571 -0.5886 0.4709
vn 0.8931 -0.0072 0.4498
vn 0.7881 -0.0064 -0.6155
vn 0.1716 -0.1974 -0.9652
vn 0.5430 -0.7923 -0.2781
vn 0.7238 0.0706 0.6863
vn 0.6605 0.0736 -0.7472
vn -0.1202 -0.8457 -0.5199
vn 0.3573 -0.9264 0.1189
vn 0.4253 -0.8976 0.1164
vn 0.2979 -0.9292 0.2188
vn 0.8400 0.5047 0.1992
vn 0.8095 0.5137 0.2843
vn 0.7980 0.5120 0.3177
vn 0.8130 0.5160 0.2698
vn 0.8160 0.5309 0.2288
vn 0.8336 0.4899 0.2553
vn 0.8440 0.4649 0.2677
vn 0.8215 0.5279 0.2154
vn 0.8178 0.5327 0.2177
vn 0.8143 0.5369 0.2204
vn 0.8154 0.5377 0.2144
vn 0.8349 0.4584 0.3046
vn 0.8377 0.4511 0.3078
vn 0.8344 0.4598 0.3041
vn 0.8840 0.4642 0.0548
vn 0.8639 0.4969 0.0829
vn 0.8605 0.5021 0.0865
vn 0.4833 0.6822 -0.5486
vn 0.4617 0.7115 -0.5297
vn 0.5062 0.6490 -0.5679
vn 0.7642 0.6448 0.0115
vn 0.8339 0.4937 0.2467
vn 0.8360 0.4921 0.2430
vn 0.8331 0.4944 0.2481
vn 0.8436 0.5367 -0.0165
vn 0.8114 0.5844 0.0125
vn 0.7888 0.6132 0.0423
vn -0.0419 0.3813 0.9235
vn 0.6030 0.7977 -0.0084
vn 0.0971 0.9953 -0.0026
vn 0.1722 -0.1937 -0.9658
vn 0.1722 -0.1936 -0.9659
vn 0.1721 -0.1941 -0.9658
vn 0.1722 -0.1939 -0.9658
vn -0.7626 -0.2061 0.6131
vn -0.9535 -0.2867 0.0931
vn 0.7359 0.6770 -0.0121
vn -0.4478 0.8941 -0.0090
vn 0.7035 0.7106 0.0067
vn 0.0040 0.7449 -0.6671
vn 0.4616 -0.0197 0.8869
vn 0.9331 -0.1045 0.3441
vn 0.0069 1.0000 0.0008
vn 0.1375 0.9905 -0.0001
vn 0.0608 0.9980 -0.0174
vn 0.6897 -0.0000 -0.7241
vn 0.8368 -0.0043 0.5475
vn 0.0117 0.9999 0.0001
vn -0.8986 -0.4139 -0.1453
vn 0.1948 -0.9732 0.1221
vn 0.5997 0.8002 0.0054
vn 0.5700 0.8177 -0.0800
vn -0.6569 -0.5893 0.4704
vn 0.8693 0.0014 0.4942
vn 0.8809 0.0510 0.4706
vn 0.0030 1.0000 0.0067
vn 0.0094 1.0000 0.0029
vn -0.0000 1.0000 -0.0000
vn 0.0127 0.9999 -0.0048
vn 0.0092 0.9999 -0.0140
vn -0.0359 0.3857 0.9219
vn -0.0352 0.3857 0.9220
vn -0.0352 0.3856 0.9220
vn 0.1715 -0.1974 -0.9652
vn 0.1715 -0.1973 -0.9652
vn 0.1703 -0.1980 -0.9653
vn 0.1706 -0.1978 -0.9653
vn 0.1708 -0.1977 -0.9653
vn 0.1718 -0.1976 -0.9651
vt 1.000000 0.000000
vt 0.000000 0.000000
vt 1.000000 0.000000
vt 0.000000 0.000000
vt 1.000000 1.000000
vt 1.000000 0.000000
vt 1.000000 1.000000
vt 0.000000 0.000000
vt 0.000000 0.000000
vt 1.000000 1.000000
vt 1.000000 0.000000
vt 1.000000 0.000000
vt 0.000000 0.000000
vt 1.000000 1.000000
vt 0.000000 0.000000
vt 1.000000 0.000000
vt 0.000000 0.000000
vt 1.000000 0.000000
vt 1.000000 1.000000
vt 0.000000 0.000000
vt 1.000000 0.000000
vt 1.000000 0.000000
vt 0.000000 0.000000
vt 1.000000 1.000000
vt 0.000000 0.000000
vt 1.000000 1.000000
vt 1.000000 0.000000
vt 0.550902 0.442761
vt 0.550901 0.446172
vt 0.543646 0.449701
vt 0.599052 0.233650
vt 0.447255 0.499733
vt 0.536026 0.537707
vt 0.450966 0.499733
vt 0.138455 0.923872
vt 0.429658 0.288715
vt 0.915389 0.137210
vt 0.915389 0.128642
vt 0.113757 0.018020
vt 0.569922 0.408135
vt 0.483464 0.063675
vt 0.440401 0.078978
vt 0.449111 0.511618
vt 0.941339 0.562625
vt 0.939442 0.562625
vt 0.450966 0.511618
vt 0.927632 0.093596
vt 0.505354 0.453375
vt 0.502125 0.451226
vt 0.986010 0.782338
vt 0.789521 0.789521
vt 0.429658 0.276480
vt 0.122052 0.923872
vt 0.129213 0.929226
vt 0.429659 0.300951
vt 0.147661 0.923872
vt 0.543689 0.442589
vt 0.528334 0.447761
vt 0.632784 0.023933
vt 0.543690 0.432667
vt 0.543651 0.427489
vt 0.528233 0.436596
vt 0.536937 0.452711
vt 0.529073 0.451007
vt 0.923016 0.120074
vt 0.917295 0.121186
vt 0.530591 0.453370
vt 0.537313 0.457037
vt 0.099763 0.002477
vt 0.807368 0.690108
vt 0.129213 0.935807
vt 0.537594 0.429510
vt 0.560587 0.526087
vt 0.555964 0.526087
vt 0.530607 0.345825
vt 0.560587 0.537707
vt 0.475000 0.499733
vt 0.452821 0.499733
vt 0.468226 0.499733
vt 0.553664 0.537707
vt 0.537922 0.537707
vt 0.481319 0.372286
vt 0.545070 0.345851
vt 0.924666 0.551005
vt 0.914877 0.551005
vt 0.545071 0.354010
vt 0.468226 0.511618
vt 0.937546 0.562625
vt 0.921802 0.562625
vt 0.452821 0.511618
vt 0.914877 0.562625
vt 0.475000 0.511618
vt 0.555044 0.151247
vt 0.564624 0.137752
vt 0.590210 0.127580
vt 0.605502 0.137936
vt 0.612880 0.172948
vt 0.609870 0.194248
vt 0.533446 0.206162
vt 0.604691 0.215064
vt 0.447255 0.511618
vt 0.950844 0.557869
vt 0.515586 0.054006
vt 0.535758 0.047856
vt 0.570165 0.414766
vt 0.550843 0.427492
vt 0.550417 0.421292
vt 0.550903 0.439777
vt 0.559894 0.446433
vt 0.550903 0.432667
vt 0.570527 0.446567
vt 0.583186 0.391327
vt 0.367610 0.111256
vt 0.400681 0.095169
vt 0.582181 0.408218
vt 0.570510 0.451238
vt 0.550838 0.450499
vt 0.921109 0.140631
vt 0.923016 0.132926
vt 0.549130 0.461954
vt 0.559848 0.450994
vt 0.559539 0.456525
vt 0.543370 0.454416
vt 0.871602 0.000000
vt 0.467037 0.263032
vt 1.000000 0.128398
vt 1.000000 0.053903
vt 0.923016 0.049412
vt 0.463549 0.453385
vt 0.035643 0.002855
vt 0.109408 0.066927
vt 0.944545 0.038835
vt 0.991113 0.051444
vt 0.475198 0.448567
vt 0.465353 0.450945
vt 0.750203 0.005882
vt 0.786985 0.006240
vt 0.517386 0.449655
vt 0.515081 0.436593
vt 0.520535 0.452121
vt 0.822210 0.010388
vt 0.900809 0.027555
vt 0.500144 0.448902
vt 0.593144 0.485501
vt 0.516360 0.345473
vt 0.658039 0.018503
vt 0.708323 0.009901
vt 0.522996 0.432670
vt 0.609481 0.526087
vt 0.530606 0.285340
vt 0.946589 0.616784
vt 0.545070 0.290422
vt 0.870049 0.551005
vt 0.946598 0.539655
vt 0.658216 0.366089
vt 0.932312 0.250242
vt 0.192648 0.192648
vt 0.266251 0.118534
vt 1.000000 0.192648
vt 0.659139 0.370333
vt 0.663401 0.387186
vt 0.956065 0.915339
vt 0.780284 0.197853
vt 0.678688 0.446622
vt 0.679569 0.451339
vt 0.677965 0.442949
vt 0.855867 0.407511
vt 0.879784 0.617111
vt 0.670797 0.414834
vt 0.674151 0.427506
vt 0.075097 0.000000
vt 0.075097 0.075097
vt 0.080750 0.167941
vt 0.563871 0.040501
vt 0.599478 0.031235
vt 0.543378 0.421272
vt 0.529173 0.499733
vt 0.615947 0.537707
vt 0.846067 0.580142
vt 0.657005 0.360342
vt 0.653767 0.344643
vt 0.655514 0.353146
vt 0.934380 0.354939
vt 0.935893 0.632676
vt 0.755577 0.194726
vt 0.681708 0.463178
vt 0.680591 0.456958
vt 1.000000 0.074518
vt 0.054732 0.054732
vt 0.074518 0.074518
vt 0.187510 0.178025
vt 0.183383 0.177639
vt 0.946661 0.946661
vt 0.646269 0.325930
vt 0.936037 0.936037
vt 0.946661 0.000000
vt 1.000000 0.925587
vt 0.042261 0.042261
vt 1.000000 0.933120
vt 0.047182 0.141426
vt 0.041527 0.135446
vt 1.000000 0.042261
vt 0.000000 0.000000
vt 0.916375 0.000000
vt 0.267353 0.164906
vt 0.951773 0.000000
vt 0.564657 0.564657
vt 0.129686 0.951168
vt 1.000000 0.613417
vt 0.583241 0.373390
vt 0.336310 0.210098
vt 0.586970 0.387171
vt 0.863792 0.562625
vt 0.524981 0.511618
vt 0.846370 0.503121
vt 0.441093 0.331025
vt 0.555432 0.361356
vt 0.891357 0.730315
vt 0.907514 0.907514
vt 0.664516 0.391343
vt 0.669039 0.408229
vt 1.000000 0.907514
vt 0.973238 0.913112
vt 0.688524 0.305613
vt 0.652409 0.305563
vt 0.915389 0.268832
vt 0.682871 0.469699
vt 0.247699 0.017306
vt 1.000000 0.768650
vt 0.965631 0.782310
vt 0.429659 0.310658
vt 0.161300 0.924286
vt 0.165426 0.931651
vt 0.163969 0.929226
vt 0.768650 0.768650
vt 0.577869 0.370439
vt 0.355564 0.236600
vt 0.389345 0.275852
vt 0.568888 0.366507
s 0
usemtl Hammer.023
f 18/50/1 22/70/2 10/25/3
f 8/20/4 5/12/4 10/26/4
f 4/9/5 9/22/5 10/26/5
f 2/3/6 55/193/6 6/15/6
f 5/12/7 56/197/7 49/171/7
f 54/188/8 5/14/8 49/172/8
f 57/203/9 1/1/9 4/10/9
f 1/2/10 9/22/10 4/10/10
s 1
f 52/180/11 65/239/12 61/217/13
f 26/83/14 43/152/15 55/194/16
f 59/212/17 62/220/18 32/112/19
f 28/92/20 25/79/21 24/77/22
f 20/57/23 31/108/24 11/28/25
f 30/105/26 15/40/27 32/115/19
f 46/160/28 59/210/17 65/236/12
f 35/125/29 42/150/30 40/145/31
f 65/236/12 44/155/32 46/160/28
f 18/53/33 13/35/34 19/56/35
s 0
f 3/7/36 54/189/36 57/204/36
f 7/18/37 9/23/37 6/15/37
s 1
f 31/109/24 34/117/38 11/29/25
f 20/63/23 11/30/25 34/123/38
f 38/138/39 20/58/23 21/64/40
s 0
f 3/8/41 10/26/42 5/13/41
s 1
f 60/214/43 24/77/22 51/177/44
s 0
f 52/184/45 2/5/45 62/222/45
f 60/215/46 51/179/46 7/19/46
s 1
f 27/90/47 12/34/48 25/78/21
s 0
f 6/16/49 1/2/49 2/4/49
f 58/207/50 10/25/50 22/70/50
f 10/25/51 7/18/51 18/50/51
f 18/51/52 7/17/52 35/124/52
f 59/211/53 32/113/53 65/237/53
f 32/114/53 15/42/53 65/238/53
f 15/41/54 30/103/55 29/93/56
f 30/104/57 50/174/58 29/94/59
f 26/82/60 61/216/61 29/99/62
f 61/216/63 65/238/63 29/99/63
f 50/175/64 20/59/65 29/95/66
f 20/59/67 41/146/68 29/96/69
f 41/147/70 38/136/71 29/97/72
f 38/137/73 39/141/73 29/98/73
f 39/142/53 37/132/53 40/144/53
f 37/133/53 36/127/53 64/229/53
f 37/133/53 64/230/53 40/144/53
f 29/99/74 65/238/75 15/42/76
f 40/144/53 23/72/53 12/31/53
f 40/144/53 12/31/53 39/142/53
f 12/31/77 29/100/78 39/142/79
f 8/21/80 10/26/80 56/198/80
s 1
f 48/166/81 47/164/82 31/111/24
s 0
f 53/185/83 47/163/83 63/224/83
f 63/224/84 47/163/84 48/167/84
f 48/168/85 62/218/85 63/224/85
f 62/219/86 45/157/86 63/225/86
f 5/13/87 8/21/87 56/199/87
f 3/6/88 5/14/88 54/190/88
s 1
f 52/180/11 44/155/32 65/239/12
f 52/181/11 26/83/14 55/194/16
f 21/65/40 36/128/89 17/47/90
f 59/212/17 46/161/28 62/220/18
f 28/92/20 27/87/47 25/79/21
f 62/221/18 48/169/81 32/115/19
f 48/169/81 30/105/26 32/115/19
f 63/226/91 14/37/92 34/118/38
f 14/38/92 21/66/40 34/119/38
f 16/43/93 29/101/94 12/32/48
f 37/134/95 39/143/96 17/49/90
f 39/143/96 38/138/39 17/49/90
f 33/116/97 31/111/24 47/164/82
f 23/73/98 42/149/30 24/76/22
f 42/149/30 51/178/44 24/76/22
f 24/76/22 25/80/21 23/73/98
f 23/74/98 25/81/21 12/33/48
f 42/150/30 23/75/98 40/145/31
f 40/145/31 64/231/99 35/125/29
f 64/231/99 19/55/35 35/125/29
f 13/36/34 18/52/33 35/125/29
f 19/55/35 13/36/34 35/125/29
f 48/170/81 31/110/24 30/106/26
f 31/110/24 20/60/23 30/106/26
f 19/56/35 64/232/99 18/53/33
f 53/186/100 63/227/91 34/120/38
s 0
f 4/11/101 3/7/101 57/204/36
f 7/18/102 10/26/102 9/23/102
s 1
f 28/91/20 60/213/43 43/153/15
f 43/153/15 26/85/14 28/91/20
f 26/84/14 29/102/94 16/44/93
f 26/84/14 16/45/93 27/88/47
f 27/89/47 28/91/20 26/85/14
f 20/61/23 50/176/103 30/107/26
f 26/86/14 52/182/11 61/217/13
f 20/62/23 38/139/39 41/148/104
f 38/140/39 21/67/40 17/48/90
f 31/111/24 33/116/97 34/121/38
f 47/165/82 53/187/100 33/116/97
f 53/187/100 34/122/38 33/116/97
f 37/135/95 17/49/90 36/129/89
f 21/68/40 20/63/23 34/123/38
s 0
f 3/8/105 4/11/105 10/26/105
s 1
f 64/233/99 58/208/106 22/71/107
f 22/71/107 18/54/33 64/234/99
f 63/228/91 45/158/108 14/39/92
f 14/39/92 45/158/108 54/192/109
f 57/205/110 54/191/109 45/158/108
f 54/192/109 49/173/111 14/39/92
f 49/173/111 56/200/112 14/39/92
f 56/201/112 36/130/89 14/39/92
f 36/130/89 21/69/40 14/39/92
s 0
f 56/202/113 10/27/113 36/131/113
f 10/27/114 58/209/115 64/235/115
f 36/131/114 10/27/114 64/235/114
s 1
f 60/214/43 28/92/20 24/77/22
s 0
f 2/5/116 1/2/116 45/159/116
f 1/2/116 57/206/116 45/159/116
f 45/159/117 62/222/117 2/5/117
f 62/223/118 46/162/119 44/156/119
f 44/156/120 52/183/120 62/223/120
f 52/184/121 55/195/121 2/5/45
f 55/196/46 43/154/46 60/215/46
f 51/179/46 42/151/46 35/126/46
f 6/15/46 55/196/46 60/215/46
f 51/179/46 35/126/46 7/19/46
f 6/15/46 60/215/46 7/19/46
s 1
f 27/90/47 16/46/93 12/34/48
s 0
f 6/16/49 9/24/49 1/2/49