# Blender 3.3.1
# www.blender.org
mtllib 13s.mtl
o Hammer_cell.013
v -4.331332 0.911731 -0.637309
v -2.631304 0.423003 -0.235400
v -5.067137 1.357313 2.662887
v -4.029105 -0.567303 1.701181
v -5.259235 2.286324 3.556875
v -3.222196 -0.637743 1.626926
v -1.145332 0.043402 3.741920
v -3.487171 1.996925 5.663699
v -3.767254 -0.715005 1.878642
v -1.185704 0.364295 6.364502
v -1.208045 4.654350 2.408110
v -0.261790 3.408315 2.925151
v 0.145569 1.300695 5.496977
v -2.011758 4.664649 2.557017
v -0.417394 4.127454 1.928621
v -0.228228 3.311198 2.556656
v -1.389826 4.664649 3.568492
v 0.145569 0.988970 5.496977
v 0.145569 1.611344 5.496977
v -1.608342 4.664490 2.453198
v -1.227268 4.660298 3.288669
v -1.593369 4.553662 3.184652
v -0.900683 4.532882 2.591825
v -1.493649 4.664649 2.833398
v -1.804788 4.553662 2.741303
v -0.130342 0.942565 5.851809
v 0.145406 2.724735 2.925151
v -0.198785 2.612213 2.925151
v -0.200203 2.994946 2.925151
v 0.144260 2.941825 2.556656
v -0.200199 2.995156 2.556656
v -0.198785 2.612408 2.556656
v -0.499147 3.717605 2.652620
v -1.113639 4.643753 2.768256
v -0.671961 4.350099 2.191514
v -0.675737 4.353269 1.912398
v -0.982657 4.588630 2.178934
v -1.053653 4.623722 1.908031
v -0.308396 4.025604 1.611981
v -1.336059 4.660306 1.908517
v -1.470208 4.663363 2.188009
v 0.145569 0.646375 4.544680
v -1.390125 4.664649 4.633531
v -1.267919 4.663359 4.336766
v -1.046583 4.623672 3.503844
v -1.154640 4.654331 3.881891
v 0.145406 2.724700 3.288121
v -0.900784 4.532851 3.119056
v -0.243519 3.660773 2.556656
v 0.145569 1.214723 2.925151
v 0.145569 1.344042 2.556656
v 0.135112 3.270138 -0.325998
v -4.694298 4.664649 -1.469124
v 0.062037 3.592862 -0.405082
v -1.338600 4.660306 -0.870015
v -0.677699 4.354948 -0.690989
v -0.309087 4.026187 -0.559382
v -0.900597 4.532909 -0.766394
v -5.981299 4.664649 3.452190
v -0.399970 3.778787 2.917475
v -0.483208 3.996837 2.716033
v -0.616315 4.303372 2.500749
v -0.212056 0.969631 2.925151
v 0.144264 2.942003 -0.257170
v -1.639490 4.664490 -0.924493
v -6.260866 4.664649 0.623030
v 0.145574 2.284308 -0.122249
v -5.154454 4.664649 4.486710
v -5.819265 4.664649 -1.668962
v -0.350284 0.922022 6.238726
v 0.034625 0.731881 5.560992
v 0.037667 3.638866 1.426254
v -0.211007 1.099665 2.556656
v 0.141156 3.124646 2.292699
v -0.117859 3.834869 -0.486521
v -2.011691 4.664649 -0.990881
v 0.011285 2.035688 5.599534
v 0.125426 3.376444 1.721037
vn 0.3573 -0.9264 0.1189
vn 0.3596 -0.9257 0.1171
vn 0.3596 -0.9257 0.1172
vn 0.7299 0.6836 -0.0000
vn 0.7014 0.7128 -0.0000
vn 0.7116 0.7026 -0.0018
vn -0.6574 -0.5871 0.4723
vn -0.6532 -0.5942 0.4693
vn 0.5425 -0.7923 -0.2792
vn -0.7645 -0.2052 0.6111
vn -0.9538 -0.2854 0.0942
vn -0.8993 -0.4127 -0.1448
vn -0.1255 -0.8457 -0.5187
vn 0.9996 0.0257 -0.0080
vn 0.9978 0.0666 0.0003
vn 0.9998 0.0201 -0.0000
vn 0.6996 0.0060 0.7146
vn 0.4939 0.0004 0.8695
vn 1.0000 0.0004 -0.0000
vn 0.0274 0.9996 -0.0018
vn 0.0117 0.9999 -0.0000
vn -0.5403 0.6759 0.5013
vn 0.7322 0.6802 -0.0344
vn 0.7077 -0.0036 0.7065
vn 0.7256 0.0315 -0.6874
vn 0.7077 -0.0037 -0.7065
vn 0.0341 0.9992 0.0186
vn 0.2924 0.9553 0.0441
vn 0.0771 0.9970 0.0001
vn 0.2010 0.9785 -0.0472
vn 0.6543 0.7563 -0.0004
vn 0.6711 0.7414 -0.0021
vn 0.9869 0.1614 0.0056
vn 1.0000 -0.0000 -0.0000
vn 0.6601 0.0001 -0.7512
vn 1.0000 0.0007 -0.0000
vn 0.6154 0.7881 0.0127
vn 0.6411 0.7675 -0.0001
vn 0.9976 0.0694 -0.0000
vn 0.7705 0.0050 0.6374
vn 0.7524 0.0002 0.6588
vn 0.7715 -0.0071 0.6361
vn -0.8987 -0.4139 -0.1452
vn 0.1945 -0.9732 0.1224
vn 0.8711 0.0011 0.4912
vn 0.8700 0.0011 0.4931
vn 0.8695 0.0014 0.4939
vn 0.6337 0.2827 -0.7201
vn 0.3009 0.2565 0.9185
vn 0.6891 0.7057 -0.1648
vn 0.1030 0.9947 -0.0055
vn 0.3227 0.9463 -0.0196
vn 0.4486 0.5443 0.7089
vn -0.6571 -0.5888 0.4707
vn -0.6571 -0.5886 0.4709
vn 0.8931 -0.0072 0.4498
vn 0.7881 -0.0064 -0.6155
vn 0.1715 -0.1973 -0.9652
vn 0.5430 -0.7923 -0.2781
vn 0.7238 0.0706 0.6863
vn -0.1202 -0.8457 -0.5199
vn 0.8400 0.5047 0.1992
vn 0.8400 0.5047 0.1991
vn 0.8400 0.5046 0.1992
vn 0.8399 0.5049 0.1990
vn 0.8400 0.5048 0.1991
vn 0.8399 0.5048 0.1991
vn -0.0419 0.3813 0.9235
vn 0.0606 0.9982 0.0003
vn 0.1722 -0.1937 -0.9658
vn 0.1722 -0.1936 -0.9659
vn -0.7626 -0.2061 0.6131
vn -0.9535 -0.2867 0.0931
vn 0.7489 0.6627 -0.0000
vn -0.4623 0.8867 -0.0010
vn 0.1627 -0.9758 -0.1464
vn 0.6544 0.7562 -0.0000
vn 0.2596 0.1766 -0.9494
vn 0.7082 0.7060 -0.0000
vn 0.7118 0.6256 -0.3193
vn 0.4946 0.6684 -0.5555
vn 0.6890 0.2056 0.6950
vn 0.0069 1.0000 0.0008
vn 0.1497 0.9886 0.0142
vn 0.3515 0.9362 -0.0016
vn 0.0363 0.9993 -0.0004
vn 0.6897 -0.0000 -0.7241
vn 0.8376 -0.0004 0.5464
vn 0.7277 0.0111 0.6859
vn -0.8986 -0.4139 -0.1453
vn 0.1948 -0.9732 0.1221
vn 0.6359 0.7717 -0.0012
vn 0.5727 0.8198 -0.0000
vn -0.6569 -0.5893 0.4704
vn 0.8693 0.0014 0.4942
vn -0.0000 1.0000 -0.0000
vn -0.0359 0.3857 0.9219
vn -0.0352 0.3857 0.9220
vn -0.0352 0.3856 0.9220
vn 0.1715 -0.1974 -0.9652
vn 0.1716 -0.1973 -0.9652
vn 0.1708 -0.1979 -0.9652
vn 0.1712 -0.1976 -0.9652
vn 0.1712 -0.1977 -0.9652
vn 0.1718 -0.1976 -0.9651
vn 0.1716 -0.1974 -0.9652
vt 1.000000 0.000000
vt 0.000000 0.000000
vt 1.000000 0.000000
vt 0.000000 0.000000
vt 1.000000 1.000000
vt 1.000000 0.000000
vt 1.000000 1.000000
vt 0.000000 0.000000
vt 0.000000 0.000000
vt 1.000000 1.000000
vt 1.000000 0.000000
vt 1.000000 0.000000
vt 0.000000 0.000000
vt 1.000000 1.000000
vt 0.000000 0.000000
vt 1.000000 0.000000
vt 0.000000 0.000000
vt 1.000000 0.000000
vt 1.000000 1.000000
vt 0.000000 0.000000
vt 1.000000 0.000000
vt 1.000000 0.000000
vt 0.000000 0.000000
vt 1.000000 1.000000
vt 0.000000 0.000000
vt 1.000000 1.000000
vt 1.000000 0.000000
vt 0.543688 0.445762
vt 0.550902 0.442761
vt 0.550901 0.446172
vt 0.543646 0.449701
vt 0.599052 0.233650
vt 0.447255 0.499733
vt 0.536026 0.537707
vt 0.440750 0.499733
vt 0.450966 0.499733
vt 0.429658 0.288715
vt 0.138455 0.923872
vt 0.915389 0.137210
vt 0.113757 0.018020
vt 0.910903 0.137210
vt 0.569922 0.408135
vt 0.563977 0.408013
vt 0.483464 0.063675
vt 0.440401 0.078978
vt 0.449111 0.511618
vt 0.941339 0.562625
vt 0.939442 0.562625
vt 0.450966 0.511618
vt 0.927632 0.093596
vt 0.505354 0.453375
vt 0.502125 0.451226
vt 0.870792 0.678882
vt 0.429658 0.276480
vt 0.129221 0.923872
vt 0.129213 0.929226
vt 0.429659 0.300951
vt 0.147661 0.923872
vt 0.921109 0.140631
vt 0.923016 0.132926
vt 0.549130 0.461954
vt 0.543370 0.454416
vt 0.750203 0.005882
vt 0.517386 0.449655
vt 0.516192 0.442006
vt 0.515081 0.436593
vt 0.520535 0.452121
vt 0.543689 0.442589
vt 0.632784 0.023933
vt 0.543690 0.432667
vt 0.543651 0.427489
vt 0.536766 0.432668
vt 0.529073 0.451007
vt 0.923016 0.120074
vt 0.917295 0.121186
vt 0.530591 0.453370
vt 0.537313 0.457037
vt 0.099763 0.002477
vt 0.910903 0.120074
vt 0.915389 0.128642
vt 0.121834 0.935807
vt 0.807368 0.690108
vt 0.129213 0.935807
vt 0.537594 0.429510
vt 0.560587 0.526087
vt 0.555964 0.526087
vt 0.530607 0.345825
vt 0.560587 0.537707
vt 0.475000 0.499733
vt 0.452821 0.499733
vt 0.468226 0.499733
vt 0.553664 0.537707
vt 0.537922 0.537707
vt 0.481319 0.372286
vt 0.545070 0.345851
vt 0.924666 0.551005
vt 0.914877 0.551005
vt 0.545071 0.354010
vt 0.468226 0.511618
vt 0.937546 0.562625
vt 0.921802 0.562625
vt 0.452821 0.511618
vt 0.914877 0.562625
vt 0.475000 0.511618
vt 0.960406 0.562625
vt 0.518573 0.537707
vt 0.437058 0.502704
vt 0.536764 0.445269
vt 0.528334 0.447761
vt 0.528233 0.436596
vt 0.536937 0.452711
vt 0.558776 0.414615
vt 0.515586 0.054006
vt 0.535758 0.047856
vt 0.550843 0.427492
vt 0.550417 0.421292
vt 0.570165 0.414766
vt 0.570408 0.421387
vt 0.550903 0.439777
vt 0.559894 0.446433
vt 0.550903 0.432667
vt 0.570530 0.436619
vt 0.570527 0.446567
vt 0.570529 0.439825
vt 0.582166 0.396316
vt 0.583186 0.391327
vt 0.367610 0.111256
vt 0.400681 0.095169
vt 0.582181 0.408218
vt 0.570510 0.451238
vt 0.559848 0.450994
vt 0.559539 0.456525
vt 0.550838 0.450499
vt 0.871602 0.000000
vt 0.467037 0.263032
vt 1.000000 0.128398
vt 1.000000 0.053903
vt 0.923016 0.049412
vt 0.463549 0.453385
vt 0.035643 0.002855
vt 0.109408 0.066927
vt 0.944545 0.038835
vt 0.991113 0.051444
vt 0.475198 0.448567
vt 0.465353 0.450945
vt 0.786985 0.006240
vt 0.507892 0.439548
vt 0.822210 0.010388
vt 0.900809 0.027555
vt 0.500144 0.448902
vt 0.500775 0.441906
vt 0.593144 0.485501
vt 0.516360 0.345473
vt 0.658039 0.018503
vt 0.708323 0.009901
vt 0.522996 0.432670
vt 0.440750 0.511618
vt 0.545447 0.171659
vt 0.533446 0.206162
vt 0.956898 0.562625
vt 0.447255 0.511618
vt 0.950844 0.557869
vt 0.609481 0.526087
vt 0.530606 0.285340
vt 0.946589 0.616784
vt 0.545070 0.290422
vt 0.870049 0.551005
vt 0.946598 0.539655
vt 0.658216 0.366089
vt 0.932312 0.250242
vt 0.192648 0.192648
vt 0.266251 0.118534
vt 1.000000 0.192648
vt 0.659139 0.370333
vt 0.663401 0.387186
vt 0.956065 0.915339
vt 0.780284 0.197853
vt 0.678688 0.446622
vt 0.679569 0.451339
vt 0.867678 0.506892
vt 0.879784 0.617111
vt 0.670797 0.414834
vt 0.672542 0.421411
vt 0.665857 0.396324
vt 0.891357 0.730315
vt 0.907514 0.907514
vt 0.669039 0.408229
vt 1.000000 0.907514
vt 0.992855 0.909279
vt 0.677965 0.442949
vt 0.855867 0.407511
vt 0.674151 0.427506
vt 0.676514 0.436619
vt 0.075097 0.000000
vt 0.075097 0.075097
vt 0.080750 0.167941
vt 0.609870 0.194248
vt 0.604691 0.215064
vt 0.518495 0.534802
vt 0.437319 0.499733
vt 0.564624 0.137752
vt 0.555044 0.151247
vt 0.590210 0.127580
vt 0.605502 0.137936
vt 0.612880 0.172948
vt 0.960414 0.559720
vt 0.515030 0.534802
vt 0.563871 0.040501
vt 0.599478 0.031235
vt 0.543378 0.421272
vt 0.529173 0.499733
vt 0.615947 0.537707
vt 0.846067 0.580142
vt 0.657005 0.360342
vt 0.653767 0.344643
vt 0.655514 0.353146
vt 0.934380 0.354939
vt 0.935893 0.632676
vt 0.755577 0.194726
vt 0.681708 0.463178
vt 0.680591 0.456958
vt 1.000000 0.074518
vt 0.054732 0.054732
vt 0.074518 0.074518
vt 0.187510 0.178025
vt 0.183383 0.177639
vt 0.946661 0.946661
vt 0.646269 0.325930
vt 0.936037 0.936037
vt 0.946661 0.000000
vt 1.000000 0.925587
vt 0.042261 0.042261
vt 1.000000 0.933120
vt 0.047182 0.141426
vt 0.041527 0.135446
vt 1.000000 0.042261
vt 0.000000 0.000000
vt 0.916375 0.000000
vt 0.267353 0.164906
vt 0.951773 0.000000
vt 0.564657 0.564657
vt 0.129686 0.951168
vt 1.000000 0.613417
vt 0.986010 0.782338
vt 0.789521 0.789521
vt 0.122052 0.923872
vt 0.122018 0.925728
vt 0.583241 0.373390
vt 0.336310 0.210098
vt 0.586970 0.387171
vt 0.863792 0.562625
vt 0.524981 0.511618
vt 0.846370 0.503121
vt 0.441093 0.331025
vt 0.555432 0.361356
vt 0.664516 0.391343
vt 0.973238 0.913112
vt 0.688524 0.305613
vt 0.652409 0.305563
vt 0.915389 0.268832
vt 0.682871 0.469699
vt 0.247699 0.017306
vt 1.000000 0.768650
vt 0.965631 0.782310
vt 0.429659 0.310658
vt 0.161300 0.924286
vt 0.161972 0.925728
vt 0.165426 0.931651
vt 0.163969 0.929226
vt 0.768650 0.768650
vt 0.577869 0.370439
vt 0.355564 0.236600
vt 0.389345 0.275852
vt 0.568888 0.366507
s 0
usemtl Hammer.023
f 71/244/1 26/82/1 10/25/1
f 71/245/2 42/134/3 18/53/2
s 1
f 75/256/4 57/184/5 39/125/6
s 0
f 8/20/7 5/12/7 10/26/7
f 4/9/8 9/22/8 10/26/8
f 2/3/9 67/227/9 6/15/9
f 5/12/10 68/231/10 59/194/10
f 66/222/11 5/14/11 59/195/11
f 69/237/12 1/1/12 4/10/12
f 1/2/13 9/22/13 4/10/13
s 1
f 64/214/14 78/274/15 74/255/16
f 30/95/17 51/166/18 67/228/19
f 41/132/20 65/220/21 20/61/22
f 72/250/23 75/256/4 39/126/6
f 32/104/24 29/91/25 28/89/26
f 34/108/27 23/68/28 11/28/29
f 23/68/28 37/119/30 11/29/29
f 36/117/31 15/42/32 39/129/6
f 54/174/33 72/248/23 78/271/15
f 42/135/34 50/164/35 47/153/36
f 36/118/31 58/192/37 35/115/38
f 35/112/38 15/43/32 36/117/31
f 78/271/15 52/169/39 54/174/33
f 71/246/40 13/38/41 19/58/42
s 0
f 3/7/43 66/223/43 69/238/43
f 7/18/44 9/23/44 6/15/44
s 1
f 71/247/45 18/56/46 26/81/47
f 12/35/48 49/157/49 33/107/50
f 37/120/30 41/133/20 11/30/29
f 38/123/51 41/131/20 37/120/30
f 34/111/27 11/31/29 20/62/22
f 21/64/52 34/109/27 24/73/53
s 0
f 3/8/54 10/26/55 5/13/54
s 1
f 73/252/56 28/89/26 63/211/57
s 0
f 64/218/58 2/5/58 57/188/58
f 73/253/59 63/213/59 7/19/59
s 1
f 31/102/60 12/36/48 29/90/25
s 0
f 6/16/61 1/2/61 2/4/61
f 70/241/1 10/25/1 26/82/1
f 10/25/1 7/18/1 71/244/1
f 71/245/2 7/17/2 42/134/2
f 72/249/62 39/127/62 78/272/62
f 39/128/62 15/45/62 78/273/62
f 15/44/62 35/113/62 61/202/62
f 35/114/63 62/208/63 61/201/64
f 30/94/62 74/254/65 49/159/65
f 74/254/62 78/273/62 49/159/62
f 15/44/64 61/202/64 49/158/64
f 62/209/62 23/69/62 61/203/62
f 23/69/62 48/154/62 61/204/62
f 48/155/66 21/63/67 61/205/66
f 21/63/66 45/146/67 61/205/66
f 45/146/62 46/148/62 60/197/62
f 45/146/62 60/197/62 61/205/62
f 46/149/62 44/142/62 47/152/62
f 44/143/62 43/137/62 77/263/62
f 44/143/62 77/264/62 47/152/62
f 49/159/62 78/273/62 15/45/62
f 47/152/62 27/84/62 12/32/62
f 47/152/62 12/32/62 46/149/62
f 12/32/66 60/198/66 46/149/67
f 8/21/68 10/26/68 68/232/68
s 1
f 58/190/37 55/178/69 38/123/51
s 0
f 65/219/70 55/177/70 76/258/70
f 76/258/71 55/177/71 58/191/71
f 58/191/71 56/180/71 76/258/71
f 56/181/71 57/185/71 76/258/71
f 57/186/71 53/171/71 76/259/71
f 5/13/72 8/21/72 68/233/72
f 3/6/73 5/14/73 66/224/73
s 1
f 64/214/14 52/169/39 78/274/15
f 64/215/14 30/95/17 67/228/19
f 24/74/53 43/138/74 17/50/75
f 72/250/23 54/175/33 75/256/4
f 32/104/24 31/99/60 29/91/25
f 61/206/76 33/105/50 49/160/49
f 57/187/5 56/182/77 39/129/6
f 56/182/77 36/117/31 39/129/6
f 61/207/76 60/199/78 33/106/50
f 76/260/79 14/39/80 20/59/22
f 14/39/80 25/80/81 20/59/22
f 25/80/81 24/75/53 20/60/22
f 16/46/82 49/161/49 12/33/48
f 44/144/83 46/150/84 17/52/75
f 46/150/84 21/64/52 17/52/75
f 21/65/52 46/151/84 45/147/85
f 40/130/86 38/123/51 55/178/69
f 27/85/87 50/163/35 28/88/26
f 50/163/35 63/212/57 28/88/26
f 28/88/26 29/92/25 27/85/87
f 27/86/87 29/93/25 12/34/48
f 50/164/35 27/87/87 47/153/36
f 47/153/36 77/265/88 42/135/34
f 77/265/88 19/57/42 42/135/34
f 13/37/41 18/54/89 42/135/34
f 19/57/42 13/37/41 42/135/34
f 36/118/31 56/183/77 58/192/37
f 58/192/37 37/121/30 35/115/38
f 37/121/30 23/70/28 35/115/38
f 19/58/42 77/266/88 71/246/40
f 71/246/40 18/55/89 13/38/41
f 65/220/21 76/261/79 20/61/22
s 0
f 4/11/90 3/7/90 69/238/43
f 7/18/91 10/26/91 9/23/91
s 1
f 32/103/24 73/251/56 51/167/18
f 51/167/18 30/97/17 32/103/24
f 30/96/17 49/162/49 16/47/82
f 30/96/17 16/48/82 31/100/60
f 31/101/60 32/103/24 30/97/17
f 23/71/28 62/210/92 35/116/38
f 30/98/17 64/216/14 74/255/16
f 71/247/40 77/267/88 18/56/46
f 34/110/27 21/66/52 48/156/93
f 48/156/93 23/72/28 34/110/27
f 21/67/52 24/76/53 17/51/75
f 33/107/50 60/200/78 12/35/48
f 38/123/51 40/130/86 41/131/20
f 55/179/69 65/221/21 40/130/86
f 65/221/21 41/132/20 40/130/86
f 44/145/83 17/52/75 43/139/74
f 24/77/53 34/111/27 20/62/22
f 20/62/22 11/31/29 41/133/20
s 0
f 3/8/94 4/11/94 10/26/94
s 1
f 77/268/88 70/242/95 26/83/47
f 26/83/47 18/56/46 77/269/88
f 76/262/79 53/172/96 14/40/80
f 14/40/80 53/172/96 66/226/96
f 69/239/96 66/225/96 53/172/96
f 66/226/96 59/196/96 14/40/80
f 59/196/96 68/234/96 14/40/80
f 68/235/96 43/140/74 14/40/80
f 43/140/74 24/78/53 14/40/80
s 0
f 68/236/97 10/27/97 43/141/97
f 10/27/98 70/243/99 77/270/99
f 43/141/98 10/27/98 77/270/98
s 1
f 14/41/80 24/79/53 25/80/81
f 38/124/51 37/122/30 58/193/37
f 73/252/56 32/104/24 28/89/26
s 0
f 2/5/100 1/2/100 53/173/100
f 1/2/100 69/240/100 53/173/100
f 53/173/58 57/188/58 2/5/58
f 57/189/101 75/257/58 64/217/101
f 75/257/102 54/176/103 52/170/103
f 52/170/104 64/217/104 75/257/104
f 64/218/105 67/229/105 2/5/106
f 67/230/59 51/168/59 73/253/59
f 63/213/59 50/165/59 42/136/59
f 6/15/59 67/230/59 73/253/59
f 63/213/59 42/136/59 7/19/59
f 6/15/59 73/253/59 7/19/59
s 1
f 31/102/60 16/49/82 12/36/48
s 0
f 6/16/61 9/24/61 1/2/61