# Blender 3.3.1
# www.blender.org
mtllib 14s.mtl
o Hammer_cell.014
v -0.912326 -1.632117 6.983688
v -1.231406 0.301384 6.459433
v -1.487587 0.260498 6.534484
v -1.194158 -2.153053 7.578353
v -0.810462 -0.014640 7.110243
v -2.081475 -0.014640 7.591863
v -1.361840 -0.304946 7.591341
v -1.757881 -2.471670 7.591377
v -1.026870 -1.058992 7.471291
v -1.022818 -0.014640 7.471255
v -0.812862 -0.826573 7.110432
v -0.811648 -0.555929 7.110336
v -0.810788 -0.285285 7.110267
v -0.815668 -1.366864 7.110657
v -0.810788 0.256004 7.110267
v -0.811648 0.526648 7.110336
v -0.470567 0.562984 6.509943
v -2.081475 -1.919074 7.591863
v -2.081475 -0.971285 7.591863
v -1.023163 -0.275729 7.471259
v -1.024084 -0.536818 7.471267
v -1.025382 -0.797903 7.471275
v -1.028385 -1.319164 7.471303
v -1.029868 -1.573857 7.471315
v -1.031288 -1.817584 7.471327
v -1.023163 0.246448 7.471259
v -1.024084 0.507533 7.471267
v -1.025382 0.768622 7.471275
v -1.893505 -2.817852 7.590878
v -2.681498 -2.208712 7.592085
v -0.818044 -1.818259 7.110846
v -0.501263 -0.301782 6.565036
v -0.550286 -0.583770 6.650278
v -2.148523 0.498126 7.591924
v -1.362266 0.919412 7.591341
v -1.756611 0.707977 7.591377
v -0.813634 0.947700 7.110497
v -0.393518 0.762487 6.373483
v -0.402040 0.277787 6.390222
v -0.598814 -0.860750 6.734036
v -1.157669 -2.618903 7.563632
v -0.451858 -0.014640 6.478386
v -0.693841 -1.399172 6.896923
v -0.906618 -2.081768 7.262746
v -1.030773 -2.434205 7.465502
v -0.625691 0.866322 6.781077
v -2.313842 -2.494833 7.592004
v -1.026886 1.032866 7.471291
vn -0.7634 0.0955 -0.6388
vn -0.7634 0.0956 -0.6388
vn -0.2264 -0.2889 -0.9302
vn 0.1084 -0.5227 -0.8456
vn -0.4268 0.7879 -0.4439
vn -0.3161 0.4130 -0.8541
vn 0.4685 -0.0008 0.8835
vn 0.7492 -0.0000 0.6624
vn 0.4702 0.0004 0.8826
vn 0.0742 -0.0020 0.9972
vn 0.2847 -0.0002 0.9586
vn 0.1836 0.0053 0.9830
vn 0.8566 0.0038 0.5160
vn 0.8545 0.0043 0.5194
vn -0.0879 -0.2741 -0.9577
vn -0.0858 -0.2741 -0.9579
vn -0.0879 -0.2740 -0.9577
vn 0.8570 0.0022 0.5153
vn 0.8697 0.0002 0.4936
vn 0.8696 0.0013 0.4937
vn 0.2572 -0.0009 0.9664
vn 0.2561 -0.0005 0.9667
vn 0.3154 0.0015 0.9490
vn 0.3043 -0.0035 0.9526
vn 0.8552 -0.0000 0.5184
vn 0.8697 -0.0012 0.4937
vn 0.8563 -0.0037 0.5165
vn 0.8692 -0.0034 0.4944
vn 0.8695 -0.0024 0.4939
vn 0.7616 -0.0048 0.6480
vn 0.4134 -0.0018 0.9106
vn 0.4005 -0.0043 0.9163
vn 0.3845 -0.0005 0.9231
vn 0.0028 -0.0000 1.0000
vn 0.0022 -0.0000 1.0000
vn 0.0010 -0.0005 1.0000
vn 0.0010 -0.0000 1.0000
vn 0.0009 -0.0000 1.0000
vn 0.8561 -0.0047 0.5168
vn 0.8685 -0.0041 0.4957
vn 0.8564 -0.0021 0.5163
vn -0.2255 -0.2895 -0.9302
vn 0.8535 -0.0049 0.5210
vn 0.0003 0.0001 1.0000
vn 0.8695 0.0021 0.4939
vn 0.8694 0.0022 0.4942
vn 0.1109 -0.5246 -0.8441
vn 0.1109 -0.5247 -0.8441
vn 0.1109 -0.5247 -0.8440
vn 0.1110 -0.5247 -0.8440
vn -0.4248 0.7922 -0.4381
vn -0.4247 0.7922 -0.4382
vn -0.4248 0.7922 -0.4382
vn -0.4247 0.7923 -0.4381
vn -0.4248 0.7923 -0.4380
vn -0.4268 0.7879 -0.4438
vn 0.0005 -0.0000 1.0000
vn 0.0051 -0.0041 1.0000
vn -0.0877 -0.2738 -0.9578
vn -0.0878 -0.2739 -0.9577
vn -0.0880 -0.2742 -0.9576
vn -0.0876 -0.2737 -0.9578
vn 0.8692 0.0032 0.4944
vn 0.3102 -0.0010 0.9507
vn -0.8372 0.0027 0.5470
vn 0.0012 -0.0000 1.0000
vn 0.0008 -0.0005 1.0000
vn 0.0023 -0.0048 1.0000
vn 0.8677 -0.0046 0.4971
vn -0.2256 -0.2895 -0.9302
vn -0.2253 -0.2899 -0.9302
vt 1.000000 1.000000
vt 0.000000 0.000000
vt 1.000000 0.000000
vt 1.000000 1.000000
vt 0.000000 0.000000
vt 0.000000 0.000000
vt 1.000000 1.000000
vt 1.000000 0.000000
vt 0.479028 0.578648
vt 0.101519 0.981345
vt 0.101519 0.992925
vt 0.556452 0.610815
vt 0.556452 0.613207
vt 0.545938 0.584756
vt 0.828016 0.000000
vt 0.827708 0.758976
vt 0.828016 0.828016
vt 0.467558 0.599150
vt 0.467153 0.600985
vt 0.516075 0.579945
vt 0.515539 0.581432
vt 0.064596 0.995348
vt 0.556453 0.575428
vt 0.101519 0.995348
vt 0.073824 0.981345
vt 0.073823 0.992925
vt 0.083053 0.981345
vt 0.083053 0.992924
vt 0.092285 0.981345
vt 0.092285 0.992925
vt 0.055412 0.981345
vt 0.055412 0.988577
vt 0.055407 0.992925
vt 0.110752 0.981345
vt 0.110752 0.992925
vt 0.119984 0.981345
vt 0.119985 0.992925
vt 0.119984 0.958312
vt 0.487526 0.610837
vt 0.487525 0.613226
vt 0.521820 0.610822
vt 0.521821 0.613213
vt 0.546784 0.575439
vt 0.546636 0.576947
vt 0.092285 0.995348
vt 0.536534 0.578444
vt 0.536263 0.579900
vt 0.083052 0.995348
vt 0.526576 0.578468
vt 0.073821 0.995348
vt 0.506695 0.578532
vt 0.055394 0.995348
vt 0.496173 0.580006
vt 0.046280 0.995348
vt 0.481099 0.575752
vt 0.487691 0.578608
vt 0.037370 0.995348
vt 0.566270 0.576947
vt 0.110753 0.995348
vt 0.576371 0.578444
vt 0.576642 0.579901
vt 0.119986 0.995348
vt 0.709276 0.578933
vt 0.683535 0.549686
vt 0.129216 0.995348
vt 0.591227 0.583014
vt 0.592047 0.581421
vt 1.000000 0.247443
vt 0.457625 0.607450
vt 0.753672 0.135326
vt 1.000000 0.843270
vt 0.843270 0.843270
vt 0.852116 0.852116
vt 0.476320 0.631623
vt 0.468672 0.000000
vt 0.562878 0.213099
vt 0.468672 0.468672
vt 0.039928 0.981345
vt 0.035699 0.983746
vt 0.506917 0.055439
vt 0.092285 0.960431
vt 0.623218 0.240156
vt 0.083053 0.963695
vt 0.157041 0.000000
vt 0.999659 0.870321
vt 0.870663 0.870663
vt 0.575016 0.613245
vt 0.570933 0.620783
vt 0.726178 0.595996
vt 0.590281 0.584785
vt 0.881577 0.751713
vt 0.863680 0.733754
vt 0.582617 0.599060
vt 0.581619 0.600921
vt 0.137999 0.992925
vt 0.764040 0.441970
vt 0.713554 0.465024
vt 0.849786 0.404298
vt 0.129213 0.981345
vt 0.381073 0.113531
vt 0.436388 0.000000
vt 0.436388 0.436388
vt 0.121999 0.950137
vt 0.127472 0.958312
vt 0.110752 0.953726
vt 0.667771 0.473831
vt 0.737336 0.421742
vt 0.073824 0.966901
vt 0.827559 0.735773
vt 0.827388 0.711965
vt 0.466445 0.584919
vt 0.864020 0.505759
vt 0.101519 0.957110
vt 0.840468 0.840468
vt 0.958956 0.775009
vt 0.055412 0.973139
vt 0.051911 0.974294
vt 0.474495 0.574338
vt 0.637135 0.513649
vt 0.545591 0.489014
vt 0.673276 0.523429
vt 0.029547 0.988578
vt 0.021918 0.992951
vt 0.473511 0.575801
vt 0.724984 0.538892
vt 0.474723 0.584902
vt 0.477975 0.580075
vt 0.476936 0.581546
vt 0.475867 0.583132
vt 0.975618 0.349281
vt 1.000000 0.338616
vt 0.338616 0.338616
vt 0.129213 0.970757
vt 0.130496 0.968705
vt 1.000000 0.755744
vt 0.458598 0.608718
vt 0.460218 0.610828
vt 0.753889 0.186010
vt 0.469593 0.622971
vt 0.675184 0.536394
s 0
usemtl Hammer.023
f 34/84/1 3/8/2 30/71/1
f 30/72/3 3/6/3 2/3/3
f 31/75/4 8/15/4 1/1/4
f 46/132/5 38/100/5 3/8/5
f 38/101/6 2/3/6 3/7/6
s 1
f 20/43/7 10/23/8 26/58/9
f 45/129/10 9/21/11 28/66/12
f 28/65/12 16/37/13 37/95/14
s 0
f 2/4/15 38/102/16 39/106/17
s 1
f 15/34/18 42/113/19 39/105/20
f 45/127/10 4/9/21 25/56/22
f 27/60/23 21/46/24 20/44/7
f 5/10/25 32/81/26 42/113/19
f 12/27/27 40/108/28 33/83/29
f 44/118/30 25/55/31 45/124/32
f 9/20/11 22/49/33 21/47/24
f 28/66/12 35/90/34 7/14/35
f 8/19/36 19/41/37 18/39/38
f 11/25/39 43/116/40 40/108/28
f 13/29/41 33/83/29 32/81/26
s 0
f 47/135/42 30/73/42 1/2/42
s 1
f 9/21/11 21/47/24 27/61/23
f 14/33/43 11/26/39 9/22/11
f 21/48/24 13/30/41 20/45/7
f 22/50/33 12/28/27 21/48/24
f 20/45/7 5/11/25 10/24/8
f 30/74/44 18/40/38 19/42/37
f 15/35/18 27/62/23 26/59/9
f 5/11/25 26/59/9 10/24/8
f 17/38/45 16/36/13 15/34/18
f 15/34/18 39/105/20 17/38/45
f 39/105/20 38/103/46 17/38/45
s 0
f 8/15/4 29/68/4 1/1/4
f 1/1/4 43/114/4 31/76/4
f 41/109/47 8/16/47 44/119/48
f 8/17/49 31/77/49 44/120/50
f 44/121/48 45/125/48 41/110/48
f 37/98/51 46/130/51 36/92/51
f 37/96/51 35/89/52 28/63/53
f 46/131/51 34/85/51 36/91/51
s 1
f 28/64/54 48/140/55 37/97/55
s 0
f 36/92/51 35/89/51 37/98/51
f 46/132/56 3/8/56 34/86/56
s 1
f 36/94/57 8/19/36 7/14/35
f 7/14/35 8/19/36 45/126/10
f 41/111/58 45/126/10 8/18/36
f 7/14/35 35/90/34 36/93/57
f 28/65/12 27/62/23 16/37/13
s 0
f 39/106/59 42/112/59 2/4/59
f 42/112/60 32/80/60 2/4/60
f 32/80/61 33/82/61 2/4/61
f 33/82/61 40/107/61 2/4/61
f 40/107/61 43/115/61 1/1/60
f 1/1/62 2/4/60 40/107/59
s 1
f 15/34/18 5/10/25 42/113/19
f 46/133/63 37/99/14 16/36/13
f 16/36/13 17/38/45 46/133/63
f 17/38/45 38/104/46 46/134/63
f 24/53/64 45/127/10 25/56/31
f 20/44/7 26/58/9 27/60/23
f 9/20/11 24/53/64 23/51/65
f 5/10/25 13/29/41 32/81/26
f 12/27/27 11/25/39 40/108/28
f 9/21/11 45/128/10 24/53/64
f 45/129/10 28/66/12 7/14/35
f 36/94/57 34/87/66 6/12/38
f 8/19/36 36/94/57 19/41/37
f 36/94/57 6/12/38 19/41/37
f 47/136/67 29/69/68 8/19/36
f 18/39/38 47/137/67 8/19/36
f 11/25/39 14/31/43 43/116/40
f 14/31/43 31/78/69 43/117/40
f 13/29/41 12/27/27 33/83/29
f 14/32/43 44/122/30 31/79/69
s 0
f 30/73/70 2/5/70 1/2/70
f 29/70/71 47/138/71 1/2/71
s 1
f 28/67/12 9/21/11 27/61/23
f 9/22/11 23/52/65 14/33/43
f 23/52/65 24/54/64 14/33/43
f 24/54/64 25/57/31 14/33/43
f 11/26/39 22/50/33 9/22/11
f 44/123/30 14/33/43 25/57/31
f 21/48/24 12/28/27 13/30/41
f 22/50/33 11/26/39 12/28/27
f 20/45/7 13/30/41 5/11/25
f 30/74/44 47/139/67 18/40/38
f 34/88/66 30/74/44 19/42/37
f 6/13/38 34/88/66 19/42/37
f 15/35/18 16/37/13 27/62/23
f 5/11/25 15/35/18 26/59/9