# Blender 3.3.1
# www.blender.org
mtllib 15s.mtl
o Hammer_cell.015
v -5.247079 1.348661 2.685328
v -5.441031 2.283775 3.583467
v -9.030519 3.279418 3.094736
v -9.030664 3.251896 2.280215
v -9.041744 2.286916 2.241283
v -9.031569 3.323809 1.006687
v -9.041744 2.844629 1.176945
v -9.267509 0.028750 2.869452
v -8.992540 3.519346 2.312904
v -8.989401 3.529212 0.699993
v -8.992993 3.517264 3.320629
v -9.041745 0.610043 2.951972
v -9.041744 2.925261 0.898291
v -9.041744 1.978165 2.418443
v -9.041744 1.443277 2.691436
v -8.973735 3.567015 1.824241
v -9.031135 3.283357 1.722457
v -9.041888 2.480963 1.965177
v -9.041744 2.742063 1.446990
v -9.075944 1.850826 2.250568
v -9.042278 1.155114 2.752846
v -9.046020 2.099827 2.096756
v -9.042279 0.028750 2.966989
v -9.280001 1.094395 2.603094
v -9.282699 0.560465 2.703516
v -9.262091 2.039556 2.041207
v -9.285246 0.028750 2.542755
v -9.284382 2.462278 1.038397
v -9.183237 2.667446 1.123379
v -9.284739 1.861385 1.920806
v -9.031160 3.249029 2.758119
v -9.075944 -0.531558 2.847258
v -9.282699 -0.502965 2.703512
v -9.040397 3.051226 1.335792
v -9.037294 3.258575 0.375898
v -8.992989 3.517287 3.755946
v -9.021373 3.371213 2.594707
v -9.008386 3.459799 3.008129
v -8.993011 3.517142 2.790602
v -9.040569 2.844631 2.477529
v -9.008440 3.471404 0.348147
v -9.042278 2.924625 0.604176
v -9.042278 1.674573 2.496409
v -9.046020 2.292232 1.882636
v -9.284382 2.064796 1.701366
v -9.284382 2.218725 1.493693
v -9.284382 2.351683 1.272009
v -9.285779 2.275653 0.762837
v -9.286160 0.990914 2.350323
v -9.144786 2.405453 1.618461
v -9.183237 2.547527 1.376687
v -9.106995 0.309383 2.879942
v -9.144782 0.858553 2.765821
v -9.239288 2.825274 0.586662
v -9.279997 2.693404 0.838733
v -9.280001 1.795273 2.182880
v -9.276424 1.593941 2.372874
v -9.262091 1.369198 2.538248
v -9.262091 2.226876 1.834382
v -9.284382 0.793359 2.550913
v -9.284489 0.286919 2.651483
v -9.144782 -0.251412 2.875152
v -9.280001 -0.779586 2.695052
v -9.284679 -0.229656 2.651247
v -9.075944 -0.778876 2.785381
v -9.280001 -1.201971 2.524943
v -9.253622 -1.003218 2.682230
v -7.984231 4.555195 3.740957
v -8.332267 4.272854 3.811975
v -8.815666 3.810487 3.916520
v -9.026286 3.335275 3.984952
v -7.534867 4.684030 0.232688
v -7.829307 4.647071 0.143376
v -8.088936 4.474701 0.132402
v -9.285353 -0.966748 2.335314
v -9.284382 2.596048 0.608007
v -9.041580 2.717278 4.038860
v -8.477694 4.143039 0.151644
v -9.041745 0.776414 4.102830
v -6.450616 4.688419 0.625561
v -6.992434 4.689387 0.427621
v -7.752763 4.667278 3.700060
v -8.957172 3.605052 3.952991
v -8.932735 3.651768 0.224141
v -7.509291 4.686318 3.665341
v -8.775532 3.849853 0.185340
v -6.173808 4.688419 3.483252
v -9.041579 3.079348 0.462079
vn 0.3117 -0.4147 -0.8549
vn 0.3116 -0.4148 -0.8549
vn -0.2317 -0.2851 0.9301
vn -0.9967 -0.0251 0.0767
vn -0.9949 -0.0353 0.0949
vn -0.6890 0.7248 0.0002
vn -0.6729 0.7397 0.0005
vn -0.6401 0.7683 -0.0000
vn -0.9997 0.0213 0.0133
vn -0.9972 0.0654 0.0364
vn -0.9999 0.0101 0.0027
vn -0.9985 0.0536 -0.0103
vn -0.9850 0.1682 -0.0376
vn -0.4519 0.8921 -0.0004
vn -0.1104 0.9938 0.0145
vn -0.6065 0.7951 0.0001
vn -0.3476 0.3517 0.8692
vn -0.9787 -0.1833 0.0923
vn -1.0000 -0.0000 -0.0000
vn -0.7125 0.5975 -0.3679
vn -0.9992 0.0411 0.0009
vn -0.1286 -0.6646 -0.7360
vn -0.9990 0.0267 -0.0354
vn -1.0000 0.0042 0.0033
vn -0.9979 0.0462 0.0452
vn -0.9426 0.3338 -0.0090
vn -0.9879 0.1547 -0.0090
vn -0.9955 0.0942 -0.0041
vn -0.9452 0.3261 0.0162
vn -0.9799 0.1993 -0.0020
vn -0.9937 0.1123 0.0039
vn -0.9994 0.0340 -0.0039
vn -0.9992 0.0403 0.0063
vn -0.0482 0.9987 0.0154
vn 0.0007 1.0000 0.0009
vn -0.0078 1.0000 -0.0003
vn -0.9999 0.0145 -0.0016
vn 0.9535 0.2867 -0.0924
vn 0.1348 0.0825 0.9874
vn -0.9866 0.1513 0.0605
vn -1.0000 0.0019 0.0025
vn -0.9998 0.0096 0.0188
vn -0.9975 0.0446 0.0544
vn -0.9896 0.1415 0.0243
vn -0.4153 0.3662 0.8327
vn -0.2677 0.4930 0.8278
vn -0.9958 -0.0918 -0.0010
vn -0.9985 -0.0493 -0.0240
vn -0.3222 0.8077 0.4937
vn -0.8796 -0.4070 0.2463
vn -0.3048 0.6479 0.6981
vn -0.4609 0.5256 0.7150
vn -0.4300 0.8425 0.3246
vn -0.2586 0.9477 0.1870
vn -0.3533 0.9038 0.2415
vn -0.7506 0.4999 -0.4321
vn -0.1988 0.9151 0.3510
vn -0.9378 0.0972 0.3333
vn -0.0364 0.9993 -0.0000
vn -0.8887 -0.0714 0.4530
vn -0.9846 0.1363 0.1090
vn -0.9999 0.0116 0.0064
vn -0.9998 0.0152 0.0104
vn -0.4473 0.8942 0.0163
vn -0.9461 0.1409 0.2916
vn -0.9035 0.4286 0.0003
vn -0.7994 0.6008 -0.0009
vn -0.7819 0.6233 0.0008
vn -0.9997 -0.0140 -0.0211
vn -0.9892 0.0068 0.1464
vn -0.4257 0.2292 0.8753
vn -0.5307 0.4331 0.7286
vn -0.5200 -0.1585 0.8394
vn -0.9882 0.0451 0.1465
vn -0.9419 0.0977 0.3215
vn -0.4462 -0.2008 0.8721
vn -0.5032 0.3508 0.7898
vn -0.9969 0.0347 0.0702
vn -0.9917 -0.0663 0.1100
vn -1.0000 0.0093 0.0002
vn -0.8972 -0.0590 0.4377
vn -0.9980 0.0061 0.0636
vn -0.9955 0.0174 0.0935
vn -0.4281 -0.3263 0.8428
vn -0.2318 -0.2850 0.9301
vn -0.9795 -0.0702 0.1889
vn -1.0000 0.0088 0.0024
vn -0.9999 -0.0034 0.0102
vn -0.9749 0.1285 0.1817
vn 0.3554 -0.6087 0.7094
vn 0.3553 -0.6087 0.7094
vn 0.3557 -0.6086 0.7093
vn 0.3556 -0.6087 0.7093
vn 0.3555 -0.6087 0.7093
vn 0.3567 -0.6076 0.7096
vn 0.3115 -0.4148 -0.8549
vn 0.3116 -0.4149 -0.8548
vn 0.3118 -0.4148 -0.8548
vn 0.3119 -0.4148 -0.8548
vn 0.3119 -0.4147 -0.8548
vn 0.3118 -0.4146 -0.8549
vn 0.3115 -0.4146 -0.8550
vn 0.3115 -0.4147 -0.8550
vn 0.3114 -0.4146 -0.8550
vn 0.3114 -0.4146 -0.8551
vn 0.3098 -0.4131 -0.8564
vn 0.3266 -0.4185 -0.8474
vn 0.3259 -0.4201 -0.8469
vn 0.3267 -0.4185 -0.8475
vn 0.3179 -0.4170 -0.8515
vn 0.3114 -0.4147 -0.8550
vn -0.9872 0.1598 0.0026
vn -0.9722 0.1767 -0.1539
vn -0.0016 1.0000 0.0002
vn 0.9536 0.2866 -0.0925
vn 0.1348 0.0824 0.9874
vn 0.1346 0.0825 0.9875
vn 0.1351 0.0821 0.9874
vn 0.1342 0.0828 0.9875
vn 0.1348 0.0826 0.9874
vn 0.1345 0.0821 0.9875
vn 0.1346 0.0822 0.9875
vn 0.1343 0.0829 0.9875
vn 0.1344 0.0827 0.9875
vt 0.000000 0.000000
vt 1.000000 0.000000
vt 1.000000 1.000000
vt 1.000000 0.000000
vt 0.000000 0.000000
vt 0.096288 0.307985
vt 0.095687 0.301903
vt 0.126092 0.302308
vt 0.115279 0.302544
vt 0.127717 0.308828
vt 0.127611 0.338237
vt 0.131274 0.343030
vt 0.173614 0.299236
vt 0.174217 0.303022
vt 0.167292 0.317322
vt 0.170049 0.325747
vt 0.111386 0.422378
vt 0.115798 0.422379
vt 0.125585 0.297564
vt 0.121289 0.291150
vt 0.185006 0.290032
vt 0.185198 0.295959
vt 0.087442 0.297388
vt 0.087255 0.292128
vt 0.110469 0.402594
vt 0.101274 0.400746
vt 0.180158 0.323707
vt 0.177691 0.314283
vt 0.121025 0.349761
vt 0.115573 0.371927
vt 0.110891 0.369712
vt 0.143708 0.297045
vt 0.143073 0.290161
vt 0.146902 0.300953
vt 0.148175 0.306230
vt 0.138022 0.331195
vt 0.139667 0.335697
vt 0.158193 0.324377
vt 0.155940 0.316564
vt 0.157218 0.321178
vt 0.160776 0.330165
vt 0.124172 0.351767
vt 0.134730 0.360554
vt 0.132483 0.358735
vt 0.111113 0.381432
vt 0.106851 0.379781
vt 0.116243 0.383556
vt 0.139089 0.351421
vt 0.133092 0.345286
vt 0.111033 0.422378
vt 0.099342 0.422378
vt 0.117343 0.384011
vt 0.123032 0.386340
vt 0.111617 0.402825
vt 0.117639 0.404011
vt 0.143465 0.355748
vt 0.141988 0.354284
vt 0.139693 0.352019
vt 0.123251 0.422379
vt 0.119008 0.422379
vt 0.176907 0.342100
vt 0.175273 0.338200
vt 0.174037 0.335250
vt 0.170632 0.327138
vt 0.147934 0.361972
vt 0.145735 0.357998
vt 0.108258 0.302337
vt 0.109355 0.308848
vt 0.358155 0.254599
vt 0.299682 0.197145
vt 0.101409 0.444623
vt 0.113850 0.441489
vt 0.114427 0.441376
vt 0.117638 0.440746
vt 0.161395 0.309813
vt 0.145894 0.320209
vt 0.161910 0.312254
vt 0.407743 0.258139
vt 0.421452 0.272910
vt 0.195557 0.304987
vt 0.197170 0.301535
vt 0.071110 0.297310
vt 0.071024 0.292172
vt 0.114340 0.297697
vt 0.099161 0.297499
vt 0.098801 0.290302
vt 0.107534 0.297623
vt 0.107018 0.292077
vt 0.119152 0.316708
vt 0.396551 0.244881
vt 0.198404 0.298991
vt 0.198196 0.293619
vt 0.190262 0.322631
vt 0.460839 0.324301
vt 0.464279 0.317631
vt 0.188671 0.314281
vt 0.121997 0.363589
vt 0.115641 0.359794
vt 0.118142 0.361086
vt 0.126623 0.366658
vt 0.141059 0.338098
vt 0.146385 0.344791
vt 0.152355 0.351989
vt 0.159532 0.346653
vt 0.167196 0.342041
vt 0.481619 0.415907
vt 0.184844 0.344656
vt 0.161894 0.350159
vt 0.129914 0.389141
vt 0.126002 0.387534
vt 0.149729 0.331816
vt 0.148737 0.329566
vt 0.151979 0.335468
vt 0.154774 0.339608
vt 0.157744 0.344003
vt 0.161492 0.331492
vt 0.165676 0.339227
vt 0.109002 0.412439
vt 0.111872 0.412725
vt 0.099832 0.411521
vt 0.114185 0.412949
vt 0.103628 0.390139
vt 0.114019 0.393280
vt 0.119903 0.395045
vt 0.190502 0.323810
vt 0.414533 0.347843
vt 0.191780 0.330099
vt 0.180581 0.325080
vt 0.183692 0.335174
vt 0.182750 0.332117
vt 0.139740 0.364629
vt 0.137261 0.362612
vt 0.135648 0.361300
vt 0.131756 0.370048
vt 0.129035 0.368248
vt 0.134421 0.371814
vt 0.127330 0.367126
vt 0.116670 0.372509
vt 0.126997 0.377983
vt 0.121559 0.375110
vt 0.150316 0.349527
vt 0.146928 0.345445
vt 0.122970 0.395965
vt 0.119458 0.413459
vt 0.116262 0.413151
vt 0.113003 0.431922
vt 0.111872 0.432031
vt 0.099832 0.433236
vt 0.116262 0.431606
vt 0.119901 0.449712
vt 0.116770 0.450650
vt 0.122969 0.448792
vt 0.119458 0.431310
vt 0.260498 0.165036
vt 0.278612 0.178476
vt 0.116207 0.450818
vt 0.119450 0.459836
vt 0.123030 0.458416
vt 0.047022 0.000000
vt 0.989262 0.950182
vt 0.118925 0.459231
vt 0.070635 0.242314
vt 0.539515 0.078186
vt 0.571704 0.097492
vt 0.071399 0.237347
vt 0.069733 0.248191
vt 0.066871 0.266871
vt 0.723666 0.200848
vt 0.666871 0.160409
vt 0.608935 0.121269
vt 0.064855 0.280301
vt 0.063934 0.286679
vt 0.066043 0.272322
vt 0.820661 0.281757
vt 0.755814 0.225200
vt 0.062675 0.297225
vt 0.061236 0.314038
vt 0.064822 0.305214
vt 0.858884 0.358763
vt 0.863751 0.420839
vt 0.864693 0.465794
vt 0.688755 0.031576
vt 0.202254 0.218695
vt 0.203853 0.223369
vt 0.647766 0.032551
vt 0.206107 0.236901
vt 0.205950 0.247725
vt 0.535035 0.065036
vt 0.510064 0.080884
vt 0.206084 0.241863
vt 0.125990 0.457202
vt 0.964906 0.943255
vt 0.998890 0.933124
vt 0.129904 0.455595
vt 0.187803 0.338494
vt 0.453393 0.387570
vt 0.430963 0.364845
vt 0.190161 0.333543
vt 0.060567 0.322260
vt 0.865019 0.518759
vt 0.205721 0.254051
vt 0.484300 0.098460
vt 0.447010 0.126296
vt 0.418208 0.150157
vt 0.204656 0.271856
vt 1.000000 0.896335
vt 0.896335 0.896335
vt 0.058412 0.394596
vt 0.055062 0.390706
vt 0.891357 0.891357
vt 0.054565 0.000000
vt 0.187423 0.178228
vt 0.054565 0.054565
vt 0.194880 0.198440
vt 0.740366 0.031063
vt 0.871177 0.030806
vt 0.200190 0.212919
vt 0.071983 0.233555
vt 0.072888 0.227462
vt 0.513919 0.064692
vt 0.062974 0.294337
vt 0.063443 0.290407
vt 0.063669 0.288649
vt 0.844927 0.316215
vt 0.380959 0.210680
vt 0.202801 0.286234
vt 0.198169 0.291734
vt 0.202301 0.288222
vt 0.073386 0.223870
vt 0.075681 0.206617
vt 0.297412 0.046414
vt 0.439156 0.048795
vt 0.397348 0.047318
vt 0.074073 0.218756
vt 0.391592 0.177423
vt 0.203286 0.283785
vt 0.402832 0.164791
vt 0.204219 0.276648
vt 0.074686 0.000000
vt 0.080717 0.168357
vt 0.925314 0.000000
vt 0.187477 0.305611
vt 0.435876 0.287725
vt 0.458740 0.310828
vt 0.188348 0.312082
s 0
usemtl Hammer.023
f 84/225/1 86/235/2 41/90/1
s 1
f 65/156/3 63/151/4 66/157/5
f 78/201/6 69/166/7 74/187/8
f 34/75/9 35/80/10 88/242/11
f 6/14/12 10/22/13 35/80/10
f 82/218/14 73/186/15 68/165/16
f 21/46/17 53/122/18 79/208/19
f 16/32/20 4/8/21 9/19/22
f 45/103/23 48/108/24 30/65/25
f 83/221/26 36/82/27 71/176/28
f 68/162/16 74/187/8 69/166/7
f 11/23/29 71/178/28 36/82/27
f 39/87/30 9/20/22 37/84/31
f 31/67/32 37/84/31 4/9/21
f 3/7/33 39/87/30 31/67/32
f 85/230/34 80/212/35 81/214/36
f 40/89/37 3/6/33 31/68/32
f 10/22/13 6/13/12 16/32/20
s 0
f 2/4/38 80/213/38 87/239/38
f 77/200/39 2/5/39 69/169/39
s 1
f 40/89/37 17/35/40 34/77/9
f 14/29/41 5/12/42 20/42/43
f 15/30/44 43/97/45 58/138/46
f 21/45/17 15/30/44 58/138/46
f 18/37/47 50/111/48 44/101/49
f 71/177/28 3/6/33 40/89/37
f 18/36/47 19/38/50 50/112/48
f 5/12/42 44/101/49 22/49/51
f 21/47/17 58/140/46 24/52/52
f 13/27/53 42/93/54 55/128/55
f 55/128/55 42/93/54 54/125/56
f 29/64/57 13/27/53 55/128/55
f 7/16/58 13/27/53 29/64/57
f 85/229/34 72/183/59 73/184/15
f 59/141/60 30/66/25 26/56/61
f 50/115/48 45/103/23 59/141/60
f 50/115/48 47/105/62 46/104/63
f 51/117/64 28/62/65 47/105/62
f 84/226/66 70/171/67 86/236/68
f 58/139/46 49/110/69 24/53/52
f 57/134/70 49/110/69 58/139/46
f 50/113/48 19/41/50 51/116/64
f 19/41/50 29/64/57 51/116/64
f 12/25/71 53/123/18 25/54/72
f 52/118/73 12/25/71 25/54/72
f 55/130/55 28/62/65 29/63/57
f 73/184/15 82/219/14 85/229/34
f 8/18/74 52/121/73 61/145/75
f 52/119/73 8/17/74 23/50/76
f 56/133/77 57/135/70 20/43/43
f 57/137/70 58/140/46 43/100/45
f 26/58/61 20/44/43 22/48/51
f 44/102/49 26/58/61 22/48/51
f 44/102/49 50/114/48 59/142/60
f 61/145/75 27/60/78 8/18/74
f 25/55/72 60/143/79 61/144/75
f 53/124/18 49/110/69 60/143/79
f 48/108/24 47/105/62 28/61/65
f 77/199/80 71/177/28 40/89/37
f 63/151/4 32/72/81 33/73/82
f 32/72/81 62/146/83 33/73/82
f 67/161/84 65/156/85 66/157/86
f 62/147/83 23/50/76 8/17/74
f 61/144/75 60/143/79 49/109/69
f 55/129/55 76/195/87 28/61/65
f 27/60/78 62/149/83 8/18/74
f 63/150/4 75/191/88 66/158/5
f 64/153/89 33/74/82 62/149/83
s 0
f 1/2/90 79/206/91 32/69/91
f 66/159/92 1/2/93 65/154/94
f 1/2/91 32/70/91 65/155/90
f 79/207/95 1/1/95 2/4/95
s 1
f 64/153/89 27/59/78 75/194/88
f 27/59/78 61/144/75 30/65/25
f 75/194/88 27/59/78 30/65/25
f 61/144/75 49/109/69 30/65/25
f 28/61/65 76/195/87 48/107/24
s 0
f 81/216/2 80/211/2 42/95/96
f 80/211/97 1/2/97 42/95/97
f 42/95/1 1/2/1 48/106/1
f 66/160/98 75/192/99 1/2/100
f 75/193/101 48/106/101 1/2/101
f 48/106/102 76/196/102 42/94/103
f 76/197/104 54/126/104 42/94/104
f 73/185/105 72/182/105 74/188/105
f 72/182/105 81/215/105 74/189/105
f 78/202/105 74/189/105 81/215/105
f 88/244/105 78/203/105 81/216/105
f 86/237/106 78/204/106 35/79/106
f 35/78/107 41/90/108 86/237/109
f 88/243/110 35/79/110 78/204/110
f 81/216/111 42/95/103 88/244/103
s 1
f 34/75/9 6/14/12 35/80/10
f 57/136/70 56/131/77 30/65/25
f 10/22/13 41/91/112 35/81/10
f 79/209/19 77/199/80 15/31/44
f 77/199/80 40/89/37 14/29/41
f 40/89/37 18/36/47 5/11/42
f 77/199/80 14/29/41 43/98/45
f 62/148/83 32/71/81 79/208/19
f 52/120/73 23/51/76 79/208/19
f 23/51/76 62/148/83 79/208/19
f 77/199/80 43/98/45 15/31/44
f 40/89/37 5/11/42 14/29/41
f 12/26/71 52/120/73 79/208/19
f 53/122/18 12/26/71 79/208/19
f 79/209/19 15/31/44 21/46/17
f 16/32/20 6/13/12 17/34/40
f 16/32/20 17/34/40 4/8/21
f 57/136/70 30/65/25 49/109/69
f 45/103/23 46/104/63 48/108/24
f 70/173/67 78/205/6 86/238/68
f 11/23/29 3/7/33 71/178/28
f 16/33/20 9/20/22 84/228/66
f 9/20/22 38/86/113 83/223/26
f 83/223/26 84/228/66 9/20/22
f 10/21/13 16/33/20 84/228/66
f 4/9/21 37/84/31 9/19/22
f 31/67/32 39/87/30 37/84/31
f 3/7/33 38/85/113 39/87/30
f 3/7/33 11/23/29 38/85/113
f 13/28/53 34/77/9 88/245/11
f 19/39/50 34/77/9 7/15/58
f 7/15/58 34/77/9 13/28/53
f 40/89/37 34/76/9 18/36/47
f 19/40/50 18/36/47 34/76/9
f 85/230/34 87/240/114 80/212/35
f 83/222/26 38/86/113 11/24/29
f 36/83/27 83/222/26 11/24/29
f 4/9/21 40/89/37 31/68/32
f 84/227/66 41/92/112 10/22/13
f 84/228/66 83/223/26 70/172/67
s 0
f 2/4/115 1/3/115 80/213/115
s 1
f 78/205/6 70/173/67 69/167/7
s 0
f 83/224/116 71/179/116 70/174/116
f 70/175/117 71/180/118 69/168/117
f 71/181/119 77/200/119 69/169/119
f 77/200/120 79/210/120 2/5/120
f 2/5/121 87/241/121 85/231/121
f 2/5/122 85/231/122 69/169/122
f 82/220/123 68/163/123 85/232/123
f 68/164/124 69/170/124 85/233/124
s 1
f 40/89/37 4/10/21 17/35/40
f 34/77/9 17/35/40 6/14/12
f 13/28/53 88/245/11 42/96/54
f 14/29/41 20/42/43 43/99/45
f 20/42/43 5/12/42 22/49/51
f 5/12/42 18/37/47 44/101/49
f 64/153/89 75/194/88 63/152/4
f 59/141/60 45/103/23 30/66/25
f 50/115/48 46/104/63 45/103/23
f 50/115/48 51/117/64 47/105/62
f 51/117/64 29/63/57 28/62/65
f 48/107/24 75/194/88 30/65/25
f 56/132/77 26/56/61 30/66/25
f 19/41/50 7/16/58 29/64/57
f 21/47/17 24/52/52 53/123/18
f 55/130/55 54/127/56 76/198/87
f 25/55/72 61/145/75 52/121/73
f 26/57/61 56/133/77 20/43/43
f 57/137/70 43/100/45 20/44/43
f 44/102/49 59/142/60 26/58/61
f 9/20/22 39/88/30 38/86/113
f 25/55/72 53/124/18 60/143/79
f 53/124/18 24/53/52 49/110/69
f 46/104/63 47/105/62 48/108/24
f 68/165/16 73/186/15 74/190/8
f 81/217/36 72/183/59 85/234/34
f 63/151/4 65/156/3 32/72/81
f 27/60/78 64/153/89 62/149/83
f 33/74/82 64/153/89 63/152/4