# Blender 3.3.1
# www.blender.org
mtllib 15s.mtl
o Hammer_cell.015
v -5.247079 1.348661 2.685328
v -5.441031 2.283775 3.583467
v -9.030664 3.251896 2.280215
v -9.041744 2.286916 2.241283
v -9.031569 3.323809 1.006687
v -9.041744 2.844629 1.176945
v -9.267509 0.028750 2.869452
v -9.031208 3.286091 3.989694
v -9.041745 0.610043 2.951972
v -9.041744 2.925261 0.898291
v -9.041744 1.978165 2.418443
v -9.041744 1.443277 2.691436
v -8.973735 3.567015 1.824241
v -9.041888 2.480963 1.965177
v -9.041744 2.742063 1.446990
v -9.075944 1.850826 2.250568
v -9.046020 2.099827 2.096756
v -9.042279 0.028750 2.966989
v -9.280001 1.094395 2.603094
v -9.282699 0.560465 2.703516
v -9.262091 2.039556 2.041207
v -9.285246 0.028750 2.542755
v -9.284382 2.462278 1.038397
v -9.183237 2.667446 1.123379
v -9.284739 1.861385 1.920806
v -9.075944 -0.531558 2.847258
v -9.282699 -0.502965 2.703512
v -8.993011 3.517142 2.790602
v -9.042278 2.924625 0.604176
v -9.042278 1.674573 2.496409
v -9.046020 2.292232 1.882636
v -9.284382 2.064796 1.701366
v -9.284382 2.218725 1.493693
v -9.284382 2.351683 1.272009
v -9.285779 2.275653 0.762837
v -9.286160 0.990914 2.350323
v -9.144786 2.405453 1.618461
v -9.183237 2.547527 1.376687
v -9.106995 0.309383 2.879942
v -9.144782 0.858553 2.765821
v -9.239288 2.825274 0.586662
v -9.279997 2.693404 0.838733
v -9.280001 1.795273 2.182880
v -9.276424 1.593941 2.372874
v -9.262091 1.369198 2.538248
v -9.262091 2.226876 1.834382
v -9.284382 0.793359 2.550913
v -9.284489 0.286919 2.651483
v -9.144782 -0.251412 2.875152
v -9.280001 -0.779586 2.695052
v -9.284679 -0.229656 2.651247
v -9.075944 -0.778876 2.785381
v -9.280001 -1.201971 2.524943
v -9.253622 -1.003218 2.682230
v -8.332267 4.272854 3.811975
v -8.815666 3.810487 3.916520
v -7.534867 4.684030 0.232688
v -8.088936 4.474701 0.132402
v -9.285353 -0.966748 2.335314
v -9.284382 2.596048 0.608007
v -9.041580 2.717278 4.038860
v -9.041745 0.776414 4.102830
v -6.450616 4.688419 0.625561
v -6.992434 4.689387 0.427621
v -8.932735 3.651768 0.224141
v -7.509291 4.686318 3.665341
v -6.173808 4.688419 3.483252
v -9.041579 3.079348 0.462079
vn -0.2317 -0.2851 0.9301
vn -0.9967 -0.0251 0.0767
vn -0.9949 -0.0353 0.0949
vn -0.9996 0.0246 0.0104
vn -0.9729 0.2311 0.0037
vn -0.9999 0.0101 0.0027
vn -0.5247 0.3881 0.7577
vn -0.9787 -0.1833 0.0923
vn -1.0000 -0.0000 -0.0000
vn -0.9990 0.0267 -0.0354
vn -1.0000 0.0042 0.0032
vn -0.9979 0.0462 0.0452
vn -0.4643 0.8716 0.1576
vn -0.7033 0.7109 0.0017
vn -0.6729 0.7397 0.0005
vn -0.9912 0.1251 -0.0427
vn -0.9977 0.0580 -0.0351
vn -0.9412 0.3373 -0.0179
vn 0.0007 1.0000 0.0009
vn -0.0078 1.0000 -0.0003
vn -0.4881 -0.4299 -0.7596
vn 0.9535 0.2867 -0.0924
vn 0.1348 0.0825 0.9874
vn -0.9999 0.0172 -0.0014
vn -1.0000 0.0019 0.0025
vn -0.9998 0.0096 0.0188
vn -0.9975 0.0446 0.0544
vn -0.4153 0.3662 0.8327
vn -0.2677 0.4930 0.8278
vn -0.9958 -0.0918 -0.0010
vn -0.9985 -0.0493 -0.0240
vn -0.3222 0.8077 0.4937
vn -0.8796 -0.4070 0.2463
vn -0.3048 0.6479 0.6981
vn -0.4609 0.5256 0.7150
vn -0.4300 0.8425 0.3246
vn -0.2586 0.9477 0.1870
vn -0.3533 0.9038 0.2415
vn -0.7506 0.4999 -0.4321
vn -0.1988 0.9151 0.3510
vn -0.9378 0.0972 0.3333
vn -0.8887 -0.0714 0.4530
vn -0.9846 0.1363 0.1090
vn -0.9999 0.0116 0.0064
vn -0.9998 0.0153 0.0103
vn -0.4473 0.8942 0.0163
vn -0.9461 0.1409 0.2916
vn -0.9997 -0.0140 -0.0211
vn -0.9892 0.0068 0.1464
vn -0.4257 0.2292 0.8753
vn -0.5307 0.4331 0.7286
vn -0.5200 -0.1585 0.8394
vn -0.9882 0.0451 0.1465
vn -0.9419 0.0977 0.3215
vn -0.4462 -0.2008 0.8721
vn -0.5032 0.3508 0.7898
vn -0.9969 0.0347 0.0702
vn -0.9917 -0.0663 0.1100
vn -1.0000 0.0064 -0.0000
vn -0.8972 -0.0590 0.4377
vn -0.9980 0.0061 0.0636
vn -0.9955 0.0174 0.0935
vn -0.4281 -0.3263 0.8428
vn -0.2318 -0.2850 0.9301
vn -0.9795 -0.0702 0.1889
vn -1.0000 0.0088 0.0024
vn -0.9999 -0.0034 0.0102
vn -0.9749 0.1285 0.1817
vn 0.3554 -0.6087 0.7094
vn 0.3553 -0.6087 0.7094
vn 0.3557 -0.6086 0.7093
vn 0.3556 -0.6087 0.7093
vn 0.3555 -0.6087 0.7093
vn 0.3567 -0.6076 0.7096
vn 0.3116 -0.4148 -0.8549
vn 0.3115 -0.4148 -0.8549
vn 0.3116 -0.4149 -0.8548
vn 0.3117 -0.4147 -0.8549
vn 0.3118 -0.4148 -0.8548
vn 0.3119 -0.4148 -0.8548
vn 0.3119 -0.4147 -0.8548
vn 0.3118 -0.4146 -0.8549
vn 0.3115 -0.4146 -0.8550
vn 0.3115 -0.4147 -0.8550
vn 0.3114 -0.4146 -0.8550
vn 0.3114 -0.4146 -0.8551
vn 0.3179 -0.4170 -0.8515
vn 0.3114 -0.4147 -0.8550
vn -0.0016 1.0000 0.0002
vn 0.9536 0.2866 -0.0925
vn 0.1347 0.0824 0.9874
vn 0.1351 0.0821 0.9874
vn 0.1340 0.0829 0.9875
vn 0.1348 0.0826 0.9874
vn 0.1345 0.0821 0.9875
vn 0.1346 0.0822 0.9875
vn -0.0809 0.9967 0.0103
vt 0.000000 0.000000
vt 1.000000 0.000000
vt 1.000000 1.000000
vt 1.000000 0.000000
vt 0.000000 0.000000
vt 0.115279 0.302544
vt 0.119152 0.316708
vt 0.127611 0.338237
vt 0.131274 0.343030
vt 0.161395 0.309813
vt 0.173614 0.299236
vt 0.161910 0.312254
vt 0.145894 0.320209
vt 0.167292 0.317322
vt 0.170049 0.325747
vt 0.111386 0.422378
vt 0.115798 0.422379
vt 0.064822 0.305214
vt 0.061236 0.314038
vt 0.863751 0.420839
vt 0.864693 0.465794
vt 0.110469 0.402594
vt 0.101274 0.400746
vt 0.180158 0.323707
vt 0.177691 0.314283
vt 0.121025 0.349761
vt 0.106851 0.379781
vt 0.115573 0.371927
vt 0.110891 0.369712
vt 0.116243 0.383556
vt 0.143708 0.297045
vt 0.148175 0.306230
vt 0.121289 0.291150
vt 0.125585 0.297564
vt 0.138022 0.331195
vt 0.139667 0.335697
vt 0.158193 0.324377
vt 0.155940 0.316564
vt 0.157218 0.321178
vt 0.160776 0.330165
vt 0.124172 0.351767
vt 0.134730 0.360554
vt 0.132483 0.358735
vt 0.139089 0.351421
vt 0.133092 0.345286
vt 0.111033 0.422378
vt 0.099342 0.422378
vt 0.117343 0.384011
vt 0.123032 0.386340
vt 0.111617 0.402825
vt 0.117639 0.404011
vt 0.143465 0.355748
vt 0.141988 0.354284
vt 0.139693 0.352019
vt 0.123251 0.422379
vt 0.119008 0.422379
vt 0.176907 0.342100
vt 0.175273 0.338200
vt 0.174037 0.335250
vt 0.170632 0.327138
vt 0.147934 0.361972
vt 0.145735 0.357998
vt 0.358155 0.254599
vt 0.299682 0.197145
vt 0.101409 0.444623
vt 0.113850 0.441489
vt 0.114427 0.441376
vt 0.117638 0.440746
vt 0.087442 0.297388
vt 0.096288 0.307985
vt 0.098801 0.290302
vt 0.114340 0.297697
vt 0.190262 0.322631
vt 0.460839 0.324301
vt 0.464279 0.317631
vt 0.188671 0.314281
vt 0.121997 0.363589
vt 0.115641 0.359794
vt 0.118142 0.361086
vt 0.126623 0.366658
vt 0.141059 0.338098
vt 0.146385 0.344791
vt 0.152355 0.351989
vt 0.159532 0.346653
vt 0.167196 0.342041
vt 0.481619 0.415907
vt 0.184844 0.344656
vt 0.161894 0.350159
vt 0.129914 0.389141
vt 0.126002 0.387534
vt 0.149729 0.331816
vt 0.148737 0.329566
vt 0.151979 0.335468
vt 0.154774 0.339608
vt 0.157744 0.344003
vt 0.161492 0.331492
vt 0.165676 0.339227
vt 0.109002 0.412439
vt 0.111872 0.412725
vt 0.099832 0.411521
vt 0.114185 0.412949
vt 0.103628 0.390139
vt 0.114019 0.393280
vt 0.119903 0.395045
vt 0.190502 0.323810
vt 0.414533 0.347843
vt 0.191780 0.330099
vt 0.180581 0.325080
vt 0.183692 0.335174
vt 0.182750 0.332117
vt 0.139740 0.364629
vt 0.137261 0.362612
vt 0.135648 0.361300
vt 0.131756 0.370048
vt 0.129035 0.368248
vt 0.134421 0.371814
vt 0.127330 0.367126
vt 0.116670 0.372509
vt 0.126997 0.377983
vt 0.121559 0.375110
vt 0.150316 0.349527
vt 0.146928 0.345445
vt 0.122970 0.395965
vt 0.119458 0.413459
vt 0.116262 0.413151
vt 0.113003 0.431922
vt 0.111872 0.432031
vt 0.099832 0.433236
vt 0.116262 0.431606
vt 0.119901 0.449712
vt 0.116770 0.450650
vt 0.122969 0.448792
vt 0.119458 0.431310
vt 0.260498 0.165036
vt 0.278612 0.178476
vt 0.116207 0.450818
vt 0.119450 0.459836
vt 0.123030 0.458416
vt 0.047022 0.000000
vt 0.989262 0.950182
vt 0.118925 0.459231
vt 0.069733 0.248191
vt 0.066871 0.266871
vt 0.723666 0.200848
vt 0.666871 0.160409
vt 0.071110 0.297310
vt 0.064855 0.280301
vt 0.063669 0.288649
vt 0.066043 0.272322
vt 0.755814 0.225200
vt 0.688755 0.031576
vt 0.206107 0.236901
vt 0.202254 0.218695
vt 0.205950 0.247725
vt 0.203286 0.283785
vt 0.510064 0.080884
vt 0.447010 0.126296
vt 0.418208 0.150157
vt 0.204656 0.271856
vt 0.206084 0.241863
vt 0.125990 0.457202
vt 0.964906 0.943255
vt 0.998890 0.933124
vt 0.129904 0.455595
vt 0.187803 0.338494
vt 0.453393 0.387570
vt 0.430963 0.364845
vt 0.190161 0.333543
vt 0.060567 0.322260
vt 0.865019 0.518759
vt 1.000000 0.896335
vt 0.896335 0.896335
vt 0.055062 0.390706
vt 0.058412 0.394596
vt 0.891357 0.891357
vt 0.054565 0.000000
vt 0.187423 0.178228
vt 0.054565 0.054565
vt 0.194880 0.198440
vt 0.740366 0.031063
vt 0.871177 0.030806
vt 0.200190 0.212919
vt 0.195557 0.304987
vt 0.185198 0.295959
vt 0.202801 0.286234
vt 0.421452 0.272910
vt 0.202301 0.288222
vt 0.070635 0.242314
vt 0.075681 0.206617
vt 0.297412 0.046414
vt 0.071399 0.237347
vt 0.074073 0.218756
vt 0.074686 0.000000
vt 0.080717 0.168357
vt 0.925314 0.000000
vt 0.187477 0.305611
vt 0.435876 0.287725
vt 0.458740 0.310828
vt 0.188348 0.312082
s 1
usemtl Hammer.023
f 52/136/1 50/131/2 53/137/3
f 5/10/4 65/183/5 68/196/6
f 12/27/7 40/102/8 62/174/9
f 32/83/10 35/88/11 25/61/12
f 66/188/13 58/154/14 55/142/15
f 28/69/16 8/18/17 56/146/18
f 66/189/13 63/177/19 64/179/20
f 65/184/5 5/11/4 13/31/21
s 0
f 2/4/22 63/178/22 67/193/22
f 61/170/23 2/5/23 55/145/23
s 1
f 3/7/24 13/32/21 5/12/4
f 11/26/25 4/9/26 16/41/27
f 12/28/7 30/77/28 45/118/29
f 14/36/30 37/91/31 31/81/32
f 8/19/17 28/70/16 3/7/24
f 14/35/30 15/37/33 37/92/31
f 4/9/26 31/81/32 17/45/34
f 12/30/7 45/120/29 19/48/35
f 10/24/36 29/73/37 42/108/38
f 42/108/38 29/73/37 41/105/39
f 24/60/40 10/24/36 42/108/38
f 6/15/41 10/24/36 24/60/40
f 46/121/42 25/62/12 21/52/43
f 37/95/31 32/83/10 46/121/42
f 37/95/31 34/85/44 33/84/45
f 38/97/46 23/58/47 34/85/44
f 65/185/5 56/147/18 58/155/14
f 45/119/29 36/90/48 19/49/35
f 44/114/49 36/90/48 45/119/29
f 37/93/31 15/40/33 38/96/46
f 15/40/33 24/60/40 38/96/46
f 9/22/50 40/103/8 20/50/51
f 39/98/52 9/22/50 20/50/51
f 42/110/38 23/58/47 24/59/40
f 7/17/53 39/101/52 48/125/54
f 39/99/52 7/16/53 18/46/55
f 43/113/56 44/115/49 16/42/27
f 44/117/49 45/120/29 30/80/28
f 21/54/43 16/43/27 17/44/34
f 31/82/32 21/54/43 17/44/34
f 31/82/32 37/94/31 46/122/42
f 48/125/54 22/56/57 7/17/53
f 20/51/51 47/123/58 48/124/54
f 40/104/8 36/90/48 47/123/58
f 35/88/11 34/85/44 23/57/47
f 61/169/59 8/19/17 3/7/24
f 50/131/2 26/66/60 27/67/61
f 26/66/60 49/126/62 27/67/61
f 54/141/63 52/136/64 53/137/65
f 49/127/62 18/46/55 7/16/53
f 48/124/54 47/123/58 36/89/48
f 42/109/38 60/165/66 23/57/47
f 22/56/57 49/129/62 7/17/53
f 50/130/2 59/161/67 53/138/3
f 51/133/68 27/68/61 49/129/62
s 0
f 1/2/69 62/171/70 26/63/70
f 53/139/71 1/2/72 52/134/73
f 1/2/70 26/64/70 52/135/69
f 62/172/74 1/1/74 2/4/74
s 1
f 51/133/68 22/55/57 59/164/67
f 22/55/57 48/124/54 25/61/12
f 59/164/67 22/55/57 25/61/12
f 48/124/54 36/89/48 25/61/12
f 23/57/47 60/165/66 35/87/11
s 0
f 64/181/75 63/176/75 29/75/76
f 63/176/77 1/2/77 29/75/77
f 29/75/78 1/2/78 35/86/78
f 53/140/79 59/162/80 1/2/81
f 59/163/82 35/86/82 1/2/82
f 35/86/83 60/166/83 29/74/84
f 60/167/85 41/106/85 29/74/85
f 57/151/86 64/180/86 58/156/86
f 68/198/86 58/157/86 64/181/86
f 68/197/87 65/186/87 58/158/87
f 64/181/88 29/75/84 68/198/84
s 1
f 44/116/49 43/111/56 25/61/12
f 62/173/9 61/169/59 12/29/7
f 61/169/59 3/7/24 11/26/25
f 3/7/24 14/35/30 4/8/26
f 61/169/59 11/26/25 30/78/28
f 49/128/62 26/65/60 62/174/9
f 39/100/52 18/47/55 62/174/9
f 18/47/55 49/128/62 62/174/9
f 61/169/59 30/78/28 12/29/7
f 3/7/24 4/8/26 11/26/25
f 9/23/50 39/100/52 62/174/9
f 40/102/8 9/23/50 62/174/9
f 44/116/49 25/61/12 36/89/48
f 32/83/10 33/84/45 35/88/11
f 13/33/21 28/71/16 56/148/18
f 56/148/18 65/187/5 13/33/21
f 3/6/24 28/72/16 13/34/21
f 10/25/36 5/12/4 68/199/6
f 15/38/33 5/12/4 6/14/41
f 6/14/41 5/12/4 10/25/36
f 3/7/24 5/13/4 14/35/30
f 15/39/33 14/35/30 5/13/4
f 66/189/13 67/194/89 63/177/19
s 0
f 2/4/90 1/3/90 63/178/90
s 1
f 58/159/14 56/149/18 55/143/15
s 0
f 56/150/91 8/20/92 55/144/91
f 8/21/93 61/170/93 55/145/93
f 61/170/94 62/175/94 2/5/94
f 2/5/95 67/195/95 66/190/95
f 2/5/96 66/190/96 55/145/96
s 1
f 10/25/36 68/199/6 29/76/37
f 11/26/25 16/41/27 30/79/28
f 16/41/27 4/9/26 17/45/34
f 4/9/26 14/36/30 31/81/32
f 51/133/68 59/164/67 50/132/2
f 46/121/42 32/83/10 25/62/12
f 37/95/31 33/84/45 32/83/10
f 37/95/31 38/97/46 34/85/44
f 38/97/46 24/59/40 23/58/47
f 35/87/11 59/164/67 25/61/12
f 43/112/56 21/52/43 25/62/12
f 15/40/33 6/15/41 24/60/40
f 12/30/7 19/48/35 40/103/8
f 42/110/38 41/107/39 60/168/66
f 20/51/51 48/125/54 39/101/52
f 21/53/43 43/113/56 16/42/27
f 44/117/49 30/80/28 16/43/27
f 31/82/32 46/122/42 21/54/43
f 20/51/51 40/104/8 47/123/58
f 40/104/8 19/49/35 36/90/48
f 33/84/45 34/85/44 35/88/11
f 66/191/13 57/152/97 58/160/14
f 64/182/20 57/153/97 66/192/13
f 50/131/2 52/136/1 26/66/60
f 22/56/57 51/133/68 49/129/62
f 27/68/61 51/133/68 50/132/2