# Blender 3.3.1
# www.blender.org
mtllib 16s.mtl
o Hammer_cell.016
v -0.320307 4.054391 2.887122
v -0.038068 3.757168 2.948538
v 0.145173 3.269734 2.948538
v 0.145185 3.270441 2.580043
v 0.090575 3.550307 5.520364
v -0.386758 4.110566 2.274118
v -0.407383 4.127936 4.236984
v -0.386813 4.110579 3.596051
v 0.122668 3.452230 2.580043
v 0.047706 3.639360 2.580043
v 0.122629 3.451678 2.948538
v 0.047589 3.639278 2.948538
v 0.117384 3.235932 5.534695
v 0.135480 3.375958 5.520364
v -0.069004 3.585267 5.577118
v 0.012574 3.692617 5.520364
v -1.142256 4.654801 4.280416
v -0.510615 4.221685 2.494529
v -0.258985 3.992836 2.605951
v -0.106364 3.834155 2.581002
v -0.183945 3.916156 2.940861
v -0.195810 3.926168 5.520364
v -0.107942 3.835460 5.520364
v -0.786270 4.452706 3.311294
v -0.659231 4.348421 3.280041
v -0.510658 4.221674 3.186913
v 0.047274 2.155579 5.576166
v 0.155650 2.207135 5.520364
v -0.358200 4.092285 2.697117
v 0.008274 3.123057 5.624595
v 0.045953 2.636805 5.577021
v 0.044283 2.831568 5.577355
v 0.154341 2.941588 2.948538
v 0.151229 3.124367 2.948538
v 0.151229 3.124099 5.520364
v 0.154341 2.941327 5.520364
v 0.155487 2.724964 5.520364
v -0.107915 3.835440 4.877388
v -0.107701 3.835265 4.234292
v -0.107180 3.834830 3.590997
v -0.195565 3.925961 4.877248
v -0.193836 3.924505 4.233173
v -0.189632 3.920958 3.587497
v -0.298401 4.026125 4.877066
v -0.293421 4.021925 4.231728
v -0.280344 4.010881 3.581390
v -0.661985 4.350523 3.720744
v -0.665796 4.353677 4.271423
v -0.522903 4.231428 3.664433
v -0.535098 4.241650 4.253724
v -0.220440 3.774794 5.585703
v 0.068291 3.028955 5.563280
v -0.030116 2.604436 5.712000
v -0.031604 2.797793 5.712307
v -0.034899 2.962469 5.712525
v -0.330579 3.937445 2.922630
v -0.185961 3.789280 2.947578
v -0.335004 3.815744 2.940861
v 0.022318 3.436772 5.563132
v -0.972005 4.589015 4.280354
v -0.971970 4.589034 3.746418
v -0.107063 3.834745 2.265512
v -0.107580 3.835176 1.950147
v -0.189543 3.920880 2.269013
v -0.193738 3.924423 1.951266
v -0.280278 4.010830 2.276328
v -0.661422 4.350985 2.787063
v -0.660109 4.349606 2.983886
v -0.515374 4.227268 2.653222
v -0.520320 4.232287 2.777386
v -0.515394 4.227264 2.926029
v -0.078545 3.375682 5.712342
v -0.015109 3.326244 5.624447
v -0.050489 3.211500 5.712595
v -1.317847 4.664963 4.664735
v -0.972087 4.588991 4.955120
v -0.305569 4.021681 5.524093
v -0.787455 4.453495 5.112259
v -0.890936 4.533247 5.024104
v -0.149048 3.614131 5.663708
v -0.109030 3.496094 5.699705
v -0.061129 3.090211 5.748577
v 0.047569 2.027883 5.575948
v -0.028850 2.101626 5.711169
v -1.199946 4.660768 4.161128
v -1.144334 4.654805 3.941835
v 0.155487 2.725170 3.353698
v -0.890707 4.533321 3.180662
v -0.465259 4.002556 2.732598
v -0.639045 4.331841 2.630534
v -0.107774 3.835343 1.649540
v 0.135508 3.376918 1.785988
v -0.194628 3.925177 1.787950
v 0.107474 3.506835 1.574862
v -0.484342 4.197797 2.318168
v -0.226026 3.664883 2.580043
v 0.152768 3.034925 2.580043
v -0.456752 3.934835 2.887122
v -1.091643 4.644269 3.746442
v -1.257686 4.663833 4.396753
v 0.145189 3.270488 2.014939
v -0.667700 4.355224 5.214407
v 0.012730 3.692648 1.503275
v -0.289318 3.768850 2.583314
v 0.151237 3.125116 2.357910
v -0.415176 4.134493 5.430103
v -0.971990 4.589050 3.382030
v -1.036439 4.624145 3.564739
v -1.141284 4.654797 4.812394
v -0.540595 4.246253 5.322927
v -0.293564 3.631823 2.948538
v -0.786386 4.452924 2.944699
v -0.375220 3.902781 2.605951
v -0.394994 4.117524 2.145016
v -0.293133 4.021697 1.958527
v 0.155650 1.870069 5.520364
vn -0.6398 0.0178 0.7684
vn -0.6397 0.0178 0.7684
vn -0.6396 0.0179 0.7685
vn 0.7331 0.6801 0.0001
vn 0.7035 0.7107 0.0018
vn 0.7323 0.6809 0.0001
vn 0.7575 0.6528 -0.0006
vn 0.7100 0.7042 0.0006
vn 0.6929 0.7210 0.0018
vn 0.6887 0.7250 0.0035
vn 0.7137 0.7004 0.0012
vn 0.5525 0.4548 -0.6985
vn 0.6965 0.7175 0.0028
vn 0.6585 0.0121 -0.7525
vn 0.6750 0.7378 0.0026
vn 0.6752 0.7376 0.0016
vn 0.4000 0.4038 0.8227
vn 0.6691 0.7143 0.2053
vn 0.4542 0.3813 0.8052
vn 0.7084 0.0079 -0.7058
vn 0.6458 0.0152 0.7634
vn 0.8532 0.0104 0.5215
vn 0.4718 0.2911 0.8322
vn 0.6255 0.3304 -0.7068
vn 0.5722 0.4238 -0.7022
vn 0.6043 0.7967 0.0002
vn 0.5970 0.8022 0.0001
vn 0.6228 0.7824 0.0002
vn 0.8262 0.0035 0.5634
vn 0.8693 0.0014 0.4943
vn 0.7549 0.0009 0.6558
vn 0.6574 0.7535 0.0009
vn 0.6563 0.7545 0.0034
vn 0.6420 0.7667 0.0007
vn 0.8897 -0.2796 0.3609
vn 0.2418 -0.4347 0.8675
vn 0.4526 0.1069 0.8853
vn 1.0000 0.0047 -0.0000
vn 0.8538 -0.0001 0.5206
vn 0.9316 -0.0000 0.3636
vn 0.5602 0.5159 0.6481
vn 0.2937 -0.0008 0.9559
vn 0.8686 0.0113 0.4953
vn 0.8691 0.0036 0.4947
vn 0.8257 0.0167 0.5639
vn 0.8675 0.0273 0.4968
vn 0.6816 0.7317 0.0026
vn 0.7922 0.0316 0.6094
vn 0.8652 0.0570 0.4982
vn 0.5832 -0.7084 -0.3974
vn 0.3729 -0.4310 -0.8217
vn 0.0903 -0.1122 -0.9896
vn 0.0099 -0.0164 -0.9998
vn 0.0587 -0.0541 -0.9968
vn 0.7468 0.6646 -0.0222
vn 0.5867 0.3596 0.7256
vn 0.7841 0.6206 0.0044
vn 0.3748 0.9270 -0.0107
vn 0.1000 0.9950 -0.0007
vn 0.0490 0.9988 -0.0002
vn 0.1073 0.9941 -0.0153
vn 0.5245 0.8514 -0.0000
vn 0.6630 0.2207 0.7154
vn 0.9876 0.1569 -0.0000
vn 0.9494 0.3140 0.0027
vn 0.8541 0.0027 0.5200
vn 0.4584 0.1568 0.8748
vn 0.7033 0.3837 0.5984
vn 0.7750 0.1785 0.6063
vn 0.5235 0.8520 -0.0002
vn 0.4649 0.8854 -0.0001
vn 0.3716 0.9283 -0.0145
vn 0.7140 0.7002 -0.0024
vn 0.6967 0.7174 -0.0020
vn 0.6963 0.7178 -0.0053
vn 0.6427 0.7661 0.0001
vn 0.6428 0.7660 0.0002
vn 0.6330 0.0586 0.7719
vn 0.7110 0.0471 -0.7016
vn 0.6481 0.2140 -0.7308
vn 0.6606 0.7507 0.0002
vn 0.6579 0.7531 0.0003
vn 0.7096 0.0208 -0.7043
vn 0.5443 0.8389 0.0001
vn 0.6561 0.7547 -0.0065
vn 0.6748 0.7380 -0.0048
vn 0.6635 0.7481 -0.0041
vn 0.6787 0.7344 -0.0029
vn 0.7102 0.7040 -0.0011
vn 0.7329 0.6803 -0.0002
vn 0.7147 0.6994 -0.0003
vn 0.7078 0.0820 0.7017
vn 0.9993 0.0386 -0.0000
vn 0.9964 0.0843 -0.0000
vn 0.2647 0.2161 0.9398
vn 0.6400 0.7683 0.0018
vn 0.6365 0.7713 -0.0002
vn 0.6232 0.7821 0.0004
vn 0.6532 0.7572 0.0070
vn 0.6480 0.7616 -0.0003
vn 0.1887 0.9820 -0.0007
vn 0.7077 0.4756 0.5225
vn 0.8047 0.3185 0.5010
vn 0.8361 0.2025 0.5098
vn 0.8577 0.1229 0.4993
vn 0.6013 0.1100 0.7914
vn 0.8648 0.0520 0.4993
vn 0.8587 0.0974 0.5031
vn -0.6396 0.0178 0.7685
vn -0.6397 0.0179 0.7685
vn -0.6397 0.0181 0.7684
vn -0.6397 0.0179 0.7684
vn -0.6396 0.0180 0.7685
vn -0.6397 0.0178 0.7685
vn -0.6397 0.0180 0.7685
vn -0.6397 0.0180 0.7684
vn -0.6398 0.0178 0.7683
vn -0.8400 -0.5047 -0.1992
vn -0.8400 -0.5048 -0.1991
vn -0.8400 -0.5048 -0.1990
vn -0.8401 -0.5047 -0.1990
vn -0.8398 -0.5050 -0.1992
vn -0.8400 -0.5048 -0.1989
vn -0.8400 -0.5048 -0.1988
vn -0.8398 -0.5050 -0.1993
vn -0.8400 -0.5049 -0.1990
vn -0.8399 -0.5049 -0.1990
vn -0.8399 -0.5049 -0.1989
vn -0.8401 -0.5047 -0.1987
vn -0.8401 -0.5048 -0.1988
vn 0.7400 0.6727 -0.0002
vn 0.6270 0.7791 -0.0000
vn 0.0738 -0.1003 0.9922
vn 0.0025 -0.0047 1.0000
vn 0.7096 0.0208 0.7043
vn 0.0425 0.9991 -0.0002
vn 0.0027 -0.0052 -1.0000
vn 0.5554 0.8316 -0.0000
vn 0.6457 0.7636 0.0001
vn 0.6438 0.7652 -0.0007
vn 0.6519 0.7582 -0.0098
vt 0.511473 0.528992
vt 0.530607 0.401480
vt 0.507863 0.526087
vt 0.515066 0.526087
vt 0.530607 0.407091
vt 0.534223 0.407092
vt 0.530607 0.384647
vt 0.530608 0.382855
vt 0.527248 0.526087
vt 0.525586 0.526087
vt 0.539818 0.526087
vt 0.530608 0.370298
vt 0.935650 0.551005
vt 0.937546 0.551005
vt 0.545071 0.372119
vt 0.545071 0.370330
vt 0.897149 0.083042
vt 0.429659 0.375675
vt 0.896047 0.085237
vt 0.897149 0.080995
vt 0.429659 0.377471
vt 0.557800 0.407887
vt 0.479833 0.408041
vt 0.504469 0.407876
vt 0.939442 0.551005
vt 0.943235 0.551005
vt 0.545071 0.373909
vt 0.545071 0.377487
vt 0.545071 0.382851
vt 0.948222 0.551005
vt 0.944897 0.551005
vt 0.545071 0.379275
vt 0.530608 0.372093
vt 0.530608 0.373888
vt 0.532234 0.526087
vt 0.534130 0.526087
vt 0.537922 0.526087
vt 0.530608 0.377477
vt 0.530608 0.381062
vt 0.530608 0.379270
vt 0.528910 0.526087
vt 0.530572 0.526087
vt 0.202330 0.924286
vt 0.897149 0.094520
vt 0.894945 0.094520
vt 0.897149 0.090445
vt 0.429659 0.372083
vt 0.893844 0.091816
vt 0.429659 0.373879
vt 0.896047 0.087709
vt 0.897149 0.087602
vt 0.429659 0.370287
vt 0.898251 0.080966
vt 0.211596 0.925728
vt 0.213466 0.925728
vt 0.898251 0.077065
vt 0.898251 0.079015
vt 0.209894 0.925728
vt 0.429659 0.382852
vt 0.896047 0.076631
vt 0.897149 0.078943
vt 0.429659 0.379265
vt 0.478328 0.443941
vt 0.478363 0.446205
vt 0.478331 0.439582
vt 0.478330 0.441827
vt 0.510949 0.052457
vt 0.483758 0.046709
vt 0.549149 0.414425
vt 0.545071 0.407092
vt 0.960414 0.553910
vt 0.956898 0.551005
vt 0.545071 0.401478
vt 0.545071 0.395865
vt 0.545071 0.384639
vt 0.949884 0.551005
vt 0.953658 0.553910
vt 0.545071 0.390252
vt 0.530607 0.390258
vt 0.530607 0.395869
vt 0.518573 0.526087
vt 0.522079 0.526087
vt 0.897149 0.066977
vt 0.624336 0.275587
vt 0.429659 0.395868
vt 0.429659 0.390257
vt 0.897149 0.070679
vt 0.429659 0.384645
vt 0.897149 0.074122
vt 0.516343 0.427494
vt 0.517394 0.421293
vt 0.520528 0.414425
vt 0.166073 0.923872
vt 0.898251 0.135829
vt 0.429659 0.325423
vt 0.893844 0.135829
vt 0.963913 0.553910
vt 0.500470 0.528992
vt 0.504167 0.526087
vt 0.537839 0.407092
vt 0.541455 0.407092
vt 0.198147 0.929226
vt 0.198376 0.925728
vt 0.181345 0.924286
vt 0.181079 0.925728
vt 0.898251 0.116189
vt 0.187753 0.925728
vt 0.898251 0.108064
vt 0.891076 0.429281
vt 0.530607 0.353983
vt 0.553664 0.526087
vt 0.546741 0.526087
vt 0.530607 0.362141
vt 0.429659 0.362130
vt 0.894945 0.100809
vt 0.893844 0.099940
vt 0.429659 0.353973
vt 0.893844 0.108064
vt 0.893844 0.116189
vt 0.429659 0.345816
vt 0.454896 0.390817
vt 0.480133 0.391038
vt 0.505370 0.390818
vt 0.505370 0.386397
vt 0.454896 0.396080
vt 0.480133 0.396176
vt 0.505370 0.396080
vt 0.454891 0.401745
vt 0.480095 0.401851
vt 0.505290 0.401746
vt 0.500152 0.421348
vt 0.478631 0.421442
vt 0.502057 0.414609
vt 0.479232 0.414708
vt 0.898251 0.069196
vt 0.215678 0.926204
vt 0.630884 0.322990
vt 0.633032 0.293975
vt 0.898251 0.075115
vt 0.897149 0.100809
vt 0.193602 0.925728
vt 0.898251 0.099940
vt 0.199064 0.924286
vt 0.868821 0.638730
vt 0.180977 0.929226
vt 0.813773 0.584093
vt 0.187662 0.929226
vt 0.767542 0.537445
vt 0.193433 0.929226
vt 0.515015 0.531897
vt 0.561698 0.174279
vt 0.518495 0.528992
vt 0.524561 0.531897
vt 0.521812 0.528992
vt 0.521707 0.531897
vt 0.518460 0.531897
vt 0.586286 0.195815
vt 0.612566 0.216874
vt 0.521801 0.534502
vt 0.898251 0.082916
vt 0.204618 0.924286
vt 0.206500 0.925728
vt 0.897149 0.085209
vt 0.898251 0.087366
vt 0.208238 0.925728
vt 0.478331 0.436810
vt 0.499289 0.436617
vt 0.557436 0.386418
vt 0.557436 0.390832
vt 0.569801 0.391189
vt 0.557436 0.396086
vt 0.569801 0.396249
vt 0.557468 0.401753
vt 0.536880 0.423873
vt 0.398878 0.029655
vt 0.536945 0.421269
vt 0.529081 0.421272
vt 0.542655 0.414360
vt 0.537325 0.414354
vt 0.531034 0.414360
vt 0.206485 0.929226
vt 0.663679 0.418777
vt 0.204472 0.925728
vt 0.679606 0.440328
vt 0.201897 0.925728
vt 0.201727 0.930377
vt 0.201732 0.929225
vt 0.701234 0.466426
vt 0.963574 0.054668
vt 1.000000 0.054341
vt 0.056257 0.053622
vt 0.461227 0.448496
vt 0.823684 0.075794
vt 0.451845 0.437412
vt 0.618183 0.262039
vt 0.429659 0.401480
vt 0.757311 0.114010
vt 0.445677 0.428528
vt 0.793437 0.091517
vt 0.449137 0.434364
vt 0.213493 0.927315
vt 0.632294 0.350697
vt 0.211608 0.928125
vt 0.208188 0.929226
vt 0.651883 0.400443
vt 0.209889 0.928730
vt 0.730118 0.498405
vt 0.198140 0.930655
vt 0.162500 0.925728
vt 0.161874 0.923872
vt 0.815209 0.781610
vt 0.826851 0.784893
vt 0.898251 0.141082
vt 1.000000 0.768069
vt 0.786757 0.773455
vt 0.164495 0.929226
vt 0.483011 0.446263
vt 0.123165 0.029998
vt 0.154710 0.020409
vt 0.491618 0.444045
vt 0.891513 0.491750
vt 0.514703 0.345433
vt 0.298553 0.013301
vt 0.521496 0.432670
vt 0.507827 0.531253
vt 0.500469 0.530360
vt 0.533719 0.138975
vt 0.534679 0.129405
vt 0.507836 0.528992
vt 0.429104 0.035216
vt 0.466188 0.042806
vt 0.541449 0.421271
vt 0.547012 0.418275
vt 0.742495 0.116828
vt 0.581594 0.391319
vt 0.880370 0.242833
vt 0.576238 0.370468
vt 0.693251 0.100524
vt 0.576188 0.396283
vt 0.581614 0.373394
vt 0.873115 0.216299
vt 0.586118 0.377487
vt 0.558277 0.411177
vt 0.528980 0.056644
vt 0.546587 0.060922
vt 0.555992 0.412906
vt 0.675362 0.208367
vt 0.950860 0.557609
vt 0.890062 0.371995
vt 0.928726 0.551005
vt 0.545071 0.362170
vt 0.510866 0.531897
vt 0.511454 0.531897
vt 0.543973 0.155654
vt 0.184785 0.013176
vt 0.499289 0.439537
vt 0.499288 0.441910
vt 0.090410 0.041170
vt 0.473762 0.448559
vt 0.885830 0.282106
vt 0.567252 0.366630
vt 0.717187 0.141725
vt 0.441665 0.421658
vt 0.587334 0.383914
vt 0.587275 0.379314
vt 0.782111 0.132276
vt 0.585367 0.387168
vt 0.620273 0.167559
vt 0.639488 0.181528
vt 0.956996 0.556364
vt 0.956969 0.553910
vt 0.953754 0.557050
vt 0.889219 0.337287
vt 0.553790 0.361485
vt 0.636383 0.203976
vt 0.433198 0.407201
vt 0.252460 0.009054
vt 0.513592 0.436595
vt 0.215909 0.009218
vt 0.506420 0.439546
vt 0.930766 0.055538
vt 0.459276 0.446085
vt 0.453963 0.439727
vt 0.675915 0.172458
vt 0.437403 0.414480
vt 0.637038 0.235672
vt 0.524816 0.535061
vt 0.530745 0.427490
vt 0.357710 0.022200
vt 0.528339 0.427490
vt 0.962283 0.555510
vt 0.496774 0.530396
vt 0.555585 0.130585
vt 0.590796 0.147890
vt 0.959319 0.555932
vt 0.579641 0.068699
vt 0.562659 0.407986
vt 0.569816 0.401734
vt 0.639159 0.084644
vt 0.569615 0.401920
vt 0.429659 0.311340
vt 0.891354 0.823909
vt 0.893844 0.149083
s 0
usemtl Hammer.023
f 102/262/1 75/190/2 54/146/3
s 1
f 39/122/4 41/125/5 38/121/6
f 40/123/7 42/126/8 39/122/4
f 41/125/5 45/129/9 44/128/10
f 43/127/11 45/129/9 42/126/8
f 21/79/12 43/127/11 40/123/7
f 21/80/12 46/130/13 43/127/11
f 1/2/14 8/24/15 46/130/13
f 45/129/9 8/24/15 7/23/16
f 22/85/17 44/128/10 77/196/18
f 38/121/6 22/85/17 23/86/19
f 33/110/20 35/114/21 36/117/22
f 16/59/23 12/39/24 2/8/25
f 88/224/26 79/200/27 24/90/28
f 31/105/29 84/216/30 83/209/31
f 49/133/32 7/23/16 8/24/15
f 26/92/33 8/24/15 1/5/14
f 25/91/34 49/133/32 26/92/33
f 29/97/35 113/291/36 19/71/37
f 87/222/38 28/95/39 116/301/40
f 51/135/41 23/87/19 22/83/17
f 27/93/42 31/104/29 83/210/31
f 28/96/39 31/106/29 27/94/42
f 31/105/29 54/147/43 53/145/44
f 32/107/45 55/149/46 54/147/43
f 44/128/10 7/23/16 106/276/47
f 83/213/31 28/96/39 27/94/42
f 52/141/48 30/102/49 55/149/46
f 89/225/50 1/1/14 98/252/51
f 113/292/36 29/98/35 89/226/50
f 56/152/52 57/155/53 58/156/54
f 21/81/12 57/154/53 56/152/52
f 1/1/14 56/150/52 98/253/51
f 62/168/55 10/29/56 103/264/57
f 17/64/58 85/217/59 100/259/60
f 109/283/61 60/166/62 17/65/58
f 9/27/63 92/237/64 94/240/65
f 32/108/45 37/119/66 36/118/22
f 5/17/67 15/53/68 59/160/69
f 61/167/70 17/65/58 60/166/62
f 61/167/70 108/280/71 99/256/72
f 64/171/73 115/300/74 66/173/75
f 48/132/76 47/131/77 24/90/28
f 14/47/78 3/12/79 11/33/80
f 110/285/81 7/23/16 50/134/82
f 34/113/83 14/52/78 35/114/21
f 36/117/22 87/222/38 33/110/20
f 35/115/21 52/140/48 36/118/22
f 16/62/23 11/38/80 12/40/24
f 60/166/62 76/194/84 79/200/27
f 50/134/82 47/131/77 48/132/76
f 10/32/56 94/242/65 103/265/57
f 18/69/85 19/70/37 6/22/86
f 95/243/87 6/22/86 114/297/88
f 62/169/55 65/172/89 64/171/73
f 63/170/90 93/239/91 65/172/89
f 65/172/89 93/239/91 115/298/74
f 4/16/92 105/274/93 101/261/94
f 66/173/75 114/297/88 6/22/86
f 20/78/95 64/171/73 19/74/37
f 68/177/96 67/174/97 112/288/98
f 67/176/97 71/180/99 70/179/100
f 112/290/98 25/91/34 68/177/96
f 68/177/96 26/92/33 71/180/99
f 70/179/100 1/6/14 29/100/35
f 18/69/85 29/101/35 19/70/37
f 85/217/59 17/63/58 86/220/101
f 15/54/68 80/201/102 81/203/103
f 80/201/102 15/55/68 51/136/41
f 72/181/104 73/183/105 59/162/69
f 73/183/105 13/43/106 59/161/69
f 59/162/69 81/204/103 72/181/104
f 82/208/107 30/102/49 74/186/108
f 74/187/108 30/103/49 73/185/105
f 73/185/105 52/143/48 13/43/106
s 0
f 80/202/3 51/137/3 72/182/3
f 51/138/109 22/84/110 77/195/111
f 51/138/112 77/195/113 106/275/112
f 80/202/114 72/182/3 81/205/3
f 72/182/112 51/137/3 73/184/112
f 74/188/3 73/184/115 51/137/116
f 55/148/116 82/207/3 51/138/112
f 82/207/116 74/188/115 51/138/116
f 53/144/112 54/146/3 75/190/112
f 54/146/3 55/148/113 102/262/3
f 75/190/3 102/262/112 78/197/112
f 75/190/3 84/214/3 53/144/1
f 109/281/1 75/189/117 79/199/2
f 79/199/112 75/190/3 78/197/110
f 79/199/1 76/193/112 109/281/112
f 110/284/117 102/262/117 51/138/112
f 51/138/112 102/262/112 55/148/112
f 106/275/113 110/284/113 51/138/113
f 83/211/118 84/215/119 75/191/120
f 87/221/121 83/211/120 75/191/120
f 75/191/120 100/258/120 87/221/120
f 100/258/120 85/218/120 87/221/122
f 85/218/122 86/219/122 111/286/122
f 86/219/123 99/255/124 58/158/124
f 58/157/125 108/279/125 107/277/125
f 99/255/122 108/279/122 58/157/122
f 56/151/120 107/277/120 88/223/120
f 88/223/120 112/289/120 98/254/120
f 112/289/122 67/175/122 89/227/122
f 67/175/122 90/230/122 89/227/125
f 112/289/123 89/227/123 98/254/123
f 18/67/122 95/244/122 113/293/122
f 90/231/122 18/68/122 89/228/122
f 89/228/125 18/68/126 113/293/123
f 88/223/126 98/254/123 56/151/127
f 107/277/128 56/151/128 58/157/123
f 87/221/122 116/302/122 83/212/122
f 95/245/122 114/296/123 113/294/122
f 114/296/129 115/299/124 104/269/129
f 113/294/122 114/296/122 104/268/122
f 33/109/122 87/221/122 111/286/122
f 111/286/126 87/221/122 85/218/126
f 115/299/124 93/238/130 96/247/124
f 93/238/122 91/234/122 92/236/122
f 101/260/122 93/238/122 92/236/122
f 91/234/125 103/266/125 94/241/125
f 94/241/122 92/236/122 91/234/122
f 101/260/124 105/273/122 96/247/122
f 105/273/122 97/249/122 96/247/122
f 96/247/122 104/269/122 115/299/122
f 101/260/122 96/247/122 93/238/122
f 58/158/122 111/286/124 86/219/122
s 1
f 39/122/4 42/126/8 41/125/5
f 40/123/7 43/127/11 42/126/8
f 41/125/5 42/126/8 45/129/9
f 43/127/11 46/130/13 45/129/9
f 2/7/25 21/79/12 40/123/7
f 21/80/12 1/2/14 46/130/13
f 45/129/9 46/130/13 8/24/15
f 62/168/55 103/267/57 63/170/90
f 103/267/57 91/235/131 63/170/90
f 22/85/17 41/125/5 44/128/10
f 38/121/6 41/125/5 22/85/17
f 33/110/20 34/113/83 35/114/21
f 78/198/132 24/90/28 79/200/27
f 24/90/28 112/290/98 88/224/26
f 31/105/29 53/145/44 84/216/30
f 49/133/32 50/134/82 7/23/16
f 26/92/33 49/133/32 8/24/15
f 25/91/34 47/131/77 49/133/32
f 19/71/37 113/295/36 104/270/133
f 13/44/106 52/140/48 35/115/21
f 19/72/37 104/271/133 20/77/95
f 87/222/38 37/120/66 28/95/39
f 28/96/39 37/119/66 31/106/29
f 35/116/21 14/48/78 13/45/106
f 31/105/29 32/107/45 54/147/43
f 32/107/45 52/141/48 55/149/46
f 5/18/67 14/49/78 11/34/80
f 106/276/47 77/196/18 44/128/10
f 44/128/10 45/129/9 7/23/16
f 83/213/31 116/303/40 28/96/39
f 55/149/46 30/102/49 82/208/107
f 29/99/35 1/3/14 89/229/50
f 1/4/14 21/81/12 56/152/52
f 23/88/19 40/124/7 39/122/4
f 23/88/19 39/122/4 38/121/6
f 40/124/7 23/88/19 16/59/23
f 16/59/23 2/8/25 40/124/7
f 62/168/55 20/75/95 10/29/56
f 20/76/95 96/248/134 10/30/56
f 4/13/92 96/248/134 97/250/135
f 4/14/92 9/25/63 96/248/134
f 9/26/63 10/31/56 96/248/134
f 100/259/60 75/192/136 109/282/61
f 109/282/61 17/64/58 100/259/60
f 109/283/61 76/194/84 60/166/62
f 9/27/63 4/15/92 92/237/64
f 101/261/94 92/237/64 4/15/92
f 32/108/45 31/106/29 37/119/66
f 2/9/25 12/41/24 57/153/53
f 12/42/24 11/35/80 57/153/53
f 11/36/80 111/287/137 57/153/53
f 11/37/80 3/11/79 111/287/137
f 3/11/79 34/112/83 111/287/137
f 34/112/83 33/111/20 111/287/137
f 14/50/78 5/19/67 59/163/69
f 21/82/12 2/10/25 57/154/53
f 13/46/106 14/51/78 59/164/69
f 51/139/41 15/56/68 23/89/19
f 15/56/68 16/60/23 23/89/19
f 5/20/67 16/61/23 15/57/68
f 111/287/137 58/159/54 57/155/53
f 61/167/70 99/256/72 17/65/58
f 61/167/70 107/278/138 108/280/71
f 17/66/58 99/257/72 86/220/101
f 64/171/73 65/172/89 115/300/74
f 25/91/34 24/90/28 47/131/77
f 24/90/28 78/198/132 48/132/76
f 78/198/132 102/263/139 48/132/76
f 110/285/81 106/276/47 7/23/16
f 34/113/83 3/12/79 14/52/78
f 37/120/66 87/222/38 36/117/22
f 52/142/48 32/108/45 36/118/22
f 16/62/23 5/21/67 11/38/80
f 79/200/27 88/224/26 60/166/62
f 88/224/26 107/278/138 61/167/70
f 88/224/26 61/167/70 60/166/62
f 48/132/76 102/263/139 50/134/82
f 102/263/139 110/285/81 50/134/82
f 50/134/82 49/133/32 47/131/77
f 10/32/56 9/28/63 94/242/65
f 6/22/86 95/246/87 18/69/85
f 62/169/55 63/170/90 65/172/89
f 63/170/90 91/235/131 93/239/91
f 20/77/95 104/272/133 96/248/134
f 4/16/92 97/251/135 105/274/93
f 66/173/75 115/300/74 114/297/88
f 19/73/37 66/173/75 6/22/86
f 19/74/37 64/171/73 66/173/75
f 20/78/95 62/169/55 64/171/73
f 90/232/140 67/176/97 70/179/100
f 70/179/100 69/178/141 90/232/140
f 67/176/97 68/177/96 71/180/99
f 112/290/98 24/90/28 25/91/34
f 68/177/96 25/91/34 26/92/33
f 71/180/99 26/92/33 1/5/14
f 70/179/100 71/180/99 1/6/14
f 69/178/141 70/179/100 29/100/35
f 18/69/85 69/178/141 29/101/35
f 69/178/141 18/69/85 90/233/140
f 59/165/69 15/58/68 81/206/103
f 73/185/105 30/103/49 52/143/48