# Blender 3.3.1
# www.blender.org
mtllib 16s.mtl
o Hammer_cell.016
v 0.186768 3.381545 2.939404
v -0.386778 4.288158 2.212221
v 0.162502 3.578317 2.673892
v 0.081550 3.779999 2.939404
v -1.340167 4.868401 4.373261
v -0.605997 4.449029 2.456231
v -0.249009 4.161217 2.636813
v -0.261594 3.952258 5.718259
v -0.626613 4.430606 3.202271
v 0.023705 2.197076 5.682812
v 0.196654 3.027725 2.939404
v 0.018268 3.185477 5.707053
v -0.203455 4.002881 3.639378
v -0.336997 4.066910 5.025106
v -0.423362 4.187515 4.329202
v -0.326204 4.101493 2.911469
v -1.176751 4.779524 5.103560
v 0.087517 2.813080 3.362000
v -0.146420 4.055057 1.547461
v 0.176347 3.497113 1.685903
v 0.146120 3.637195 1.458259
v -0.301392 3.846574 2.652842
v 0.194957 3.128365 2.652892
v 0.186785 3.382357 1.932765
v 0.193307 3.225612 2.302569
v -1.017795 4.804076 3.406810
v -1.204832 4.854386 3.604450
v -0.722354 4.400304 5.503584
v -0.286293 3.771961 2.939404
v -0.817671 4.657300 2.935265
v -0.285828 4.192336 1.871940
vn -0.6607 -0.0012 0.7506
vn -0.6607 -0.0011 0.7507
vn -0.6605 -0.0010 0.7508
vn 0.7221 0.6908 0.0376
vn 0.7254 0.6872 0.0388
vn 0.5421 0.7109 0.4480
vn 0.2893 0.2144 -0.9329
vn 0.6910 0.7223 0.0303
vn 0.7048 0.7064 0.0652
vn 0.4316 0.3613 0.8265
vn 0.6803 0.7299 0.0667
vn 0.6286 0.0441 -0.7765
vn 0.4408 -0.0451 -0.8965
vn 0.7236 0.6901 -0.0118
vn 0.6188 0.1129 0.7774
vn 0.7966 0.5959 -0.1017
vn 0.9875 0.1576 0.0003
vn 0.5883 0.1271 0.7986
vn 0.9574 -0.2798 0.0718
vn 0.7326 -0.0522 -0.6786
vn 0.6624 0.1643 -0.7309
vn 0.6083 0.3934 -0.6894
vn 0.5238 0.8511 0.0355
vn 0.5435 0.8387 0.0358
vn 0.5962 0.8020 0.0363
vn 0.6214 0.7819 0.0497
vn 0.4407 0.2801 0.8529
vn 0.9992 0.0393 -0.0010
vn 0.9964 0.0843 -0.0000
vn 0.7170 0.6954 0.0483
vn 0.9501 -0.1500 -0.2734
vn 0.9975 0.0190 -0.0684
vn -0.6606 -0.0010 0.7508
vn -0.8339 -0.4996 -0.2344
vn -0.8339 -0.4997 -0.2344
vn -0.8338 -0.4998 -0.2344
vn -0.8337 -0.4999 -0.2347
vn -0.7456 -0.1741 -0.6432
vn -0.7394 -0.1747 -0.6502
vn -0.7404 -0.1745 -0.6491
vn -0.8519 0.2542 -0.4580
vn -0.8546 0.2561 -0.4518
vn -0.8589 0.2587 -0.4421
vn -0.8252 -0.5612 -0.0639
vn -0.8195 -0.5690 -0.0687
vn -0.8239 -0.5630 -0.0648
vn -0.8408 -0.5254 -0.1304
vn -0.8428 -0.5238 -0.1242
vn -0.8419 -0.5245 -0.1269
vn -0.8303 -0.5259 -0.1846
vn -0.8302 -0.5259 -0.1846
vn -0.7335 -0.6381 -0.2343
vn -0.7334 -0.6391 -0.2317
vn -0.7334 -0.6398 -0.2298
vn -0.8001 -0.4705 -0.3720
vn -0.7996 -0.4720 -0.3713
vn -0.7983 -0.4753 -0.3698
vn -0.8092 -0.4705 -0.3518
vn -0.8094 -0.4704 -0.3516
vn -0.8540 -0.5140 -0.0803
vn -0.8398 -0.5050 -0.1992
vn -0.8209 -0.5285 -0.2162
vn -0.8191 -0.5332 -0.2116
vn -0.8131 -0.5619 -0.1522
vn -0.8050 -0.5363 -0.2535
vn -0.8050 -0.5356 -0.2550
vn -0.8050 -0.5359 -0.2543
vn -0.8280 -0.5103 -0.2323
vn -0.8145 -0.5060 -0.2837
vn -0.8123 -0.5088 -0.2851
vn -0.8104 -0.5110 -0.2867
vn 0.7278 0.6858 -0.0012
vn 0.8392 -0.0129 0.5437
vn 0.1680 0.2371 0.9568
vn -0.0491 0.0660 0.9966
vn 0.7005 0.0231 0.7133
vn 0.0027 -0.0051 -1.0000
vn 0.4890 0.8707 0.0526
vn 0.3648 0.9311 -0.0065
vn 0.7130 0.7012 0.0022
vn 0.1737 0.1662 0.9707
vt 0.530608 0.377477
vt 0.530607 0.362141
vt 0.532234 0.526087
vt 0.534130 0.526087
vt 0.546741 0.526087
vt 0.557800 0.407887
vt 0.546587 0.060922
vt 0.557436 0.386418
vt 0.569801 0.391189
vt 0.531034 0.414360
vt 0.545071 0.373909
vt 0.545071 0.382851
vt 0.948222 0.551005
vt 0.935650 0.551005
vt 0.545071 0.372119
vt 0.545071 0.370330
vt 0.530608 0.379270
vt 0.530607 0.384647
vt 0.530608 0.382855
vt 0.530572 0.526087
vt 1.000000 0.054341
vt 0.056257 0.053622
vt 0.090410 0.041170
vt 0.478331 0.436810
vt 0.511454 0.531897
vt 0.549149 0.414425
vt 0.529081 0.421272
vt 0.398878 0.029655
vt 0.543973 0.155654
vt 0.620273 0.167559
vt 0.639488 0.181528
vt 0.953754 0.557050
vt 0.511473 0.528992
vt 0.545071 0.407092
vt 0.533719 0.138975
vt 0.590796 0.147890
vt 0.530607 0.401480
vt 0.545071 0.384639
vt 0.949884 0.551005
vt 0.953658 0.553910
vt 0.530607 0.407091
vt 0.429659 0.390257
vt 0.633032 0.293975
vt 0.429659 0.384645
vt 0.517394 0.421293
vt 0.505370 0.396080
vt 0.505290 0.401746
vt 0.516343 0.427494
vt 0.520528 0.414425
vt 1.000000 0.768069
vt 0.815209 0.781610
vt 0.429659 0.325423
vt 0.891076 0.429281
vt 0.530607 0.353983
vt 0.553664 0.526087
vt 0.813773 0.584093
vt 0.429659 0.353973
vt 0.429659 0.379265
vt 0.868821 0.638730
vt 0.767542 0.537445
vt 0.429659 0.362130
vt 0.429659 0.345816
vt 0.429659 0.382852
vt 0.505370 0.390818
vt 0.505370 0.386397
vt 0.454896 0.396080
vt 0.454896 0.390817
vt 0.480095 0.401851
vt 0.480133 0.396176
vt 0.480133 0.391038
vt 0.478631 0.421442
vt 0.515015 0.531897
vt 0.586286 0.195815
vt 0.561698 0.174279
vt 0.612566 0.216874
vt 0.530607 0.390258
vt 0.530607 0.395869
vt 0.524561 0.531897
vt 0.451845 0.437412
vt 0.891513 0.491750
vt 0.514703 0.345433
vt 0.742495 0.116828
vt 0.581594 0.391319
vt 0.880370 0.242833
vt 0.576238 0.370468
vt 0.587334 0.383914
vt 0.581614 0.373394
vt 0.873115 0.216299
vt 0.585367 0.387168
vt 0.675362 0.208367
vt 0.950860 0.557609
vt 0.890062 0.371995
vt 0.928726 0.551005
vt 0.545071 0.362170
vt 0.885830 0.282106
vt 0.567252 0.366630
vt 0.889219 0.337287
vt 0.553790 0.361485
vt 0.252460 0.009054
vt 0.298553 0.013301
vt 0.521496 0.432670
vt 0.215909 0.009218
vt 0.123165 0.029998
vt 0.154710 0.020409
vt 0.499289 0.436617
vt 0.454891 0.401745
vt 0.429659 0.395868
vt 0.717187 0.141725
vt 0.445677 0.428528
vt 0.449137 0.434364
vt 0.637038 0.235672
vt 0.524816 0.535061
vt 0.357710 0.022200
vt 0.528339 0.427490
vt 0.579641 0.068699
vt 0.639159 0.084644
vt 0.693251 0.100524
vt 0.576188 0.396283
s 0
usemtl Hammer.023
f 28/108/1 5/21/2 12/56/3
s 1
f 14/66/4 15/68/5 28/106/6
f 16/76/7 9/46/8 13/64/9
f 14/67/4 28/107/6 8/42/10
f 26/101/11 28/110/6 9/48/8
f 7/33/12 16/72/7 6/25/13
f 2/8/14 3/12/15 21/86/16
f 3/11/15 20/85/17 21/87/16
f 12/57/18 18/81/19 11/54/20
f 12/58/18 1/1/21 4/17/22
f 5/24/23 17/79/24 28/110/25
f 6/26/26 7/34/27 2/6/14
f 3/16/15 25/98/28 24/96/29
f 30/114/30 9/45/8 6/27/31
f 6/27/31 9/49/8 2/10/32
s 0
f 5/21/33 10/50/33 12/59/2
f 8/43/2 28/108/2 12/60/2
f 18/80/34 10/51/35 5/22/35
f 5/23/36 27/103/36 18/80/37
f 16/73/38 27/102/39 26/99/40
f 26/100/41 30/113/42 6/29/43
f 30/113/44 6/28/45 7/35/46
f 26/100/47 6/29/48 16/74/49
f 2/7/50 31/115/51 7/36/50
f 7/36/52 31/115/53 6/30/54
f 11/53/55 18/80/56 29/111/57
f 29/111/58 18/80/58 27/103/59
f 31/117/60 19/82/60 20/84/60
f 24/95/61 31/117/61 20/84/61
f 21/88/62 20/84/62 19/82/62
f 24/95/63 25/97/63 22/90/63
f 25/97/64 23/92/64 22/90/64
f 22/90/65 6/31/66 31/116/67
f 24/95/68 22/90/68 31/117/68
f 16/75/69 29/111/70 27/104/71
s 1
f 13/64/9 9/46/8 15/69/5
f 4/18/22 16/76/7 13/64/9
f 16/77/7 7/37/12 9/47/8
f 21/89/16 19/83/72 2/9/14
f 11/54/20 1/2/21 12/61/18
f 9/48/8 30/114/30 26/101/11
f 18/81/19 12/62/18 10/52/73
f 8/44/10 13/65/9 15/70/5
f 8/44/10 15/70/5 14/67/4
f 13/65/9 8/44/10 12/63/18
f 12/63/18 4/19/22 13/65/9
f 2/8/14 7/38/74 3/12/15
f 7/39/74 22/91/75 3/13/15
f 3/14/15 22/91/75 23/93/76
f 24/96/29 20/85/17 3/15/15
f 4/20/22 1/3/21 16/78/7
f 1/4/21 29/112/77 16/78/7
f 1/5/21 11/55/20 29/112/77
f 9/48/8 28/109/6 15/71/5
f 28/110/6 26/101/11 5/24/78
f 26/101/11 27/105/79 5/24/78
f 2/9/14 19/83/72 31/118/80
f 7/40/74 6/32/81 22/91/75
f 3/16/15 23/94/76 25/98/28
f 2/10/32 9/49/8 7/41/12
