# Blender 3.3.1
# www.blender.org
mtllib 16s.mtl
o Hammer_cell.016
v -0.332186 4.204747 2.925352
v -0.039480 3.896502 2.989045
v 0.150557 3.390991 2.989045
v 0.150569 3.391725 2.606885
v -0.401101 4.263005 2.289614
v 0.127217 3.580255 2.606885
v 0.049475 3.774324 2.606885
v 0.127177 3.579683 2.989045
v 0.049354 3.774240 2.989045
v -1.318105 4.821104 4.368181
v -0.611954 4.417737 2.524313
v -0.268589 4.140909 2.633754
v -0.110309 3.976343 2.607880
v -0.190766 4.061386 2.981084
v -0.280694 3.939924 5.661849
v -0.631782 4.400017 3.241881
v -0.006283 2.251727 5.627755
v -0.371484 4.244046 2.728301
v 0.160065 3.050676 2.989045
v 0.156838 3.240233 2.989045
v -0.011512 3.202407 5.651071
v -0.224774 3.988615 3.662306
v -0.353219 4.050201 4.995149
v -0.436288 4.166203 4.325804
v -0.342838 4.083464 2.962176
v -0.192857 3.929805 2.988050
v -0.347427 3.957250 2.981084
v -0.111034 3.976955 2.280690
v -0.111570 3.977402 1.953630
v -0.196572 4.066285 2.284320
v -0.200923 4.069959 1.954790
v -0.290672 4.159571 2.291907
v -0.534487 4.384035 2.682778
v -0.539616 4.389240 2.811547
v -0.534507 4.384031 2.965702
v -1.160925 4.735619 5.070609
v 0.055093 2.844222 3.395514
v -0.923738 4.701438 3.229778
v -0.482513 4.150989 2.765097
v -0.662744 4.492486 2.659249
v -0.169915 4.038800 1.650225
v 0.140533 3.502150 1.783383
v -0.201846 4.070741 1.785418
v 0.111460 3.636885 1.564427
v -0.502304 4.353471 2.335299
v -0.318973 3.838274 2.606836
v 0.158433 3.147475 2.606885
v 0.150573 3.391773 2.020824
v 0.013203 3.829589 1.490185
v 0.156846 3.241010 2.376514
v -1.008035 4.759233 3.438613
v -1.187935 4.807624 3.628711
v -0.723870 4.370872 5.455367
v -0.304451 3.766508 2.989045
v -0.815549 4.618059 2.985064
v -0.389135 4.047514 2.633754
v -0.409642 4.270221 2.155725
v -0.304003 4.170840 1.962320
vn -0.6607 -0.0012 0.7506
vn -0.6607 -0.0011 0.7507
vn -0.6605 -0.0010 0.7508
vn 0.7221 0.6908 0.0376
vn 0.7254 0.6872 0.0388
vn 0.5421 0.7109 0.4480
vn 0.5736 0.4899 -0.6565
vn 0.6910 0.7223 0.0303
vn 0.7048 0.7064 0.0652
vn 0.4316 0.3613 0.8265
vn 0.5883 0.1271 0.7986
vn 0.6440 0.3396 -0.6855
vn 0.5894 0.4522 -0.6694
vn 0.6803 0.7299 0.0667
vn 0.9067 -0.2740 0.3207
vn 0.3075 -0.4736 0.8253
vn 0.4610 0.0910 0.8827
vn 0.5533 -0.6588 -0.5098
vn 0.6286 0.0441 -0.7765
vn 0.4408 -0.0451 -0.8965
vn 0.0510 -0.1194 -0.9915
vn 0.0099 -0.0164 -0.9998
vn 0.0587 -0.0541 -0.9968
vn 0.7468 0.6646 -0.0222
vn 0.5867 0.3597 0.7255
vn 0.7745 0.6325 -0.0104
vn 0.6629 0.2208 0.7154
vn 0.9876 0.1569 -0.0000
vn 0.9494 0.3140 0.0027
vn 0.7140 0.7002 -0.0024
vn 0.6967 0.7174 -0.0020
vn 0.6963 0.7178 -0.0053
vn 0.7330 0.0491 -0.6785
vn 0.6700 0.2201 -0.7090
vn 0.9573 -0.2799 0.0717
vn 0.7326 -0.0522 -0.6786
vn 0.5238 0.8511 0.0355
vn 0.5435 0.8387 0.0358
vn 0.5962 0.8020 0.0363
vn 0.6257 0.7783 0.0533
vn 0.5351 0.1517 0.8311
vn 0.6676 0.7444 0.0141
vn 0.6915 0.7104 0.1309
vn 0.6784 0.7347 -0.0029
vn 0.7102 0.7040 -0.0011
vn 0.7330 0.6802 -0.0010
vn 0.7130 0.7012 0.0021
vn 0.7077 0.0820 0.7017
vn 0.9993 0.0386 -0.0000
vn 0.9964 0.0843 -0.0000
vn 0.2818 0.2165 0.9347
vn 0.9502 -0.1500 -0.2734
vn 0.9714 -0.2367 -0.0169
vn 0.9430 -0.2249 -0.2452
vn 0.7170 0.6954 0.0483
vn 0.6583 0.7382 -0.1473
vn -0.6606 -0.0010 0.7508
vn -0.8339 -0.4996 -0.2344
vn -0.8339 -0.4997 -0.2344
vn -0.8338 -0.4998 -0.2344
vn -0.8337 -0.4999 -0.2347
vn -0.7456 -0.1740 -0.6433
vn -0.7394 -0.1747 -0.6502
vn -0.7404 -0.1745 -0.6491
vn -0.8400 -0.5048 -0.1990
vn -0.8518 0.2542 -0.4580
vn -0.8546 0.2561 -0.4518
vn -0.8589 0.2587 -0.4421
vn -0.8252 -0.5611 -0.0639
vn -0.8195 -0.5690 -0.0687
vn -0.8239 -0.5630 -0.0649
vn -0.6787 -0.6422 -0.3563
vn -0.6813 -0.6331 -0.3676
vn -0.6859 -0.6199 -0.3812
vn -0.8865 -0.4572 0.0719
vn -0.8769 -0.4749 0.0744
vn -0.8879 -0.4545 0.0713
vn -0.7978 -0.5934 -0.1064
vn -0.7941 -0.5973 -0.1125
vn -0.7992 -0.5920 -0.1042
vn -0.8408 -0.5254 -0.1304
vn -0.8428 -0.5238 -0.1242
vn -0.8419 -0.5245 -0.1269
vn -0.8399 -0.5049 -0.1989
vn -0.8400 -0.5048 -0.1989
vn -0.8398 -0.5050 -0.1992
vn -0.7624 0.2801 -0.5833
vn -0.7678 0.2858 -0.5735
vn -0.7548 0.2711 -0.5973
vn -0.7473 -0.6131 -0.2562
vn -0.7471 -0.6157 -0.2506
vn -0.7471 -0.6150 -0.2521
vn -0.8001 -0.4705 -0.3720
vn -0.7996 -0.4720 -0.3713
vn -0.7983 -0.4753 -0.3698
vn -0.8094 -0.4704 -0.3516
vn -0.8092 -0.4705 -0.3518
vn -0.8624 -0.4415 -0.2476
vn -0.8625 -0.4415 -0.2475
vn -0.8540 -0.5140 -0.0803
vn -0.8163 -0.5161 -0.2593
vn -0.8209 -0.5285 -0.2162
vn -0.8028 -0.5540 -0.2204
vn -0.8026 -0.5542 -0.2208
vn -0.8026 -0.5547 -0.2197
vn -0.8190 -0.5012 -0.2794
vn -0.8190 -0.5006 -0.2805
vn -0.8190 -0.5018 -0.2782
vn -0.8164 -0.5146 -0.2620
vn -0.8145 -0.5060 -0.2837
vn -0.8123 -0.5088 -0.2851
vn -0.8104 -0.5110 -0.2867
vn 0.7278 0.6858 -0.0012
vn 0.7315 0.0215 -0.6814
vn 0.1469 -0.1309 0.9804
vn 0.2377 0.0145 0.9712
vn 0.8392 -0.0129 0.5437
vn 0.0143 0.0183 0.9997
vn 0.6744 0.0038 0.7384
vn 0.0027 -0.0052 -1.0000
vn 0.4890 0.8707 0.0526
vn 0.4353 -0.7696 0.4671
vn 0.3648 0.9311 -0.0065
vn 0.6224 0.7731 -0.1223
vn 0.6617 0.7439 -0.0934
vt 0.511473 0.528992
vt 0.530607 0.401480
vt 0.507863 0.526087
vt 0.515066 0.526087
vt 0.530607 0.407091
vt 0.534223 0.407092
vt 0.530607 0.384647
vt 0.530608 0.382855
vt 0.527248 0.526087
vt 0.525586 0.526087
vt 0.539818 0.526087
vt 0.530608 0.370298
vt 0.935650 0.551005
vt 0.937546 0.551005
vt 0.545071 0.372119
vt 0.545071 0.370330
vt 0.557800 0.407887
vt 0.939442 0.551005
vt 0.943235 0.551005
vt 0.545071 0.373909
vt 0.545071 0.377487
vt 0.545071 0.382851
vt 0.948222 0.551005
vt 0.944897 0.551005
vt 0.545071 0.379275
vt 0.530608 0.372093
vt 0.530608 0.377477
vt 0.532234 0.526087
vt 0.534130 0.526087
vt 0.537922 0.526087
vt 0.530608 0.381062
vt 0.530608 0.379270
vt 0.528910 0.526087
vt 0.530572 0.526087
vt 1.000000 0.054341
vt 0.056257 0.053622
vt 0.090410 0.041170
vt 0.478331 0.436810
vt 0.510866 0.531897
vt 0.511454 0.531897
vt 0.529081 0.421272
vt 0.398878 0.029655
vt 0.510949 0.052457
vt 0.483758 0.046709
vt 0.543973 0.155654
vt 0.620273 0.167559
vt 0.639488 0.181528
vt 0.956996 0.556364
vt 0.956969 0.553910
vt 0.953754 0.557050
vt 0.536945 0.421269
vt 0.549149 0.414425
vt 0.545071 0.407092
vt 0.960414 0.553910
vt 0.956898 0.551005
vt 0.545071 0.401478
vt 0.545071 0.395865
vt 0.545071 0.384639
vt 0.949884 0.551005
vt 0.953658 0.553910
vt 0.545071 0.390252
vt 0.530607 0.390258
vt 0.530607 0.395869
vt 0.518573 0.526087
vt 0.522079 0.526087
vt 0.429659 0.390257
vt 0.633032 0.293975
vt 0.429659 0.384645
vt 0.517394 0.421293
vt 0.505370 0.396080
vt 0.505290 0.401746
vt 0.516343 0.427494
vt 0.520528 0.414425
vt 1.000000 0.768069
vt 0.815209 0.781610
vt 0.429659 0.325423
vt 0.963913 0.553910
vt 0.500470 0.528992
vt 0.504167 0.526087
vt 0.537839 0.407092
vt 0.541455 0.407092
vt 0.891076 0.429281
vt 0.530607 0.353983
vt 0.553664 0.526087
vt 0.546741 0.526087
vt 0.530607 0.362141
vt 0.813773 0.584093
vt 0.429659 0.372083
vt 0.429659 0.353973
vt 0.429659 0.379265
vt 0.868821 0.638730
vt 0.767542 0.537445
vt 0.429659 0.362130
vt 0.429659 0.345816
vt 0.429659 0.382852
vt 0.429659 0.370287
vt 0.505370 0.390818
vt 0.505370 0.386397
vt 0.454896 0.396080
vt 0.454896 0.390817
vt 0.480095 0.401851
vt 0.480133 0.396176
vt 0.480133 0.391038
vt 0.478631 0.421442
vt 0.515015 0.531897
vt 0.561698 0.174279
vt 0.518495 0.528992
vt 0.524561 0.531897
vt 0.521812 0.528992
vt 0.521707 0.531897
vt 0.518460 0.531897
vt 0.586286 0.195815
vt 0.612566 0.216874
vt 0.521801 0.534502
vt 0.557436 0.386418
vt 0.557436 0.390832
vt 0.569801 0.391189
vt 0.557436 0.396086
vt 0.569801 0.396249
vt 0.557468 0.401753
vt 0.542655 0.414360
vt 0.537325 0.414354
vt 0.531034 0.414360
vt 0.451845 0.437412
vt 0.891513 0.491750
vt 0.514703 0.345433
vt 0.298553 0.013301
vt 0.521496 0.432670
vt 0.507827 0.531253
vt 0.500469 0.530360
vt 0.533719 0.138975
vt 0.534679 0.129405
vt 0.507836 0.528992
vt 0.466188 0.042806
vt 0.541449 0.421271
vt 0.547012 0.418275
vt 0.742495 0.116828
vt 0.581594 0.391319
vt 0.880370 0.242833
vt 0.576238 0.370468
vt 0.693251 0.100524
vt 0.576188 0.396283
vt 0.581614 0.373394
vt 0.873115 0.216299
vt 0.586118 0.377487
vt 0.558277 0.411177
vt 0.528980 0.056644
vt 0.546587 0.060922
vt 0.555992 0.412906
vt 0.675362 0.208367
vt 0.950860 0.557609
vt 0.890062 0.371995
vt 0.928726 0.551005
vt 0.545071 0.362170
vt 0.885830 0.282106
vt 0.567252 0.366630
vt 0.587334 0.383914
vt 0.587275 0.379314
vt 0.782111 0.132276
vt 0.585367 0.387168
vt 0.889219 0.337287
vt 0.553790 0.361485
vt 0.252460 0.009054
vt 0.513592 0.436595
vt 0.215909 0.009218
vt 0.123165 0.029998
vt 0.154710 0.020409
vt 0.499289 0.436617
vt 0.454891 0.401745
vt 0.429659 0.395868
vt 0.717187 0.141725
vt 0.445677 0.428528
vt 0.449137 0.434364
vt 0.637038 0.235672
vt 0.524816 0.535061
vt 0.357710 0.022200
vt 0.528339 0.427490
vt 0.962283 0.555510
vt 0.496774 0.530396
vt 0.555585 0.130585
vt 0.590796 0.147890
vt 0.959319 0.555932
vt 0.579641 0.068699
vt 0.562659 0.407986
vt 0.569816 0.401734
vt 0.639159 0.084644
vt 0.569615 0.401920
s 0
usemtl Hammer.023
f 53/171/1 10/35/2 21/87/3
s 1
f 23/99/4 24/101/5 53/169/6
f 14/62/7 16/70/8 22/97/9
f 23/100/4 53/170/6 15/66/10
f 21/95/11 9/31/12 2/8/13
f 38/128/14 53/173/6 16/72/8
f 18/77/15 56/178/16 12/54/17
f 39/129/18 1/1/19 11/39/20
f 56/179/16 18/78/15 39/130/18
f 25/107/21 26/110/22 27/111/23
f 14/64/7 26/109/22 25/107/21
f 1/1/19 25/105/21 11/40/20
f 28/115/24 7/22/25 49/157/26
f 6/20/27 42/140/28 44/143/29
f 30/118/30 58/187/31 32/120/32
f 21/88/11 3/12/33 8/26/34
f 21/89/11 37/126/35 19/83/36
f 21/90/11 8/27/34 9/32/12
f 10/38/37 36/124/38 53/173/39
f 7/25/25 44/145/29 49/158/26
f 11/52/40 12/53/41 5/17/42
f 45/146/43 5/17/42 57/184/44
f 28/116/24 31/119/45 30/118/30
f 29/117/46 43/142/47 31/119/45
f 31/119/45 43/142/47 58/185/31
f 4/16/48 50/162/49 48/156/50
f 32/120/32 57/184/44 5/17/42
f 13/61/51 30/118/30 12/57/41
f 11/51/52 35/123/53 34/122/54
f 55/177/55 16/69/8 11/41/52
f 11/41/52 16/73/8 35/123/53
f 34/122/54 1/6/19 18/80/15
f 11/52/56 18/81/15 12/53/17
s 0
f 10/35/57 17/74/57 21/91/2
f 15/67/2 53/171/2 21/92/2
f 37/125/58 17/75/59 10/36/59
f 10/37/60 52/166/60 37/125/61
f 27/112/62 52/165/63 51/163/64
f 25/106/65 51/163/65 38/127/65
f 38/127/66 55/176/67 11/45/68
f 55/176/69 11/42/70 39/131/71
f 11/43/72 45/147/73 56/180/74
f 40/134/75 11/44/76 39/132/77
f 39/132/78 11/44/79 56/180/80
f 38/127/81 11/45/82 25/106/83
f 51/163/84 25/106/84 27/112/85
f 45/148/86 57/183/86 56/181/86
f 57/183/87 58/186/88 11/47/89
f 56/181/90 57/183/91 11/46/92
f 19/82/93 37/125/94 54/174/95
f 54/174/96 37/125/97 52/166/96
f 58/186/98 43/141/99 46/150/98
f 43/141/100 41/137/100 42/139/100
f 48/155/86 43/141/86 42/139/86
f 41/137/101 49/159/101 44/144/101
f 44/144/102 42/139/102 41/137/102
f 48/155/103 50/161/104 46/150/104
f 50/161/105 47/152/105 46/150/105
f 46/150/106 11/47/107 58/186/108
f 48/155/109 46/150/109 43/141/109
f 27/113/110 54/174/111 52/167/112
s 1
f 22/97/9 16/70/8 24/102/5
f 2/7/13 14/62/7 22/97/9
f 14/63/7 1/2/19 16/71/8
f 28/115/24 49/160/26 29/117/46
f 49/160/26 41/138/113 29/117/46
f 19/83/36 20/86/114 21/93/11
f 16/72/8 55/177/55 38/128/14
f 12/54/17 56/182/16 11/48/115
f 12/55/41 11/49/116 13/60/51
f 37/126/35 21/94/11 17/76/117
f 18/79/15 1/3/19 39/133/18
f 1/4/19 14/64/7 25/107/21
f 15/68/10 22/98/9 24/103/5
f 15/68/10 24/103/5 23/100/4
f 22/98/9 15/68/10 21/95/11
f 21/95/11 2/8/13 22/98/9
f 28/115/24 13/58/51 7/22/25
f 13/59/51 46/151/118 7/23/25
f 4/13/48 46/151/118 47/153/119
f 4/14/48 6/18/27 46/151/118
f 6/19/27 7/24/25 46/151/118
f 6/20/27 4/15/48 42/140/28
f 48/156/50 42/140/28 4/15/48
f 2/9/13 9/33/12 26/108/22
f 9/34/12 8/28/34 26/108/22
f 8/29/34 54/175/120 26/108/22
f 8/30/34 3/11/33 54/175/120
f 3/11/33 20/85/114 54/175/120
f 20/85/114 19/84/36 54/175/120
f 14/65/7 2/10/13 26/109/22
f 54/175/120 27/114/23 26/110/22
f 30/118/30 31/119/45 58/187/31
f 16/72/8 53/172/6 24/104/5
f 20/86/114 3/12/33 21/96/11
f 53/173/6 38/128/14 10/38/121
f 38/128/14 51/164/122 52/168/123
f 38/128/14 52/168/123 10/38/121
f 7/25/25 6/21/27 44/145/29
f 5/17/42 45/149/43 11/52/40
f 28/116/24 29/117/46 31/119/45
f 29/117/46 41/138/113 43/142/47
f 13/60/51 11/50/116 46/151/118
f 4/16/48 47/154/119 50/162/49
f 32/120/32 58/187/31 57/184/44
f 12/56/41 32/120/32 5/17/42
f 12/57/41 30/118/30 32/120/32
f 13/61/51 28/116/24 30/118/30
f 40/135/124 11/51/52 34/122/54
f 34/122/54 33/121/125 40/135/124
f 35/123/53 16/73/8 1/5/19
f 34/122/54 35/123/53 1/6/19
f 33/121/125 34/122/54 18/80/15
f 11/52/56 33/121/125 18/81/15
f 33/121/125 11/52/56 40/136/124