# Blender 3.3.1
# www.blender.org
mtllib 17s.mtl
o Hammer_cell.017
v -3.490893 1.992282 5.736937
v -1.447664 0.327949 6.513091
v -1.603638 4.658114 5.560218
v -0.987389 4.581964 5.559776
v -2.013530 2.444119 7.526767
v -2.245037 3.332968 7.502576
v -3.062789 3.494042 7.442093
v -1.332362 3.578993 7.061680
v -1.024918 2.393465 7.441441
v -0.139592 2.557511 5.916997
v -0.792183 2.615422 7.062235
v -3.762628 3.407204 7.486415
v -1.489186 2.766784 7.524697
v -1.749274 3.558516 7.352298
v -0.895431 1.576439 7.243682
v -0.356915 3.360854 6.173437
v -0.690699 3.176890 6.795955
v -1.106865 3.159528 7.351910
v -4.637950 2.687479 7.527008
v -0.906157 4.526235 5.073453
v -0.200538 3.675644 5.682013
v -0.080530 3.081221 5.795439
v -1.395265 4.658114 4.703494
v -0.137984 1.878844 5.915975
v -0.360124 0.916587 6.309788
v -3.202601 1.042091 7.527074
v -2.077381 0.554564 7.526825
v -0.892502 1.031198 7.243557
v -1.318493 0.960400 7.526267
v -0.636179 0.919512 6.794906
v -5.497802 4.658114 5.559775
v -0.555828 4.239253 5.372607
v -5.288730 3.730976 7.062347
v -5.158074 4.658114 4.557341
v -3.634194 1.391410 7.527133
v -5.129599 3.332968 7.502560
vn -0.7629 -0.5920 -0.2598
vn -0.7636 -0.5915 -0.2588
vn -0.5150 -0.7887 -0.3357
vn -0.5142 -0.7902 -0.3335
vn 0.4237 -0.7917 0.4402
vn 0.1637 0.7606 0.6283
vn 0.3344 0.9418 0.0334
vn -0.6422 0.7664 -0.0156
vn 0.1288 0.0042 0.9917
vn 0.0012 -0.0000 1.0000
vn 0.1278 -0.0537 0.9904
vn 0.2840 0.1849 0.9408
vn 0.8020 0.4929 0.3374
vn 0.8848 0.0773 0.4596
vn 0.8694 0.3768 0.3196
vn -0.7637 -0.5915 -0.2587
vn -0.5149 -0.7887 -0.3357
vn 0.4236 -0.7917 0.4402
vn 0.4236 -0.7917 0.4403
vn 0.4250 -0.7919 0.4386
vn 0.4249 -0.7919 0.4386
vn 0.5862 0.5839 0.5616
vn 0.3551 -0.0944 0.9301
vn 0.6094 0.7142 0.3444
vn 0.5834 0.1361 -0.8007
vn 0.0358 -0.3856 -0.9220
vn 0.0365 -0.3854 -0.9220
vn 0.0361 -0.3855 -0.9220
vn -0.0205 0.5620 0.8269
vn -0.0793 0.8459 0.5274
vn 0.8991 -0.0296 0.4367
vn 0.0739 0.0863 0.9935
vn -0.0429 0.1412 0.9891
vn -0.0050 0.4763 0.8793
vn -0.3258 0.8342 0.4450
vn 0.0385 0.1941 0.9802
vn 0.4963 -0.3350 0.8010
vn -0.0174 0.8278 0.5607
vn -0.0000 1.0000 -0.0000
vn 0.4591 -0.0942 -0.8834
vn 0.8099 -0.1530 -0.5663
vn 0.6613 0.2491 -0.7075
vn 0.7333 0.1267 -0.6680
vn 0.5543 -0.1092 -0.8251
vn 0.7382 0.1201 -0.6638
vn 0.8954 -0.1236 -0.4278
vn 0.3979 -0.4242 -0.8134
vn 0.0364 -0.3857 -0.9219
vn 0.7528 -0.3731 0.5424
vn 0.8521 0.1157 0.5104
vn 0.8194 0.4220 0.3880
vn 0.6825 0.5103 0.5233
vn 0.8685 0.0017 0.4957
vn 0.8147 0.4791 0.3266
vn 0.0335 -0.0107 0.9994
vn -0.0976 -0.0372 0.9945
vn 0.6094 0.0053 0.7929
vn 0.8690 0.0018 0.4949
vn 0.8574 -0.1669 0.4868
vn 0.8881 0.1577 0.4317
vn 0.6552 0.7411 0.1470
vn 0.6107 0.5999 0.5169
vn 0.7981 0.2573 0.5448
vn 0.4793 0.7285 0.4894
vn 0.6187 0.5640 0.5469
vn 0.9033 0.3520 0.2454
vn 0.6253 0.2192 -0.7489
vn 0.5529 0.1994 -0.8090
vn 0.6832 0.0272 -0.7297
vn 0.7074 -0.1383 -0.6931
vn 0.8405 -0.3849 0.3813
vn 0.9704 -0.2112 0.1172
vn 0.9444 0.2463 0.2180
vn 0.0026 0.0210 0.9998
vn 0.0362 -0.3857 -0.9219
vn -0.0994 -0.4753 -0.8742
vn 0.1683 -0.4744 -0.8641
vn -0.9603 -0.2530 -0.1179
vn -0.8180 -0.3327 -0.4692
vn -0.6469 -0.7577 -0.0856
vt 0.000000 0.000000
vt 1.000000 1.000000
vt 1.000000 0.000000
vt 1.000000 0.000000
vt 0.000000 0.000000
vt 0.915389 0.014164
vt 0.002752 0.003049
vt 0.269895 0.923872
vt 0.429646 0.450909
vt 0.429658 0.438147
vt 0.923016 0.014164
vt 0.262557 0.923872
vt 0.262075 0.929226
vt 0.243909 0.929226
vt 0.646195 0.610836
vt 0.646199 0.613224
vt 0.679646 0.619408
vt 0.670078 0.608634
vt 0.675578 0.619554
vt 0.302212 0.996809
vt 0.682693 0.650243
vt 0.684926 0.649868
vt 0.679729 0.594779
vt 0.221430 0.988577
vt 0.637039 0.583133
vt 0.638183 0.584903
vt 0.646460 0.584921
vt 0.635969 0.581546
vt 0.640535 0.577222
vt 0.658124 0.577068
vt 0.233729 0.233729
vt 0.000000 0.000000
vt 0.656875 0.575639
vt 0.679746 0.676369
vt 0.682717 0.676330
vt 0.650609 0.591262
vt 0.670057 0.606623
vt 0.655299 0.613213
vt 0.645347 0.599151
vt 0.266358 0.995348
vt 0.682578 0.612690
vt 0.000000 0.000000
vt 0.677690 0.596936
vt 0.616732 0.580006
vt 0.156643 0.988577
vt 0.615079 0.577117
vt 0.201708 0.945998
vt 0.201708 0.958312
vt 0.198114 0.981345
vt 0.221435 0.981345
vt 0.201708 0.970757
vt 0.676711 0.595020
vt 0.653763 0.584906
vt 0.674392 0.598965
vt 0.218389 0.988577
vt 0.469537 0.059177
vt 0.655354 0.709132
vt 0.411296 0.058726
vt 0.448747 0.434404
vt 0.754535 0.641029
vt 0.460848 0.448494
vt 0.218389 0.929226
vt 0.000000 0.000000
vt 0.201708 0.935807
vt 0.198114 0.935807
vt 0.868748 0.231808
vt 0.462866 0.450938
vt 0.983650 0.903392
vt 0.923016 0.049123
vt 0.035376 0.002857
vt 0.994526 0.940434
vt 0.000000 0.000000
vt 0.000000 0.000000
vt 0.313650 0.113814
vt 0.265302 0.186388
vt 0.389125 0.000000
vt 0.597729 0.000000
vt 0.842034 0.842034
vt 0.842034 0.000000
vt 0.232655 0.074387
vt 0.575457 0.613209
vt 0.842002 0.000000
vt 0.591617 0.583015
vt 0.811829 0.417418
vt 0.592436 0.581421
vt 0.136981 0.988578
vt 0.507315 0.347877
vt 0.590673 0.584785
vt 0.369520 0.210464
vt 0.583024 0.599061
vt 0.946374 0.400867
vt 0.134639 0.981345
vt 0.456448 0.273793
vt 0.003596 0.149938
vt 0.383293 0.924286
vt 0.871287 0.554518
vt 0.383359 0.935807
vt 0.429658 0.436376
vt 0.221394 0.925728
vt 0.383581 0.995348
vt 0.682692 0.729541
vt 0.684925 0.730772
vt 1.000000 0.947428
vt 0.947428 0.947428
vt 1.000000 0.932419
vt 0.038109 0.138097
vt 0.041312 0.136984
vt 1.000000 0.058594
vt 0.606802 0.671522
vt 1.000000 0.096032
vt 0.058594 0.058594
vt 0.675651 0.724646
vt 0.518800 0.060361
vt 0.679724 0.727582
s 0
usemtl Hammer.023
f 1/1/1 35/108/1 34/103/1
f 34/104/2 19/58/2 31/96/2
f 1/2/3 26/79/3 35/110/3
f 26/78/4 2/5/4 27/82/4
f 29/87/5 2/4/5 28/84/5
s 1
f 4/9/6 20/61/7 23/67/8
f 9/25/9 29/88/10 28/83/11
f 13/39/12 29/88/10 9/26/9
f 16/47/13 22/65/14 21/64/15
s 0
f 34/104/16 35/111/16 19/58/16
f 1/2/17 2/5/17 26/79/17
f 30/91/18 28/84/19 2/4/19
f 29/89/5 27/80/5 2/4/5
f 2/5/20 25/77/21 30/93/21
s 1
f 14/43/22 18/52/23 8/23/24
f 4/10/6 32/98/25 20/59/7
f 13/36/12 9/27/9 18/53/23
s 0
f 1/3/26 34/105/27 23/68/28
s 1
f 14/40/22 33/100/29 7/20/30
f 5/16/31 27/81/32 29/90/10
f 29/90/10 13/39/12 5/15/31
f 12/34/33 6/17/34 7/21/30
f 7/21/30 6/17/34 14/41/22
f 3/6/35 4/11/6 23/69/8
f 36/112/36 6/19/34 12/34/33
f 9/28/9 28/85/11 15/44/37
f 31/94/38 3/7/35 34/106/39
f 3/7/35 23/70/8 34/107/39
f 33/100/29 14/42/22 3/8/35 31/95/38
f 14/43/22 8/23/24 4/12/6 3/8/35
s 0
f 20/61/40 22/66/41 23/71/42
f 22/66/43 24/73/44 23/71/45
s 1
f 24/74/46 25/76/47 23/72/48
f 24/75/46 10/31/49 25/76/47
f 11/32/50 10/31/51 22/65/14 17/49/52
s 0
f 11/32/53 28/86/54 30/92/53
s 1
f 11/32/50 15/45/37 28/86/11
f 5/16/31 35/109/55 27/81/32
f 35/110/55 26/79/56 27/82/32
s 0
f 10/31/57 11/32/58 30/93/59 25/77/60
s 1
f 8/24/24 18/55/23 4/13/6
s 0
f 18/55/61 21/63/62 4/13/63
f 21/62/64 32/99/65 4/14/66
s 1
f 32/99/25 21/62/67 20/60/7
s 0
f 21/64/68 22/65/69 20/61/70
s 1
f 16/48/13 17/51/52 22/65/14
f 18/54/23 14/43/22 6/18/34 13/37/12
s 0
f 10/31/71 24/75/72 22/66/73
s 1
f 9/29/9 15/46/37 11/32/50
f 17/49/52 9/30/9 11/33/50
f 17/50/52 18/55/23 9/30/9
f 6/19/34 36/112/36 13/37/12
f 36/113/36 19/56/74 13/38/12
f 19/57/74 5/15/31 13/39/12
s 0
f 1/3/75 23/72/75 25/77/76 2/5/77
s 1
f 19/58/74 35/111/55 5/16/31
s 0
f 36/113/16 31/96/16 19/58/16
f 36/114/78 33/101/79 31/97/80
s 1
f 17/50/52 21/63/15 18/55/23
f 17/51/52 16/48/13 21/64/15
f 12/35/33 7/22/30 36/114/36
f 7/22/30 33/102/29 36/114/36