# Blender 3.3.1
# www.blender.org
mtllib 20s.mtl
o Hammer_cell.020
v -0.890132 -1.627175 6.893838
v -1.154062 -0.082946 3.764029
v -1.193804 0.241646 6.385997
v -3.226201 -0.760349 1.653180
v -5.956215 -4.206503 1.840053
v -3.773364 -0.838085 1.905863
v -1.440229 0.199694 6.460788
v -0.906658 -4.540738 2.431108
v -0.906813 -4.540683 3.315428
v -0.907070 -4.540597 5.520034
v -1.396372 -4.561506 5.578167
v -1.604500 -4.561506 5.578244
v -1.603824 -4.561506 2.948650
v -2.017756 -4.561506 2.580074
v -1.296656 -4.381166 5.878078
v -1.110081 -4.651580 3.315455
v -1.224090 -4.662198 1.931134
v -1.220687 -4.662194 2.202049
v -1.105765 -4.651542 5.520061
v -0.675244 -4.355825 2.448610
v -0.675314 -4.355794 3.279711
v -1.395824 -4.672493 3.591548
v -1.323231 -4.668149 2.432767
v -1.614340 -4.672333 2.476254
v -1.363883 -4.672333 3.204783
v -1.599372 -4.561506 3.207712
v -1.815595 -4.561506 2.477894
v -1.203628 -4.662190 2.614940
v -0.906720 -4.540714 2.791286
v -1.707662 -4.561506 2.672180
v -0.678069 -4.357893 3.720413
v -0.681876 -4.361047 4.271093
v -0.988453 -4.596462 2.614882
v -1.119638 -4.651596 2.791313
v -0.988166 -4.596439 3.008683
v -1.051859 -4.631480 4.882823
v -0.988085 -4.596384 4.280024
v -0.988050 -4.596404 3.746088
v -1.203182 -4.463743 5.712373
v -0.677963 -4.357947 2.214571
v -0.681736 -4.361117 1.935454
v -0.988659 -4.596478 2.201991
v -0.988694 -4.596481 1.931080
v -1.059795 -4.631573 1.632311
v -0.802372 -4.460262 2.616316
v -0.677505 -4.358355 2.786733
v -0.676192 -4.356976 2.983556
v -1.220772 -4.668141 3.743458
v -1.274279 -4.671203 4.272573
v -1.476210 -4.671206 2.211066
v -2.076842 -3.096901 7.481781
v -2.078190 -2.701860 7.486889
v -1.422494 -4.671206 2.623009
v -1.253510 -4.668146 3.006099
v -0.481541 -4.186706 4.972999
v -0.485756 -4.191531 3.637359
v -0.487225 -4.194313 3.124343
v -0.490270 -4.195606 2.253357
v -0.491373 -4.195858 1.947614
v -0.480978 -4.186185 5.204525
v -1.847165 -2.785653 7.486012
v -0.683846 -4.362636 5.362553
v -2.048630 -3.539103 7.371015
v -1.711353 -3.860272 6.819337
v -1.837270 -3.745354 7.022951
v -1.526278 -4.022707 6.523101
v -1.086364 -4.286065 5.876707
v -2.992003 -3.096901 7.481975
v -3.037809 -3.539103 7.370926
v -3.989410 -4.672493 5.520146
v -1.811578 -4.561506 -0.406699
v -1.487203 -4.671206 -0.611315
v -1.225476 -4.662198 -0.742153
v -2.598819 -2.196129 7.487243
v -2.344097 -2.396071 7.487196
v -0.988686 -4.596485 -0.840304
v -0.803265 -4.461012 -0.838622
v -1.949391 -3.642293 7.204603
v -0.489186 -4.196080 2.523157
v -3.216979 -3.745354 7.022866
v -3.123342 -3.642293 7.204498
v -2.997842 -2.817878 7.486357
v -0.683701 -4.362795 -0.652261
v -0.487745 -4.195882 2.916977
v -0.961283 -4.324028 5.710283
v -3.892416 -4.485906 5.712812
v -0.499310 -4.202630 -0.354136
v -1.355710 -4.153475 6.258993
v -2.994613 -3.347350 7.462889
v -0.497962 -4.201430 -0.054749
v -2.049927 -3.347350 7.462756
v -0.483876 -4.189095 4.244571
v -6.017076 -4.672493 1.709211
v -2.017670 -4.561506 -0.301178
v -5.752346 -4.672493 2.210300
vn 0.9872 0.1597 -0.0028
vn 0.6430 -0.7659 -0.0000
vn 0.6427 -0.7661 -0.0003
vn 0.6280 -0.7782 0.0002
vn -0.4356 0.2956 -0.8502
vn -0.8823 -0.0265 0.4699
vn -0.8841 -0.0157 0.4671
vn 0.4020 0.6778 -0.6157
vn 0.4018 0.6777 -0.6158
vn 0.9868 0.1619 -0.0051
vn 0.2324 0.2900 0.9284
vn -0.1925 0.9735 -0.1234
vn -0.1948 0.9732 -0.1224
vn -0.2015 0.9723 -0.1183
vn 0.2269 0.2888 0.9301
vn 0.0318 -0.8567 0.5148
vn 0.0977 -0.8546 0.5100
vn 0.2892 -0.7964 0.5312
vn -0.8044 0.5158 0.2948
vn 0.0953 -0.6625 0.7430
vn -0.0159 -0.8588 0.5121
vn -0.2001 -0.7072 0.6781
vn 0.2834 -0.9588 -0.0196
vn 0.2283 -0.9736 -0.0003
vn 0.3095 -0.9509 0.0064
vn 0.6578 -0.7532 0.0003
vn 0.6558 -0.7549 0.0001
vn 0.6428 -0.7661 0.0002
vn 0.6265 -0.7794 0.0001
vn 0.6594 -0.7518 0.0011
vn 0.6430 -0.7659 0.0001
vn 0.0718 -0.9974 0.0001
vn 0.3125 -0.9498 0.0133
vn 0.2993 -0.9542 -0.0050
vn 0.1549 -0.9879 -0.0066
vn 0.1154 -0.9933 -0.0022
vn -0.7158 -0.6171 0.3269
vn 0.0728 -0.9973 -0.0047
vn 0.3979 -0.7707 0.4977
vn -0.0054 -0.8479 0.5302
vn 0.0006 -0.9184 0.3956
vn 0.3809 -0.7571 0.5307
vn 0.7118 -0.6256 -0.3193
vn 0.3882 -0.8850 -0.2572
vn 0.7420 -0.1974 -0.6406
vn -0.0092 -0.5086 0.8609
vn 0.0126 -0.2609 0.9653
vn 0.0191 -0.8653 0.5009
vn 0.6575 -0.7535 -0.0016
vn 0.6507 -0.7593 -0.0070
vn 0.6579 -0.7531 -0.0002
vn 0.6544 -0.7562 -0.0000
vn 0.2480 -0.9687 -0.0052
vn 0.3760 -0.9262 -0.0270
vn 0.0660 -0.9978 -0.0016
vn 0.0002 -0.1529 0.9882
vn -0.0001 -0.0749 0.9972
vn 0.6388 -0.7694 -0.0000
vn 0.6528 -0.7575 0.0041
vn 0.6273 -0.7788 0.0002
vn 0.6560 -0.7547 0.0022
vn -0.0000 -0.8702 0.4926
vn -0.0002 -0.8534 0.5213
vn -0.0000 -0.8669 0.4985
vn 0.5957 -0.8032 0.0015
vn 0.2135 -0.9769 -0.0029
vn 0.0409 -0.9992 0.0015
vn 0.0238 -0.9997 -0.0012
vn 0.2850 -0.9583 0.0187
vn 0.1830 -0.9831 0.0007
vn 0.0114 -0.9999 -0.0013
vn -0.7058 -0.7084 -0.0001
vn 0.0241 -0.9997 -0.0038
vn 0.7322 -0.2898 0.6164
vn -0.4772 -0.6936 0.5396
vn 0.0132 -0.9999 -0.0034
vn -0.4684 -0.7077 0.5289
vn -0.4773 -0.6936 0.5396
vn -0.7117 -0.6253 0.3202
vn -0.0174 -0.0000 -0.9998
vn 0.4930 -0.8699 -0.0152
vn 0.0147 -0.9999 -0.0006
vn 0.0036 -1.0000 -0.0007
vn 0.0111 -0.9999 -0.0000
vn 0.0567 -0.9984 -0.0008
vn -0.4350 0.2985 -0.8495
vn -0.0000 -1.0000 -0.0000
vn 0.5038 -0.8638 0.0002
vn 0.9871 0.1600 -0.0037
vn 0.6169 -0.7870 -0.0000
vn 0.6358 -0.7718 -0.0000
vn -0.8823 -0.0266 0.4699
vn -0.8823 -0.0266 0.4700
vn -0.8824 -0.0263 0.4698
vn 0.4039 0.6781 -0.6141
vn 0.2276 0.2875 0.9303
vn -0.8047 0.5154 0.2947
vn -0.8045 0.5156 0.2947
vn 0.3636 -0.6466 0.6705
vn 0.6655 -0.7464 -0.0001
vn 0.6207 -0.7841 -0.0000
vn 0.5876 -0.8091 0.0001
vn 0.0259 -0.8670 0.4977
vn 0.0048 -0.8699 0.4932
vn 0.0012 -0.0115 0.9999
vn 0.0001 -0.8703 0.4926
vn 0.0002 -0.0006 1.0000
vn 0.0003 -0.0051 1.0000
vn -0.0002 -0.0009 1.0000
vn 0.0008 -0.0033 1.0000
vn 0.0013 -0.0050 1.0000
vn 0.7323 -0.2897 0.6163
vn 0.7322 -0.2898 0.6163
vn 0.7322 -0.2899 0.6164
vn 0.7322 -0.2899 0.6163
vn 0.7321 -0.2899 0.6164
vn 0.7322 -0.2900 0.6163
vn 0.7322 -0.2897 0.6164
vn 0.0385 -0.2415 0.9696
vn -0.6894 -0.7243 0.0009
vn 0.6654 -0.7465 0.0002
vn -0.4348 0.2986 -0.8496
vn -0.4349 0.2985 -0.8495
vn -0.4350 0.2984 -0.8495
vn 0.9871 0.1599 -0.0037
vt 1.000000 0.000000
vt 1.000000 1.000000
vt 0.000000 0.000000
vt 1.000000 0.000000
vt 0.000000 0.000000
vt 0.000000 0.000000
vt 1.000000 1.000000
vt 1.000000 0.000000
vt 0.000000 0.000000
vt 1.000000 0.000000
vt 1.000000 0.000000
vt 1.000000 1.000000
vt 0.000000 0.000000
vt 1.000000 0.000000
vt 0.000000 0.000000
vt 1.000000 0.000000
vt 0.000000 0.000000
vt 0.550902 0.036784
vt 0.550903 0.046878
vt 0.516192 0.039986
vt 0.516193 0.046874
vt 0.429658 0.041398
vt 0.894945 0.403315
vt 0.429658 0.039627
vt 0.950081 0.925728
vt 0.796375 0.738832
vt 0.429658 0.043169
vt 0.894945 0.414821
vt 0.934611 0.924286
vt 0.429642 0.026152
vt 0.429646 0.028636
vt 0.952169 0.447527
vt 0.934718 0.925728
vt 0.971933 0.008920
vt 0.926934 0.923872
vt 0.944542 0.447527
vt 0.002752 0.841651
vt 0.940057 0.341617
vt 0.956786 0.337333
vt 0.534207 0.022092
vt 0.944542 0.341617
vt 0.946449 0.340505
vt 0.099741 0.842227
vt 0.940057 0.324481
vt 0.944542 0.324481
vt 0.113733 0.826688
vt 0.939385 0.935807
vt 0.943903 0.935807
vt 0.517385 0.029890
vt 0.516191 0.037539
vt 0.516190 0.035176
vt 0.570053 0.032911
vt 0.569992 0.028233
vt 0.559834 0.033103
vt 0.559783 0.028542
vt 0.894945 0.411651
vt 0.893844 0.405186
vt 0.429658 0.037857
vt 0.429650 0.031119
vt 0.550417 0.058252
vt 0.543378 0.058273
vt 0.550843 0.052053
vt 0.517394 0.058251
vt 0.516343 0.052051
vt 0.505354 0.026169
vt 0.956786 0.368095
vt 0.550837 0.029046
vt 0.550409 0.023774
vt 0.549130 0.017590
vt 0.520535 0.027423
vt 0.946449 0.351789
vt 0.545055 0.009844
vt 0.950263 0.321060
vt 0.543646 0.029843
vt 0.543687 0.033782
vt 0.550901 0.033373
vt 0.536783 0.030814
vt 0.536766 0.046876
vt 0.956786 0.333049
vt 0.537823 0.018009
vt 0.541439 0.013927
vt 0.542643 0.019753
vt 0.944542 0.333049
vt 0.500152 0.058197
vt 0.478631 0.058102
vt 0.536766 0.039878
vt 0.543689 0.036955
vt 0.543690 0.042936
vt 0.536766 0.042942
vt 0.536765 0.037162
vt 0.536763 0.034276
vt 0.528233 0.039938
vt 0.528232 0.037369
vt 0.528233 0.042949
vt 0.454670 0.033489
vt 0.454670 0.039823
vt 0.454669 0.037779
vt 0.478328 0.035604
vt 0.478331 0.042735
vt 0.499289 0.042928
vt 0.499288 0.037648
vt 0.499286 0.035439
vt 0.896047 0.414824
vt 0.945921 0.929225
vt 0.937029 0.929225
vt 0.894946 0.405729
vt 0.947907 0.925728
vt 0.943910 0.929225
vt 0.934754 0.929226
vt 0.559545 0.058205
vt 0.570396 0.058156
vt 0.559846 0.036667
vt 0.559873 0.042924
vt 0.570140 0.036563
vt 0.570349 0.042900
vt 0.581295 0.039579
vt 0.580945 0.036414
vt 0.543690 0.046877
vt 0.536788 0.052055
vt 0.536945 0.058275
vt 0.529081 0.058272
vt 0.528339 0.052054
vt 0.499391 0.033074
vt 0.502125 0.028319
vt 0.478363 0.033340
vt 0.478623 0.030960
vt 0.559481 0.023011
vt 0.437366 0.610903
vt 0.979053 0.064464
vt 0.908744 0.043103
vt 0.449596 0.613185
vt 0.457606 0.613212
vt 0.543370 0.025129
vt 0.536937 0.026833
vt 0.537313 0.022508
vt 0.530591 0.026175
vt 0.531022 0.025262
vt 0.528230 0.034769
vt 0.529073 0.028537
vt 0.528334 0.031784
vt 0.952169 0.341617
vt 0.867255 0.867255
vt 0.451112 0.069010
vt 1.000000 0.867255
vt 0.502057 0.064936
vt 0.768875 0.637094
vt 0.520528 0.065119
vt 0.680153 0.548924
vt 0.558776 0.064929
vt 0.529331 0.398369
vt 0.570164 0.064778
vt 0.476377 0.345469
vt 1.000000 0.790464
vt 0.841237 0.784209
vt 0.790464 0.790464
vt 0.439753 0.065044
vt 0.835789 0.245274
vt 0.457617 0.608717
vt 0.826270 0.019801
vt 0.753900 0.000000
vt 0.435838 0.057850
vt 0.432070 0.050569
vt 0.762652 0.759844
vt 0.925092 0.772575
vt 0.428095 0.612612
vt 0.430327 0.612624
vt 0.220674 0.105505
vt 0.930395 0.995348
vt 0.409519 0.294268
vt 0.937033 0.973245
vt 0.934219 0.981345
vt 0.356185 0.239250
vt 0.341949 0.224600
vt 0.934759 0.979641
vt 0.939385 0.967186
vt 0.459356 0.346403
vt 0.505027 0.395627
vt 0.947934 0.935807
vt 0.642610 0.579474
vt 0.945917 0.935807
vt 0.659875 0.616790
vt 0.876789 0.032496
vt 0.809065 0.033734
vt 0.437260 0.647388
vt 0.442724 0.647412
vt 0.427981 0.647660
vt 0.674870 0.060674
vt 0.893177 0.992924
vt 0.971933 0.096731
vt 0.450280 0.358415
vt 0.003278 0.751671
vt 0.636495 0.006018
vt 0.952169 0.212987
vt 0.796692 0.754688
vt 0.640508 0.012634
vt 0.644586 0.018982
vt 0.845671 0.822910
vt 0.649055 0.024831
vt 0.654021 0.029920
vt 0.901112 0.867055
vt 0.875577 0.847171
vt 0.841983 0.000000
vt 0.156285 0.000000
vt 0.472370 0.635373
vt 1.000000 0.245134
vt 0.245134 0.245134
vt 0.469031 0.623173
vt 0.659678 0.034148
vt 0.671220 0.041792
vt 0.921697 0.881648
vt 0.901730 0.682314
vt 0.677451 0.051787
vt 0.675956 0.046286
vt 1.000000 0.907004
vt 0.986691 0.908488
vt 0.932009 0.988577
vt 0.243918 0.125408
vt 0.281349 0.162445
vt 0.930840 0.992924
vt 0.549149 0.065119
vt 0.542655 0.065184
vt 0.600745 0.470179
vt 0.576098 0.445224
vt 0.643405 0.108819
vt 0.886024 0.981345
vt 0.890386 0.988577
vt 0.662451 0.078653
vt 0.060643 0.025217
vt 0.962604 0.031840
vt 1.000000 0.031741
vt 0.032726 0.000000
vt 0.032726 0.032726
vt 0.449533 0.647549
vt 0.457561 0.644850
vt 0.885052 0.000000
vt 0.673216 0.056168
vt 0.903731 0.881511
vt 0.671386 0.058058
vt 0.537325 0.065190
vt 0.531034 0.065184
vt 0.619472 0.489034
vt 0.641317 0.510615
vt 0.947931 0.929225
vt 0.989196 0.719574
vt 0.985529 0.708332
vt 0.669561 0.638155
vt 0.976341 0.095706
vt 0.857556 0.923872
vt 0.494657 0.347058
vt 0.507375 0.326401
vt 0.859852 0.929225
vt 0.861652 0.861652
vt 0.969909 0.868103
vt 1.000000 0.861652
vt 0.663861 0.064701
vt 0.945917 0.945998
vt 0.613775 0.530496
vt 0.939385 0.945998
vt 0.528990 0.422766
vt 0.430216 0.647608
vt 0.433186 0.647482
vt 0.760371 0.035710
vt 1.000000 0.870212
vt 0.648441 0.067801
vt 0.129788 0.000000
vt 0.433295 0.612085
vt 0.107915 0.074104
vt 0.479232 0.064836
vt 0.873937 0.741670
vt 0.706961 0.706961
vt 1.000000 0.706961
vt 0.147335 0.675971
vt 0.708328 0.000000
vt 0.754194 0.719134
vt 0.944542 0.216927
vt 0.708328 0.708328
vt 0.221373 0.822198
vt 1.000000 0.907791
vt 0.907791 0.907791
vt 0.128389 0.685874
s 0
usemtl Hammer.023
f 1/1/1 55/142/1 3/6/1
s 1
f 41/111/2 40/110/3 20/62/4
s 0
f 5/13/5 94/273/5 93/270/5
f 82/230/6 95/278/6 86/250/6
f 95/279/7 5/11/7 93/271/7
f 77/211/8 4/9/9 83/235/8
f 2/5/10 90/263/10 87/252/10
f 7/17/11 1/1/11 3/7/11
f 2/5/12 4/10/12 3/7/12
f 4/9/13 6/14/13 3/7/13
f 6/15/14 7/16/14 3/7/14
f 1/2/15 74/202/15 75/205/15
s 1
f 88/256/16 15/48/17 67/180/18
s 0
f 82/228/19 74/203/19 6/14/19
s 1
f 19/56/20 39/103/21 11/28/22
f 43/115/23 44/116/24 76/209/25
f 92/268/26 60/156/27 32/85/28
f 21/63/29 56/145/30 31/84/31
f 73/199/32 76/208/25 44/117/24
f 33/86/33 35/93/34 34/90/35
f 15/47/17 88/258/16 39/105/21
f 35/93/34 16/51/36 54/138/37
f 33/87/33 34/91/35 28/75/38
f 12/34/39 86/247/40 70/189/41
f 67/178/18 39/104/21 85/243/42
f 14/44/43 30/83/44 13/38/45
f 63/165/46 89/260/47 69/186/48
f 20/60/4 58/149/49 79/220/50
f 59/151/51 41/111/2 87/255/52
f 28/76/38 42/112/53 8/18/54
f 18/54/55 43/114/23 42/112/53
f 91/266/56 68/184/57 89/261/47
f 79/221/50 46/120/58 20/61/4
f 46/120/58 84/240/59 47/121/60
f 47/121/60 57/147/61 21/63/29
f 80/225/62 78/216/63 81/226/64
f 45/118/65 8/19/54 20/62/4
f 38/102/66 49/125/67 48/123/68
f 37/98/69 36/95/70 49/125/67
f 25/70/71 22/65/72 54/136/37
f 16/49/36 48/124/68 25/70/71
f 89/261/47 63/166/46 91/266/56
f 23/67/73 18/54/55 28/76/38
f 11/29/22 86/248/40 12/35/39
f 48/124/68 49/126/67 11/31/22
s 0
f 88/257/74 67/179/74 1/3/74
s 1
f 13/40/75 53/135/76 54/137/37
f 30/82/44 23/68/73 53/133/76
f 53/133/76 23/67/73 28/74/38
f 25/70/71 54/139/37 16/49/36
f 30/79/77 13/39/78 54/141/79
f 11/32/22 12/36/39 26/71/80
f 49/126/67 36/95/70 19/59/20
f 37/99/69 38/100/66 9/21/81
f 50/127/82 24/69/83 72/195/84
f 72/196/84 73/198/32 17/53/85
s 0
f 4/10/86 71/194/86 94/274/86
s 1
f 81/226/64 78/219/63 69/188/48
f 48/124/68 11/30/22 22/65/72
f 14/46/43 95/280/87 94/277/88
s 0
f 92/269/89 56/146/89 3/8/89
f 1/1/1 60/153/1 55/142/1
s 1
f 20/62/4 77/212/90 41/111/2
f 77/212/90 83/236/91 41/111/2
s 0
f 89/262/92 68/183/92 69/187/92
f 68/182/93 82/229/93 80/224/93
f 68/182/93 80/224/93 81/227/93
f 95/278/92 70/190/92 86/249/92
f 86/250/94 80/224/94 82/230/94
f 81/227/93 69/187/93 68/183/93
f 95/279/7 82/231/7 5/11/7
f 87/253/95 83/237/95 4/9/95
f 4/9/95 2/4/95 87/254/95
f 2/5/10 3/8/10 90/263/10
f 1/2/15 7/17/15 74/202/15
f 1/2/96 75/206/96 61/157/96
f 74/203/97 7/17/97 6/14/97
f 6/14/98 5/12/98 82/232/98
s 1
f 37/99/69 10/22/99 36/96/70
f 59/151/51 87/255/52 90/264/100
f 62/162/101 21/64/29 32/85/28
f 32/85/28 21/64/29 31/84/31
f 60/156/27 62/161/101 32/85/28
f 32/85/28 31/84/31 92/268/26
f 31/84/31 56/145/30 92/268/26
f 21/63/29 57/147/61 56/145/30
f 43/114/23 17/52/85 44/117/24
f 17/52/85 73/199/32 44/117/24
f 8/18/54 33/87/33 28/75/38
f 8/19/54 45/118/65 33/88/33
f 45/118/65 29/78/102 33/89/33
f 88/258/16 66/175/103 64/170/104
f 64/170/104 39/105/21 88/258/16
f 35/92/34 9/20/81 16/50/36
f 34/90/35 35/93/34 54/138/37
f 10/23/99 39/106/21 19/57/20
f 10/24/99 19/58/20 36/97/70
f 38/101/66 16/50/36 9/20/81
f 85/243/42 39/107/21 10/25/99
f 67/180/18 15/48/17 39/108/21
f 20/60/4 40/110/3 58/149/49
f 59/151/51 58/149/49 40/110/3
f 40/110/3 41/111/2 59/151/51
f 41/111/2 83/238/91 87/255/52
f 28/76/38 18/54/55 42/112/53
f 18/54/55 17/52/85 43/114/23
f 91/266/56 51/128/105 68/184/57
f 20/61/4 46/120/58 45/119/65
f 79/221/50 84/239/59 46/120/58
f 45/119/65 46/120/58 47/121/60
f 47/121/60 84/240/59 57/147/61
f 33/89/33 29/78/102 35/94/34
f 29/78/102 9/21/81 35/94/34
f 80/225/62 65/171/106 78/216/63
f 74/204/107 82/234/108 75/207/109
f 82/234/108 52/132/110 75/207/109
f 52/132/110 61/158/111 75/207/109
f 77/212/90 20/62/4 8/19/54
f 45/119/65 47/122/60 29/78/102
f 47/122/60 21/64/29 9/21/81
f 29/78/102 47/122/60 9/21/81
f 21/64/29 62/162/101 9/21/81
f 62/162/101 10/27/99 9/21/81
f 16/51/36 38/102/66 48/123/68
f 38/102/66 37/98/69 49/125/67
f 86/251/40 39/109/21 80/225/62
f 39/109/21 65/174/106 80/225/62
f 25/70/71 48/124/68 22/65/72
f 42/113/53 43/115/23 8/19/54
f 43/115/23 76/209/25 77/213/90
f 8/19/54 43/115/23 77/213/90
f 61/158/111 52/132/110 51/131/105
f 23/68/73 50/127/82 18/55/55
f 49/126/67 19/59/20 11/31/22
s 0
f 85/244/112 10/26/112 62/163/112
f 62/164/74 60/154/74 85/245/74
f 60/155/74 1/3/74 67/181/74
f 1/3/113 61/160/113 66/176/113
f 64/169/114 61/160/114 65/172/114
f 61/159/113 51/130/113 65/173/113
f 51/129/115 91/267/115 78/217/115
f 78/217/116 91/267/116 63/167/116
f 78/218/114 65/173/114 51/130/116
f 64/169/74 66/176/74 61/160/74
f 66/177/74 88/259/74 1/3/74
f 85/246/117 60/155/118 67/181/118
s 1
f 54/139/37 53/134/76 28/77/38
f 13/40/75 30/80/44 53/135/76
f 30/81/44 27/72/119 24/69/83
f 27/72/119 71/192/120 24/69/83
f 71/192/120 72/195/84 24/69/83
f 30/82/44 24/69/83 23/68/73
f 54/140/37 28/77/38 34/91/35
f 14/45/43 94/275/88 27/73/119
f 94/275/88 71/193/120 27/73/119
f 14/45/43 27/73/119 30/83/44
f 13/41/45 26/71/80 12/36/39
f 26/71/80 13/42/45 54/141/37
f 11/32/22 26/71/80 54/141/37
f 64/170/104 65/174/106 39/109/21
f 10/27/99 37/99/69 9/21/81
f 11/32/22 54/141/37 22/66/72
f 50/127/82 23/68/73 24/69/83
f 17/53/85 18/55/55 50/127/82
f 50/127/82 72/196/84 17/53/85
f 60/156/27 92/268/26 55/143/121
f 51/131/105 82/233/108 68/185/57
f 51/131/105 52/132/110 82/234/108
s 0
f 5/13/86 6/15/86 94/276/86
f 6/15/122 4/10/122 94/276/122
f 4/10/86 77/214/86 71/194/86
f 71/194/123 77/214/123 73/201/123
f 76/210/86 73/200/86 77/215/86
f 73/201/124 72/197/124 71/194/124
s 1
f 69/188/48 78/219/63 63/168/46
f 11/33/22 39/109/21 86/251/40
f 14/46/43 13/43/45 70/191/41
f 13/43/45 12/37/39 70/191/41
f 70/191/41 95/280/87 14/46/43
f 95/280/87 93/272/87 94/277/88
s 0
f 84/241/125 79/222/125 3/8/125
f 57/148/125 84/242/125 3/8/125
f 79/223/125 58/150/125 3/8/125
f 56/146/125 57/148/125 3/8/125
f 59/152/125 90/265/125 3/8/125
f 58/150/89 59/152/89 3/8/89
f 3/8/125 55/144/125 92/269/125
