# Blender 3.3.1
# www.blender.org
mtllib 20s.mtl
o Hammer_cell.020
v -0.890132 -1.627175 6.893838
v -1.154062 -0.082946 3.764029
v -1.193804 0.241646 6.385997
v -3.226201 -0.760349 1.653180
v -5.956215 -4.206503 1.840053
v -3.773364 -0.838085 1.905863
v -0.906813 -4.540683 3.315428
v -1.396372 -4.561506 5.578167
v -1.395824 -4.672493 3.591548
v -1.599372 -4.561506 3.207712
v -1.815595 -4.561506 2.477894
v -1.203628 -4.662190 2.614940
v -1.051859 -4.631480 4.882823
v -0.988085 -4.596384 4.280024
v -0.988050 -4.596404 3.746088
v -0.988659 -4.596478 2.201991
v -1.059795 -4.631573 1.632311
v -0.802372 -4.460262 2.616316
v -1.476210 -4.671206 2.211066
v -0.485756 -4.191531 3.637359
v -0.487225 -4.194313 3.124343
v -0.490270 -4.195606 2.253357
v -0.480978 -4.186185 5.204525
v -1.847165 -2.785653 7.486012
v -1.711353 -3.860272 6.819337
v -2.992003 -3.096901 7.481975
v -1.811578 -4.561506 -0.406699
v -2.344097 -2.396071 7.487196
v -0.988686 -4.596485 -0.840304
v -1.949391 -3.642293 7.204603
v -3.123342 -3.642293 7.204498
v -0.683701 -4.362795 -0.652261
v -0.961283 -4.324028 5.710283
v -3.892416 -4.485906 5.712812
v -1.355710 -4.153475 6.258993
v -0.497962 -4.201430 -0.054749
v -0.483876 -4.189095 4.244571
v -6.017076 -4.672493 1.709211
v -5.752346 -4.672493 2.210300
vn 0.9872 0.1597 -0.0028
vn -0.4356 0.2956 -0.8502
vn -0.8823 -0.0266 0.4699
vn -0.8841 -0.0157 0.4671
vn -0.1925 0.9735 -0.1234
vn -0.1948 0.9732 -0.1224
vn -0.8044 0.5158 0.2948
vn 0.2834 -0.9588 -0.0196
vn 0.2284 -0.9736 -0.0003
vn 0.3095 -0.9509 0.0064
vn 0.3125 -0.9498 0.0133
vn 0.2993 -0.9542 -0.0050
vn 0.1549 -0.9879 -0.0066
vn 0.0338 -0.9994 -0.0065
vn -0.4973 -0.8374 0.2266
vn -0.0324 -0.4058 0.9134
vn 0.0017 -0.0886 0.9961
vn 0.0064 -0.8687 0.4952
vn 0.5928 -0.8053 0.0010
vn 0.3425 -0.9392 -0.0247
vn 0.6309 -0.7759 0.0042
vn 0.0115 -0.9999 -0.0013
vn -0.7058 -0.7084 -0.0002
vn -0.7158 -0.6170 0.3269
vn 0.2678 -0.9570 -0.1112
vn 0.0524 -0.9986 -0.0005
vn 0.1457 -0.9893 0.0085
vn -0.1586 -0.6998 0.6965
vn 0.7322 -0.2898 0.6164
vn 0.5396 -0.8007 -0.2602
vn -0.4683 -0.7077 0.5289
vn -0.4773 -0.6935 0.5396
vn -0.7116 -0.6254 0.3202
vn 0.0409 -0.9992 0.0014
vn 0.1829 -0.9831 0.0007
vn 0.0953 -0.6625 0.7429
vn 0.0147 -0.9999 -0.0006
vn 0.3195 -0.9476 0.0019
vn 0.0717 -0.9974 0.0001
vn -0.0000 -1.0000 -0.0000
vn 0.9871 0.1600 -0.0037
vn -0.8824 -0.0262 0.4698
vn 0.4039 0.6780 -0.6141
vn 0.4039 0.6781 -0.6141
vn 0.9868 0.1619 -0.0051
vn 0.2268 0.2889 0.9301
vn 0.2276 0.2875 0.9303
vn -0.8047 0.5154 0.2947
vn -0.8045 0.5156 0.2947
vn 0.6207 -0.7841 -0.0000
vn 0.6281 -0.7781 -0.0002
vn 0.6428 -0.7661 -0.0000
vn 0.6432 -0.7657 0.0001
vn 0.0047 -0.8699 0.4931
vn -0.0185 -0.8223 0.5688
vn 0.0317 -0.8567 0.5148
vn 0.6275 -0.7786 -0.0001
vn 0.6544 -0.7562 -0.0000
vn 0.0009 -0.0074 1.0000
vn -0.0002 -0.0010 1.0000
vn 0.3636 -0.6467 0.6705
vn -0.0026 -0.8879 0.4600
vn 0.7322 -0.2898 0.6163
vn 0.7322 -0.2899 0.6164
vn 0.5361 -0.1379 -0.8328
vn -0.4350 0.2985 -0.8495
vn -0.4348 0.2986 -0.8496
vn -0.4349 0.2985 -0.8495
vn 0.9871 0.1599 -0.0037
vn 0.9871 0.1598 -0.0035
vt 1.000000 0.000000
vt 1.000000 1.000000
vt 0.000000 0.000000
vt 1.000000 0.000000
vt 0.000000 0.000000
vt 1.000000 1.000000
vt 0.000000 0.000000
vt 1.000000 0.000000
vt 0.000000 0.000000
vt 1.000000 0.000000
vt 1.000000 0.000000
vt 1.000000 1.000000
vt 0.000000 0.000000
vt 1.000000 0.000000
vt 0.000000 0.000000
vt 0.517385 0.029890
vt 0.528232 0.037369
vt 0.516193 0.046874
vt 0.429642 0.026152
vt 0.429646 0.028636
vt 0.952169 0.447527
vt 0.934718 0.925728
vt 0.002752 0.841651
vt 0.505354 0.026169
vt 0.956786 0.368095
vt 0.956786 0.337333
vt 0.520535 0.027423
vt 0.946449 0.351789
vt 0.099741 0.842227
vt 0.542643 0.019753
vt 0.956786 0.333049
vt 0.549130 0.017590
vt 0.113733 0.826688
vt 0.543687 0.033782
vt 0.530591 0.026175
vt 0.543370 0.025129
vt 0.529073 0.028537
vt 0.528230 0.034769
vt 0.952169 0.341617
vt 0.454670 0.033489
vt 0.478623 0.030960
vt 0.478331 0.042735
vt 0.499289 0.042928
vt 0.502125 0.028319
vt 0.536766 0.039878
vt 0.543689 0.036955
vt 0.550903 0.046878
vt 0.570349 0.042900
vt 0.550409 0.023774
vt 0.569992 0.028233
vt 0.581295 0.039579
vt 0.536763 0.034276
vt 0.543690 0.046877
vt 0.536765 0.037162
vt 0.536788 0.052055
vt 0.536766 0.046876
vt 0.559481 0.023011
vt 0.500152 0.058197
vt 0.768875 0.637094
vt 0.536945 0.058275
vt 0.528339 0.052054
vt 0.516343 0.052051
vt 0.619472 0.489034
vt 0.680153 0.548924
vt 0.570396 0.058156
vt 0.543378 0.058273
vt 0.550843 0.052053
vt 0.600745 0.470179
vt 0.476377 0.345469
vt 0.867255 0.867255
vt 0.432070 0.050569
vt 0.790464 0.790464
vt 1.000000 0.867255
vt 0.835789 0.245274
vt 0.437366 0.610903
vt 0.457606 0.613212
vt 0.753900 0.000000
vt 0.409519 0.294268
vt 0.937033 0.973245
vt 0.060643 0.025217
vt 0.430216 0.647608
vt 1.000000 0.031741
vt 0.032726 0.000000
vt 0.032726 0.032726
vt 0.437260 0.647388
vt 0.457561 0.644850
vt 0.708328 0.000000
vt 0.640508 0.012634
vt 0.644586 0.018982
vt 0.708328 0.708328
vt 0.796692 0.754688
vt 0.221373 0.822198
vt 0.841983 0.000000
vt 0.245134 0.245134
vt 0.156285 0.000000
vt 0.469031 0.623173
vt 0.649055 0.024831
vt 0.671220 0.041792
vt 0.875577 0.847171
vt 0.428095 0.612612
vt 0.433295 0.612085
vt 0.356185 0.239250
vt 0.934759 0.979641
vt 0.427981 0.647660
vt 0.643405 0.108819
vt 0.886024 0.981345
vt 0.903731 0.881511
vt 0.671386 0.058058
vt 0.677451 0.051787
vt 0.675956 0.046286
vt 1.000000 0.907004
vt 0.642610 0.579474
vt 0.937029 0.929225
vt 0.429650 0.031119
vt 0.659875 0.616790
vt 0.429658 0.043169
vt 0.934754 0.929226
vt 0.507375 0.326401
vt 0.859852 0.929225
vt 0.003278 0.751671
vt 0.613775 0.530496
vt 0.939385 0.945998
vt 0.459356 0.346403
vt 0.969909 0.868103
vt 1.000000 0.861652
vt 1.000000 0.870212
vt 0.663861 0.064701
vt 0.129788 0.000000
vt 0.478631 0.058102
vt 0.873937 0.741670
vt 0.706961 0.706961
vt 1.000000 0.706961
vt 0.147335 0.675971
vt 1.000000 0.907791
vt 0.907791 0.907791
vt 0.128389 0.685874
s 0
usemtl Hammer.023
f 1/1/1 23/70/1 3/7/1
f 5/13/2 27/87/2 38/131/2
f 26/82/3 39/134/3 34/118/3
f 39/135/4 5/11/4 38/132/4
f 2/5/5 4/10/5 3/6/5
f 4/9/6 6/14/6 3/6/6
f 26/80/7 28/95/7 6/14/7
s 1
f 16/48/8 17/51/9 29/98/10
f 16/45/11 7/17/12 18/54/13
f 16/46/14 18/52/13 12/34/15
f 30/100/16 26/81/17 31/104/18
f 18/53/19 16/47/20 22/67/21
f 10/27/22 9/24/23 12/35/24
f 7/16/25 15/44/26 10/27/22
f 15/44/26 14/41/27 8/20/28
s 0
f 35/121/29 33/112/29 1/3/29
s 1
f 11/30/30 16/49/14 12/36/15
f 10/27/22 12/37/15 7/16/25
f 11/31/31 10/26/32 12/39/33
f 14/41/34 13/40/35 33/114/36
f 14/42/27 15/43/26 7/18/25
f 19/57/37 11/32/30 27/88/38
f 27/89/38 29/97/39 16/50/14
f 15/44/26 8/19/28 9/24/23
f 11/33/30 39/136/40 27/92/38
s 0
f 37/130/41 20/59/41 3/8/41
f 34/118/42 31/105/42 26/82/42
f 39/135/4 26/83/4 5/11/4
f 36/124/43 32/107/44 4/9/44
f 4/9/43 2/4/43 36/125/43
f 2/5/45 3/8/45 36/126/45
f 1/2/46 3/7/46 28/93/46
f 1/2/47 28/94/47 24/74/47
f 28/95/48 3/7/48 6/14/48
f 6/14/49 5/12/49 26/84/49
s 1
f 23/71/50 21/62/51 37/129/52
f 37/129/52 21/62/51 20/58/53
f 25/79/54 33/113/55 35/122/56
f 18/54/13 7/17/25 12/38/15
f 22/65/21 32/108/57 36/127/58
f 30/101/16 24/75/59 26/85/17
f 22/66/21 21/60/51 18/55/19
f 26/86/17 24/76/59 28/96/60
f 32/109/57 22/67/21 16/47/20
f 18/56/19 21/61/51 7/18/25
f 21/62/51 23/71/50 7/18/25
f 23/71/50 33/116/61 7/18/25
f 34/119/62 33/117/55 31/106/18
f 33/117/55 30/103/16 31/106/18
f 10/27/22 15/44/26 9/24/23
f 16/48/20 29/98/10 32/110/57
f 14/41/27 33/114/55 8/20/28
s 0
f 23/72/29 1/3/29 33/115/29
f 1/3/63 24/77/63 35/123/63
f 25/78/64 24/77/64 30/102/64
f 25/78/29 35/123/29 24/77/29
s 1
f 8/21/28 10/28/65 12/39/24
f 25/79/54 30/103/16 33/117/55
f 33/116/61 14/42/27 7/18/25
f 8/21/28 12/39/24 9/25/23
f 19/57/37 16/49/14 11/32/30
f 19/57/37 27/89/38 16/50/14
s 0
f 5/13/66 6/15/66 27/90/66
f 6/15/67 4/10/67 27/90/67
f 4/10/66 32/111/66 27/91/66
f 27/91/66 32/111/68 29/99/68
s 1
f 8/22/28 33/117/55 34/119/62
f 11/33/30 10/29/65 34/120/62
f 10/29/65 8/23/28 34/120/62
f 34/120/62 39/136/40 11/33/30
f 39/136/40 38/133/40 27/92/38
s 0
f 21/63/69 22/68/69 3/8/69
f 20/59/69 21/64/69 3/8/69
f 22/69/69 36/128/69 3/8/69
f 3/8/70 23/73/70 37/130/70
