# Blender 3.3.1
# www.blender.org
mtllib 4s.mtl
o Hammer_cell.004
v -6.874336 -4.161066 1.450995
v -6.058329 -4.196197 1.877962
v -7.559561 -4.649836 5.555532
v -8.157585 -3.919000 5.909020
v -7.771495 -4.256086 5.911957
v -6.548646 -3.733032 7.058105
v -7.256818 -3.302297 7.481640
v -7.636528 -3.103618 7.437310
v -8.665290 -3.830510 5.555532
v -7.468757 -2.453039 7.521825
v -7.104298 -4.660010 5.555532
v -6.605004 -3.228718 7.509642
v -6.623387 -3.495884 7.437504
v -6.899375 -3.490185 7.437485
v -8.801638 -3.127676 5.623529
v -8.793732 -2.396009 5.659961
v -8.643791 -2.914603 5.922504
v -8.604573 -3.323866 5.916230
v -7.065651 -3.616575 7.239691
v -7.593977 -3.336597 7.239084
v -7.276700 -3.688581 7.057961
v -6.878218 -3.731396 7.058101
v -7.989922 -2.850787 7.092587
v -7.828133 -3.267085 7.057479
v -8.318411 -2.900610 6.504076
v -8.493509 -2.982837 6.185385
v -8.450080 -3.310696 6.172402
v -8.502678 -2.280815 6.187805
v -8.325637 -2.210810 6.508517
v -7.784292 -3.533563 6.790045
v -5.650971 -3.409263 7.481966
v -6.876392 -3.078506 7.516806
v -8.452350 -4.003989 5.568690
v -8.791377 -2.814960 5.660653
v -7.188231 -3.012067 7.516728
v -7.062734 -2.664896 7.521845
v -8.816229 -3.572804 5.569747
v -7.417461 -2.857515 7.516728
v -7.611995 -4.451420 5.747845
v -8.157072 -4.131797 5.655078
v -7.957130 -4.340519 5.620673
v -7.887708 -2.570785 7.292614
v -7.889071 -2.239826 7.296422
v -7.701231 -2.599362 7.508912
v -7.700698 -2.262991 7.513636
v -7.790462 -2.847154 7.432045
v -7.247028 -4.472204 5.748160
v -8.598707 -3.594140 5.746998
v -8.061796 -3.531978 6.477088
v -8.211068 -3.648637 6.166936
v -7.856939 -3.046281 7.243463
v -6.953118 -3.881934 6.792023
v -7.041165 -4.058870 6.479256
v -7.273394 -4.230430 6.169761
v -7.421824 -3.811650 6.791595
v -7.457253 -4.017007 6.478906
v -7.833603 -3.745828 6.476513
v -7.769619 -4.051796 6.167616
v -8.241323 -3.318120 6.479368
v -8.097307 -3.178949 6.794605
v -8.143199 -2.686570 6.830129
v -8.500447 -2.686636 6.187926
v -8.323473 -2.608639 6.508280
v -8.145655 -2.347514 6.832716
v -8.845191 -3.588118 4.518953
v -8.918405 -3.263732 4.533029
v -8.665283 -3.830522 4.301401
v -7.800337 -4.584112 3.119661
v -7.105342 -4.660010 1.995432
v -7.284986 -4.658884 2.292123
v -7.437595 -4.655826 2.543473
v -7.985897 -4.448624 3.381819
v -8.232466 -4.241513 3.721240
v -8.928782 -2.619455 4.338055
v -6.749558 -4.660170 1.407741
v -4.099868 -4.660170 5.555646
v -3.128703 -3.496101 7.437854
v -3.602183 -2.689538 7.522681
v -7.995784 -1.816146 7.108355
v -7.558497 -1.766028 7.521798
v -7.828146 -1.745166 7.407447
v -3.117643 -2.802976 7.521881
v -6.900994 -4.660170 1.657565
v -8.927572 -2.933375 4.439229
v -8.744226 -2.141508 5.750618
v -6.118536 -4.660170 1.745484
v -8.474124 -4.021778 4.048376
v -3.095694 -3.084578 7.517478
v -7.653675 -4.639273 2.895329
v -3.324450 -3.733032 7.058366
v -4.001924 -4.473583 5.748312
vn 0.4645 0.1869 -0.8656
vn 0.4644 0.1869 -0.8657
vn -0.8432 -0.1665 -0.5111
vn 0.4615 0.1905 -0.8664
vn 0.2168 0.9155 -0.3389
vn 0.2129 0.9167 -0.3380
vn -0.6058 -0.2928 0.7398
vn -0.6195 -0.5754 0.5339
vn -0.4301 -0.6293 0.6473
vn -0.0189 -0.0232 0.9996
vn -0.2174 -0.1095 0.9699
vn -0.1840 -0.2240 0.9571
vn -0.5778 -0.5604 0.5933
vn -0.7260 -0.6877 -0.0000
vn -0.6869 -0.7267 -0.0011
vn -0.7852 -0.6192 -0.0066
vn -0.5967 -0.6143 0.5162
vn -0.0028 -0.8677 0.4971
vn -0.0012 -1.0000 0.0001
vn -0.0001 -1.0000 0.0001
vn 0.0125 -0.0255 0.9996
vn -0.2335 -0.6830 0.6921
vn -0.0412 -0.8205 0.5702
vn -0.6545 -0.7560 0.0001
vn -0.4351 -0.5673 0.6992
vn -0.5060 -0.5313 0.6795
vn -0.0150 -0.8749 0.4842
vn 0.0002 -0.8724 0.4888
vn -0.0005 -0.8700 0.4930
vn -0.1398 -0.9902 0.0001
vn -0.0364 -0.7823 0.6218
vn -0.1123 -0.5924 0.7977
vn -0.6019 -0.7985 -0.0116
vn -0.2819 -0.5335 0.7975
vn -0.0783 -0.6698 0.7384
vn -0.5437 -0.6514 0.5292
vn -0.4409 -0.6949 0.5681
vn -0.5764 -0.6303 0.5202
vn -0.0595 -0.8562 0.5132
vn -0.3579 -0.2469 0.9005
vn -0.8672 0.0029 0.4980
vn -0.6522 0.2168 0.7264
vn -0.0335 0.0165 0.9993
vn -0.2287 -0.0331 0.9729
vn -0.6944 -0.1492 0.7039
vn -0.5442 -0.3680 0.7539
vn 0.0042 -0.7948 0.6069
vn -0.0001 -0.7873 0.6165
vn -0.7925 -0.3596 0.4926
vn -0.8558 -0.0737 0.5120
vn 0.0018 -0.0312 0.9995
vn -0.0087 -1.0000 -0.0000
vn -0.8748 -0.0054 0.4845
vn 0.0085 -0.3221 0.9467
vn -0.9789 -0.2022 -0.0288
vn -0.8698 -0.0110 0.4933
vn -0.8649 -0.0805 0.4954
vn -0.8735 -0.0215 0.4864
vn -0.0006 -0.4185 0.9082
vn 0.0010 -0.8155 0.5788
vn -0.5869 -0.5068 0.6314
vn -0.5919 -0.6171 0.5184
vn -0.5461 -0.6622 0.5131
vn -0.6574 -0.5370 0.5286
vn -0.5986 -0.6091 0.5203
vn -0.5858 -0.6204 0.5215
vn -0.7041 -0.4872 0.5166
vn -0.2769 -0.8661 0.4162
vn -0.0573 -0.8552 0.5151
vn -0.0314 -0.8805 0.4730
vn -0.4369 -0.8113 0.3885
vn -0.5580 -0.6432 0.5244
vn -0.5477 -0.5281 0.6489
vn -0.0934 -0.8489 0.5203
vn -0.8474 -0.1760 0.5009
vn -0.8885 -0.0442 0.4568
vn -0.8699 -0.0538 0.4903
vn -0.8729 -0.0226 0.4873
vn -0.8730 -0.0191 0.4873
vn -0.8750 -0.0043 0.4840
vn -0.8751 -0.0032 0.4839
vn -0.0000 -0.8700 0.4930
vn -0.0095 -0.7620 0.6475
vn -0.9998 -0.0214 -0.0003
vn -0.3753 -0.9262 -0.0359
vn -0.0095 -0.0288 0.9995
vn -0.0005 -0.0064 1.0000
vn -0.0002 -0.0066 1.0000
vn -0.0045 -0.0001 1.0000
vn -0.0377 -0.9993 -0.0005
vn -0.8435 -0.1682 -0.5101
vn -0.8434 -0.1681 -0.5104
vn -0.8434 -0.1682 -0.5102
vn -0.8434 -0.1681 -0.5103
vn -0.8435 -0.1681 -0.5101
vn -0.8435 -0.1683 -0.5101
vn -0.8435 -0.1681 -0.5102
vn -0.8435 -0.1684 -0.5100
vn 0.2129 0.9168 -0.3380
vn 0.2140 0.9167 -0.3375
vn 0.2141 0.9167 -0.3375
vn -1.0000 -0.0015 -0.0000
vn -0.0001 -1.0000 -0.0000
vn -0.0000 -1.0000 -0.0000
vn -0.8302 -0.0001 0.5574
vn -0.0013 -0.0035 1.0000
vn 0.8825 0.0279 -0.4694
vn 0.8826 0.0280 -0.4692
vn 0.8826 0.0280 -0.4694
vn 0.8825 0.0280 -0.4694
vn 0.8825 0.0280 -0.4695
vn -0.8712 -0.0058 0.4909
vn -0.8415 -0.0032 0.5402
vn -0.8755 -0.0017 0.4832
vt 0.000000 0.000000
vt 1.000000 0.000000
vt 1.000000 1.000000
vt 0.000000 0.000000
vt 1.000000 0.000000
vt 1.000000 1.000000
vt 0.973035 0.238475
vt 0.971933 0.225381
vt 0.003983 0.617465
vt 0.003988 0.612369
vt 0.003987 0.614068
vt 0.003955 0.623943
vt 0.721523 0.929225
vt 0.729174 0.935807
vt 0.718173 0.935807
vt 0.725219 0.935807
vt 0.740318 0.935807
vt 0.733178 0.935807
vt 0.771454 0.981345
vt 0.431569 0.797033
vt 0.437571 0.808134
vt 0.740476 0.992924
vt 0.745477 0.992924
vt 0.434553 0.796695
vt 0.435204 0.808518
vt 0.449312 0.813518
vt 0.439273 0.810369
vt 0.714691 0.996809
vt 0.442871 0.817548
vt 0.446214 0.809742
vt 0.436942 0.810864
vt 0.971933 0.274419
vt 0.004165 0.566438
vt 0.465551 0.818953
vt 0.461787 0.814867
vt 0.466817 0.820248
vt 0.475893 0.813322
vt 0.466473 0.811529
vt 0.971933 0.212200
vt 0.003899 0.636898
vt 0.430508 0.785186
vt 0.430359 0.773530
vt 0.437429 0.779310
vt 0.433371 0.779450
vt 0.428182 0.780151
vt 0.428128 0.774085
vt 0.426254 0.775499
vt 0.426317 0.780761
vt 0.765194 0.988577
vt 0.771435 0.988577
vt 0.431029 0.793965
vt 0.430693 0.789984
vt 0.754932 0.988577
vt 0.759675 0.988578
vt 0.428265 0.785566
vt 0.747882 0.992924
vt 0.701367 0.925728
vt 0.695271 0.925728
vt 0.004176 0.547279
vt 0.004211 0.539452
vt 0.698627 0.929225
vt 0.478405 0.258927
vt 0.677872 0.929225
vt 0.976341 0.319479
vt 0.670386 0.929226
vt 0.695042 0.929226
vt 0.698603 0.935807
vt 0.690304 0.935807
vt 0.708481 0.935807
vt 0.703377 0.929225
vt 0.710379 0.935807
vt 0.701298 0.935807
vt 0.703375 0.935807
vt 0.751043 0.988578
vt 0.729174 0.981345
vt 0.736991 0.988577
vt 0.714950 0.995348
vt 0.434952 0.811453
vt 0.733178 0.981345
vt 0.718133 0.992924
vt 0.740337 0.988578
vt 0.748024 0.981345
vt 0.736977 0.981345
vt 0.748006 0.988577
vt 0.751068 0.981345
vt 0.754951 0.981345
vt 0.765208 0.981345
vt 0.698603 0.981345
vt 0.695009 0.981345
vt 0.725219 0.981345
vt 0.715180 0.981345
vt 0.721523 0.988577
vt 0.703375 0.958311
vt 0.695009 0.958311
vt 0.701298 0.945998
vt 0.695009 0.945998
vt 0.703375 0.945998
vt 0.710379 0.945998
vt 0.712580 0.945998
vt 0.705113 0.945998
vt 0.677857 0.945998
vt 0.670367 0.945998
vt 0.670367 0.958311
vt 0.279797 0.192488
vt 0.661764 0.958311
vt 0.729174 0.970757
vt 0.718173 0.970757
vt 0.733178 0.970757
vt 0.725219 0.970757
vt 0.428005 0.743716
vt 0.430240 0.743618
vt 0.434016 0.793594
vt 0.433670 0.789672
vt 0.442960 0.784703
vt 0.438062 0.793415
vt 0.449735 0.784655
vt 0.718168 0.929226
vt 0.004129 0.577202
vt 0.971933 0.270366
vt 0.004147 0.571820
vt 0.721478 0.925728
vt 0.004246 0.531624
vt 0.004281 0.523797
vt 0.690497 0.925728
vt 0.684558 0.929226
vt 0.971933 0.319479
vt 0.440579 0.807812
vt 0.438593 0.796512
vt 0.449767 0.807439
vt 0.454711 0.805182
vt 0.450212 0.793276
vt 0.461103 0.803039
vt 0.458610 0.796364
vt 0.974137 0.277294
vt 0.708479 0.929225
vt 0.703392 0.925728
vt 0.004180 0.554174
vt 0.004183 0.561056
vt 0.004177 0.549002
vt 0.454354 0.813365
vt 0.460521 0.813301
vt 0.451368 0.809596
vt 0.459167 0.811534
vt 0.456181 0.807383
vt 0.974137 0.235921
vt 0.976341 0.225381
vt 0.743056 0.935807
vt 0.751068 0.935807
vt 0.003985 0.615767
vt 0.748024 0.935807
vt 0.004111 0.582584
vt 0.725152 0.925728
vt 0.729169 0.929225
vt 0.004081 0.589606
vt 0.003990 0.610670
vt 0.740337 0.929225
vt 0.733181 0.929225
vt 0.974137 0.238667
vt 0.004050 0.596627
vt 0.698792 0.992924
vt 0.684648 0.992924
vt 0.462017 0.821510
vt 0.698627 0.988578
vt 0.684545 0.981345
vt 0.690304 0.981345
vt 0.677857 0.981345
vt 0.678240 0.995348
vt 0.677974 0.992924
vt 0.670367 0.981345
vt 0.460932 0.820265
vt 0.670913 0.995348
vt 0.477998 0.816329
vt 0.476961 0.814894
vt 0.684867 0.995348
vt 0.467997 0.821528
vt 0.450705 0.815080
vt 0.459654 0.818989
vt 0.701513 0.995348
vt 0.455694 0.814928
vt 0.444220 0.818838
vt 0.456964 0.821567
vt 0.976341 0.218790
vt 0.765194 0.929225
vt 0.976341 0.212200
vt 0.754951 0.935807
vt 0.003927 0.630421
vt 0.710371 0.929225
vt 0.974137 0.273981
vt 0.712580 0.935807
vt 0.715180 0.935807
vt 0.718173 0.958311
vt 0.725219 0.958311
vt 0.718173 0.945998
vt 0.715180 0.945998
vt 0.725219 0.945998
vt 0.701367 0.992924
vt 0.712580 0.981345
vt 0.712239 0.995348
vt 0.442135 0.819387
vt 0.701307 0.988577
vt 0.701298 0.981345
vt 0.718168 0.988578
vt 0.759686 0.970757
vt 0.751068 0.970757
vt 0.765208 0.958311
vt 0.751068 0.958311
vt 0.759686 0.945998
vt 0.751068 0.945998
vt 0.748024 0.945998
vt 0.748024 0.970757
vt 0.736977 0.970757
vt 0.745489 0.958311
vt 0.748024 0.958311
vt 0.736977 0.958311
vt 0.733178 0.958311
vt 0.729174 0.958311
vt 0.743056 0.945998
vt 0.733178 0.945998
vt 0.729174 0.945998
vt 0.745489 0.945998
vt 0.715180 0.958311
vt 0.712580 0.958311
vt 0.705113 0.958311
vt 0.705113 0.970757
vt 0.715180 0.970757
vt 0.698603 0.970757
vt 0.684545 0.970757
vt 0.695009 0.970757
vt 0.690304 0.970757
vt 0.684545 0.945998
vt 0.690304 0.945998
vt 0.684545 0.958311
vt 0.690304 0.958311
vt 0.677857 0.970757
vt 0.042604 0.554283
vt 0.665453 0.235137
vt 0.048028 0.563356
vt 0.042106 0.552515
vt 0.787564 0.166168
vt 0.041988 0.547846
vt 0.042725 0.543949
vt 0.661101 0.261431
vt 0.051395 0.567481
vt 0.691618 0.586796
vt 0.095756 0.611250
vt 0.099762 0.614364
vt 0.923235 0.848161
vt 0.138034 0.638374
vt 0.856135 0.780605
vt 0.126872 0.631546
vt 0.799955 0.723215
vt 0.756099 0.677018
vt 0.109850 0.621029
vt 0.117416 0.625732
vt 0.674832 0.516997
vt 0.682518 0.555884
vt 0.668267 0.472008
vt 0.079702 0.596584
vt 0.091343 0.607433
vt 0.663117 0.424248
vt 0.073168 0.590237
vt 0.162215 0.162215
vt 1.000000 0.162215
vt 1.000000 0.826539
vt 0.048969 0.522785
vt 0.050158 0.519171
vt 0.707653 0.707653
vt 1.000000 0.707653
vt 1.000000 0.722521
vt 0.155369 0.660771
vt 0.003282 0.750993
vt 0.971933 0.097392
vt 0.367570 0.290457
vt 0.889866 0.988577
vt 0.441694 0.081281
vt 0.426113 0.648127
vt 0.430215 0.648116
vt 0.923758 0.030451
vt 0.457548 0.666815
vt 0.271490 0.066625
vt 0.273432 0.096664
vt 0.660548 0.988578
vt 0.660853 0.981345
vt 0.492146 0.814946
vt 0.301954 0.030641
vt 0.308543 0.030609
vt 0.491785 0.813372
vt 0.492472 0.816386
vt 0.295968 0.030726
vt 0.660387 0.992924
vt 1.000000 0.032815
vt 0.453304 0.648658
vt 1.000000 0.030573
vt 0.032815 0.032815
vt 1.000000 0.925006
vt 0.925006 0.925006
vt 0.150747 0.646136
vt 0.842494 0.163871
vt 0.913296 0.162677
vt 0.046305 0.530991
vt 0.044186 0.538162
vt 0.286014 0.000000
vt 0.560357 0.386815
vt 0.286014 0.286014
vt 0.004377 0.502982
vt 0.971933 0.340371
vt 0.662569 0.935828
vt 0.705899 0.000000
vt 0.147307 0.675640
vt 1.000000 0.294102
vt 0.055724 0.572362
vt 0.060890 0.577840
vt 0.658668 0.294484
vt 0.658183 0.333342
vt 0.659675 0.377047
vt 0.066765 0.583853
vt 0.442723 0.647825
vt 0.078935 0.032942
vt 0.165781 0.033624
vt 0.433185 0.647967
vt 0.449532 0.647909
vt 0.725188 0.641955
vt 0.104185 0.617412
vt 0.500756 0.112419
vt 0.885507 0.981345
vt 0.976341 0.096340
vt 0.859349 0.929225
vt 0.968818 0.360142
vt 0.925405 0.337013
s 0
usemtl Hammer.023
f 75/267/1 2/4/2 86/308/2
f 1/2/3 83/296/3 74/262/3
f 75/268/4 1/1/4 2/5/4
f 82/291/5 2/6/5 1/1/5
f 85/302/6 1/2/6 74/264/6
s 1
f 37/134/7 9/32/8 48/188/9
f 38/140/10 46/176/11 8/26/12
f 33/120/13 67/243/14 87/311/15
f 9/33/8 65/237/16 67/243/14
f 48/190/9 33/117/13 4/15/17
f 11/40/18 69/248/19 86/309/20
f 32/112/21 7/20/22 14/51/23
f 73/261/24 41/159/25 40/154/26
f 53/205/27 91/327/28 6/19/29
f 89/323/30 3/9/31 39/149/32
f 72/259/33 3/10/34 41/155/25
f 41/156/25 39/147/35 5/17/36
f 5/18/36 40/153/26 41/157/25
f 3/7/34 39/145/35 41/158/25
f 56/212/37 58/220/38 54/209/39
f 81/290/40 43/168/41 45/171/42
f 10/34/43 44/170/44 46/177/11
f 10/36/43 42/162/45 44/170/44
f 46/178/11 42/160/45 51/196/46
f 87/312/15 40/151/26 33/118/13
f 47/184/47 76/272/48 91/326/28
f 48/187/9 18/69/49 37/135/7
f 18/70/49 15/57/50 37/136/7
f 35/127/51 8/27/12 7/21/22
f 11/40/18 70/250/52 69/248/19
f 3/8/31 47/182/47 39/146/35
f 42/164/45 43/166/41 64/234/53
f 12/41/54 32/113/21 14/52/23
f 37/137/7 66/238/55 65/235/16
f 33/119/13 48/188/9 9/32/8
f 34/125/56 17/68/57 62/230/58
f 31/110/59 12/42/54 13/46/60
f 60/225/61 49/191/62 30/107/63
f 59/221/64 50/193/65 49/191/62
f 51/197/46 60/225/61 24/91/66
f 27/99/67 48/190/9 50/194/65
f 21/82/68 52/204/69 22/85/70
f 58/217/38 5/17/36 39/147/35
f 56/213/37 54/208/39 53/206/27
f 55/210/71 53/206/27 52/204/69
f 55/211/71 57/215/72 56/214/37
f 21/83/68 30/108/63 55/211/71
f 24/90/66 30/106/63 20/75/73
f 57/216/72 50/195/65 58/219/38
f 58/218/38 4/14/17 5/18/36
f 7/22/22 20/76/73 21/81/68
f 7/23/22 21/84/68 14/56/23
f 21/84/68 22/85/70 19/74/74
f 19/74/74 22/86/70 14/53/23
f 14/54/23 22/87/70 13/49/60
f 48/189/9 27/98/67 18/71/49
f 59/223/64 26/97/75 27/100/67
f 60/224/61 25/93/76 59/223/64
f 23/88/77 61/228/78 60/226/61
f 26/95/75 17/67/57 18/72/49
f 8/28/12 51/198/46 20/77/73
f 25/94/76 62/231/58 26/96/75
f 61/228/78 63/233/79 25/94/76
f 28/101/80 64/234/53 29/103/81
f 13/50/60 90/325/82 77/274/83
f 34/122/56 84/301/84 15/60/50
f 39/149/32 68/246/85 89/323/30
f 88/321/86 82/292/87 78/279/88
f 45/172/42 80/284/89 81/288/40
f 47/186/47 71/254/90 70/250/52
s 0
f 87/313/91 67/242/91 84/299/91
f 67/242/91 65/236/91 84/298/91
f 84/298/91 65/236/91 66/239/91
f 84/299/92 74/263/93 87/314/94
f 74/263/91 83/295/91 69/247/91
f 70/249/91 74/263/91 69/247/91
f 70/249/91 71/251/91 74/263/91
f 74/263/95 71/251/95 72/255/95
f 71/252/91 89/322/91 72/256/91
f 72/256/96 89/322/96 68/244/96
f 72/257/97 73/260/97 74/263/97
f 73/260/97 87/315/97 74/263/98
f 1/2/3 75/269/3 83/296/3
f 74/264/6 85/303/99 16/62/6
f 81/289/100 80/285/100 79/280/100
f 80/286/101 78/278/100 29/104/100
f 78/278/100 82/293/100 1/3/100
f 1/3/100 85/304/100 78/278/100
f 85/304/100 29/104/100 78/278/100
f 29/104/101 79/281/100 80/286/100
s 1
f 34/123/56 74/265/102 84/300/84
f 38/141/10 10/35/43 46/179/11
f 33/120/13 9/33/8 67/243/14
f 9/33/8 37/138/7 65/237/16
f 4/13/17 33/121/13 40/152/26
f 69/248/19 83/297/103 86/309/20
f 75/270/104 86/309/20 83/297/103
f 86/309/20 76/271/48 11/40/18
f 88/317/86 32/114/21 12/43/54
f 34/123/56 85/305/105 74/266/102
f 32/115/21 35/128/51 7/24/22
f 73/261/24 72/258/33 41/159/25
f 8/29/12 46/180/11 51/199/46
f 53/205/27 47/183/47 91/327/28
f 91/327/28 90/325/82 6/19/29
f 6/19/29 22/87/70 53/205/27
f 34/124/56 15/58/50 17/66/57
f 89/323/30 71/253/90 3/9/31
f 45/173/42 10/37/43 80/287/89
f 35/129/51 38/142/10 8/30/12
f 72/259/33 68/245/85 3/10/34
f 5/18/36 4/14/17 40/153/26
f 66/240/55 37/139/7 15/59/50
f 42/161/45 45/174/42 43/167/41
f 10/36/43 45/175/42 42/162/45
f 44/170/44 42/162/45 46/181/11
f 51/200/46 42/163/45 23/88/77
f 15/60/50 84/301/84 66/241/55
f 36/133/106 78/279/88 80/287/89
f 80/287/89 10/37/43 36/133/106
f 47/183/47 53/205/27 54/207/39
f 47/184/47 11/39/18 76/272/48
s 0
f 91/328/107 76/273/107 2/6/107
f 76/273/107 86/310/107 2/6/107
f 2/6/108 82/294/108 91/329/109
f 82/294/110 88/318/110 90/324/107
f 77/275/107 90/324/107 88/319/107
f 90/324/111 91/329/111 82/294/111
s 1
f 13/47/60 77/276/83 31/110/59
f 53/205/27 22/87/70 52/203/69
f 43/168/41 81/290/40 79/282/112
f 18/72/49 17/67/57 15/61/50
f 7/25/22 8/31/12 20/78/73
f 11/40/18 47/186/47 70/250/52
f 16/63/113 34/125/56 62/230/58
f 63/232/79 61/227/78 64/234/53
f 61/227/78 42/164/45 64/234/53
f 16/63/113 62/230/58 28/101/80
f 62/230/58 63/232/79 28/101/80
f 64/234/53 28/101/80 63/232/79
f 31/111/59 77/277/83 88/320/86
f 88/320/86 12/44/54 31/111/59
f 13/48/60 12/45/54 14/55/23
f 85/306/105 34/126/56 16/64/113
f 29/105/81 85/307/114 28/102/80
f 28/102/80 85/307/114 16/65/113
f 36/132/106 10/38/43 38/143/10
f 35/130/51 36/132/106 38/144/10
f 60/225/61 59/221/64 49/191/62
f 24/91/66 60/225/61 30/107/63
f 59/222/64 27/99/67 50/194/65
f 50/194/65 48/190/9 4/15/17
f 54/208/39 39/148/35 47/185/47
f 21/82/68 55/210/71 52/204/69
f 55/210/71 56/213/37 53/206/27
f 55/211/71 30/108/63 57/215/72
f 56/214/37 57/215/72 58/218/38
f 21/83/68 20/79/73 30/108/63
f 30/109/63 49/192/62 57/216/72
f 57/216/72 49/192/62 50/195/65
f 58/219/38 50/195/65 4/16/17
f 14/56/23 21/84/68 19/74/74
f 13/49/60 22/87/70 6/19/29
f 59/223/64 25/93/76 26/97/75
f 51/201/46 23/88/77 60/226/61
f 60/226/61 61/228/78 25/94/76
f 20/80/73 51/202/46 24/92/66
f 26/96/75 62/231/58 17/68/57
f 25/94/76 63/233/79 62/231/58
f 23/89/77 42/165/45 61/229/78
f 79/283/112 29/105/81 43/169/41
f 43/169/41 29/105/81 64/234/53
f 13/50/60 6/19/29 90/325/82
f 87/316/15 73/261/24 40/154/26
f 39/149/32 3/11/34 68/246/85
f 39/150/35 54/209/39 58/220/38
f 78/279/88 36/133/106 32/116/21
f 32/116/21 36/133/106 35/131/51
f 32/116/21 88/321/86 78/279/88
f 27/100/67 26/97/75 18/73/49
f 47/186/47 3/12/31 71/254/90