# Blender 3.3.1
# www.blender.org
mtllib 6s.mtl
o Hammer_cell.006
v -5.367192 2.209135 3.593366
v -3.594584 1.919729 5.704999
v -5.175944 1.283392 2.701180
v -6.883535 -4.123255 1.423129
v -6.063348 -4.155491 1.853401
v -7.285638 -3.829652 1.127732
v -4.137606 -0.645590 1.738759
v -3.877929 -0.789634 1.916255
v -1.549028 0.258375 6.480142
v -8.935214 -1.149675 2.811808
v -7.772972 -1.030010 7.466097
v -8.828855 -1.238704 5.585492
v -8.754665 -0.017315 5.723584
v -8.935214 -0.874483 2.898274
v -7.770257 -1.529296 7.466108
v -8.827492 -1.838698 5.586510
v -8.935214 -1.680227 2.577097
v -7.775498 -0.523660 7.466084
v -8.935741 -2.124488 2.161405
v -8.656930 -1.784804 5.897272
v -8.657715 -1.497362 5.896852
v -8.659991 -0.609838 5.895633
v -8.007253 -0.801972 7.083601
v -8.801994 -1.535691 5.634220
v -8.939444 -1.375250 2.612717
v -8.939444 -1.852633 2.304243
v -7.839983 -0.776771 7.382999
v -7.842162 -0.270468 7.382957
v -9.163247 -1.574492 2.401120
v -7.900605 -1.296857 7.272020
v -8.824819 -0.322350 5.594952
v -8.803957 -0.625195 5.632798
v -8.753442 -0.921144 5.724388
v -8.334984 -1.411748 6.483417
v -8.337125 -0.854643 6.482876
v -8.338045 -0.575535 6.482647
v -8.159951 -0.556561 6.807305
v -8.338702 -0.296423 6.482480
v -3.572393 -2.657546 7.498330
v -7.564841 -1.725120 7.497455
v -8.935219 -2.129305 5.531186
v -2.951678 -2.530585 7.498345
v -2.703793 -2.140809 7.498400
v -2.386955 0.373433 7.498338
v -8.009521 -0.057931 7.083422
v -7.566360 -0.083730 7.497455
v -9.158612 -1.099521 2.662735
v -8.824819 0.284924 5.594948
v -8.935094 -2.609879 1.934486
v -8.934802 -2.606375 2.272923
v -7.898127 -1.730310 7.272121
v -8.333003 -1.919243 6.483914
v -3.104233 -2.767180 7.497557
v -2.645275 0.541768 7.498392
v -8.935122 -2.581500 4.303173
v -8.935050 -2.599051 2.861022
v -3.630259 1.181162 7.498536
v -8.935215 0.817737 4.196447
vn 0.4365 -0.2667 -0.8593
vn -0.2129 -0.9170 0.3372
vn -0.5919 -0.8059 0.0098
vn 0.4380 -0.2679 -0.8581
vn 0.4391 -0.2691 -0.8572
vn 0.6526 0.5891 -0.4766
vn 0.8039 -0.5168 -0.2946
vn 0.8039 -0.5167 -0.2945
vn 0.8066 -0.5129 -0.2938
vn -0.0000 -0.0006 1.0000
vn -0.0000 -0.0001 1.0000
vn -0.0001 -0.0000 1.0000
vn 0.7632 -0.0962 0.6390
vn 0.5146 0.7896 0.3343
vn 0.5129 0.7901 0.3356
vn -0.8331 -0.0005 0.5532
vn -0.8773 0.0001 0.4799
vn -0.8766 -0.0015 0.4812
vn -0.8736 -0.0045 0.4867
vn -0.8741 -0.0043 0.4857
vn -0.8699 0.0093 0.4932
vn -0.8767 -0.0014 0.4810
vn -0.8769 -0.0011 0.4807
vn -0.7755 0.0003 0.6314
vn -0.8116 0.0034 0.5842
vn -0.7997 0.0018 0.6004
vn -0.8619 0.0024 0.5071
vn -0.7156 -0.0017 0.6985
vn -0.7072 0.0013 0.7070
vn -0.7120 0.0002 0.7022
vn -0.7155 -0.0016 0.6986
vn -0.8631 -0.0017 0.5051
vn -0.8351 -0.0149 0.5499
vn -0.3466 -0.1482 0.9262
vn -0.8762 -0.0036 0.4820
vn -0.6261 -0.3521 0.6957
vn -0.3298 -0.5086 0.7953
vn -0.6867 -0.3992 0.6075
vn -0.3955 -0.4333 0.8098
vn -0.8776 -0.0006 0.4793
vn -0.8759 -0.0029 0.4826
vn -0.8758 -0.0029 0.4827
vn -0.8609 -0.0067 0.5087
vn -0.2095 0.0002 0.9778
vn -0.8765 -0.0032 0.4814
vn -0.2853 0.8879 0.3608
vn 0.6567 0.5894 -0.4706
vn -0.5926 -0.8055 0.0061
vn -1.0000 -0.0014 0.0018
vn -1.0000 -0.0011 0.0009
vn -1.0000 -0.0019 0.0002
vn -1.0000 -0.0004 -0.0000
vn -1.0000 -0.0000 -0.0000
vn -0.9489 -0.3139 0.0315
vn -0.8139 -0.0054 0.5809
vn -1.0000 -0.0011 0.0041
vn -0.5897 -0.1497 0.7936
vn -0.8090 -0.0008 0.5878
vn -0.5920 -0.8059 0.0097
vn -0.5920 -0.8059 0.0095
vn -0.1935 0.3707 -0.9084
vn -0.1935 0.3708 -0.9083
vn -0.1936 0.3707 -0.9083
vn 0.8040 -0.5165 -0.2945
vn -0.0052 -0.0000 1.0000
vn -0.0001 -0.0006 1.0000
vn -0.0002 0.0001 1.0000
vn 0.0002 -0.0000 1.0000
vn -0.2841 0.8885 0.3602
vn -0.1838 0.3578 -0.9155
vn -0.1837 0.3573 -0.9157
vn -0.8767 -0.0021 0.4810
vn -0.8766 -0.0027 0.4812
vn -0.8768 -0.0015 0.4809
vn -0.8767 -0.0013 0.4811
vn -0.8762 -0.0015 0.4820
vn -0.8765 -0.0015 0.4814
vn -0.8759 -0.0019 0.4824
vn -0.2143 -0.9164 0.3379
vn -0.2141 -0.9165 0.3378
vn -0.2141 -0.9167 0.3375
vn -0.2141 -0.9165 0.3379
vn -0.2142 -0.9165 0.3379
vn -0.2142 -0.9165 0.3378
vn -0.2138 -0.9167 0.3377
vn -0.2142 -0.9166 0.3375
vn -0.7012 0.0061 0.7130
vn -0.7010 -0.0005 0.7131
vn -0.3558 0.6064 -0.7111
vn -0.3558 0.6065 -0.7111
vn -0.3559 0.6064 -0.7111
vn -0.3558 0.6065 -0.7110
vn -0.2854 0.8879 0.3608
vn -0.2855 0.8879 0.3608
vn -0.2854 0.8879 0.3607
vn 0.6568 0.5892 -0.4706
vn 0.6568 0.5892 -0.4705
vt 1.000000 0.000000
vt 0.000000 0.000000
vt 1.000000 0.000000
vt 0.000000 0.000000
vt 0.000000 0.000000
vt 1.000000 0.000000
vt 1.000000 1.000000
vt 1.000000 0.000000
vt 0.000000 0.000000
vt 1.000000 1.000000
vt 0.000000 0.000000
vt 1.000000 0.000000
vt 1.000000 1.000000
vt 1.000000 1.000000
vt 0.000000 0.000000
vt 1.000000 1.000000
vt 1.000000 0.000000
vt 1.000000 0.000000
vt 0.000000 0.000000
vt 1.000000 1.000000
vt 0.000000 0.000000
vt 1.000000 0.000000
vt 0.106849 0.464975
vt 0.117340 0.460745
vt 0.881814 0.819429
vt 0.644538 0.995348
vt 0.527009 0.819239
vt 0.635337 0.995348
vt 0.004536 0.469108
vt 0.635350 0.923872
vt 0.598414 0.929226
vt 0.598414 0.925728
vt 0.103626 0.454617
vt 0.101587 0.445424
vt 0.840064 0.744566
vt 0.874242 0.804062
vt 0.750311 0.646739
vt 0.492806 0.816388
vt 0.493106 0.817752
vt 0.740545 0.031050
vt 0.660057 0.992924
vt 0.653762 0.923872
vt 0.004426 0.492539
vt 0.115638 0.484962
vt 0.126619 0.478098
vt 0.607647 0.995348
vt 0.537118 0.820636
vt 0.616879 0.988577
vt 0.626112 0.995348
vt 0.127606 0.506518
vt 0.966351 0.866616
vt 0.899585 0.899585
vt 1.000000 0.917547
vt 0.653539 0.929226
vt 0.653534 0.935807
vt 0.644520 0.935807
vt 0.616879 0.935807
vt 0.616879 0.981345
vt 0.626108 0.981345
vt 0.004481 0.480824
vt 0.644526 0.925728
vt 0.644521 0.929226
vt 0.644556 0.923872
vt 0.110889 0.475044
vt 0.121556 0.469646
vt 0.130283 0.483053
vt 0.121021 0.494994
vt 0.888731 0.793626
vt 0.626109 0.992924
vt 0.626108 0.988578
vt 0.602375 0.992924
vt 0.607647 0.988578
vt 0.910224 0.266159
vt 0.127327 0.477630
vt 0.126273 0.078969
vt 0.644520 0.981345
vt 0.644521 0.988578
vt 0.976341 0.408321
vt 0.607648 0.923872
vt 0.607647 0.924286
vt 0.971933 0.396770
vt 0.616882 0.923872
vt 0.004578 0.445743
vt 0.616880 0.925728
vt 0.626112 0.924286
vt 0.004557 0.457425
vt 0.626108 0.935807
vt 0.626108 0.929226
vt 0.626116 0.923872
vt 0.644520 0.958311
vt 0.626108 0.958311
vt 0.616879 0.958311
vt 0.616879 0.970757
vt 0.626108 0.970757
vt 0.607647 0.958311
vt 0.457549 0.665461
vt 0.101442 0.030695
vt 0.492119 0.813372
vt 0.492480 0.814947
vt 0.728702 0.030800
vt 0.722085 0.030769
vt 0.004379 0.502610
vt 0.662747 0.925728
vt 0.394729 0.248645
vt 0.663054 0.924286
vt 0.662532 0.929226
vt 0.966960 0.000000
vt 1.000000 0.033040
vt 0.462319 0.642210
vt 0.842278 0.842278
vt 0.842278 0.000000
vt 0.476921 0.632935
vt 0.842012 0.000000
vt 0.842012 0.842012
vt 0.571090 0.621064
vt 0.598414 0.974582
vt 0.607647 0.981345
vt 0.877729 0.255094
vt 0.771048 0.220161
vt 0.602788 0.995348
vt 0.554471 0.813476
vt 0.553501 0.816526
vt 0.552660 0.819298
vt 0.943521 0.307481
vt 0.943722 0.321669
vt 0.047224 0.000000
vt 0.122304 0.469250
vt 1.000000 0.952776
vt 0.938901 0.890713
vt 0.589495 0.925728
vt 0.971933 0.430717
vt 0.004600 0.411409
vt 0.589264 0.924286
vt 0.398425 0.098499
vt 0.825921 0.000000
vt 0.137011 0.512890
vt 0.975369 0.174102
vt 0.155623 0.121230
vt 0.127354 0.517828
vt 0.908580 0.174247
vt 0.660225 0.988578
vt 0.795095 0.066751
vt 0.823156 0.096764
vt 0.660539 0.981345
vt 0.912505 0.192510
vt 0.661475 0.958311
vt 1.000000 0.030817
vt 1.000000 0.032698
vt 0.458172 0.644872
vt 0.030817 0.030817
vt 0.903753 0.903753
vt 0.577395 0.630740
vt 1.000000 0.903753
vt 0.050556 0.518940
vt 0.174619 0.174619
vt 1.000000 0.174619
vt 0.104874 0.519542
vt 0.695991 0.174292
vt 0.902640 0.000000
vt 0.600319 0.670842
vt 1.000000 0.952804
vt 0.952804 0.952804
vt 0.054789 0.391024
vt 0.108548 0.000000
vt 0.891452 0.000000
s 0
usemtl Hammer.023
f 7/15/1 4/8/1 6/14/1
f 5/11/2 53/147/2 4/10/2
f 4/10/3 56/158/3 50/140/3
f 7/15/4 8/18/4 4/10/4
f 8/19/5 5/12/5 4/10/5
f 3/5/6 8/18/6 7/16/6
f 53/148/7 8/19/8 42/107/7
f 8/20/9 43/111/9 42/108/9
s 1
f 39/96/10 43/112/11 57/160/12
s 0
f 43/110/13 9/21/13 44/113/13
f 9/21/14 54/153/14 44/114/14
f 54/151/15 2/4/15 57/159/15
s 1
f 48/130/16 13/31/17 45/116/18
f 30/77/19 51/141/20 15/41/21
f 22/57/22 38/95/23 13/31/17
f 24/63/24 16/42/25 41/105/26
f 32/81/27 31/78/28 48/131/16
f 32/82/29 33/85/30 31/79/31
f 28/71/32 18/46/33 46/120/34
f 18/48/33 45/117/18 23/58/35
f 26/66/36 17/45/37 29/74/38
f 17/45/37 47/127/39 29/74/38
f 31/80/28 32/84/40 13/32/17
f 51/144/20 34/90/41 52/146/42
f 27/69/43 15/41/21 11/26/44
f 30/76/19 23/59/35 37/94/45
s 0
f 46/125/46 1/2/46 45/119/46
f 3/7/47 2/4/47 8/20/47
f 6/14/48 4/9/48 49/135/48
s 1
f 19/50/49 49/136/50 50/139/51
f 50/139/51 56/157/52 19/50/49
f 56/157/52 55/154/53 25/64/54
f 56/157/52 25/64/54 17/44/37
f 55/154/53 41/102/26 16/43/25
f 16/43/25 24/60/24 55/154/53
f 24/60/24 12/29/55 55/154/53
f 55/154/53 12/29/55 14/33/56
f 26/67/36 19/50/49 56/157/52
f 17/44/37 26/67/36 56/157/52
f 25/64/54 55/154/53 10/23/57
f 33/86/58 32/83/27 14/34/56
f 32/83/27 48/132/16 58/163/53
f 14/33/56 12/29/55 33/86/58
f 55/154/53 14/33/56 10/23/57
f 58/163/53 14/34/56 32/83/27
s 0
f 4/10/3 55/155/3 56/158/3
f 50/140/59 49/137/59 4/10/60
f 29/75/61 47/126/62 26/68/62
f 47/126/63 3/6/63 26/68/61
f 3/6/61 19/51/61 26/68/61
f 53/148/64 5/13/64 8/19/64
f 8/20/9 9/21/9 43/111/9
s 1
f 46/121/34 40/98/65 39/96/10
f 39/96/10 53/149/66 42/109/67
f 42/109/67 43/112/11 39/96/10
f 43/112/11 44/115/68 54/152/68
f 57/160/12 46/121/34 39/96/10
f 43/112/11 54/152/68 57/160/12
s 0
f 9/21/14 2/3/14 54/153/14
f 2/4/69 1/1/69 57/161/69
f 19/52/70 3/5/70 7/17/70
f 7/17/71 6/14/71 19/52/71
f 6/14/70 49/138/70 19/53/71
s 1
f 46/122/34 15/38/21 40/99/65
f 15/39/21 46/123/34 11/27/44
f 37/93/45 23/58/35 45/117/18
f 45/117/18 38/95/23 37/93/45
f 38/95/23 36/92/72 37/93/45
f 36/92/72 22/57/22 35/91/73
f 22/57/22 33/87/74 35/91/73
f 33/88/74 24/62/75 21/56/76
f 24/61/75 41/103/77 20/54/78
f 20/55/78 21/56/76 24/62/75
f 21/56/76 34/90/41 33/87/74
f 34/90/41 35/91/73 33/87/74
f 35/91/73 37/94/45 36/92/72
s 0
f 55/156/79 4/10/79 39/97/79
f 4/10/80 53/150/80 39/97/80
f 39/97/80 40/101/80 52/145/80
f 55/156/81 39/97/81 52/145/81
f 40/100/82 15/40/83 51/142/84
f 51/143/80 52/145/80 40/101/80
f 52/145/85 41/104/80 55/156/86
s 1
f 15/41/21 27/69/43 30/77/19
f 22/57/22 36/92/72 38/95/23
f 45/116/18 13/31/17 38/95/23
f 13/31/17 32/84/40 22/57/22
f 32/84/40 33/88/74 22/57/22
f 41/105/87 33/89/30 24/63/88
f 33/89/58 12/30/55 24/63/24
f 11/27/44 46/123/34 18/47/33
f 18/48/33 28/72/32 45/117/18
f 27/70/43 18/48/33 23/58/35
f 17/45/37 25/65/54 47/127/39
f 47/127/39 25/65/54 10/24/57
s 0
f 58/164/89 1/1/89 3/6/90
f 3/6/89 47/128/89 14/35/89
f 14/36/91 47/129/92 10/25/91
f 14/37/92 58/164/92 3/6/92
s 1
f 48/133/16 31/80/28 13/32/17
f 51/144/20 30/76/19 34/90/41
f 41/106/77 52/146/42 20/55/78
f 52/146/42 34/90/41 20/55/78
f 34/90/41 21/56/76 20/55/78
f 11/28/44 18/49/33 27/69/43
f 37/94/45 35/91/73 34/90/41
f 34/90/41 30/76/19 37/94/45
s 0
f 28/73/93 46/124/94 45/118/94
f 46/125/95 57/162/95 1/2/95
f 1/2/46 58/165/46 48/134/46
f 48/134/46 45/119/46 1/2/46
s 1
f 30/77/19 27/70/43 23/59/35
s 0
f 1/2/96 2/4/96 3/7/96
f 2/4/97 9/22/97 8/20/97