# Blender 3.3.1
# www.blender.org
mtllib 8s.mtl
o Hammer_cell.008
v -1.095038 -0.684299 -2.875899
v -2.662526 0.298995 -0.306726
v -3.254910 -0.758904 1.555281
v -1.752516 -0.650703 -3.905737
v -2.948537 -0.343538 -4.385308
v -5.071359 0.826066 -1.807624
v -4.363122 0.789439 -0.710200
v -5.096924 -2.258248 -5.926555
v -3.801553 -0.837829 1.808920
v -5.986715 -4.205183 1.747131
v -6.351250 -0.138049 -2.486038
v -4.057799 -0.692512 1.631972
v -7.209394 -3.881375 1.019803
v -6.802932 -4.173047 1.315274
v -1.011960 -4.597348 -2.402559
v -1.244069 -4.663072 -2.173387
v -1.326311 -4.669024 -2.587214
v -1.012077 -4.597355 -1.902530
v -1.627462 -4.562384 -3.933347
v -0.578347 -4.253215 -1.682939
v -0.707041 -4.363626 -1.353529
v -2.161243 -4.673370 -0.376863
v -1.083174 -4.632451 -0.914796
v -6.045050 -4.673370 1.612093
v -7.584566 -4.652482 -2.294627
v -7.368199 -4.669024 -2.718633
v -7.215384 -4.672081 -3.013952
v -7.035588 -4.673207 -3.360218
v -2.612430 -4.673370 -5.426075
v -6.742896 -4.673370 1.211066
v -7.903981 -4.471754 0.146726
v -7.258852 -4.671222 0.709033
v -7.659848 -4.632451 0.331001
v -8.288730 -4.142853 -0.694106
v -8.163257 -4.254737 -0.989616
v -0.776825 -4.421103 -2.591655
v -1.367977 -4.669027 -0.781724
v -5.247735 -4.031140 -6.489238
v -5.780346 -4.486672 -5.684182
v -6.442304 -4.673370 1.400146
v -0.930114 -4.541588 -2.838868
v -7.955027 -4.430439 -1.475488
v -8.288733 -4.142853 -0.248757
v -1.135153 -4.652462 -3.166662
v -7.813400 -4.541623 -1.801296
v -0.545283 -4.224584 -2.217414
v -1.419214 -4.562384 -3.606855
v -0.826648 -4.461886 -1.051361
vn 0.8647 0.2673 0.4252
vn 0.8639 0.2651 0.4282
vn 0.4349 -0.2992 0.8493
vn -0.4619 -0.1922 0.8658
vn 0.3087 0.9358 -0.1704
vn 0.3112 0.9354 -0.1681
vn 0.1208 0.8461 0.5192
vn 0.1196 0.8460 0.5197
vn 0.1196 0.8452 0.5209
vn -0.4450 0.2508 0.8597
vn -0.4651 -0.1885 0.8650
vn -0.6740 -0.2273 0.7029
vn -0.2754 0.7703 -0.5751
vn -0.2740 0.7706 -0.5754
vn -0.6463 -0.7630 -0.0141
vn -0.6536 -0.7568 -0.0000
vn -0.6350 -0.7725 0.0001
vn -0.1861 -0.9802 -0.0670
vn -0.5588 -0.8293 0.0060
vn -0.4255 -0.8991 -0.1025
vn -0.0123 -0.9997 -0.0199
vn -0.0080 -1.0000 0.0001
vn -0.0227 -0.9993 0.0302
vn 0.1234 -0.9919 0.0306
vn -0.0388 -0.9988 0.0283
vn 0.2419 -0.9677 0.0709
vn 0.3098 0.9357 -0.1686
vn 0.8643 0.2667 0.4265
vn 0.4352 -0.2980 0.8496
vn -0.8661 0.2166 -0.4504
vn 0.4141 0.2430 -0.8772
vn -0.6789 -0.2316 0.6967
vn -0.6789 -0.2317 0.6967
vn -0.6789 -0.2330 0.6963
vn -0.6563 -0.7545 -0.0000
vn 0.8427 0.0307 -0.5375
vn -0.0431 -0.9990 0.0066
vn -0.6680 -0.7441 -0.0000
vn 0.7115 -0.6682 0.2173
vn 0.6457 -0.6931 0.3205
vn 0.6817 -0.7250 0.0981
vn -0.8661 0.2176 -0.4501
vn 0.8427 0.0309 -0.5375
vn 0.9820 -0.0463 -0.1831
vn 0.6643 0.3539 -0.6584
vn 0.3097 0.9358 -0.1685
vn -0.6755 0.5802 0.4551
vn -0.6078 0.5255 0.5954
vn 0.4861 -0.2596 0.8345
vn -0.8765 0.4812 0.0143
vn -0.8837 0.4664 -0.0403
vn -0.6718 0.2712 0.6893
vn -0.6760 0.5799 0.4546
vn -0.6759 0.5802 0.4545
vn -0.6753 0.5803 0.4552
vn -0.8661 0.2177 -0.4499
vn -0.8702 0.2126 -0.4445
vn -0.9818 -0.0018 -0.1900
vn -0.9364 -0.1149 -0.3317
vn -0.8661 0.2167 -0.4504
vn -0.1006 -0.9949 0.0047
vn -0.1823 -0.9825 0.0370
vn -0.0859 -0.9961 -0.0185
vn -0.0739 -0.9971 -0.0183
vn -0.0073 -0.9994 0.0345
vn 0.0037 -0.9999 0.0121
vn 0.0151 -0.9999 0.0044
vn 0.0014 -0.9994 0.0343
vn -0.0001 -1.0000 -0.0000
vn -0.0011 -0.9999 0.0143
vn -0.0000 -1.0000 -0.0000
vn -0.1037 -0.9805 0.1666
vn -0.4389 0.2691 0.8573
vn 0.4133 0.2430 -0.8776
vn 0.4127 0.2435 -0.8777
vn -0.0350 -0.9631 -0.2667
vn 0.0117 -0.9015 -0.4327
vn -0.0106 -0.8673 -0.4977
vn -0.0183 -0.9926 -0.1203
vn -0.9331 -0.1182 -0.3396
vn -0.8813 0.2178 -0.4194
vn -0.8659 0.2179 -0.4502
vn 0.8494 0.5219 -0.0775
vn 0.8348 -0.0771 -0.5451
vn 0.4514 0.1155 -0.8848
vn 0.0384 -0.9991 -0.0159
vn -0.0311 -0.8437 -0.5360
vn 0.0042 -1.0000 -0.0004
vn 0.3229 -0.3665 0.8726
vn 0.2757 -0.2994 0.9134
vn 0.0055 -1.0000 0.0001
vn 0.0996 -0.9906 -0.0942
vn 0.1063 -0.9943 0.0010
vn 0.4163 -0.9092 -0.0015
vn 0.4062 -0.8973 -0.1726
vn 0.6361 -0.7463 0.1963
vn 0.5241 -0.8515 0.0149
vn 0.6171 -0.7792 -0.1100
vn 0.5713 -0.8204 -0.0233
vn 0.6533 -0.7563 -0.0352
vn 0.8747 -0.0808 -0.4778
vn 0.6374 -0.7705 -0.0001
vn 0.6349 -0.7726 0.0001
vn 0.5804 -0.8088 0.0948
vn 0.8685 -0.4734 -0.1470
vn 0.5822 -0.0606 -0.8108
vn 0.8427 0.0308 -0.5375
vn 0.4271 0.6624 -0.6155
vn 0.6772 -0.2685 -0.6851
vn 0.7789 0.0341 -0.6262
vn 0.8474 -0.0779 -0.5253
vn 0.6407 -0.0158 -0.7676
vn 0.5921 -0.1109 -0.7982
vn 0.1678 -0.9856 -0.0216
vn 0.4972 -0.8675 -0.0176
vn -0.6755 0.5807 0.4544
vn -0.5554 0.6122 0.5629
vn -0.4388 0.2690 0.8574
vt 1.000000 0.000000
vt 0.000000 0.000000
vt 1.000000 1.000000
vt 0.000000 0.000000
vt 1.000000 0.000000
vt 1.000000 0.000000
vt 0.000000 0.000000
vt 1.000000 1.000000
vt 1.000000 0.000000
vt 0.000000 0.000000
vt 1.000000 1.000000
vt 0.000000 0.000000
vt 1.000000 0.000000
vt 0.000000 0.000000
vt 1.000000 0.000000
vt 1.000000 1.000000
vt 0.000000 0.000000
vt 1.000000 0.000000
vt 1.000000 1.000000
vt 1.000000 0.000000
vt 0.000000 0.000000
vt 1.000000 0.000000
vt 0.000000 0.000000
vt 1.000000 1.000000
vt 1.000000 0.000000
vt 0.000000 0.000000
vt 1.000000 0.000000
vt 0.000000 0.000000
vt 1.000000 0.000000
vt 0.000000 0.000000
vt 1.000000 0.000000
vt 0.000000 0.000000
vt 0.000000 0.000000
vt 0.742979 0.036771
vt 0.722161 0.035844
vt 0.720189 0.021865
vt 0.704761 0.026526
vt 0.733478 0.023203
vt 0.000000 0.000000
vt 0.710620 0.038762
vt 0.708129 0.035312
vt 0.713111 0.042317
vt 0.467227 0.395777
vt 0.356405 0.843607
vt 1.000000 0.871945
vt 0.871945 0.871945
vt 0.999802 0.881670
vt 0.878180 0.724190
vt 0.711665 0.711665
vt 1.000000 0.711665
vt 0.000000 0.000000
vt 0.654357 0.029923
vt 0.665933 0.037927
vt 0.966447 0.867759
vt 0.708003 0.708003
vt 0.708003 0.000000
vt 0.289485 0.615076
vt 0.287535 0.206545
vt 0.295300 0.618136
vt 0.316931 0.239980
vt 0.311286 0.626492
vt 0.302258 0.621768
vt 0.000000 0.000000
vt 0.355467 0.280773
vt 0.322426 0.632331
vt 0.459334 0.386168
vt 0.335492 0.639182
vt 0.045033 0.000000
vt 1.000000 0.954967
vt 0.412745 0.808421
vt 0.000000 0.000000
vt 0.804529 0.804529
vt 0.162827 0.649536
vt 1.000000 0.804529
vt 0.916582 0.188335
vt 1.000000 0.316770
vt 0.316770 0.316770
vt 0.206700 0.597033
vt 0.203515 0.602882
vt 0.198370 0.611628
vt 0.916931 0.724797
vt 1.000000 0.662629
vt 0.659083 0.604711
vt 0.180268 0.631754
vt 0.173649 0.638516
vt 0.196172 0.614721
vt 0.649025 0.539677
vt 0.234972 0.584455
vt 0.592042 0.489178
vt 1.000000 0.040707
vt 0.891342 0.854908
vt 0.246109 0.590848
vt 0.736818 0.052008
vt 0.915446 0.790327
vt 0.743680 0.042850
vt 0.649391 0.024834
vt 0.000000 0.000000
vt 1.000000 0.680124
vt 0.180759 0.883785
vt 0.820155 0.704208
vt 0.194912 0.851207
vt 1.000000 0.291284
vt 0.722229 0.722229
vt 0.708716 0.000000
vt 0.743330 0.039683
vt 0.759699 0.037361
vt 0.750826 0.037107
vt 0.000000 0.000000
vt 0.257306 0.597216
vt 0.264422 0.601229
vt 0.166081 0.000000
vt 0.210023 0.590720
vt 0.069824 0.036923
vt 0.830032 0.060636
vt 0.667879 0.617774
vt 0.767051 0.037469
vt 0.000000 0.000000
vt 0.240316 0.138213
vt 0.267766 0.603118
vt 0.283668 0.611950
vt 0.178857 0.024829
vt 0.979839 0.831439
vt 0.884474 0.843935
vt 0.952170 0.091520
vt 0.557824 0.486358
vt 0.671549 0.041793
vt 0.676284 0.046286
vt 0.682305 0.051795
vt 0.902227 0.138065
vt 0.912545 0.912545
s 0
usemtl Hammer.023
f 46/123/1 1/2/1 20/47/1
f 3/7/2 48/129/2 21/48/2
f 22/49/3 10/23/3 24/56/3
f 24/55/4 10/23/4 40/104/4
f 5/12/5 6/15/5 4/11/5
f 2/4/6 1/1/6 4/11/6
f 7/17/7 3/6/7 2/3/7
f 7/17/8 12/27/8 3/8/8
f 12/28/9 9/22/9 3/8/9
f 13/30/10 14/31/10 10/24/10
f 14/32/11 40/102/11 10/24/11
f 14/32/12 30/74/12 40/103/12
f 11/26/13 6/15/13 8/19/13
f 6/14/14 5/13/14 8/19/14
s 1
f 31/78/15 35/92/16 42/109/17
f 33/86/18 45/120/19 25/57/20
f 32/85/21 27/65/22 28/67/23
f 16/37/24 23/52/25 37/96/26
s 0
f 6/14/27 2/5/27 4/11/27
f 1/2/1 2/5/1 20/47/1
f 2/4/28 3/6/28 20/45/28
f 21/48/2 20/46/2 3/7/2
f 9/21/29 10/25/29 22/50/29
f 26/60/30 25/58/30 45/118/30
f 5/12/31 4/9/31 29/69/31
f 14/32/12 13/29/12 30/74/12
f 32/81/32 30/72/32 13/30/32
f 43/114/33 31/75/32 13/30/33
f 31/76/32 32/82/32 13/30/32
f 33/87/34 32/83/34 31/77/34
s 1
f 31/78/15 43/112/35 35/92/16
s 0
f 29/68/36 4/10/36 19/43/36
f 19/43/36 4/10/36 47/125/36
s 1
f 26/61/37 27/65/22 32/84/21
f 42/110/17 45/119/19 31/79/15
f 34/88/38 35/92/16 43/112/35
f 33/86/18 31/80/15 45/120/19
f 48/126/39 23/53/40 18/40/41
s 0
f 35/91/42 34/89/42 11/26/42
f 47/125/43 1/2/44 46/123/45
f 6/14/46 7/18/46 2/5/46
f 13/30/47 12/28/47 43/114/48
s 1
f 23/54/40 3/8/49 9/22/49
s 0
f 11/26/50 34/90/51 43/113/52
f 11/26/53 12/28/54 6/15/54
f 7/18/55 6/16/55 12/28/55
f 8/19/56 35/91/56 11/26/56
f 8/20/56 42/111/56 35/92/57
f 8/20/30 38/98/30 42/111/30
f 38/99/30 39/101/58 42/111/30
f 39/101/59 26/63/30 42/111/30
f 26/64/60 45/121/60 42/111/60
s 1
f 25/59/20 32/83/61 33/87/18
s 0
f 25/59/62 26/62/63 32/84/64
f 28/67/65 30/73/66 32/85/67
f 28/67/68 29/71/69 30/73/70
s 1
f 29/71/71 22/49/71 24/56/71
f 29/71/71 24/56/71 40/104/71
f 29/71/71 40/104/71 30/74/72
s 0
f 22/50/29 23/51/29 9/21/29
f 12/28/73 10/25/73 9/22/73
f 29/69/74 38/97/74 5/12/74
f 38/98/75 8/20/75 5/13/75
s 1
f 29/69/76 39/101/77 38/99/78
f 29/71/76 28/67/79 39/100/77
s 0
f 28/66/60 26/63/60 39/101/80
f 28/67/81 27/65/82 26/64/82
f 19/44/83 44/117/84 29/70/85
f 44/117/86 17/39/86 29/70/87
f 17/39/88 22/49/88 29/71/88
f 37/96/89 23/52/90 22/50/29
f 17/39/91 37/96/92 22/50/91
s 1
f 16/37/24 44/117/93 23/52/25
s 0
f 44/117/94 15/33/94 23/52/95
s 1
f 15/35/96 18/41/41 23/53/40
f 18/42/41 41/108/97 48/127/39
s 0
f 41/105/98 36/95/99 48/128/100
s 1
f 36/93/101 21/48/102 48/129/103
f 36/94/101 46/122/104 21/48/102
f 46/123/104 20/47/105 21/48/102
f 46/123/106 44/115/36 47/125/36
s 0
f 44/117/107 19/44/108 47/124/109
s 1
f 36/95/101 41/105/110 46/122/104
s 0
f 41/106/111 44/116/112 46/123/113
s 1
f 16/36/24 17/38/114 44/117/93
f 41/107/97 15/34/96 44/117/115
f 16/37/24 37/96/26 17/39/114
f 41/108/97 18/42/41 15/35/96
s 0
f 47/125/43 4/11/43 1/2/44
s 1
f 23/54/40 48/130/39 3/8/49
s 0
f 11/26/116 43/114/117 12/28/116
f 12/28/118 13/30/118 10/25/118