# Blender 3.3.1
# www.blender.org
mtllib 9s.mtl
o Hammer_cell.009
v -2.914362 -0.219708 -4.424778
v -5.036764 0.946994 -1.843707
v -2.624816 0.423675 -0.347435
v -4.330543 0.913363 -0.753392
v -1.059289 -0.560858 -2.913096
v -1.718430 -0.530039 -3.943039
v 0.082962 3.550179 -2.588636
v -1.387242 4.664532 -2.956747
v -0.365884 4.091690 -2.705710
v -1.101681 4.643620 -3.324329
v -0.898238 4.532781 -2.210915
v 0.039910 3.638684 -2.957131
v 0.004896 3.692023 -5.528957
v -1.097360 4.643578 -5.528930
v -0.114048 3.833560 -2.589596
v -0.191628 3.915566 -2.949455
v -0.203488 3.925573 -5.528957
v -0.795184 4.452905 -5.528957
v -0.548499 4.245841 -5.528957
v -1.387424 4.664532 -3.599703
v 0.147971 2.206540 -5.528957
v -1.499008 3.427510 -7.379598
v 0.143554 3.124502 -2.588636
v 0.147808 2.725282 -2.588636
v 0.143551 3.123508 -5.528957
v 0.147808 2.724373 -5.528957
v -0.115384 3.834675 -4.242885
v -0.114863 3.834236 -3.599586
v -0.667757 4.349027 -2.635270
v -0.794027 4.452279 -3.014468
v -1.097287 4.643589 -4.891711
v -1.097675 4.643600 -4.288920
v -1.043812 4.623547 -3.755001
v -1.210301 3.212891 -7.379512
v -0.637703 2.570467 -6.780287
v -5.873734 4.664532 -1.790985
v -0.794866 4.453048 -0.845370
v -0.548364 4.245900 -0.759196
v 0.040100 3.638738 -0.530432
v 0.147807 2.725453 -0.324425
v 0.143557 3.124685 -0.406870
v 0.147971 2.283876 -0.234137
v -1.336203 4.660189 -0.983912
v -0.957012 3.031006 -7.273164
v 0.147971 0.114102 -3.037823
v 0.147971 0.811828 -4.960967
v -3.164935 4.664532 -5.528732
v -1.803198 4.664532 -1.067751
v 0.147971 1.398967 -5.528957
v -1.719440 3.627919 -7.213555
v -0.306690 4.026071 -0.671289
vn -0.3104 -0.9357 0.1677
vn -0.3093 -0.9354 0.1715
vn -0.8258 -0.1961 0.5288
vn -0.1736 0.1956 0.9652
vn 1.0000 0.0001 -0.0002
vn 1.0000 0.0030 -0.0005
vn 1.0000 0.0024 -0.0000
vn -0.1716 0.1971 0.9652
vn 0.8245 -0.5176 0.2288
vn 0.4400 -0.8441 -0.3065
vn 0.9628 -0.2539 -0.0921
vn 0.9623 0.0030 -0.2721
vn -0.1910 0.1966 0.9617
vn 1.0000 -0.0000 -0.0000
vn 0.9671 0.0003 -0.2542
vn -0.1714 0.1976 0.9652
vn 0.6423 0.7664 0.0014
vn 0.6431 0.7657 0.0002
vn 0.6347 0.7727 0.0002
vn 0.0273 0.8023 0.5962
vn -0.0042 0.9938 -0.1107
vn -0.0053 0.9981 0.0615
vn 0.0001 0.8521 -0.5234
vn -0.7967 -0.1724 -0.5793
vn -0.7967 -0.1725 -0.5793
vn -0.7979 -0.1758 -0.5766
vn -0.7941 -0.1687 -0.5839
vn 0.1035 -0.7046 -0.7020
vn 0.1070 -0.6909 -0.7150
vn 0.0889 -0.6881 -0.7202
vn 0.1071 -0.6909 -0.7150
vn 0.0897 -0.6865 -0.7216
vn 0.9743 0.1211 -0.1901
vn 0.9744 0.2248 -0.0062
vn 0.9881 0.1529 0.0161
vn 0.0197 0.9998 0.0017
vn 0.0196 0.9998 0.0025
vn 0.5267 0.5142 0.6769
vn 0.8763 0.4818 -0.0001
vn 0.8689 0.3607 0.3391
vn 0.6324 0.7747 -0.0001
vn 0.6324 0.7746 -0.0001
vn 0.6327 0.7744 -0.0001
vn 0.6321 0.7749 -0.0001
vn 0.5864 0.8100 -0.0000
vn 0.6121 0.7908 -0.0000
vn 0.6755 0.7370 0.0249
vn 0.6580 0.7530 0.0025
vn 0.7293 0.6835 -0.0295
vn 0.4511 -0.7059 0.5461
vn 0.7330 0.6803 -0.0058
vn 0.7459 0.6660 0.0001
vn 0.7478 0.6639 -0.0000
vn 0.6109 0.7917 -0.0001
vn 0.4821 0.8761 -0.0000
vn 0.8531 0.5217 -0.0083
vn 0.6307 0.7173 -0.2961
vn 0.5760 0.4962 -0.6497
vn 0.4555 0.7785 -0.4317
vn -0.3083 -0.9359 0.1703
vn -0.3089 -0.9357 0.1703
vn -0.3085 -0.9358 0.1704
vn 0.8968 0.4422 0.0148
vn 0.8497 0.2402 -0.4695
vn 0.7662 -0.6425 0.0106
vn -0.2344 0.9714 0.0365
vn 0.2126 0.9699 0.1188
vn -0.9062 0.3981 -0.1424
vn 0.2543 0.9574 -0.1369
vn 0.9909 0.0329 0.1305
vn 0.1144 0.9803 -0.1610
vn 0.0200 0.9995 0.0252
vn 0.5199 0.6433 -0.5620
vn 0.9152 0.4030 -0.0001
vn 0.5972 0.6798 0.4257
vn -0.1715 0.1974 0.9652
vn -0.8331 -0.2606 -0.4878
vn -0.7966 -0.1735 -0.5791
vn -0.7694 -0.0566 -0.6363
vn 0.4512 -0.7058 0.5462
vn -0.7988 -0.1726 -0.5763
vn -0.7990 -0.1724 -0.5761
vn -0.7962 -0.1711 -0.5803
vn 0.4457 -0.8502 -0.2801
vn 0.6459 0.7634 0.0068
vn 0.5508 0.7826 -0.2902
vn -0.3084 -0.9359 0.1703
vn -0.3087 -0.9358 0.1704
vn -0.1714 0.1975 0.9652
vn 0.3194 0.9356 0.1506
vn -0.0169 0.9526 -0.3037
vn 0.0035 1.0000 -0.0024
vn 0.1965 0.7240 -0.6612
vn 0.1077 -0.6912 -0.7146
vn 0.0931 -0.6834 -0.7241
vn 0.1080 -0.6918 -0.7139
vn 0.8469 -0.0000 -0.5317
vn 0.8467 0.0040 -0.5320
vn -0.1715 0.1975 0.9652
vn -0.2079 -0.0041 0.9781
vn 0.3871 0.9218 0.0218
vn 0.3588 0.9330 0.0273
vn 0.3599 0.9326 0.0272
vn 0.3072 0.9499 0.0569
vn 0.0903 0.9949 0.0457
vn 0.0734 0.9973 0.0003
vn 0.1801 0.9654 -0.1884
vn 0.5354 0.8413 0.0744
vn 0.4995 0.8628 -0.0781
vn 0.2616 0.9645 0.0357
vn 0.1074 -0.6913 -0.7146
vn 0.8111 0.0021 -0.5849
vn 0.8453 0.0144 -0.5341
vn 0.7563 0.6542 0.0008
vn 0.7763 0.6303 0.0045
vn 0.7766 0.6300 0.0027
vn -0.7990 -0.1701 -0.5767
vn -0.7965 -0.1737 -0.5792
vn 0.6321 0.7749 -0.0003
vn 0.6321 0.7749 -0.0006
vn 0.6331 0.7741 -0.0007
vn 0.3799 0.9249 -0.0170
vn 0.4243 0.9045 0.0440
vt 1.000000 1.000000
vt 1.000000 0.000000
vt 1.000000 1.000000
vt 1.000000 1.000000
vt 0.000000 0.000000
vt 0.000000 0.000000
vt 1.000000 0.000000
vt 1.000000 1.000000
vt 0.000000 0.000000
vt 0.000000 0.000000
vt 1.000000 0.000000
vt 0.742910 0.377488
vt 0.879705 0.490177
vt 0.742910 0.373909
vt 0.000000 0.000000
vt 0.750656 0.414354
vt 0.000000 0.000000
vt 0.915265 0.490177
vt 0.911569 0.490177
vt 0.688645 0.551035
vt 0.000000 0.000000
vt 0.770580 0.449655
vt 0.737078 0.436614
vt 0.728085 0.432666
vt 0.757374 0.381063
vt 0.757374 0.379270
vt 0.858323 0.382852
vt 0.858323 0.379265
vt 0.858323 0.390257
vt 0.874959 0.347583
vt 0.858322 0.384645
vt 0.000000 0.000000
vt 0.858309 0.453393
vt 0.858316 0.448426
vt 0.858312 0.450909
vt 0.874959 0.404949
vt 0.000000 0.000000
vt 0.685138 0.551035
vt 0.000000 0.000000
vt 0.757374 0.390259
vt 0.757374 0.395870
vt 0.858323 0.401480
vt 0.858323 0.395868
vt 0.000000 0.000000
vt 0.874959 0.398874
vt 0.858323 0.438147
vt 0.874959 0.387584
vt 0.858323 0.407091
vt 0.874959 0.381939
vt 0.927632 0.368957
vt 0.000000 0.000000
vt 0.874959 0.299120
vt 0.706478 0.594329
vt 0.000000 0.000000
vt 0.877808 0.490177
vt 0.862064 0.490177
vt 0.742910 0.372119
vt 0.742911 0.354010
vt 0.855139 0.490177
vt 0.742911 0.345851
vt 0.874959 0.345358
vt 0.000000 0.000000
vt 0.874959 0.326884
vt 0.874959 0.318760
vt 0.000000 0.000000
vt 0.807848 0.391039
vt 0.782611 0.390818
vt 0.000000 0.000000
vt 0.759642 0.427491
vt 0.000000 0.000000
vt 0.833302 0.446056
vt 0.833310 0.441766
vt 0.809650 0.441827
vt 0.000000 0.000000
vt 0.809343 0.448584
vt 0.788692 0.439537
vt 0.000000 0.000000
vt 0.787822 0.448902
vt 0.785834 0.451226
vt 0.709891 0.593111
vt 1.000000 0.066449
vt 0.771010 0.916010
vt 0.787973 0.915405
vt 0.758874 0.916011
vt 0.000000 0.000000
vt 0.000000 0.000000
vt 0.000000 0.000000
vt 1.000000 0.000000
vt 0.276252 0.162020
vt 0.877941 0.724516
vt 0.000000 0.000000
vt 0.674487 0.427506
vt 0.675848 0.432666
vt 0.000000 0.000000
vt 0.672864 0.421411
vt 0.671104 0.414834
vt 0.895152 0.699944
vt 0.989270 0.514168
vt 0.663668 0.387186
vt 0.000000 0.000000
vt 0.660101 0.373382
vt 0.659407 0.370333
vt 0.654039 0.344643
vt 0.000000 0.000000
vt 0.658485 0.366089
vt 0.650496 0.327309
vt 0.063973 0.000000
vt 0.680944 0.456958
vt 0.000000 0.000000
vt 0.679925 0.451339
vt 0.793101 0.910497
vt 0.789685 0.914008
vt 0.000000 0.000000
vt 0.757376 0.244595
vt 0.000000 0.000000
vt 0.135925 0.000000
vt 0.000000 0.000000
vt 1.000000 0.906797
vt 0.836029 0.269531
vt 0.415410 0.059968
vt 0.000000 0.000000
vt 0.652423 0.037500
vt 0.000000 0.000000
vt 0.682056 0.463178
vt 0.000000 0.000000
vt 0.340200 0.240258
vt 0.000000 0.000000
vt 0.491320 0.142744
vt 0.000000 0.000000
vt 0.664784 0.391343
vt 0.669331 0.408229
s 0
usemtl Hammer.023
f 6/10/1 2/2/1 1/1/1
f 3/5/2 4/7/2 2/3/2
f 4/6/3 36/88/3 2/3/3
f 36/87/4 4/7/4 3/4/4
s 1
f 42/106/5 24/60/6 40/103/7
s 0
f 3/5/8 42/107/8 36/87/8
s 1
f 45/116/9 6/11/10 46/118/11
f 26/65/12 24/60/6 42/106/5
s 0
f 40/103/13 41/104/13 42/107/13
s 1
f 45/114/9 46/119/11 49/125/14
s 0
f 45/114/14 49/125/14 21/51/14
f 45/114/14 21/51/14 42/107/14
s 1
f 21/52/15 26/64/12 42/106/5
s 0
f 39/98/16 51/129/16 38/94/16
f 9/16/17 29/68/18 38/95/18
f 29/68/19 37/90/19 38/97/19
s 1
f 43/108/20 8/15/21 48/124/22
s 0
f 14/33/23 50/127/23 47/120/23
f 50/128/24 22/54/25 1/1/25
f 22/53/26 34/80/27 1/1/24
f 34/81/28 44/113/29 1/1/30
f 44/113/31 35/86/31 1/1/32
s 1
f 25/61/33 7/13/34 23/55/35
s 0
f 43/110/36 10/22/37 8/15/36
s 1
f 39/100/38 12/25/39 13/27/40
s 0
f 29/68/41 30/70/42 37/90/43
s 1
f 30/69/44 11/24/45 37/92/46
f 9/17/47 38/96/48 51/131/49
s 0
f 45/115/50 3/5/50 5/8/50
s 1
f 24/59/6 25/62/33 23/56/35
f 15/37/51 51/130/49 39/99/52
s 0
f 13/32/53 15/37/53 39/99/53
f 30/69/54 18/44/54 11/24/54
f 18/46/55 33/77/55 11/23/55
s 1
f 17/42/56 19/48/57 9/18/47
f 34/82/58 18/47/59 19/49/57
s 0
f 3/5/60 6/11/61 5/8/62
s 1
f 13/30/63 25/61/33 44/111/64
f 13/28/63 44/112/64 34/83/58
f 7/12/34 12/26/39 39/100/38
f 27/66/65 28/67/66 13/31/63
f 13/29/63 34/85/58 17/43/56
f 31/72/67 32/73/68 33/76/69
f 41/105/70 40/103/7 24/60/6
f 36/89/71 48/123/22 20/50/72
f 18/45/59 34/84/58 22/54/73
f 34/85/58 19/48/57 17/42/56
f 39/101/38 41/105/70 23/57/35
s 0
f 12/26/74 7/12/74 13/32/74
s 1
f 18/47/59 9/19/47 19/49/57
f 16/38/75 28/67/66 27/66/65
s 0
f 42/107/76 41/104/76 36/87/76
f 41/104/76 48/123/76 36/87/76
s 1
f 48/123/22 8/15/21 20/50/72
s 0
f 1/1/77 47/122/78 50/128/79
f 45/115/80 42/107/80 3/5/80
f 47/120/81 2/3/82 36/88/83
s 1
f 45/116/9 5/9/84 6/11/10
f 25/61/33 13/30/63 7/13/34
f 39/101/38 23/57/35 7/14/34
f 18/47/59 29/68/85 9/19/47
f 18/45/59 22/54/73 14/36/86
s 0
f 3/5/87 2/2/88 6/11/88
s 1
f 39/102/38 37/91/89 41/105/70
s 0
f 37/91/89 48/123/89 41/104/89
s 1
f 37/93/90 43/109/20 48/124/22
f 20/50/72 14/33/91 47/120/92
f 14/36/86 22/54/73 50/128/93
s 0
f 35/86/94 46/117/94 1/1/95
f 46/118/96 6/11/96 1/1/96
f 49/126/97 35/86/97 21/51/97
s 1
f 35/86/98 26/64/12 21/52/15
f 35/86/98 25/63/33 26/64/12
s 0
f 38/97/99 37/93/99 39/102/100
f 11/24/101 10/21/102 37/92/103
s 1
f 10/22/104 43/110/20 37/93/90
s 0
f 10/22/105 32/74/106 8/15/107
s 1
f 32/75/68 31/71/67 8/15/21
f 31/71/67 14/34/91 20/50/72
f 31/71/67 20/50/72 8/15/21
f 31/72/67 33/77/69 14/35/91
s 0
f 33/77/108 18/46/109 14/36/110
s 1
f 36/89/71 20/50/72 47/121/92
s 0
f 35/86/111 49/126/111 46/119/111
s 1
f 24/59/6 26/65/12 25/62/33
s 0
f 25/63/112 35/86/113 44/113/113
s 1
f 17/43/56 27/66/65 13/31/63
s 0
f 28/67/114 15/37/115 13/32/116
s 1
f 15/37/51 16/39/75 51/130/49
f 16/41/75 9/20/47 51/131/49
f 28/67/66 16/40/75 15/37/51
f 41/105/70 24/60/6 23/58/35
s 0
f 1/1/77 2/3/117 47/122/118
f 18/47/119 30/70/120 29/68/121
s 1
f 33/78/69 10/22/122 11/24/123
f 33/79/69 32/75/68 10/22/122
f 9/20/47 16/41/75 17/42/56
f 16/41/75 27/66/65 17/43/56