# Blender 3.3.1
# www.blender.org
mtllib base_phys.mtl
o Hammer_base
v 18.440098 -0.232294 5.640415
v 7.901806 -3.610555 15.996016
v -14.199210 -3.228238 5.230042
v -1.390298 1.658841 13.037542
v -10.497484 -18.303486 -0.066222
v 15.438416 -4.072062 -0.779540
v 4.716508 -14.559890 -0.773028
v -0.908823 -19.778709 1.292594
v -3.877744 -21.744108 3.491045
v -14.813161 0.125539 -0.779544
v -8.189389 -21.059809 2.686573
v 22.209167 2.851232 -0.779540
v 12.557077 6.238914 -0.779541
v -0.823140 10.934020 -0.779542
v -11.357980 -14.559308 -0.773030
v -4.283098 4.167282 -101.134781
v -5.941087 -1.149763 -100.488548
v 5.597021 2.255327 -100.488640
v 5.597021 -2.255327 -100.488640
v -3.365203 -4.900222 -100.488586
v -5.811186 -3.777462 -96.954819
v 4.941777 4.807793 -96.954819
v -6.854737 1.326460 -96.954819
v 6.988790 0.000000 -96.954819
v -4.942025 4.807793 -96.954819
v -1.363591 -6.668609 -96.954819
v 4.941777 -4.807793 -96.954819
v -0.000124 6.436276 -98.375298
v 1.714547 4.014410 -101.165970
v 1.714547 -4.014429 -101.165970
v -0.928894 0.182901 -101.234985
vn 0.6143 -0.6777 0.4041
vn 0.6090 -0.6787 0.4105
vn 0.2825 0.7894 0.5450
vn 0.2765 0.7926 0.5434
vn -0.4259 -0.2655 0.8649
vn -0.5449 0.7064 0.4518
vn -0.4066 0.9111 -0.0674
vn 0.0122 0.0170 -0.9998
vn -0.7226 0.0472 -0.6897
vn 0.0578 -0.1855 -0.9809
vn 0.0112 -0.0015 -0.9999
vn 0.2448 -0.5983 -0.7630
vn 0.4842 -0.7923 -0.3713
vn -0.3225 0.9456 0.0435
vn 0.3166 0.9091 0.2706
vn -0.8351 0.5258 -0.1617
vn -0.9699 0.1994 -0.1400
vn -0.6259 0.7794 -0.0259
vn -0.9800 0.0342 -0.1962
vn -0.9885 -0.1449 -0.0429
vn -0.9730 -0.2290 -0.0282
vn -0.9705 -0.2284 -0.0769
vn -0.4180 -0.2559 0.8717
vn -0.4088 -0.2655 0.8731
vn -0.4095 -0.2644 0.8731
vn -0.5459 0.7066 0.4501
vn -0.9730 -0.2290 -0.0284
vn -0.9686 -0.2469 -0.0296
vn 0.6365 -0.7679 -0.0723
vn 0.7924 -0.5890 -0.1588
vn 0.7400 -0.6724 -0.0156
vn 0.7233 -0.6904 -0.0144
vn -0.9554 -0.2591 -0.1416
vn -0.9476 -0.3185 -0.0252
vn -0.9633 -0.2558 -0.0810
vn -0.4188 -0.2513 0.8726
vn -0.4110 -0.2594 0.8739
vn -0.4120 -0.2691 0.8705
vn -0.6064 -0.6215 -0.4960
vn -0.5592 -0.8018 -0.2108
vn -0.7505 -0.6435 -0.1505
vn 0.2782 0.7926 0.5426
vn 0.2781 0.7926 0.5426
vn 0.1107 -0.9779 -0.1775
vn 0.4008 -0.9158 -0.0245
vn 0.2426 -0.9382 -0.2468
vn -0.9474 0.1937 -0.2547
vn -0.9474 0.1937 -0.2546
vn 0.6911 -0.7154 0.1029
vn 0.6959 -0.7111 0.0999
vn 0.6924 -0.7138 0.1053
vn 0.7076 -0.7017 0.0836
vn 0.9473 -0.2533 -0.1961
vn 0.9702 0.2349 -0.0601
vn 0.6881 0.7043 -0.1746
vn -0.2718 -0.9497 -0.1559
vn -0.2869 -0.9436 -0.1652
vn -0.2662 -0.9488 -0.1700
vn -0.2718 -0.9495 -0.1570
vn 0.6959 -0.7114 0.0985
vn 0.6919 -0.7146 0.1032
vn 0.6001 -0.7954 -0.0851
vn 0.6002 -0.7945 -0.0920
vn 0.5996 -0.7964 -0.0781
vn 0.6959 -0.7114 0.0979
vn 0.6975 -0.7131 -0.0707
vn 0.6954 -0.7144 -0.0772
vn 0.7201 0.3391 -0.6054
vn 0.6051 0.7559 -0.2501
vn 0.6839 -0.7260 -0.0724
vn 0.5697 -0.6480 -0.5055
vn 0.9056 -0.3831 -0.1819
vn 0.7924 -0.5889 -0.1587
vn 0.7944 -0.5706 -0.2081
vn 0.3466 0.9373 -0.0370
vn 0.5698 -0.6479 -0.5055
vn 0.0211 0.0086 -0.9997
vn 0.7670 0.5486 -0.3328
vt 0.000000 0.000000
vt 1.000000 0.000000
vt 1.000000 1.000000
vt 0.000000 0.000000
vt 1.000000 0.000000
vt 1.000000 1.000000
vt 0.000000 0.000000
vt 1.000000 0.000000
vt 1.000000 0.000000
vt 0.000000 0.000000
vt 0.000000 0.000000
vt 0.726414 0.096004
vt 0.974639 0.833017
vt 0.000000 0.000000
vt 0.266919 0.266919
vt 0.616773 0.267499
vt 0.569363 0.280014
vt 0.841699 0.841699
vt 0.567310 0.311150
vt 0.861263 0.861263
vt 0.884823 0.884823
vt 0.954194 0.856002
vt 0.863173 0.863173
vt 0.603941 0.590110
vt 0.000000 0.000000
vt 0.902176 0.174674
vt 0.922076 0.852811
vt 0.945750 0.945750
vt 1.000000 0.945750
vt 0.130350 0.000000
vt 0.000000 0.000000
vt 0.000000 0.000000
vt 0.594486 0.540558
vt 0.064217 0.000000
vt 1.000000 0.136277
vt 0.000000 0.000000
vt 0.053498 0.000000
vt 0.935783 0.000000
vt 0.729191 0.108441
vt 0.733183 0.125861
vt 0.726867 0.098295
vt 0.210791 0.306947
vt 0.096859 0.856741
vt 0.261272 0.253792
vt 0.000000 0.000000
vt 0.027355 0.841793
vt 0.943015 0.832314
vt 0.913614 0.823700
vt 0.277042 0.234969
vt 0.000000 0.000000
vt 0.469619 0.761778
vt 0.409110 0.765608
vt 0.382289 0.802288
vt 0.528557 0.871386
vt 0.079418 0.219118
vt 0.116297 0.195579
vt 0.591339 0.765603
vt 0.556761 0.871812
vt 0.230221 0.104183
vt 0.797228 0.796258
vt 0.250365 0.108079
vt 0.801763 0.903986
vt 0.721646 0.886146
vt 0.884462 0.815909
vt 0.826330 0.802279
vt 0.818662 0.834845
vt 0.379274 0.768595
vt 0.349650 0.772133
vt 0.057467 0.832328
vt 0.500223 0.761310
vt 0.561228 0.763274
vt 0.530828 0.761776
vt 0.145079 0.808819
vt 0.086865 0.823714
vt 0.174139 0.802292
vt 0.000000 0.000000
vt 0.768088 0.790691
vt 0.738882 0.785531
vt 0.709624 0.780639
vt 0.621177 0.768587
vt 0.680278 0.776157
vt 0.650803 0.772125
vt 0.000000 0.000000
vt 0.180120 0.337806
vt 0.290834 0.780649
vt 0.203238 0.796271
vt 0.353271 0.805422
vt 0.000000 0.000000
vt 0.190647 0.303050
vt 0.000000 0.000000
vt 0.116404 0.215549
vt 0.209704 0.104183
vt 0.694709 0.882134
vt 0.676055 0.809096
vt 0.584763 0.872722
vt 0.000000 0.000000
vt 0.214387 0.267657
vt 0.213721 0.143440
vt 0.241889 0.211919
vt 0.238630 0.145827
vt 0.156563 0.211665
s 0
usemtl Hammer.022
f 2/5/1 9/20/1 1/1/1
f 2/4/2 11/26/2 9/21/2
f 1/2/3 12/28/3 2/4/3
f 14/34/4 4/9/4 2/3/4
f 4/10/5 3/8/5 2/3/5
f 14/35/6 3/6/6 4/10/6
f 15/39/20 5/11/21 10/25/21
f 17/47/22 15/40/22 10/25/22
f 5/13/23 2/4/24 3/8/25
f 14/36/26 10/24/26 3/7/26
f 10/25/27 5/11/27 3/8/28
f 5/12/33 15/41/34 17/47/35
s 1
f 11/27/36 2/4/37 5/13/38
s 0
f 12/29/42 13/32/42 2/5/42
s 1
f 13/33/15 14/37/14 2/5/43
s 0
f 16/45/47 17/50/48 23/69/47
f 9/22/49 6/14/50 1/2/51
s 1
f 6/15/32 12/30/31 1/2/52
s 0
f 26/77/56 11/27/57 5/13/58 20/60/59
f 8/19/60 6/14/60 9/22/61
f 27/82/62 8/18/63 9/22/64
s 1
f 8/19/65 7/17/65 6/14/65
s 0
f 7/16/66 27/83/66 6/15/67
f 29/90/69 28/87/69 22/67/69
f 7/17/70 8/19/70 27/83/70
f 28/88/75 13/33/75 12/31/75 22/68/75
s 1
usemtl GripBottom.002
f 28/84/7 29/89/8 16/42/9
f 18/56/10 31/101/11 29/91/8
f 29/89/8 31/97/11 16/42/9
f 20/59/12 31/98/11 30/92/13
f 28/85/7 14/37/14 13/33/15
f 25/74/16 23/69/17 10/23/18
f 23/69/17 17/46/19 10/23/18
f 25/73/16 10/23/18 14/36/14
f 27/80/29 19/57/30 12/30/31 6/15/32
f 30/95/13 19/57/30 27/80/29
f 16/43/9 23/69/17 25/74/16
f 17/48/39 21/64/40 5/13/41
f 21/65/40 20/60/12 5/13/41
f 31/99/11 17/49/39 16/44/9
f 16/45/9 25/75/16 28/86/7
f 26/79/44 27/81/29 9/21/45 11/26/46
f 24/70/53 18/51/54 12/31/31
f 18/52/54 22/67/55 12/31/31
f 19/57/30 24/71/53 12/30/31
f 14/38/14 28/86/7 25/76/16
f 31/100/11 20/61/12 17/50/39
f 20/62/12 21/66/40 17/50/39
f 20/63/12 30/93/13 26/78/44
f 30/94/13 27/81/29 26/79/44
f 18/53/54 29/90/68 22/67/55
f 30/95/71 24/71/72 19/57/73
f 19/58/74 18/54/54 24/72/53
f 19/58/74 30/95/76 18/54/54
f 30/95/71 29/91/77 18/55/78
f 31/101/11 18/56/10 30/96/13
