# Blender 3.3.1
# www.blender.org
mtllib base_physmdl.mtl
o Hammer_base
v -0.626561 -0.025804 2.048402
v -1.776903 -0.401075 0.877765
v -1.448264 0.184271 -0.154440
v 0.086550 -1.265359 -1.344482
v -0.145540 -2.186318 -1.037907
v 0.086595 -0.765450 1.394892
v 0.026806 -2.003663 0.120746
v 0.086504 -1.497392 0.646667
v -0.299385 -2.340216 -0.289630
v 0.086594 0.316727 2.467085
v 0.086595 0.693044 1.394892
v 0.086595 1.214596 -0.091438
v -0.112888 -0.347497 -1.566270
v 0.086595 0.204386 -1.399063
v 11.045310 0.624570 0.204160
v 11.063253 -0.501024 -0.434271
v 10.627125 -0.280179 0.695262
v 10.770139 0.147349 -0.761452
v 11.002302 0.545460 -0.453558
v 10.420793 -0.726082 -0.000013
v 10.426486 0.712382 0.145641
v 11.242957 0.000000 -0.302609
v 11.240449 -0.088497 0.302788
vn -0.5450 0.7894 0.2825
vn 0.4832 0.2927 -0.8251
vn -0.2356 0.9165 0.3232
vn 0.6240 0.6214 0.4739
vn -0.4041 -0.6777 0.6143
vn -0.6042 -0.7004 0.3799
vn -0.5886 -0.7205 0.3667
vn -0.6014 -0.7041 0.3776
vn -0.5426 0.7926 0.2781
vn -0.5426 0.7926 0.2782
vn -0.5434 0.7926 0.2765
vn -0.1839 -0.2684 -0.9456
vn 0.9702 0.0092 -0.2423
vn 0.0852 -0.9440 0.3189
vn 0.7789 -0.6159 0.1178
vn 0.0382 0.9429 0.3309
vn -0.1003 0.9787 -0.1792
vn -0.2159 0.9323 0.2900
vn 0.0768 0.8682 0.4902
vn 0.0923 -0.6876 0.7202
vn 0.0604 -0.7352 0.6752
vn -0.2805 -0.6859 0.6714
vn 0.0793 -0.7016 0.7081
vn -0.7894 -0.2071 0.5779
vn -0.2771 -0.6412 0.7156
vn 0.1738 0.4065 0.8970
vn 0.1988 0.6994 0.6865
vn -0.7631 -0.6456 -0.0298
vn -0.0788 -0.7016 0.7082
vn -0.2779 -0.7186 0.6375
vn -0.0528 -0.7024 0.7098
vn 0.2033 -0.8531 0.4805
vn 0.6764 -0.7346 0.0535
vn -0.8936 -0.4250 0.1443
vn -0.0762 -0.7428 0.6652
vn -0.0614 -0.7126 0.6989
vn -0.2602 0.1487 -0.9540
vn -0.3047 0.2596 -0.9164
vn 0.0295 0.9720 -0.2332
vn 0.5527 -0.8160 0.1692
vn -0.6366 -0.7631 0.1115
vn 0.6936 -0.7202 -0.0167
vn 0.5680 -0.6241 -0.5365
vn -0.2571 -0.8123 0.5236
vn 0.0624 -0.7892 0.6109
vn 0.1338 -0.8241 0.5504
vn -0.0801 -0.7141 0.6955
vn -0.1220 -0.7124 0.6911
vn -0.1218 -0.7127 0.6908
vn 0.3320 -0.5210 -0.7864
vn 0.0027 -0.5337 -0.8457
vn -0.4516 0.7061 -0.5455
vn 0.0034 0.4382 -0.8989
vn -0.6414 0.5173 -0.5666
vn -0.8010 -0.2350 -0.5505
vn -0.9007 0.0080 -0.4344
vn -0.9069 -0.0453 -0.4189
vn -0.6946 -0.6961 -0.1815
vn -0.3559 -0.9109 -0.2088
vn 0.1573 -0.9525 -0.2610
vn -0.1594 -0.7167 -0.6789
vn 0.0818 -0.2173 -0.9727
vn -0.2609 -0.4212 -0.8686
vn 0.1532 -0.2647 -0.9521
vn -0.3862 0.6247 -0.6786
vn 0.0588 0.2699 -0.9611
vn 0.4659 -0.2073 -0.8602
vn -0.7683 0.2873 -0.5719
vn -0.0569 0.7800 -0.6232
vn 0.0081 0.6701 -0.7423
vn -0.4315 0.8594 0.2742
vt 0.000000 0.000000
vt 1.000000 0.000000
vt 0.000000 0.000000
vt 1.000000 0.000000
vt 1.000000 1.000000
vt 1.000000 0.000000
vt 0.000000 0.000000
vt 0.774091 0.375538
vt 0.735181 0.134094
vt 0.711464 0.490177
vt 0.823469 0.823469
vt 0.906271 0.000000
vt 0.726414 0.096004
vt 0.922076 0.852811
vt 0.541335 0.334918
vt 1.000000 0.368229
vt 0.614095 0.119203
vt 0.587594 0.271703
vt 0.606743 0.126400
vt 0.654838 0.266038
vt 0.861263 0.861263
vt 0.902176 0.174674
vt 1.000000 0.841698
vt 1.000000 0.861263
vt 1.000000 0.945750
vt 0.469146 0.263364
vt 0.000000 0.000000
vt 0.945750 0.945750
vt 0.658256 0.503943
vt 0.735696 0.581027
vt 0.545070 0.290016
vt 0.053498 0.000000
vt 0.053498 0.053498
vt 0.646356 0.325560
vt 1.000000 0.000000
vt 0.749888 0.478557
vt 0.000000 0.000000
vt 0.604093 0.460087
vt 0.290834 0.780649
vt 0.405360 0.730002
vt 0.000000 0.000000
vt 0.170988 0.245140
vt 0.286888 0.083713
vt 0.875346 0.848787
vt 0.768088 0.790691
vt 0.189602 0.108078
vt 0.650803 0.772125
vt 0.561228 0.763274
vt 0.626800 0.724325
vt 0.068551 0.865583
vt 0.903620 0.856731
vt 0.000000 0.000000
vt 0.096859 0.856741
vt 0.324714 0.215550
vt 0.082749 0.906076
vt 0.261579 0.785543
vt 0.248373 0.872648
vt 0.680278 0.776157
vt 0.658936 0.715844
vt 0.000000 0.000000
vt 0.000000 0.000000
vt 0.373648 0.724335
vt 0.279231 0.710895
vt 0.361823 0.192034
vt 0.286479 0.126817
vt 0.200396 0.215899
vt 0.559595 0.797793
vt 0.647182 0.805415
vt 0.335456 0.483005
vt 0.163950 0.234968
s 0
usemtl Hammer.023
f 1/2/1 10/28/1 2/3/1
f 1/1/5 2/4/5 9/21/5
f 2/3/6 5/12/7 9/22/8
f 11/29/9 12/32/9 2/4/9
f 2/4/10 10/25/10 11/30/10
f 3/6/11 2/5/11 12/33/11
f 5/11/12 13/37/12 4/8/12
f 21/61/16 11/31/17 10/26/18
f 6/16/20 8/20/21 17/49/22
f 10/28/23 6/15/24 17/48/25
f 15/41/26 10/27/26 17/48/27
f 6/15/28 10/28/29 1/2/29
s 1
f 17/49/30 8/19/31 7/17/32
s 0
f 6/15/33 1/2/34 7/18/35
s 1
f 8/20/31 6/16/36 7/17/32
s 0
f 17/49/44 7/18/45 9/23/46
f 7/18/47 1/2/48 9/24/49
f 12/33/52 14/38/53 3/7/54
f 2/5/55 3/7/56 13/35/57 5/14/58
f 16/45/59 20/60/60 5/14/61
f 18/52/62 4/10/63 13/36/64
f 14/38/65 18/52/66 13/37/67
s 1
f 3/7/68 14/38/69 13/37/70
usemtl GripBottom.003
f 19/56/2 21/63/3 15/39/4
f 23/68/13 17/47/14 20/58/15
f 23/67/13 15/41/4 17/48/14
f 23/68/13 20/58/15 16/45/40
f 20/59/15 17/49/14 9/22/41 5/12/42
f 19/54/2 22/64/43 16/43/40
f 19/55/2 16/44/40 18/51/37
f 23/69/13 16/46/40 22/65/43
f 21/63/3 19/56/2 12/34/39 11/31/71
f 23/70/13 22/66/43 19/57/2 15/42/4
usemtl Grip.003
f 15/40/4 21/62/3 10/27/19
f 19/53/2 18/50/37 14/38/38 12/33/39
f 18/51/37 16/44/40 5/13/50 4/9/51