# Blender 3.3.1
# www.blender.org
mtllib base_phys.mtl
o Hammer_base
v 9.540131 -0.120179 2.918113
v 4.088062 -1.867950 8.275666
v -7.346074 -1.670155 2.705804
v -0.719281 0.858215 6.745076
v -5.430956 -9.469455 -0.034260
v 7.987186 -2.106714 -0.403301
v 2.440123 -7.532675 -0.399932
v -0.470187 -10.232674 0.668734
v -0.011393 -9.837786 0.276754
v 0.562355 -9.331765 -0.124843
v -0.913816 -10.610372 1.070421
v -1.348911 -10.899211 1.394343
v -2.006182 -11.249489 1.806120
v -2.592396 -11.433985 2.030723
v -3.608369 -11.105400 1.634631
v -7.663706 0.064949 -0.403303
v -7.467236 -0.769978 -0.403303
v -5.256399 -10.307089 0.741314
v -4.236845 -10.895460 1.389920
v -1.351539 4.942727 -0.403302
v -7.467236 -0.378059 0.530471
v 11.490088 1.475108 -0.403301
v 6.496503 3.227752 -0.403302
v -0.425858 5.656803 -0.403302
v -7.294674 -1.618414 0.525757
v -5.876141 -7.532375 -0.399933
v 1.956557 -8.004617 -0.391909
v -5.613587 -8.654236 -0.351292
v -2.215895 -2.155977 -52.322880
v -2.215895 2.155977 -52.322880
v 2.606091 -1.693944 -52.322918
v 0.611604 2.990432 -51.988575
v 0.611604 -2.990432 -51.988575
v 1.199523 2.816918 -51.988583
v -2.605698 -1.693944 -51.988544
v 0.000177 -3.049013 -51.988575
v 1.741368 2.535159 -51.988583
v 2.216288 2.155977 -51.988583
v -3.073668 -0.594839 -51.988544
v 2.895663 1.166812 -51.988594
v -3.073668 0.594829 -51.988544
v 3.134237 0.000000 -51.988594
v -2.605698 1.693944 -51.988544
v 2.895663 -1.166812 -51.988594
v -1.741014 2.535159 -51.988564
v -1.199180 2.816918 -51.988564
v -0.611251 -2.990432 -51.988564
v 2.216288 -2.155977 -51.988583
v -0.611251 2.990432 -51.988564
v -1.199180 -2.816928 -51.988564
v 1.741368 -2.535169 -51.988583
v 0.000177 3.049013 -51.988575
v -1.741014 -2.535169 -51.988564
v 1.199523 -2.816928 -51.988583
v 0.705336 3.450058 -50.160339
v -2.556796 -2.487350 -50.160339
v 0.667677 -3.265883 -50.895237
v 0.705336 -3.450058 -50.160339
v 1.383628 3.249887 -50.160339
v -2.845957 -1.849967 -50.895237
v -3.006463 -1.954301 -50.160339
v -0.000064 -3.517655 -50.160339
v 1.901513 2.768678 -50.895237
v 2.008745 2.924822 -50.160339
v -3.162256 -1.274284 -50.895237
v -3.340594 -1.346143 -50.160339
v 2.420181 2.354564 -50.895237
v 2.556667 2.487350 -50.160339
v -3.546352 -0.686265 -50.160339
v 3.006335 1.954301 -50.160339
v -3.422793 0.000000 -50.895237
v -3.615824 0.000000 -50.160339
v 3.340466 1.346143 -50.160339
v -3.546352 0.686255 -50.160339
v 3.546224 0.686255 -50.160339
v -3.162256 1.274284 -50.895237
v -3.340594 1.346143 -50.160339
v 3.615706 0.000000 -50.160339
v -2.845966 1.849967 -50.895237
v -3.006463 1.954301 -50.160339
v 3.546224 -0.686265 -50.160339
v -2.556796 2.487350 -50.160339
v 3.162137 -1.274284 -50.895237
v 3.340466 -1.346143 -50.160339
v -2.008873 2.924822 -50.160339
v 3.006335 -1.954301 -50.160339
v -1.383756 3.249887 -50.160339
v -0.667805 -3.265883 -50.895237
v -0.705465 -3.450058 -50.160339
v 2.556667 -2.487350 -50.160339
v -0.705465 3.450058 -50.160339
v -1.309881 -3.076392 -50.895237
v -1.383756 -3.249887 -50.160339
v 1.901513 -2.768678 -50.895237
v 2.008745 -2.924822 -50.160339
v -0.000064 3.329859 -50.895237
v -0.000064 3.517645 -50.160339
v -1.901631 -2.768678 -50.895237
v -2.008873 -2.924822 -50.160339
v 1.309763 -3.076392 -50.895237
v 1.383628 -3.249887 -50.160339
v -0.448036 -2.204819 -52.338997
v -2.263553 -0.438565 -52.338951
v -2.263553 0.438565 -52.338951
v -0.448036 2.204819 -52.338997
v 0.887035 2.076887 -52.339016
v 1.636684 1.589581 -52.339024
v 2.137579 0.860281 -52.339035
v 2.313481 0.000000 -52.339035
v 0.887035 -2.076897 -52.339016
v 0.006475 -1.377414 -52.362442
v -0.994675 -0.973981 -52.362434
v -1.409360 0.000000 -52.362423
v -0.535350 1.272569 -52.362434
v 0.282688 1.350947 -52.362442
v 1.183697 0.765254 -52.362453
v 1.422300 0.000000 -52.362453
v 1.183697 -0.765254 -52.362453
v -0.480571 0.094625 -52.374718
v 0.285396 0.403282 -52.374718
v 0.285396 -0.403292 -52.374718
vn 0.6143 -0.6777 0.4041
vn 0.6090 -0.6787 0.4105
vn 0.2825 0.7894 0.5450
vn 0.2765 0.7926 0.5434
vn -0.4259 -0.2655 0.8649
vn -0.5449 0.7064 0.4518
vn -0.8312 -0.5163 -0.2064
vn -0.8159 -0.5488 -0.1820
vn -0.9075 -0.3809 -0.1770
vn -0.8640 -0.4158 -0.2839
vn -0.4305 -0.8828 -0.1878
vn -0.3946 -0.8924 -0.2187
vn -0.5310 -0.8246 -0.1952
vn -0.4310 -0.8735 -0.2265
vn 0.4787 -0.8419 -0.2492
vn 0.5361 -0.8264 -0.1723
vn 0.3615 -0.9141 -0.1835
vn 0.4143 -0.8755 -0.2488
vn 0.7670 0.5487 -0.3328
vn 0.0211 0.0086 -0.9997
vn 0.0175 0.0147 -0.9997
vn -0.3727 0.7594 -0.5333
vn 0.0078 0.0215 -0.9997
vn -0.1779 0.2493 -0.9519
vn 0.3690 0.8941 -0.2539
vn 0.1246 0.3314 -0.9352
vn 0.4608 -0.5589 -0.6894
vn -0.2169 -0.1724 -0.9608
vn 0.2168 -0.2154 -0.9522
vn -0.0081 -0.9758 -0.2185
vn 0.7201 0.3391 -0.6054
vn 0.2310 0.2657 -0.9360
vn 0.0110 0.0166 -0.9998
vn 0.0188 0.0094 -0.9998
vn -0.1689 0.2037 -0.9643
vn -0.0172 -0.0042 -0.9998
vn -0.2205 0.1306 -0.9666
vn 0.0221 0.0024 -0.9998
vn 0.0578 -0.1853 -0.9810
vn -0.0060 -0.0180 -0.9998
vn 0.0057 -0.0209 -0.9998
vn -0.0126 0.0139 -0.9998
vn 0.0071 0.0038 -1.0000
vn -0.0006 -0.0035 -1.0000
vn 0.9587 0.1964 -0.2056
vn 0.9787 -0.0010 -0.2051
vn 0.9936 -0.0509 -0.1004
vn -0.9730 -0.2290 -0.0284
vn -0.5460 0.7066 0.4501
vn 0.3166 0.9370 -0.1475
vn 0.2008 0.9691 -0.1433
vn -0.0212 0.9921 0.1237
vn 0.3166 0.9091 0.2706
vn -0.6760 0.7255 -0.1290
vn -0.8174 0.5573 -0.1459
vn -0.6260 0.7794 -0.0259
vn -0.9109 0.3826 -0.1548
vn -0.9699 0.1993 -0.1400
vn -0.9800 0.0342 -0.1962
vn -0.5491 0.8252 -0.1326
vn -0.5841 0.8113 -0.0261
vn -0.9767 -0.2127 -0.0298
vn -0.9872 -0.1488 -0.0582
vn -0.9885 -0.1449 -0.0429
vn -0.9730 -0.2290 -0.0282
vn -0.9730 -0.2290 -0.0283
vn -0.9705 -0.2284 -0.0769
vn -0.4180 -0.2559 0.8717
vn -0.4088 -0.2654 0.8731
vn -0.4095 -0.2644 0.8732
vn -0.9686 -0.2469 -0.0296
vn 0.7045 -0.6907 -0.1631
vn 0.7924 -0.5890 -0.1587
vn 0.7400 -0.6724 -0.0156
vn 0.7233 -0.6904 -0.0144
vn 0.2215 -0.8979 -0.3803
vn 0.1780 -0.9295 -0.3231
vn 0.5697 -0.6480 -0.5055
vn 0.8002 -0.5881 0.1175
vn -0.2867 0.9007 -0.3265
vn -0.8310 0.5219 -0.1924
vn -0.8526 0.4265 -0.3019
vn -0.8487 0.4645 -0.2528
vn -0.8399 0.5276 -0.1275
vn -0.8760 0.4416 -0.1938
vn -0.9474 -0.1937 -0.2546
vn -0.9279 -0.2403 -0.2852
vn -0.9801 -0.0235 -0.1971
vn -0.9626 -0.0974 -0.2528
vn -0.9439 -0.2942 -0.1498
vn -0.7505 -0.6435 -0.1505
vn -0.9563 -0.2798 -0.0850
vn -0.9554 -0.2591 -0.1416
vn -0.9476 -0.3185 -0.0252
vn -0.9633 -0.2558 -0.0810
vn -0.9689 -0.2468 -0.0193
vn -0.9663 -0.2464 -0.0747
vn -0.9693 -0.2332 -0.0775
vn -0.4188 -0.2513 0.8726
vn -0.4110 -0.2593 0.8740
vn -0.4120 -0.2691 0.8705
vn -0.6878 -0.7031 -0.1805
vn 0.0052 -0.0074 -1.0000
vn 0.2782 0.7926 0.5426
vn 0.2781 0.7926 0.5426
vn -0.4076 -0.2708 0.8721
vn -0.2322 -0.1576 0.9598
vn -0.2346 -0.4160 0.8786
vn 0.0003 0.9894 -0.1454
vn -0.1886 0.9712 -0.1454
vn -0.3977 0.9064 -0.1423
vn -0.0399 0.6175 -0.7855
vn -0.6748 0.7331 -0.0854
vn 0.1590 0.8590 -0.4867
vn -0.9514 0.1229 -0.2825
vn -0.8351 -0.4685 -0.2882
vn -0.9589 0.0110 -0.2835
vn -0.4899 -0.4675 -0.7359
vn -0.3748 -0.0429 0.9261
vn -0.3604 -0.0324 0.9322
vn -0.2580 -0.9536 -0.1554
vn -0.2750 -0.9500 -0.1480
vn -0.2519 -0.9521 -0.1732
vn -0.2743 -0.9294 -0.2470
vn -0.2346 -0.9255 -0.2972
vn -0.2728 -0.9295 -0.2482
vn -0.4613 -0.7154 -0.5247
vn -0.2387 -0.9511 -0.1958
vn -0.1237 -0.9610 -0.2472
vn -0.0924 -0.9647 -0.2465
vn 0.1797 -0.9655 -0.1882
vn 0.4008 -0.9158 -0.0245
vn 0.2426 -0.9382 -0.2468
vn 0.0938 -0.9793 -0.1793
vn -0.9474 0.1937 -0.2546
vn -0.9476 0.1427 -0.2858
vn 0.6911 -0.7153 0.1029
vn 0.6959 -0.7111 0.0999
vn 0.6924 -0.7138 0.1053
vn 0.7076 -0.7017 0.0836
vn 0.9006 0.3852 -0.2014
vn 0.8151 0.5490 -0.1849
vn 0.6881 0.7043 -0.1746
vn 0.5594 0.8039 -0.2020
vn 0.0174 -0.0070 -0.9998
vn -0.2718 -0.9497 -0.1559
vn -0.2869 -0.9436 -0.1653
vn -0.2662 -0.9488 -0.1700
vn -0.2717 -0.9495 -0.1570
vn 0.9056 -0.3831 -0.1820
vn 0.9616 -0.1923 -0.1960
vn 0.5275 0.8121 -0.2495
vn 0.4470 0.8595 -0.2478
vn 0.4457 0.8599 -0.2489
vn -0.9820 -0.1717 -0.0787
vn 0.0229 0.9729 -0.2301
vn -0.5303 -0.7910 -0.3051
vn 0.1048 -0.1475 -0.9835
vn -0.0253 -0.0101 -0.9996
vn -0.4377 -0.8593 -0.2647
vn -0.1123 -0.8271 -0.5507
vn 0.0283 -0.9870 0.1581
vn -0.0911 -0.9645 -0.2477
vn -0.0678 -0.9536 -0.2935
vn -0.0000 -0.9687 -0.2483
vn 0.1036 -0.9755 0.1938
vn 0.0911 -0.9646 -0.2477
vn 0.2408 -0.9384 -0.2477
vn 0.2730 -0.9295 -0.2481
vn 0.4920 -0.8639 -0.1072
vn 0.4537 -0.8837 -0.1149
vn 0.7071 -0.6956 0.1270
vn 0.6824 -0.7286 0.0582
vn 0.6951 -0.7104 0.1102
vn 0.6692 -0.7428 0.0227
vn 0.6959 -0.7113 0.0985
vn 0.6919 -0.7146 0.1032
vn 0.6001 -0.7954 -0.0851
vn 0.6002 -0.7945 -0.0920
vn 0.5996 -0.7965 -0.0781
vn 0.6959 -0.7114 0.0978
vn 0.6959 -0.7114 0.0979
vn 0.6959 -0.7114 0.0982
vn 0.6975 -0.7131 -0.0707
vn 0.6954 -0.7144 -0.0772
vn 0.6354 0.7565 0.1552
vn 0.7404 0.6236 -0.2509
vn 0.6440 0.7228 -0.2505
vn 0.6051 0.7559 -0.2501
vn 0.6191 -0.7722 -0.1430
vn 0.6051 -0.7559 -0.2501
vn 0.6961 -0.7144 -0.0708
vn 0.6839 -0.7260 -0.0724
vn 0.9096 -0.3295 -0.2531
vn 0.9239 -0.2868 -0.2534
vn 0.7944 -0.5706 -0.2082
vn 0.3466 0.9373 -0.0370
vn 0.6079 -0.7896 -0.0839
vn -0.1875 -0.9699 -0.1552
vt 0.000000 0.000000
vt 1.000000 0.000000
vt 1.000000 1.000000
vt 1.000000 0.000000
vt 0.000000 0.000000
vt 1.000000 1.000000
vt 0.000000 0.000000
vt 1.000000 0.000000
vt 1.000000 0.000000
vt 0.000000 0.000000
vt 0.000000 0.000000
vt 0.961138 0.806039
vt 0.726414 0.096004
vt 0.000000 0.000000
vt 0.266919 0.266919
vt 0.616773 0.267499
vt 0.841699 0.841699
vt 0.922623 0.752957
vt 0.734435 0.533908
vt 0.567310 0.311150
vt 0.593704 0.355524
vt 0.861263 0.861263
vt 0.954194 0.856002
vt 0.900451 0.868197
vt 0.884823 0.884823
vt 0.979935 0.881618
vt 0.902176 0.174674
vt 0.000000 0.000000
vt 0.906271 0.906271
vt 0.871322 0.871322
vt 0.878361 0.177741
vt 0.863173 0.863173
vt 0.000000 0.000000
vt 0.893253 0.069900
vt 0.000000 0.000000
vt 0.823469 0.823469
vt 0.974639 0.833017
vt 0.922076 0.852811
vt 1.000000 0.136277
vt 0.000000 0.000000
vt 0.603941 0.590110
vt 0.945750 0.945750
vt 1.000000 0.945750
vt 0.130350 0.000000
vt 0.000000 0.000000
vt 0.000000 0.000000
vt 0.594486 0.540558
vt 0.064217 0.000000
vt 0.053498 0.000000
vt 0.935783 0.000000
vt 0.000000 0.000000
vt 0.733183 0.125861
vt 0.730163 0.112206
vt 0.587594 0.271703
vt 0.569363 0.280014
vt 0.726867 0.098295
vt 0.729191 0.108441
vt 0.828522 0.911220
vt 0.000000 0.000000
vt 0.171951 0.911222
vt 0.000000 0.000000
vt 0.584763 0.872722
vt 0.180120 0.337806
vt 0.305750 0.882135
vt 0.205968 0.068060
vt 0.694709 0.882134
vt 0.154353 0.327438
vt 0.332891 0.878833
vt 0.855301 0.918972
vt 0.233798 0.068060
vt 0.721646 0.886146
vt 0.131133 0.312389
vt 0.000000 0.000000
vt 0.360280 0.876193
vt 0.111353 0.293234
vt 0.387885 0.874169
vt 0.000000 0.000000
vt 0.909016 0.935299
vt 0.882110 0.927094
vt 0.084989 0.245685
vt 0.095772 0.270711
vt 0.443690 0.871813
vt 0.471895 0.871387
vt 0.079418 0.219118
vt 0.415689 0.872724
vt 0.361968 0.219120
vt 0.091466 0.935301
vt 0.000000 0.000000
vt 0.936482 0.943142
vt 0.528557 0.871386
vt 0.500226 0.871451
vt 0.000000 0.000000
vt 0.118369 0.927095
vt 0.556761 0.871812
vt 0.000000 0.000000
vt 0.000000 0.000000
vt 0.198708 0.903988
vt 0.225427 0.897360
vt 0.748356 0.891389
vt 0.612568 0.874168
vt 0.000000 0.000000
vt 0.252109 0.891391
vt 0.775040 0.897359
vt 0.000000 0.000000
vt 0.000000 0.000000
vt 0.640175 0.876192
vt 0.207443 0.343091
vt 0.278816 0.886147
vt 0.275650 0.867646
vt 0.801763 0.903986
vt 0.000000 0.000000
vt 0.667566 0.878832
vt 0.290834 0.780649
vt 0.855394 0.808806
vt 0.000000 0.000000
vt 0.704776 0.813318
vt 0.709624 0.780639
vt 0.320177 0.776166
vt 0.000000 0.000000
vt 0.875346 0.848787
vt 0.884462 0.815909
vt 0.738882 0.785531
vt 0.353271 0.805422
vt 0.349650 0.772133
vt 0.903620 0.856731
vt 0.000000 0.000000
vt 0.913614 0.823700
vt 0.000000 0.000000
vt 0.382289 0.802288
vt 0.379274 0.768595
vt 0.943015 0.832314
vt 0.409110 0.765608
vt 0.960722 0.876061
vt 0.000000 0.000000
vt 0.027355 0.841793
vt 0.973130 0.841779
vt 0.439220 0.763278
vt 0.057467 0.832328
vt 0.469619 0.761778
vt 0.096859 0.856741
vt 0.086865 0.823714
vt 0.500223 0.761310
vt 0.125129 0.848797
vt 0.116013 0.815923
vt 0.530828 0.761776
vt 0.145079 0.808819
vt 0.559595 0.797793
vt 0.561228 0.763274
vt 0.174139 0.802292
vt 0.000000 0.000000
vt 0.591339 0.765603
vt 0.203238 0.796271
vt 0.761757 0.823114
vt 0.768088 0.790691
vt 0.621177 0.768587
vt 0.000000 0.000000
vt 0.232375 0.790702
vt 0.790228 0.828712
vt 0.797228 0.796258
vt 0.647182 0.805415
vt 0.650803 0.772125
vt 0.267179 0.818138
vt 0.261579 0.785543
vt 0.818662 0.834845
vt 0.826330 0.802279
vt 0.000000 0.000000
vt 0.676055 0.809096
vt 0.680278 0.776157
vt 0.250365 0.108079
vt 0.230221 0.104183
vt 0.324607 0.195580
vt 0.320817 0.235137
vt 0.324714 0.215550
vt 0.210791 0.306947
vt 0.231308 0.306946
vt 0.171651 0.295407
vt 0.154532 0.284312
vt 0.190647 0.303050
vt 0.128462 0.253586
vt 0.139949 0.270191
vt 0.120512 0.235136
vt 0.116404 0.215549
vt 0.116297 0.195579
vt 0.209704 0.104183
vt 0.189602 0.108078
vt 0.226290 0.143440
vt 0.213721 0.143440
vt 0.189819 0.150508
vt 0.269689 0.165957
vt 0.238630 0.145827
vt 0.284114 0.199432
vt 0.277042 0.234969
vt 0.270114 0.245141
vt 0.281792 0.223665
vt 0.000000 0.000000
vt 0.276727 0.176129
vt 0.226956 0.267657
vt 0.239271 0.265270
vt 0.261272 0.253792
vt 0.214387 0.267657
vt 0.179922 0.253791
vt 0.170988 0.245140
vt 0.159080 0.223664
vt 0.163950 0.234968
vt 0.158885 0.187432
vt 0.156563 0.211665
vt 0.163635 0.176129
vt 0.179405 0.157305
vt 0.222581 0.227409
vt 0.237628 0.191600
vt 0.209713 0.224920
vt 0.241889 0.211919
vt 0.222347 0.183672
vt 0.198681 0.211919
vt 0.206020 0.222527
vt 0.202874 0.219480
vt 0.000000 0.000000
vt 0.213585 0.184512
vt 0.217921 0.183671
vt 0.209505 0.186160
s 0
usemtl Hammer.022
f 2/4/1 13/26/1 12/24/1 11/22/1 1/1/1
f 2/5/2 14/27/2 13/25/2
f 1/2/3 22/42/3 2/5/3
f 24/48/4 4/9/4 2/3/4
f 4/10/5 3/8/5 2/3/5
f 20/39/6 3/6/6 4/10/6 24/50/6
f 17/34/48 3/7/48 16/32/48
s 1
f 3/7/49 21/41/49 16/32/49
s 0
f 21/41/49 20/40/49 16/32/49
f 26/53/62 28/57/63 17/33/48
f 28/57/64 5/11/65 17/33/65
f 5/11/66 18/35/66 17/33/66
f 18/35/48 25/51/48 17/33/48
f 25/51/48 3/7/48 17/34/48
f 69/131/67 26/52/67 17/33/67
f 18/37/68 2/5/69 3/8/70
f 20/40/49 21/41/49 3/7/49
f 25/51/48 18/35/48 3/8/71
f 79/143/82 43/92/83 77/141/83
f 39/77/86 65/126/86 69/131/86 71/133/87
s 1
f 18/36/91 5/12/92 69/131/90
s 0
f 5/13/93 28/56/94 69/131/95
s 1
f 28/57/96 26/53/97 69/131/98
f 19/38/99 2/5/100 18/37/101
s 0
f 22/43/104 23/46/104 2/4/104
s 1
f 23/47/53 24/49/52 2/4/105
s 0
f 19/38/106 14/27/107 2/5/108
s 1
f 15/31/119 14/29/119 19/38/120
s 0
f 89/154/121 15/30/122 19/38/123
f 92/158/125 50/104/126 89/154/126
f 41/88/135 71/134/135 74/138/135 76/140/136
f 11/23/137 6/14/138 1/2/139
s 1
f 6/15/75 22/44/74 1/2/140
s 0
f 89/154/146 19/38/147 18/37/148 93/159/149
f 63/123/154 37/73/154 59/118/154
f 69/131/155 17/34/155 16/32/155 72/136/155
f 103/171/158 113/195/159 29/59/159
f 47/99/162 62/122/163 88/153/164
f 33/66/166 57/115/167 62/122/167
f 54/111/169 100/166/169 58/117/169
s 1
f 95/161/16 11/22/170 12/24/171
f 8/18/172 9/19/173 11/23/174
f 9/19/173 10/21/175 11/23/174
s 0
f 10/20/176 6/14/176 11/23/177
f 95/161/178 8/17/179 11/23/180
s 1
f 10/20/181 27/55/181 6/14/182
f 27/54/181 7/16/183 6/14/182
s 0
f 7/16/184 90/156/184 6/15/185
f 40/85/186 67/128/187 70/132/187
f 37/73/189 63/123/189 68/130/189
f 94/160/191 51/105/191 90/155/191
f 7/16/192 27/54/192 90/156/192
f 27/55/193 10/20/193 90/156/193
f 83/147/195 44/95/195 81/145/195
f 59/119/197 23/47/197 22/45/197 64/124/197
f 9/19/198 8/18/198 95/161/198
f 14/29/199 15/31/199 89/154/199 62/122/199
s 1
usemtl GripBottom.002
f 60/120/7 61/121/8 66/127/9 65/125/10
f 92/158/11 93/159/12 99/165/13 98/164/14
f 94/160/15 95/161/16 101/168/17 100/167/18
f 40/80/19 108/181/20 107/179/21
f 32/63/22 106/178/23 105/174/24 52/107/25
f 34/67/26 106/178/23 32/63/22
f 36/70/27 102/170/28 110/184/29 33/65/30
f 37/72/31 106/176/23 34/67/26
f 38/75/32 107/180/21 106/177/23 37/72/31
f 107/180/21 115/201/33 106/177/23
f 107/179/21 116/204/34 115/202/33
f 104/173/35 113/191/36 103/171/37
f 108/181/20 116/204/34 107/179/21
f 108/182/20 117/206/38 116/203/34
f 109/183/39 117/206/38 108/182/20
f 102/169/28 112/190/40 111/186/41
f 105/174/24 115/200/33 114/197/42
f 106/178/23 115/200/33 105/174/24
f 102/170/28 111/187/41 110/184/29
f 117/206/38 120/214/43 116/203/34
f 115/200/33 119/209/44 114/197/42
f 113/196/36 119/210/44 112/189/40
f 115/201/33 120/215/43 119/211/44
f 116/204/34 120/216/43 115/202/33
f 40/81/19 107/180/21 38/75/32
f 40/83/19 75/139/45 78/142/46 42/91/47
f 59/118/50 55/113/51 24/49/52 23/47/53
f 82/146/54 80/144/55 16/32/56
f 80/144/55 77/141/57 16/32/56
f 77/141/57 74/138/58 16/32/56
f 74/138/58 72/135/59 16/32/56
f 85/149/60 82/146/54 16/32/56 20/40/61
f 90/155/72 86/151/73 22/44/74 6/15/75
f 94/160/15 100/167/18 54/112/76 51/105/77
f 31/62/78 86/151/73 90/155/72 48/100/79
f 30/60/80 80/144/55 82/146/54
f 30/60/80 79/143/81 80/144/55
f 79/143/81 77/141/57 80/144/55
f 43/92/84 76/140/85 77/141/57
f 76/140/85 74/138/58 77/141/57
f 71/133/88 72/136/59 74/138/58
f 71/133/88 69/131/89 72/136/59
f 65/125/10 66/127/9 69/131/90
f 66/127/9 18/35/91 69/131/90
f 66/127/9 61/121/8 18/37/91
f 61/121/8 56/114/102 18/37/91
f 56/114/102 99/165/13 18/37/91
f 99/165/13 93/159/12 18/37/91
f 121/218/103 111/187/41 112/190/40 119/213/44
f 119/212/44 113/192/36 114/199/42
f 55/113/51 97/163/109 24/49/52
f 97/163/109 91/157/110 24/49/52
f 91/157/110 87/152/111 24/50/52
f 32/64/22 55/113/51 59/118/50 34/68/26
f 46/98/112 30/60/80 45/97/113
f 46/98/112 49/102/114 30/60/80
f 49/102/114 52/108/25 30/60/80
f 52/107/25 105/174/24 30/60/80
f 105/175/24 114/198/42 30/60/80
f 114/199/42 113/193/36 30/60/80
f 113/194/36 104/172/35 30/60/80
f 104/173/35 41/86/115 30/60/80
f 41/87/115 43/93/84 30/60/80
f 43/92/84 79/143/81 30/60/80
f 43/93/84 41/87/115 76/140/85
f 41/89/115 39/78/116 71/133/117
f 41/89/115 29/59/118 39/78/116
f 46/98/112 45/96/113 85/149/60 87/152/111
f 60/120/7 29/59/118 61/121/8
f 29/59/118 56/114/102 61/121/8
f 29/59/118 99/165/13 56/114/102
f 29/59/118 98/164/14 99/165/13
f 92/158/11 89/154/124 93/159/12
f 50/104/127 88/153/128 89/154/129
f 88/153/128 62/122/130 89/154/129
f 58/117/131 101/168/17 13/25/132 14/27/133
f 62/122/134 58/117/131 14/28/133
f 30/60/80 82/146/54 85/149/60 45/97/113
f 78/142/46 75/139/45 22/45/74
f 75/139/45 73/137/141 22/45/74
f 73/137/141 70/132/142 22/45/74
f 70/132/142 68/130/143 22/45/74
f 68/130/143 64/124/144 22/45/74
f 117/205/38 118/207/145 121/219/103 120/217/43
f 86/151/73 84/148/150 22/44/74
f 84/148/150 81/145/151 22/44/74
f 81/145/151 78/142/46 22/45/74
f 64/124/144 63/123/152 59/118/153
f 37/74/31 34/68/26 59/118/50
f 32/64/22 97/163/109 55/113/51
f 32/64/22 96/162/156 97/163/109
f 96/162/156 49/101/114 97/163/109
f 49/101/114 91/157/110 97/163/109
f 96/162/156 52/108/25 49/102/114
f 96/162/156 32/64/22 52/109/25
f 24/50/52 87/152/111 85/150/60 20/40/61
f 103/171/37 29/59/118 104/173/35
f 29/59/118 41/89/115 104/173/35
f 60/120/7 35/69/157 29/58/118
f 35/69/157 39/79/116 29/59/118
f 113/196/36 112/189/40 29/59/118
f 112/190/40 102/169/28 29/59/118
f 102/170/28 36/70/27 29/59/118
f 36/71/27 47/99/160 29/59/118
f 47/99/160 50/103/127 29/59/118
f 50/103/127 53/110/161 29/58/118
f 53/110/161 98/164/14 29/59/118
f 49/102/114 46/98/112 87/152/111 91/157/110
f 47/99/160 88/153/128 50/104/127
f 47/99/160 36/71/27 62/122/165
f 36/71/27 33/66/30 62/122/165
f 57/116/168 58/117/131 62/122/134
f 57/116/168 54/111/76 58/117/131
f 100/167/18 101/168/17 58/117/131
f 40/82/19 73/137/141 75/139/45
f 42/91/47 78/142/46 81/145/151
f 40/85/19 70/132/142 73/137/141
f 35/69/157 60/120/7 65/126/10 39/79/116
f 67/129/188 68/130/143 70/132/142
f 67/129/188 37/73/31 68/130/143
f 63/123/152 64/124/144 68/130/143
f 95/161/16 94/160/15 90/155/190
f 51/106/77 48/100/79 90/155/72
f 101/168/17 95/161/16 12/24/171 13/26/132
f 31/62/78 84/148/150 86/151/73
f 31/62/78 83/147/194 84/148/150
f 83/147/194 81/145/151 84/148/150
f 44/94/196 42/90/47 81/145/151
f 67/129/188 38/76/32 37/74/31
f 120/217/43 121/219/103 119/213/44
f 9/19/173 95/161/16 90/156/190 10/21/175
f 110/184/29 31/61/78 33/65/30
f 31/61/78 54/112/76 33/66/30
f 54/111/76 57/116/168 33/66/30
f 50/104/127 92/158/11 98/164/14 53/110/161
f 31/61/78 51/106/77 54/112/76
f 44/94/196 31/62/78 42/90/47
f 31/62/78 40/83/19 42/91/47
f 31/62/78 108/182/20 40/84/19
f 38/76/32 67/129/188 40/85/19
f 31/62/78 48/100/79 51/106/77
f 110/185/29 111/188/41 31/61/78
f 111/188/41 118/208/145 31/61/78
f 118/207/145 117/205/38 31/61/78
f 117/206/38 109/183/39 31/61/78
f 109/183/39 108/182/20 31/62/78
f 44/95/196 83/147/194 31/62/78
f 118/208/145 111/188/41 121/220/103
