# Blender 3.3.1
# www.blender.org
mtllib Star.mtl
o estrellica
v 5.147059 -0.150330 -6.845682
v 3.463660 -0.150329 -1.423974
v 8.227108 -0.150328 2.360325
v 2.151240 -0.150329 2.738194
v 0.423441 -0.150328 8.134439
v -2.212788 -0.150328 2.776181
v -7.479521 -0.150328 2.497020
v -3.597467 -0.150329 -1.362505
v -4.560166 -0.150328 -6.761207
v -0.089229 -0.150329 -3.958344
v 0.020900 1.000000 -0.241895
v 0.019747 -1.269531 -0.244273
v 5.147059 -0.150330 -6.845682
v 3.463660 -0.150329 -1.423974
v 8.227108 -0.150328 2.360325
v 2.151240 -0.150329 2.738194
v 0.423441 -0.150328 8.134439
v -2.212788 -0.150328 2.776181
v -7.479521 -0.150328 2.497020
v -3.597467 -0.150329 -1.362505
v -4.560166 -0.150328 -6.761207
v -0.089229 -0.150329 -3.958344
v 5.147059 -0.150330 -6.845682
v 3.463660 -0.150329 -1.423974
v 8.227108 -0.150328 2.360325
v 2.151240 -0.150329 2.738194
v 0.423441 -0.150328 8.134439
v -2.212788 -0.150328 2.776181
v -7.479521 -0.150328 2.497020
v -3.597467 -0.150329 -1.362505
v -4.560166 -0.150328 -6.761207
v -0.089229 -0.150329 -3.958344
vn 0.3482 0.9311 0.1081
vn 0.2184 0.9363 -0.2750
vn 0.0216 0.9378 0.3466
vn 0.3473 0.9312 0.1112
vn -0.2925 0.9454 0.1439
vn -0.0182 0.9387 0.3443
vn -0.2292 0.9457 -0.2306
vn -0.3184 0.9463 0.0568
vn 0.1853 0.9372 -0.2956
vn -0.1586 0.9445 -0.2876
vn -0.1549 -0.9472 -0.2809
vn 0.1809 -0.9402 -0.2886
vn -0.3107 -0.9489 0.0554
vn -0.2238 -0.9483 -0.2251
vn -0.0178 -0.9418 0.3358
vn -0.2854 -0.9481 0.1404
vn 0.3389 -0.9345 0.1085
vn 0.0210 -0.9409 0.3381
vn 0.2133 -0.9394 -0.2685
vn 0.3399 -0.9345 0.1055
vt 0.375000 0.312500
vt 0.625000 0.312500
vt 0.626409 0.064409
vt 0.400000 0.312500
vt 0.548284 0.007647
vt 0.425000 0.312500
vt 0.451716 0.007647
vt 0.450000 0.312500
vt 0.373591 0.064409
vt 0.475000 0.312500
vt 0.343750 0.156250
vt 0.500000 0.312500
vt 0.373591 0.248091
vt 0.525000 0.312500
vt 0.451716 0.304853
vt 0.550000 0.312500
vt 0.548284 0.304853
vt 0.575000 0.312500
vt 0.626409 0.248091
vt 0.600000 0.312500
vt 0.656250 0.156250
vt 0.500000 0.688440
vt 0.500000 0.156250
s 0
usemtl initialShadingGroup
f 1/1/1 11/22/1 2/4/1
f 2/4/2 11/22/2 3/6/2
f 3/6/3 11/22/3 4/8/3
f 4/8/4 11/22/4 5/10/4
f 5/10/5 11/22/5 6/12/5
f 6/12/6 11/22/6 7/14/6
f 7/14/7 11/22/7 8/16/7
f 8/16/8 11/22/8 9/18/8
f 9/18/9 11/22/9 10/20/9
f 10/20/10 11/22/10 1/2/10
f 1/3/11 12/23/11 10/21/11
f 10/21/12 12/23/12 9/19/12
f 9/19/13 12/23/13 8/17/13
f 8/17/14 12/23/14 7/15/14
f 7/15/15 12/23/15 6/13/15
f 6/13/16 12/23/16 5/11/16
f 5/11/17 12/23/17 4/9/17
f 4/9/18 12/23/18 3/7/18
f 3/7/19 12/23/19 2/5/19
f 2/5/20 12/23/20 1/3/20
l 13 14
l 14 15
l 15 16
l 16 17
l 17 18
l 18 19
l 19 20
l 20 21
l 21 22
l 23 24
l 24 25
l 25 26
l 26 27
l 27 28
l 28 29
l 29 30
l 30 31
l 31 32
l 13 22
l 23 32
